<?xml version="1.0" encoding="UTF-8" standalone="no"?>
<!DOCTYPE svg PUBLIC "-//W3C//DTD SVG 1.1//EN"
 "http://www.w3.org/Graphics/SVG/1.1/DTD/svg11.dtd">
<!-- Generated by graphviz version 2.40.1 (20161225.0304)
 -->
<!-- Title: md_pen_processo_eletronico Pages: 1 -->
<svg width="2404pt" height="1619pt"
 viewBox="0.00 0.00 2403.50 1619.00" xmlns="http://www.w3.org/2000/svg" xmlns:xlink="http://www.w3.org/1999/xlink">
<g id="graph0" class="graph" transform="scale(1 1) rotate(0) translate(4 1615)">
<title>md_pen_processo_eletronico</title>
<polygon fill="#ffffff" stroke="transparent" points="-4,4 -4,-1615 2399.5,-1615 2399.5,4 -4,4"/>
<!-- md_pen_processo_eletronico -->
<g id="node1" class="node">
<title>md_pen_processo_eletronico</title>
<polygon fill="#efefef" stroke="transparent" points="731,-135.5 731,-170.5 1108,-170.5 1108,-135.5 731,-135.5"/>
<polygon fill="none" stroke="#000000" points="731,-135.5 731,-170.5 1108,-170.5 1108,-135.5 731,-135.5"/>
<text text-anchor="start" x="737.6828" y="-148.3" font-family="Arial Bold" font-size="18.00" fill="#000000">md_pen_processo_eletronico</text>
<text text-anchor="start" x="973.7492" y="-148.3" font-family="Arial" font-size="14.00" fill="#000000">    </text>
<text text-anchor="start" x="1007.954" y="-148.3" font-family="Arial" font-size="14.00" fill="#666666">[BASE TABLE]</text>
<polygon fill="none" stroke="#000000" points="731,-105.5 731,-135.5 1108,-135.5 1108,-105.5 731,-105.5"/>
<text text-anchor="start" x="738" y="-116.9" font-family="Arial" font-size="14.00" fill="#000000">numero_registro </text>
<text text-anchor="start" x="843.791" y="-116.9" font-family="Arial" font-size="14.00" fill="#666666">[char(16)]</text>
<polygon fill="none" stroke="#000000" points="731,-75.5 731,-105.5 1108,-105.5 1108,-75.5 731,-75.5"/>
<text text-anchor="start" x="738" y="-86.9" font-family="Arial" font-size="14.00" fill="#000000">id_procedimento </text>
<text text-anchor="start" x="845.359" y="-86.9" font-family="Arial" font-size="14.00" fill="#666666">[bigint(20)]</text>
<polygon fill="none" stroke="#000000" points="731,-45.5 731,-75.5 1108,-75.5 1108,-45.5 731,-45.5"/>
<text text-anchor="start" x="738" y="-56.9" font-family="Arial" font-size="14.00" fill="#000000">sta_tipo_protocolo </text>
<text text-anchor="start" x="856.2622" y="-56.9" font-family="Arial" font-size="14.00" fill="#666666">[varchar(1)]</text>
<polygon fill="none" stroke="#000000" stroke-width="3" points="729,-44.5 729,-172.5 1109,-172.5 1109,-44.5 729,-44.5"/>
</g>
<!-- md_pen_componente_digital -->
<g id="node2" class="node">
<title>md_pen_componente_digital</title>
<polygon fill="#efefef" stroke="transparent" points="43,-1532.5 43,-1567.5 415,-1567.5 415,-1532.5 43,-1532.5"/>
<polygon fill="none" stroke="#000000" points="43,-1532.5 43,-1567.5 415,-1567.5 415,-1532.5 43,-1532.5"/>
<text text-anchor="start" x="49.6776" y="-1545.3" font-family="Arial Bold" font-size="18.00" fill="#000000">md_pen_componente_digital</text>
<text text-anchor="start" x="280.7544" y="-1545.3" font-family="Arial" font-size="14.00" fill="#000000">    </text>
<text text-anchor="start" x="314.9592" y="-1545.3" font-family="Arial" font-size="14.00" fill="#666666">[BASE TABLE]</text>
<polygon fill="none" stroke="#000000" points="43,-1502.5 43,-1532.5 415,-1532.5 415,-1502.5 43,-1502.5"/>
<text text-anchor="start" x="50" y="-1513.9" font-family="Arial" font-size="14.00" fill="#000000">numero_registro    </text>
<text text-anchor="start" x="186.1052" y="-1513.9" font-family="Arial" font-size="14.00" fill="#666666">[char(16)]</text>
<polygon fill="none" stroke="#000000" points="43,-1472.5 43,-1502.5 415,-1502.5 415,-1472.5 43,-1472.5"/>
<text text-anchor="start" x="50" y="-1483.9" font-family="Arial" font-size="14.00" fill="#000000">id_procedimento    </text>
<text text-anchor="start" x="187.6732" y="-1483.9" font-family="Arial" font-size="14.00" fill="#666666">[bigint(20)]</text>
<polygon fill="none" stroke="#000000" points="43,-1442.5 43,-1472.5 415,-1472.5 415,-1442.5 43,-1442.5"/>
<text text-anchor="start" x="50" y="-1453.9" font-family="Arial" font-size="14.00" fill="#000000">id_documento    </text>
<text text-anchor="start" x="172.1234" y="-1453.9" font-family="Arial" font-size="14.00" fill="#666666">[bigint(20)]</text>
<polygon fill="none" stroke="#000000" points="43,-1412.5 43,-1442.5 415,-1442.5 415,-1412.5 43,-1412.5"/>
<text text-anchor="start" x="50" y="-1423.9" font-family="Arial" font-size="14.00" fill="#000000">id_tramite    </text>
<text text-anchor="start" x="145.6508" y="-1423.9" font-family="Arial" font-size="14.00" fill="#666666">[bigint(20)]</text>
<polygon fill="none" stroke="#000000" points="43,-1382.5 43,-1412.5 415,-1412.5 415,-1382.5 43,-1382.5"/>
<text text-anchor="start" x="50" y="-1393.9" font-family="Arial" font-size="14.00" fill="#000000">id_anexo    </text>
<text text-anchor="start" x="141.007" y="-1393.9" font-family="Arial" font-size="14.00" fill="#666666">[int(11)]</text>
<polygon fill="none" stroke="#000000" points="43,-1352.5 43,-1382.5 415,-1382.5 415,-1352.5 43,-1352.5"/>
<text text-anchor="start" x="50" y="-1363.9" font-family="Arial" font-size="14.00" fill="#000000">protocolo    </text>
<text text-anchor="start" x="141.7756" y="-1363.9" font-family="Arial" font-size="14.00" fill="#666666">[varchar(50)]</text>
<polygon fill="none" stroke="#000000" points="43,-1322.5 43,-1352.5 415,-1352.5 415,-1322.5 43,-1322.5"/>
<text text-anchor="start" x="50" y="-1333.9" font-family="Arial" font-size="14.00" fill="#000000">nome    </text>
<text text-anchor="start" x="119.2132" y="-1333.9" font-family="Arial" font-size="14.00" fill="#666666">[varchar(255)]</text>
<polygon fill="none" stroke="#000000" points="43,-1292.5 43,-1322.5 415,-1322.5 415,-1292.5 43,-1292.5"/>
<text text-anchor="start" x="50" y="-1303.9" font-family="Arial" font-size="14.00" fill="#000000">hash_conteudo    </text>
<text text-anchor="start" x="179.9214" y="-1303.9" font-family="Arial" font-size="14.00" fill="#666666">[varchar(255)]</text>
<polygon fill="none" stroke="#000000" points="43,-1262.5 43,-1292.5 415,-1292.5 415,-1262.5 43,-1262.5"/>
<text text-anchor="start" x="50" y="-1273.9" font-family="Arial" font-size="14.00" fill="#000000">algoritmo_hash    </text>
<text text-anchor="start" x="179.8906" y="-1273.9" font-family="Arial" font-size="14.00" fill="#666666">[varchar(20)]</text>
<polygon fill="none" stroke="#000000" points="43,-1232.5 43,-1262.5 415,-1262.5 415,-1232.5 43,-1232.5"/>
<text text-anchor="start" x="50" y="-1243.9" font-family="Arial" font-size="14.00" fill="#000000">tipo_conteudo    </text>
<text text-anchor="start" x="172.136" y="-1243.9" font-family="Arial" font-size="14.00" fill="#666666">[char(3)]</text>
<polygon fill="none" stroke="#000000" points="43,-1202.5 43,-1232.5 415,-1232.5 415,-1202.5 43,-1202.5"/>
<text text-anchor="start" x="50" y="-1213.9" font-family="Arial" font-size="14.00" fill="#000000">mime_type    </text>
<text text-anchor="start" x="152.6536" y="-1213.9" font-family="Arial" font-size="14.00" fill="#666666">[varchar(100)]</text>
<polygon fill="none" stroke="#000000" points="43,-1172.5 43,-1202.5 415,-1202.5 415,-1172.5 43,-1172.5"/>
<text text-anchor="start" x="50" y="-1183.9" font-family="Arial" font-size="14.00" fill="#000000">dados_complementares    </text>
<text text-anchor="start" x="233.575" y="-1183.9" font-family="Arial" font-size="14.00" fill="#666666">[varchar(1000)]</text>
<polygon fill="none" stroke="#000000" points="43,-1142.5 43,-1172.5 415,-1172.5 415,-1142.5 43,-1142.5"/>
<text text-anchor="start" x="50" y="-1153.9" font-family="Arial" font-size="14.00" fill="#000000">tamanho    </text>
<text text-anchor="start" x="138.669" y="-1153.9" font-family="Arial" font-size="14.00" fill="#666666">[bigint(20)]</text>
<polygon fill="none" stroke="#000000" points="43,-1112.5 43,-1142.5 415,-1142.5 415,-1112.5 43,-1112.5"/>
<text text-anchor="start" x="50" y="-1123.9" font-family="Arial" font-size="14.00" fill="#000000">ordem    </text>
<text text-anchor="start" x="123.8738" y="-1123.9" font-family="Arial" font-size="14.00" fill="#666666">[int(11)]</text>
<polygon fill="none" stroke="#000000" points="43,-1082.5 43,-1112.5 415,-1112.5 415,-1082.5 43,-1082.5"/>
<text text-anchor="start" x="50" y="-1093.9" font-family="Arial" font-size="14.00" fill="#000000">sin_enviar    </text>
<text text-anchor="start" x="147.9916" y="-1093.9" font-family="Arial" font-size="14.00" fill="#666666">[char(1)]</text>
<polygon fill="none" stroke="#000000" points="43,-1052.5 43,-1082.5 415,-1082.5 415,-1052.5 43,-1052.5"/>
<text text-anchor="start" x="50" y="-1063.9" font-family="Arial" font-size="14.00" fill="#000000">codigo_especie    </text>
<text text-anchor="start" x="181.4614" y="-1063.9" font-family="Arial" font-size="14.00" fill="#666666">[int(11)]</text>
<polygon fill="none" stroke="#000000" points="43,-1022.5 43,-1052.5 415,-1052.5 415,-1022.5 43,-1022.5"/>
<text text-anchor="start" x="50" y="-1033.9" font-family="Arial" font-size="14.00" fill="#000000">nome_especie_produtor    </text>
<text text-anchor="start" x="235.1402" y="-1033.9" font-family="Arial" font-size="14.00" fill="#666666">[varchar(255)]</text>
<polygon fill="none" stroke="#000000" points="43,-992.5 43,-1022.5 415,-1022.5 415,-992.5 43,-992.5"/>
<text text-anchor="start" x="50" y="-1003.9" font-family="Arial" font-size="14.00" fill="#000000">ordem_documento    </text>
<text text-anchor="start" x="200.9032" y="-1003.9" font-family="Arial" font-size="14.00" fill="#666666">[int(11)]</text>
<polygon fill="none" stroke="#000000" points="43,-962.5 43,-992.5 415,-992.5 415,-962.5 43,-962.5"/>
<text text-anchor="start" x="50" y="-973.9" font-family="Arial" font-size="14.00" fill="#000000">id_procedimento_anexado    </text>
<text text-anchor="start" x="249.1514" y="-973.9" font-family="Arial" font-size="14.00" fill="#666666">[bigint(20)]</text>
<polygon fill="none" stroke="#000000" points="43,-932.5 43,-962.5 415,-962.5 415,-932.5 43,-932.5"/>
<text text-anchor="start" x="50" y="-943.9" font-family="Arial" font-size="14.00" fill="#000000">protocolo_procedimento_anexado    </text>
<text text-anchor="start" x="295.833" y="-943.9" font-family="Arial" font-size="14.00" fill="#666666">[varchar(50)]</text>
<polygon fill="none" stroke="#000000" points="43,-902.5 43,-932.5 415,-932.5 415,-902.5 43,-902.5"/>
<text text-anchor="start" x="50" y="-913.9" font-family="Arial" font-size="14.00" fill="#000000">ordem_documento_anexado    </text>
<text text-anchor="start" x="262.3814" y="-913.9" font-family="Arial" font-size="14.00" fill="#666666">[int(11)]</text>
<polygon fill="none" stroke="#000000" points="43,-872.5 43,-902.5 415,-902.5 415,-872.5 43,-872.5"/>
<text text-anchor="start" x="50" y="-883.9" font-family="Arial" font-size="14.00" fill="#000000">ordem_documento_referenciado    </text>
<text text-anchor="start" x="286.4824" y="-883.9" font-family="Arial" font-size="14.00" fill="#666666">[int(11)]</text>
<polygon fill="none" stroke="#000000" points="43,-842.5 43,-872.5 415,-872.5 415,-842.5 43,-842.5"/>
<text text-anchor="start" x="50" y="-853.9" font-family="Arial" font-size="14.00" fill="#000000">id_anexo_imutavel    </text>
<text text-anchor="start" x="200.9018" y="-853.9" font-family="Arial" font-size="14.00" fill="#666666">[bigint(20)]</text>
<polygon fill="none" stroke="#000000" points="43,-812.5 43,-842.5 415,-842.5 415,-812.5 43,-812.5"/>
<text text-anchor="start" x="50" y="-823.9" font-family="Arial" font-size="14.00" fill="#000000">tarja_legada    </text>
<text text-anchor="start" x="161.23" y="-823.9" font-family="Arial" font-size="14.00" fill="#666666">[char(1)]</text>
</g>
<!-- md_pen_componente_digital&#45;&gt;md_pen_processo_eletronico -->
<g id="edge1" class="edge">
<title>md_pen_componente_digital:numero_registro&#45;&gt;md_pen_processo_eletronico:numero_registro</title>
<path fill="none" stroke="#000000" d="M424.5856,-1514.2232C494.266,-1463.8195 448.972,-847.7795 467,-770 537.3587,-466.4457 419.3984,-120.5 731,-120.5"/>
<polygon fill="#000000" stroke="#000000" points="424.4624,-1514.2652 413.5444,-1513.2419 419.7312,-1515.8826 415,-1517.5 415,-1517.5 415,-1517.5 419.7312,-1515.8826 416.4556,-1521.7581 424.4624,-1514.2652 424.4624,-1514.2652"/>
</g>
<!-- md_pen_tramite -->
<g id="node3" class="node">
<title>md_pen_tramite</title>
<polygon fill="#efefef" stroke="transparent" points="773,-655.5 773,-690.5 1066,-690.5 1066,-655.5 773,-655.5"/>
<polygon fill="none" stroke="#000000" points="773,-655.5 773,-690.5 1066,-690.5 1066,-655.5 773,-655.5"/>
<text text-anchor="start" x="790.7036" y="-668.3" font-family="Arial Bold" font-size="18.00" fill="#000000">md_pen_tramite</text>
<text text-anchor="start" x="920.7284" y="-668.3" font-family="Arial" font-size="14.00" fill="#000000">    </text>
<text text-anchor="start" x="954.9332" y="-668.3" font-family="Arial" font-size="14.00" fill="#666666">[BASE TABLE]</text>
<polygon fill="none" stroke="#000000" points="773,-625.5 773,-655.5 1066,-655.5 1066,-625.5 773,-625.5"/>
<text text-anchor="start" x="780" y="-636.9" font-family="Arial" font-size="14.00" fill="#000000">numero_registro    </text>
<text text-anchor="start" x="916.1052" y="-636.9" font-family="Arial" font-size="14.00" fill="#666666">[char(16)]</text>
<polygon fill="none" stroke="#000000" points="773,-595.5 773,-625.5 1066,-625.5 1066,-595.5 773,-595.5"/>
<text text-anchor="start" x="780" y="-606.9" font-family="Arial" font-size="14.00" fill="#000000">id_tramite    </text>
<text text-anchor="start" x="875.6508" y="-606.9" font-family="Arial" font-size="14.00" fill="#666666">[bigint(20)]</text>
<polygon fill="none" stroke="#000000" points="773,-565.5 773,-595.5 1066,-595.5 1066,-565.5 773,-565.5"/>
<text text-anchor="start" x="780" y="-576.9" font-family="Arial" font-size="14.00" fill="#000000">dth_registro    </text>
<text text-anchor="start" x="888.1094" y="-576.9" font-family="Arial" font-size="14.00" fill="#666666">[datetime]</text>
<polygon fill="none" stroke="#000000" points="773,-535.5 773,-565.5 1066,-565.5 1066,-535.5 773,-535.5"/>
<text text-anchor="start" x="780" y="-546.9" font-family="Arial" font-size="14.00" fill="#000000">id_andamento    </text>
<text text-anchor="start" x="902.906" y="-546.9" font-family="Arial" font-size="14.00" fill="#666666">[int(11)]</text>
<polygon fill="none" stroke="#000000" points="773,-505.5 773,-535.5 1066,-535.5 1066,-505.5 773,-505.5"/>
<text text-anchor="start" x="780" y="-516.9" font-family="Arial" font-size="14.00" fill="#000000">id_usuario    </text>
<text text-anchor="start" x="878.7742" y="-516.9" font-family="Arial" font-size="14.00" fill="#666666">[int(11)]</text>
<polygon fill="none" stroke="#000000" points="773,-475.5 773,-505.5 1066,-505.5 1066,-475.5 773,-475.5"/>
<text text-anchor="start" x="780" y="-486.9" font-family="Arial" font-size="14.00" fill="#000000">id_unidade    </text>
<text text-anchor="start" x="882.6788" y="-486.9" font-family="Arial" font-size="14.00" fill="#666666">[int(11)]</text>
<polygon fill="none" stroke="#000000" points="773,-445.5 773,-475.5 1066,-475.5 1066,-445.5 773,-445.5"/>
<text text-anchor="start" x="780" y="-456.9" font-family="Arial" font-size="14.00" fill="#000000">id_repositorio_origem    </text>
<text text-anchor="start" x="948.7728" y="-456.9" font-family="Arial" font-size="14.00" fill="#666666">[int(11)]</text>
<polygon fill="none" stroke="#000000" points="773,-415.5 773,-445.5 1066,-445.5 1066,-415.5 773,-415.5"/>
<text text-anchor="start" x="780" y="-426.9" font-family="Arial" font-size="14.00" fill="#000000">id_estrutura_origem    </text>
<text text-anchor="start" x="938.6676" y="-426.9" font-family="Arial" font-size="14.00" fill="#666666">[int(11)]</text>
<polygon fill="none" stroke="#000000" points="773,-385.5 773,-415.5 1066,-415.5 1066,-385.5 773,-385.5"/>
<text text-anchor="start" x="780" y="-396.9" font-family="Arial" font-size="14.00" fill="#000000">id_repositorio_destino    </text>
<text text-anchor="start" x="951.1248" y="-396.9" font-family="Arial" font-size="14.00" fill="#666666">[int(11)]</text>
<polygon fill="none" stroke="#000000" points="773,-355.5 773,-385.5 1066,-385.5 1066,-355.5 773,-355.5"/>
<text text-anchor="start" x="780" y="-366.9" font-family="Arial" font-size="14.00" fill="#000000">id_estrutura_destino    </text>
<text text-anchor="start" x="941.0196" y="-366.9" font-family="Arial" font-size="14.00" fill="#666666">[int(11)]</text>
<polygon fill="none" stroke="#000000" points="773,-325.5 773,-355.5 1066,-355.5 1066,-325.5 773,-325.5"/>
<text text-anchor="start" x="780" y="-336.9" font-family="Arial" font-size="14.00" fill="#000000">sta_tipo_tramite    </text>
<text text-anchor="start" x="913.7798" y="-336.9" font-family="Arial" font-size="14.00" fill="#666666">[char(1)]</text>
<polygon fill="none" stroke="#000000" points="773,-295.5 773,-325.5 1066,-325.5 1066,-295.5 773,-295.5"/>
<text text-anchor="start" x="779.8696" y="-306.9" font-family="Arial" font-size="14.00" fill="#000000">ticket_envio_componentes    </text>
<text text-anchor="start" x="979.7938" y="-306.9" font-family="Arial" font-size="14.00" fill="#666666">[varchar(10)]</text>
</g>
<!-- md_pen_componente_digital&#45;&gt;md_pen_tramite -->
<g id="edge2" class="edge">
<title>md_pen_componente_digital:numero_registro&#45;&gt;md_pen_tramite:numero_registro</title>
<path fill="none" stroke="#000000" d="M424.4216,-1514.1427C491.6009,-1462.511 416.4835,-831.8283 467,-770 504.9324,-723.5737 541.3077,-756.1954 597,-734 679.2816,-701.2078 684.4247,-640.5 773,-640.5"/>
<polygon fill="#000000" stroke="#000000" points="424.4198,-1514.1433 413.4895,-1513.2611 419.7099,-1515.8216 415,-1517.5 415,-1517.5 415,-1517.5 419.7099,-1515.8216 416.5105,-1521.7389 424.4198,-1514.1433 424.4198,-1514.1433"/>
</g>
<!-- md_pen_tramite&#45;&gt;md_pen_processo_eletronico -->
<g id="edge4" class="edge">
<title>md_pen_tramite:numero_registro&#45;&gt;md_pen_processo_eletronico:numero_registro</title>
<path fill="none" stroke="#000000" d="M763.0032,-639.1872C654.7428,-610.4776 618.4646,-120.5 731,-120.5"/>
<polygon fill="#000000" stroke="#000000" points="763.0851,-639.1979 772.414,-644.9617 768.0426,-639.8489 773,-640.5 773,-640.5 773,-640.5 768.0426,-639.8489 773.586,-636.0383 763.0851,-639.1979 763.0851,-639.1979"/>
</g>
<!-- md_pen_rel_processo_apensado -->
<g id="node4" class="node">
<title>md_pen_rel_processo_apensado</title>
<polygon fill="#efefef" stroke="transparent" points="1170,-520.5 1170,-555.5 1578,-555.5 1578,-520.5 1170,-520.5"/>
<polygon fill="none" stroke="#000000" points="1170,-520.5 1170,-555.5 1578,-555.5 1578,-520.5 1170,-520.5"/>
<text text-anchor="start" x="1176.6686" y="-533.3" font-family="Arial Bold" font-size="18.00" fill="#000000">md_pen_rel_processo_apensado</text>
<text text-anchor="start" x="1443.7634" y="-533.3" font-family="Arial" font-size="14.00" fill="#000000">    </text>
<text text-anchor="start" x="1477.9682" y="-533.3" font-family="Arial" font-size="14.00" fill="#666666">[BASE TABLE]</text>
<polygon fill="none" stroke="#000000" points="1170,-490.5 1170,-520.5 1578,-520.5 1578,-490.5 1170,-490.5"/>
<text text-anchor="start" x="1177" y="-501.9" font-family="Arial" font-size="14.00" fill="#000000">numero_registro    </text>
<text text-anchor="start" x="1313.1052" y="-501.9" font-family="Arial" font-size="14.00" fill="#666666">[char(16)]</text>
<polygon fill="none" stroke="#000000" points="1170,-460.5 1170,-490.5 1578,-490.5 1578,-460.5 1170,-460.5"/>
<text text-anchor="start" x="1177" y="-471.9" font-family="Arial" font-size="14.00" fill="#000000">id_procedimento_apensado    </text>
<text text-anchor="start" x="1383.934" y="-471.9" font-family="Arial" font-size="14.00" fill="#666666">[bigint(20)]</text>
<polygon fill="none" stroke="#000000" points="1170,-430.5 1170,-460.5 1578,-460.5 1578,-430.5 1170,-430.5"/>
<text text-anchor="start" x="1177" y="-441.9" font-family="Arial" font-size="14.00" fill="#000000">protocolo    </text>
<text text-anchor="start" x="1268.7756" y="-441.9" font-family="Arial" font-size="14.00" fill="#666666">[varchar(50)]</text>
</g>
<!-- md_pen_rel_processo_apensado&#45;&gt;md_pen_processo_eletronico -->
<g id="edge3" class="edge">
<title>md_pen_rel_processo_apensado:numero_registro&#45;&gt;md_pen_processo_eletronico:numero_registro</title>
<path fill="none" stroke="#000000" d="M1159.8944,-503.4286C1092.5428,-473.1249 1190.9343,-120.5 1108,-120.5"/>
<polygon fill="#000000" stroke="#000000" points="1160.2037,-503.4919 1169.0964,-509.9083 1165.1018,-504.496 1170,-505.5 1170,-505.5 1170,-505.5 1165.1018,-504.496 1170.9036,-501.0917 1160.2037,-503.4919 1160.2037,-503.4919"/>
</g>
<!-- md_pen_recibo_tramite -->
<g id="node5" class="node">
<title>md_pen_recibo_tramite</title>
<polygon fill="#efefef" stroke="transparent" points="519,-1247.5 519,-1282.5 849,-1282.5 849,-1247.5 519,-1247.5"/>
<polygon fill="none" stroke="#000000" points="519,-1247.5 519,-1282.5 849,-1282.5 849,-1247.5 519,-1247.5"/>
<text text-anchor="start" x="525.698" y="-1260.3" font-family="Arial Bold" font-size="18.00" fill="#000000">md_pen_recibo_tramite</text>
<text text-anchor="start" x="714.734" y="-1260.3" font-family="Arial" font-size="14.00" fill="#000000">    </text>
<text text-anchor="start" x="748.9388" y="-1260.3" font-family="Arial" font-size="14.00" fill="#666666">[BASE TABLE]</text>
<polygon fill="none" stroke="#000000" points="519,-1217.5 519,-1247.5 849,-1247.5 849,-1217.5 519,-1217.5"/>
<text text-anchor="start" x="526" y="-1228.9" font-family="Arial" font-size="14.00" fill="#000000">numero_registro    </text>
<text text-anchor="start" x="662.1052" y="-1228.9" font-family="Arial" font-size="14.00" fill="#666666">[char(16)]</text>
<polygon fill="none" stroke="#000000" points="519,-1187.5 519,-1217.5 849,-1217.5 849,-1187.5 519,-1187.5"/>
<text text-anchor="start" x="526" y="-1198.9" font-family="Arial" font-size="14.00" fill="#000000">id_tramite    </text>
<text text-anchor="start" x="621.6508" y="-1198.9" font-family="Arial" font-size="14.00" fill="#666666">[bigint(20)]</text>
<polygon fill="none" stroke="#000000" points="519,-1157.5 519,-1187.5 849,-1187.5 849,-1157.5 519,-1157.5"/>
<text text-anchor="start" x="526" y="-1168.9" font-family="Arial" font-size="14.00" fill="#000000">dth_recebimento    </text>
<text text-anchor="start" x="664.4572" y="-1168.9" font-family="Arial" font-size="14.00" fill="#666666">[datetime]</text>
<polygon fill="none" stroke="#000000" points="519,-1127.5 519,-1157.5 849,-1157.5 849,-1127.5 519,-1127.5"/>
<text text-anchor="start" x="526" y="-1138.9" font-family="Arial" font-size="14.00" fill="#000000">hash_assinatura    </text>
<text text-anchor="start" x="662.906" y="-1138.9" font-family="Arial" font-size="14.00" fill="#666666">[varchar(1000)]</text>
<polygon fill="none" stroke="#000000" points="519,-1097.5 519,-1127.5 849,-1127.5 849,-1097.5 519,-1097.5"/>
<text text-anchor="start" x="526" y="-1108.9" font-family="Arial" font-size="14.00" fill="#000000">cadeia_certificado    </text>
<text text-anchor="start" x="673.0098" y="-1108.9" font-family="Arial" font-size="14.00" fill="#666666">[longtext]</text>
</g>
<!-- md_pen_recibo_tramite&#45;&gt;md_pen_tramite -->
<g id="edge5" class="edge">
<title>md_pen_recibo_tramite:numero_registro&#45;&gt;md_pen_tramite:numero_registro</title>
<path fill="none" stroke="#000000" d="M859.1501,-1231.1025C962.6855,-1199.4436 644.1211,-640.5 773,-640.5"/>
<polygon fill="#000000" stroke="#000000" points="858.9065,-1231.1359 848.3862,-1228.0421 853.9533,-1231.818 849,-1232.5 849,-1232.5 849,-1232.5 853.9533,-1231.818 849.6138,-1236.9579 858.9065,-1231.1359 858.9065,-1231.1359"/>
</g>
<!-- md_pen_recibo_tramite_enviado -->
<g id="node6" class="node">
<title>md_pen_recibo_tramite_enviado</title>
<polygon fill="#efefef" stroke="transparent" points="954,-1247.5 954,-1282.5 1357,-1282.5 1357,-1247.5 954,-1247.5"/>
<polygon fill="none" stroke="#000000" points="954,-1247.5 954,-1282.5 1357,-1282.5 1357,-1247.5 954,-1247.5"/>
<text text-anchor="start" x="960.6823" y="-1260.3" font-family="Arial Bold" font-size="18.00" fill="#000000">md_pen_recibo_tramite_enviado</text>
<text text-anchor="start" x="1222.7497" y="-1260.3" font-family="Arial" font-size="14.00" fill="#000000">    </text>
<text text-anchor="start" x="1256.9545" y="-1260.3" font-family="Arial" font-size="14.00" fill="#666666">[BASE TABLE]</text>
<polygon fill="none" stroke="#000000" points="954,-1217.5 954,-1247.5 1357,-1247.5 1357,-1217.5 954,-1217.5"/>
<text text-anchor="start" x="961" y="-1228.9" font-family="Arial" font-size="14.00" fill="#000000">numero_registro    </text>
<text text-anchor="start" x="1097.1052" y="-1228.9" font-family="Arial" font-size="14.00" fill="#666666">[char(16)]</text>
<polygon fill="none" stroke="#000000" points="954,-1187.5 954,-1217.5 1357,-1217.5 1357,-1187.5 954,-1187.5"/>
<text text-anchor="start" x="961" y="-1198.9" font-family="Arial" font-size="14.00" fill="#000000">id_tramite    </text>
<text text-anchor="start" x="1056.6508" y="-1198.9" font-family="Arial" font-size="14.00" fill="#666666">[bigint(20)]</text>
<polygon fill="none" stroke="#000000" points="954,-1157.5 954,-1187.5 1357,-1187.5 1357,-1157.5 954,-1157.5"/>
<text text-anchor="start" x="961" y="-1168.9" font-family="Arial" font-size="14.00" fill="#000000">dth_recebimento    </text>
<text text-anchor="start" x="1099.4572" y="-1168.9" font-family="Arial" font-size="14.00" fill="#666666">[datetime]</text>
<polygon fill="none" stroke="#000000" points="954,-1127.5 954,-1157.5 1357,-1157.5 1357,-1127.5 954,-1127.5"/>
<text text-anchor="start" x="961" y="-1138.9" font-family="Arial" font-size="14.00" fill="#000000">hash_assinatura    </text>
<text text-anchor="start" x="1097.906" y="-1138.9" font-family="Arial" font-size="14.00" fill="#666666">[varchar(1000)]</text>
<polygon fill="none" stroke="#000000" points="954,-1097.5 954,-1127.5 1357,-1127.5 1357,-1097.5 954,-1097.5"/>
<text text-anchor="start" x="961" y="-1108.9" font-family="Arial" font-size="14.00" fill="#000000">cadeia_certificado    </text>
<text text-anchor="start" x="1108.0098" y="-1108.9" font-family="Arial" font-size="14.00" fill="#666666">[longtext]</text>
</g>
<!-- md_pen_recibo_tramite_enviado&#45;&gt;md_pen_tramite -->
<g id="edge6" class="edge">
<title>md_pen_recibo_tramite_enviado:numero_registro&#45;&gt;md_pen_tramite:numero_registro</title>
<path fill="none" stroke="#000000" d="M943.8391,-1231.8552C881.1559,-1223.1995 941.4383,-1129.1342 954,-1055 979.2437,-906.0223 1040.7563,-882.9777 1066,-734 1072.9425,-693.0285 1107.5556,-640.5 1066,-640.5"/>
<polygon fill="#000000" stroke="#000000" points="944.0201,-1231.8666 953.715,-1236.991 949.01,-1232.1833 954,-1232.5 954,-1232.5 954,-1232.5 949.01,-1232.1833 954.285,-1228.009 944.0201,-1231.8666 944.0201,-1231.8666"/>
</g>
<!-- md_pen_recibo_tramite_hash -->
<g id="node7" class="node">
<title>md_pen_recibo_tramite_hash</title>
<polygon fill="#efefef" stroke="transparent" points="1461,-1247.5 1461,-1282.5 1840,-1282.5 1840,-1247.5 1461,-1247.5"/>
<polygon fill="none" stroke="#000000" points="1461,-1247.5 1461,-1282.5 1840,-1282.5 1840,-1247.5 1461,-1247.5"/>
<text text-anchor="start" x="1467.6856" y="-1260.3" font-family="Arial Bold" font-size="18.00" fill="#000000">md_pen_recibo_tramite_hash</text>
<text text-anchor="start" x="1705.7464" y="-1260.3" font-family="Arial" font-size="14.00" fill="#000000">    </text>
<text text-anchor="start" x="1739.9512" y="-1260.3" font-family="Arial" font-size="14.00" fill="#666666">[BASE TABLE]</text>
<polygon fill="none" stroke="#000000" points="1461,-1217.5 1461,-1247.5 1840,-1247.5 1840,-1217.5 1461,-1217.5"/>
<text text-anchor="start" x="1468" y="-1228.9" font-family="Arial" font-size="14.00" fill="#000000">id_tramite_hash    </text>
<text text-anchor="start" x="1601.7812" y="-1228.9" font-family="Arial" font-size="14.00" fill="#666666">[bigint(20)]</text>
<polygon fill="none" stroke="#000000" points="1461,-1187.5 1461,-1217.5 1840,-1217.5 1840,-1187.5 1461,-1187.5"/>
<text text-anchor="start" x="1468" y="-1198.9" font-family="Arial" font-size="14.00" fill="#000000">numero_registro    </text>
<text text-anchor="start" x="1604.1052" y="-1198.9" font-family="Arial" font-size="14.00" fill="#666666">[char(16)]</text>
<polygon fill="none" stroke="#000000" points="1461,-1157.5 1461,-1187.5 1840,-1187.5 1840,-1157.5 1461,-1157.5"/>
<text text-anchor="start" x="1468" y="-1168.9" font-family="Arial" font-size="14.00" fill="#000000">id_tramite    </text>
<text text-anchor="start" x="1563.6508" y="-1168.9" font-family="Arial" font-size="14.00" fill="#666666">[bigint(20)]</text>
<polygon fill="none" stroke="#000000" points="1461,-1127.5 1461,-1157.5 1840,-1157.5 1840,-1127.5 1461,-1127.5"/>
<text text-anchor="start" x="1468" y="-1138.9" font-family="Arial" font-size="14.00" fill="#000000">tipo_recibo    </text>
<text text-anchor="start" x="1570.6648" y="-1138.9" font-family="Arial" font-size="14.00" fill="#666666">[char(1)]</text>
<polygon fill="none" stroke="#000000" points="1461,-1097.5 1461,-1127.5 1840,-1127.5 1840,-1097.5 1461,-1097.5"/>
<text text-anchor="start" x="1468" y="-1108.9" font-family="Arial" font-size="14.00" fill="#000000">hash_componente_digital    </text>
<text text-anchor="start" x="1661.7054" y="-1108.9" font-family="Arial" font-size="14.00" fill="#666666">[varchar(255)]</text>
</g>
<!-- md_pen_recibo_tramite_hash&#45;&gt;md_pen_tramite -->
<g id="edge7" class="edge">
<title>md_pen_recibo_tramite_hash:numero_registro&#45;&gt;md_pen_tramite:numero_registro</title>
<path fill="none" stroke="#000000" d="M1451.0704,-1201.0302C1372.3436,-1175.8961 1474.797,-836.023 1409,-770 1317.0085,-677.6925 1226.0576,-806.8469 1118,-734 1078.5728,-707.4202 1113.5498,-640.5 1066,-640.5"/>
<polygon fill="#000000" stroke="#000000" points="1451.1078,-1201.0356 1460.341,-1206.9515 1456.0539,-1201.7678 1461,-1202.5 1461,-1202.5 1461,-1202.5 1456.0539,-1201.7678 1461.659,-1198.0485 1451.1078,-1201.0356 1451.1078,-1201.0356"/>
</g>
<!-- md_pen_recibo_tramite_recebido -->
<g id="node8" class="node">
<title>md_pen_recibo_tramite_recebido</title>
<polygon fill="#efefef" stroke="transparent" points="1944,-1247.5 1944,-1282.5 2353,-1282.5 2353,-1247.5 1944,-1247.5"/>
<polygon fill="none" stroke="#000000" points="1944,-1247.5 1944,-1282.5 2353,-1282.5 2353,-1247.5 1944,-1247.5"/>
<text text-anchor="start" x="1950.6862" y="-1260.3" font-family="Arial Bold" font-size="18.00" fill="#000000">md_pen_recibo_tramite_recebido</text>
<text text-anchor="start" x="2218.7458" y="-1260.3" font-family="Arial" font-size="14.00" fill="#000000">    </text>
<text text-anchor="start" x="2252.9506" y="-1260.3" font-family="Arial" font-size="14.00" fill="#666666">[BASE TABLE]</text>
<polygon fill="none" stroke="#000000" points="1944,-1217.5 1944,-1247.5 2353,-1247.5 2353,-1217.5 1944,-1217.5"/>
<text text-anchor="start" x="1951" y="-1228.9" font-family="Arial" font-size="14.00" fill="#000000">numero_registro    </text>
<text text-anchor="start" x="2087.1052" y="-1228.9" font-family="Arial" font-size="14.00" fill="#666666">[char(16)]</text>
<polygon fill="none" stroke="#000000" points="1944,-1187.5 1944,-1217.5 2353,-1217.5 2353,-1187.5 1944,-1187.5"/>
<text text-anchor="start" x="1951" y="-1198.9" font-family="Arial" font-size="14.00" fill="#000000">id_tramite    </text>
<text text-anchor="start" x="2046.6508" y="-1198.9" font-family="Arial" font-size="14.00" fill="#666666">[bigint(20)]</text>
<polygon fill="none" stroke="#000000" points="1944,-1157.5 1944,-1187.5 2353,-1187.5 2353,-1157.5 1944,-1157.5"/>
<text text-anchor="start" x="1951" y="-1168.9" font-family="Arial" font-size="14.00" fill="#000000">dth_recebimento    </text>
<text text-anchor="start" x="2089.4572" y="-1168.9" font-family="Arial" font-size="14.00" fill="#666666">[datetime]</text>
<polygon fill="none" stroke="#000000" points="1944,-1127.5 1944,-1157.5 2353,-1157.5 2353,-1127.5 1944,-1127.5"/>
<text text-anchor="start" x="1951" y="-1138.9" font-family="Arial" font-size="14.00" fill="#000000">hash_assinatura    </text>
<text text-anchor="start" x="2087.906" y="-1138.9" font-family="Arial" font-size="14.00" fill="#666666">[varchar(1000)]</text>
<polygon fill="none" stroke="#000000" points="1944,-1097.5 1944,-1127.5 2353,-1127.5 2353,-1097.5 1944,-1097.5"/>
<text text-anchor="start" x="1951" y="-1108.9" font-family="Arial" font-size="14.00" fill="#000000">cadeia_certificado    </text>
<text text-anchor="start" x="2098.0098" y="-1108.9" font-family="Arial" font-size="14.00" fill="#666666">[longtext]</text>
</g>
<!-- md_pen_recibo_tramite_recebido&#45;&gt;md_pen_tramite -->
<g id="edge8" class="edge">
<title>md_pen_recibo_tramite_recebido:numero_registro&#45;&gt;md_pen_tramite:numero_registro</title>
<path fill="none" stroke="#000000" d="M1933.9271,-1231.0782C1849.2481,-1205.3484 1964.8338,-838.2139 1892,-770 1829.1628,-711.1486 1191.1768,-779.3559 1118,-734 1077.5839,-708.9495 1113.5498,-640.5 1066,-640.5"/>
<polygon fill="#000000" stroke="#000000" points="1934.0981,-1231.1023 1943.371,-1236.9558 1939.0491,-1231.8011 1944,-1232.5 1944,-1232.5 1944,-1232.5 1939.0491,-1231.8011 1944.629,-1228.0442 1934.0981,-1231.1023 1934.0981,-1231.1023"/>
</g>
</g>
</svg>
