<?xml version="1.0" encoding="UTF-8" standalone="no"?>
<!DOCTYPE svg PUBLIC "-//W3C//DTD SVG 1.1//EN"
 "http://www.w3.org/Graphics/SVG/1.1/DTD/svg11.dtd">
<!-- Generated by graphviz version 2.40.1 (20161225.0304)
 -->
<!-- Title: md_pen_rel_doc_map_enviado Pages: 1 -->
<svg width="996pt" height="442pt"
 viewBox="0.00 0.00 996.00 442.00" xmlns="http://www.w3.org/2000/svg" xmlns:xlink="http://www.w3.org/1999/xlink">
<g id="graph0" class="graph" transform="scale(1 1) rotate(0) translate(4 438)">
<title>md_pen_rel_doc_map_enviado</title>
<polygon fill="#ffffff" stroke="transparent" points="-4,4 -4,-438 992,-438 992,4 -4,4"/>
<!-- md_pen_rel_doc_map_enviado -->
<g id="node1" class="node">
<title>md_pen_rel_doc_map_enviado</title>
<polygon fill="#efefef" stroke="transparent" points="46.5,-352.5 46.5,-387.5 439.5,-387.5 439.5,-352.5 46.5,-352.5"/>
<polygon fill="none" stroke="#000000" points="46.5,-352.5 46.5,-387.5 439.5,-387.5 439.5,-352.5 46.5,-352.5"/>
<text text-anchor="start" x="53.1746" y="-365.3" font-family="Arial Bold" font-size="18.00" fill="#000000">md_pen_rel_doc_map_enviado</text>
<text text-anchor="start" x="305.2574" y="-365.3" font-family="Arial" font-size="14.00" fill="#000000">    </text>
<text text-anchor="start" x="339.4622" y="-365.3" font-family="Arial" font-size="14.00" fill="#666666">[BASE TABLE]</text>
<polygon fill="none" stroke="#000000" points="46.5,-322.5 46.5,-352.5 439.5,-352.5 439.5,-322.5 46.5,-322.5"/>
<text text-anchor="start" x="53.5" y="-333.9" font-family="Arial" font-size="14.00" fill="#000000">id_mapeamento </text>
<text text-anchor="start" x="157.7524" y="-333.9" font-family="Arial" font-size="14.00" fill="#666666">[bigint(20)]</text>
<polygon fill="none" stroke="#000000" points="46.5,-292.5 46.5,-322.5 439.5,-322.5 439.5,-292.5 46.5,-292.5"/>
<text text-anchor="start" x="53.5" y="-303.9" font-family="Arial" font-size="14.00" fill="#000000">codigo_especie </text>
<text text-anchor="start" x="154.6472" y="-303.9" font-family="Arial" font-size="14.00" fill="#666666">[int(11)]</text>
<polygon fill="none" stroke="#000000" points="46.5,-262.5 46.5,-292.5 439.5,-292.5 439.5,-262.5 46.5,-262.5"/>
<text text-anchor="start" x="53.5" y="-273.9" font-family="Arial" font-size="14.00" fill="#000000">id_serie </text>
<text text-anchor="start" x="106.3948" y="-273.9" font-family="Arial" font-size="14.00" fill="#666666">[int(11)]</text>
<polygon fill="none" stroke="#000000" stroke-width="3" points="44.5,-261.5 44.5,-389.5 440.5,-389.5 440.5,-261.5 44.5,-261.5"/>
</g>
<!-- md_pen_especie_documental -->
<g id="node2" class="node">
<title>md_pen_especie_documental</title>
<polygon fill="#efefef" stroke="transparent" points="303.5,-102.5 303.5,-137.5 684.5,-137.5 684.5,-102.5 303.5,-102.5"/>
<polygon fill="none" stroke="#000000" points="303.5,-102.5 303.5,-137.5 684.5,-137.5 684.5,-102.5 303.5,-102.5"/>
<text text-anchor="start" x="310.1758" y="-115.3" font-family="Arial Bold" font-size="18.00" fill="#000000">md_pen_especie_documental</text>
<text text-anchor="start" x="550.2562" y="-115.3" font-family="Arial" font-size="14.00" fill="#000000">    </text>
<text text-anchor="start" x="584.461" y="-115.3" font-family="Arial" font-size="14.00" fill="#666666">[BASE TABLE]</text>
<polygon fill="none" stroke="#000000" points="303.5,-72.5 303.5,-102.5 684.5,-102.5 684.5,-72.5 303.5,-72.5"/>
<text text-anchor="start" x="310.5" y="-83.9" font-family="Arial" font-size="14.00" fill="#000000">id_especie    </text>
<text text-anchor="start" x="411.6136" y="-83.9" font-family="Arial" font-size="14.00" fill="#666666">[int(11)]</text>
<polygon fill="none" stroke="#000000" points="303.5,-42.5 303.5,-72.5 684.5,-72.5 684.5,-42.5 303.5,-42.5"/>
<text text-anchor="start" x="310.5" y="-53.9" font-family="Arial" font-size="14.00" fill="#000000">nome_especie    </text>
<text text-anchor="start" x="435.7328" y="-53.9" font-family="Arial" font-size="14.00" fill="#666666">[varchar(255)]</text>
</g>
<!-- md_pen_rel_doc_map_enviado&#45;&gt;md_pen_especie_documental -->
<g id="edge1" class="edge">
<title>md_pen_rel_doc_map_enviado:codigo_especie&#45;&gt;md_pen_especie_documental:id_especie</title>
<path fill="none" stroke="#000000" d="M449.7281,-305.9022C476.5738,-296.3046 461.6381,-245.7607 439.5,-217 401.3614,-167.4523 341.6386,-230.5477 303.5,-181 278.1527,-148.0701 261.9444,-87.5 303.5,-87.5"/>
<polygon fill="#000000" stroke="#000000" points="449.3802,-305.9565 438.8054,-303.0539 444.4401,-306.7282 439.5,-307.5 439.5,-307.5 439.5,-307.5 444.4401,-306.7282 440.1946,-311.9461 449.3802,-305.9565 449.3802,-305.9565"/>
</g>
<!-- md_pen_rel_doc_map_recebido -->
<g id="node3" class="node">
<title>md_pen_rel_doc_map_recebido</title>
<polygon fill="#efefef" stroke="transparent" points="546.5,-352.5 546.5,-387.5 945.5,-387.5 945.5,-352.5 546.5,-352.5"/>
<polygon fill="none" stroke="#000000" points="546.5,-352.5 546.5,-387.5 945.5,-387.5 945.5,-352.5 546.5,-352.5"/>
<text text-anchor="start" x="553.1785" y="-365.3" font-family="Arial Bold" font-size="18.00" fill="#000000">md_pen_rel_doc_map_recebido</text>
<text text-anchor="start" x="811.2535" y="-365.3" font-family="Arial" font-size="14.00" fill="#000000">    </text>
<text text-anchor="start" x="845.4583" y="-365.3" font-family="Arial" font-size="14.00" fill="#666666">[BASE TABLE]</text>
<polygon fill="none" stroke="#000000" points="546.5,-322.5 546.5,-352.5 945.5,-352.5 945.5,-322.5 546.5,-322.5"/>
<text text-anchor="start" x="553.5" y="-333.9" font-family="Arial" font-size="14.00" fill="#000000">id_mapeamento    </text>
<text text-anchor="start" x="688.0666" y="-333.9" font-family="Arial" font-size="14.00" fill="#666666">[bigint(20)]</text>
<polygon fill="none" stroke="#000000" points="546.5,-292.5 546.5,-322.5 945.5,-322.5 945.5,-292.5 546.5,-292.5"/>
<text text-anchor="start" x="553.5" y="-303.9" font-family="Arial" font-size="14.00" fill="#000000">codigo_especie    </text>
<text text-anchor="start" x="684.9614" y="-303.9" font-family="Arial" font-size="14.00" fill="#666666">[int(11)]</text>
<polygon fill="none" stroke="#000000" points="546.5,-262.5 546.5,-292.5 945.5,-292.5 945.5,-262.5 546.5,-262.5"/>
<text text-anchor="start" x="553.5" y="-273.9" font-family="Arial" font-size="14.00" fill="#000000">id_serie    </text>
<text text-anchor="start" x="636.709" y="-273.9" font-family="Arial" font-size="14.00" fill="#666666">[int(11)]</text>
</g>
<!-- md_pen_rel_doc_map_recebido&#45;&gt;md_pen_especie_documental -->
<g id="edge2" class="edge">
<title>md_pen_rel_doc_map_recebido:codigo_especie&#45;&gt;md_pen_especie_documental:id_especie</title>
<path fill="none" stroke="#000000" d="M536.6176,-305.9602C510.7006,-296.7104 525.328,-247.9846 546.5,-220 584.9543,-169.172 646.0457,-231.828 684.5,-181 709.5722,-147.8602 726.0556,-87.5 684.5,-87.5"/>
<polygon fill="#000000" stroke="#000000" points="536.6192,-305.9604 545.8072,-311.9464 541.5596,-306.7302 546.5,-307.5 546.5,-307.5 546.5,-307.5 541.5596,-306.7302 547.1928,-303.0536 536.6192,-305.9604 536.6192,-305.9604"/>
</g>
</g>
</svg>
