<?xml version="1.0" encoding="UTF-8" standalone="no"?>
<!DOCTYPE svg PUBLIC "-//W3C//DTD SVG 1.1//EN"
 "http://www.w3.org/Graphics/SVG/1.1/DTD/svg11.dtd">
<!-- Generated by graphviz version 2.40.1 (20161225.0304)
 -->
<!-- Title: md_pen_expedir_lote Pages: 1 -->
<svg width="440pt" height="742pt"
 viewBox="0.00 0.00 440.17 742.00" xmlns="http://www.w3.org/2000/svg" xmlns:xlink="http://www.w3.org/1999/xlink">
<g id="graph0" class="graph" transform="scale(1 1) rotate(0) translate(4 738)">
<title>md_pen_expedir_lote</title>
<polygon fill="#ffffff" stroke="transparent" points="-4,4 -4,-738 436.169,-738 436.169,4 -4,4"/>
<!-- md_pen_expedir_lote -->
<g id="node1" class="node">
<title>md_pen_expedir_lote</title>
<polygon fill="#efefef" stroke="transparent" points="58,-345.5 58,-380.5 372,-380.5 372,-345.5 58,-345.5"/>
<polygon fill="none" stroke="#000000" points="58,-345.5 58,-380.5 372,-380.5 372,-345.5 58,-345.5"/>
<text text-anchor="start" x="64.6882" y="-358.3" font-family="Arial Bold" font-size="18.00" fill="#000000">md_pen_expedir_lote</text>
<text text-anchor="start" x="237.7438" y="-358.3" font-family="Arial" font-size="14.00" fill="#000000">    </text>
<text text-anchor="start" x="271.9486" y="-358.3" font-family="Arial" font-size="14.00" fill="#666666">[BASE TABLE]</text>
<polygon fill="none" stroke="#000000" points="58,-315.5 58,-345.5 372,-345.5 372,-315.5 58,-315.5"/>
<text text-anchor="start" x="65" y="-326.9" font-family="Arial" font-size="14.00" fill="#000000">id_lote </text>
<text text-anchor="start" x="110.1248" y="-326.9" font-family="Arial" font-size="14.00" fill="#666666">[int(11)]</text>
<polygon fill="none" stroke="#000000" points="58,-285.5 58,-315.5 372,-315.5 372,-285.5 58,-285.5"/>
<text text-anchor="start" x="65" y="-296.9" font-family="Arial" font-size="14.00" fill="#000000">id_repositorio_destino </text>
<text text-anchor="start" x="205.8106" y="-296.9" font-family="Arial" font-size="14.00" fill="#666666">[int(11)]</text>
<polygon fill="none" stroke="#000000" points="58,-255.5 58,-285.5 372,-285.5 372,-255.5 58,-255.5"/>
<text text-anchor="start" x="65" y="-266.9" font-family="Arial" font-size="14.00" fill="#000000">str_repositorio_destino </text>
<text text-anchor="start" x="210.4726" y="-266.9" font-family="Arial" font-size="14.00" fill="#666666">[varchar(250)]</text>
<polygon fill="none" stroke="#000000" points="58,-225.5 58,-255.5 372,-255.5 372,-225.5 58,-225.5"/>
<text text-anchor="start" x="65" y="-236.9" font-family="Arial" font-size="14.00" fill="#000000">id_repositorio_origem </text>
<text text-anchor="start" x="203.4586" y="-236.9" font-family="Arial" font-size="14.00" fill="#666666">[int(11)]</text>
<polygon fill="none" stroke="#000000" points="58,-195.5 58,-225.5 372,-225.5 372,-195.5 58,-195.5"/>
<text text-anchor="start" x="65" y="-206.9" font-family="Arial" font-size="14.00" fill="#000000">id_unidade_origem </text>
<text text-anchor="start" x="187.9228" y="-206.9" font-family="Arial" font-size="14.00" fill="#666666">[int(11)]</text>
<polygon fill="none" stroke="#000000" points="58,-165.5 58,-195.5 372,-195.5 372,-165.5 58,-165.5"/>
<text text-anchor="start" x="65" y="-176.9" font-family="Arial" font-size="14.00" fill="#000000">id_unidade_destino </text>
<text text-anchor="start" x="190.2748" y="-176.9" font-family="Arial" font-size="14.00" fill="#666666">[int(11)]</text>
<polygon fill="none" stroke="#000000" points="58,-135.5 58,-165.5 372,-165.5 372,-135.5 58,-135.5"/>
<text text-anchor="start" x="65" y="-146.9" font-family="Arial" font-size="14.00" fill="#000000">str_unidade_destino </text>
<text text-anchor="start" x="194.9368" y="-146.9" font-family="Arial" font-size="14.00" fill="#666666">[varchar(250)]</text>
<polygon fill="none" stroke="#000000" points="58,-105.5 58,-135.5 372,-135.5 372,-105.5 58,-105.5"/>
<text text-anchor="start" x="65" y="-116.9" font-family="Arial" font-size="14.00" fill="#000000">id_usuario </text>
<text text-anchor="start" x="133.46" y="-116.9" font-family="Arial" font-size="14.00" fill="#666666">[int(11)]</text>
<polygon fill="none" stroke="#000000" points="58,-75.5 58,-105.5 372,-105.5 372,-75.5 58,-75.5"/>
<text text-anchor="start" x="65" y="-86.9" font-family="Arial" font-size="14.00" fill="#000000">id_unidade </text>
<text text-anchor="start" x="137.3646" y="-86.9" font-family="Arial" font-size="14.00" fill="#666666">[int(11)]</text>
<polygon fill="none" stroke="#000000" points="58,-45.5 58,-75.5 372,-75.5 372,-45.5 58,-45.5"/>
<text text-anchor="start" x="65" y="-56.9" font-family="Arial" font-size="14.00" fill="#000000">dth_registro </text>
<text text-anchor="start" x="142.7952" y="-56.9" font-family="Arial" font-size="14.00" fill="#666666">[datetime]</text>
<polygon fill="none" stroke="#000000" stroke-width="3" points="56.5,-44.5 56.5,-382.5 373.5,-382.5 373.5,-44.5 56.5,-44.5"/>
</g>
<!-- md_pen_rel_expedir_lote -->
<g id="node2" class="node">
<title>md_pen_rel_expedir_lote</title>
<polygon fill="#efefef" stroke="transparent" points="43,-655.5 43,-690.5 387,-690.5 387,-655.5 43,-655.5"/>
<polygon fill="none" stroke="#000000" points="43,-655.5 43,-690.5 387,-690.5 387,-655.5 43,-655.5"/>
<text text-anchor="start" x="49.6888" y="-668.3" font-family="Arial Bold" font-size="18.00" fill="#000000">md_pen_rel_expedir_lote</text>
<text text-anchor="start" x="252.7432" y="-668.3" font-family="Arial" font-size="14.00" fill="#000000">    </text>
<text text-anchor="start" x="286.948" y="-668.3" font-family="Arial" font-size="14.00" fill="#666666">[BASE TABLE]</text>
<polygon fill="none" stroke="#000000" points="43,-625.5 43,-655.5 387,-655.5 387,-625.5 43,-625.5"/>
<text text-anchor="start" x="50" y="-636.9" font-family="Arial" font-size="14.00" fill="#000000">id_lote    </text>
<text text-anchor="start" x="125.439" y="-636.9" font-family="Arial" font-size="14.00" fill="#666666">[int(11)]</text>
<polygon fill="none" stroke="#000000" points="43,-595.5 43,-625.5 387,-625.5 387,-595.5 43,-595.5"/>
<text text-anchor="start" x="50" y="-606.9" font-family="Arial" font-size="14.00" fill="#000000">id_procedimento    </text>
<text text-anchor="start" x="187.6732" y="-606.9" font-family="Arial" font-size="14.00" fill="#666666">[bigint(20)]</text>
<polygon fill="none" stroke="#000000" points="43,-565.5 43,-595.5 387,-595.5 387,-565.5 43,-565.5"/>
<text text-anchor="start" x="50" y="-576.9" font-family="Arial" font-size="14.00" fill="#000000">id_andamento    </text>
<text text-anchor="start" x="172.906" y="-576.9" font-family="Arial" font-size="14.00" fill="#666666">[int(11)]</text>
<polygon fill="none" stroke="#000000" points="43,-535.5 43,-565.5 387,-565.5 387,-535.5 43,-535.5"/>
<text text-anchor="start" x="50" y="-546.9" font-family="Arial" font-size="14.00" fill="#000000">id_atividade_expedicao    </text>
<text text-anchor="start" x="230.4782" y="-546.9" font-family="Arial" font-size="14.00" fill="#666666">[int(11)]</text>
<polygon fill="none" stroke="#000000" points="43,-505.5 43,-535.5 387,-535.5 387,-505.5 43,-505.5"/>
<text text-anchor="start" x="50" y="-516.9" font-family="Arial" font-size="14.00" fill="#000000">tentativas    </text>
<text text-anchor="start" x="144.1136" y="-516.9" font-family="Arial" font-size="14.00" fill="#666666">[int(11)]</text>
</g>
<!-- md_pen_rel_expedir_lote&#45;&gt;md_pen_expedir_lote -->
<g id="edge1" class="edge">
<title>md_pen_rel_expedir_lote:id_lote&#45;&gt;md_pen_expedir_lote:id_lote</title>
<path fill="none" stroke="#000000" d="M396.8614,-638.183C454.3069,-609.815 437.4671,-330.5 372,-330.5"/>
<polygon fill="#000000" stroke="#000000" points="396.7349,-638.2126 385.9707,-636.1193 391.8674,-639.3563 387,-640.5 387,-640.5 387,-640.5 391.8674,-639.3563 388.0293,-644.8807 396.7349,-638.2126 396.7349,-638.2126"/>
</g>
</g>
</svg>
