<?xml version="1.0" encoding="UTF-8" standalone="no"?>
<!DOCTYPE svg PUBLIC "-//W3C//DTD SVG 1.1//EN"
 "http://www.w3.org/Graphics/SVG/1.1/DTD/svg11.dtd">
<!-- Generated by graphviz version 2.40.1 (20161225.0304)
 -->
<!-- Title: md_pen_bloco_protocolo Pages: 1 -->
<svg width="443pt" height="285pt"
 viewBox="0.00 0.00 443.00 285.00" xmlns="http://www.w3.org/2000/svg" xmlns:xlink="http://www.w3.org/1999/xlink">
<g id="graph0" class="graph" transform="scale(1 1) rotate(0) translate(4 281)">
<title>md_pen_bloco_protocolo</title>
<polygon fill="#ffffff" stroke="transparent" points="-4,4 -4,-281 439,-281 439,4 -4,4"/>
<!-- md_pen_bloco_protocolo -->
<g id="node1" class="node">
<title>md_pen_bloco_protocolo</title>
<polygon fill="#efefef" stroke="transparent" points="46.5,-195.5 46.5,-230.5 389.5,-230.5 389.5,-195.5 46.5,-195.5"/>
<polygon fill="none" stroke="#000000" points="46.5,-195.5 46.5,-230.5 389.5,-230.5 389.5,-195.5 46.5,-195.5"/>
<text text-anchor="start" x="53.182" y="-208.3" font-family="Arial Bold" font-size="18.00" fill="#000000">md_pen_bloco_protocolo</text>
<text text-anchor="start" x="255.25" y="-208.3" font-family="Arial" font-size="14.00" fill="#000000">    </text>
<text text-anchor="start" x="289.4548" y="-208.3" font-family="Arial" font-size="14.00" fill="#666666">[BASE TABLE]</text>
<polygon fill="none" stroke="#000000" points="46.5,-165.5 46.5,-195.5 389.5,-195.5 389.5,-165.5 46.5,-165.5"/>
<text text-anchor="start" x="53.5" y="-176.9" font-family="Arial" font-size="14.00" fill="#000000">id </text>
<text text-anchor="start" x="68.2798" y="-176.9" font-family="Arial" font-size="14.00" fill="#666666">[int(11)]</text>
<polygon fill="none" stroke="#000000" points="46.5,-135.5 46.5,-165.5 389.5,-165.5 389.5,-135.5 46.5,-135.5"/>
<text text-anchor="start" x="53.5" y="-146.9" font-family="Arial" font-size="14.00" fill="#000000">id_protocolo </text>
<text text-anchor="start" x="133.6332" y="-146.9" font-family="Arial" font-size="14.00" fill="#666666">[bigint(20)]</text>
<polygon fill="none" stroke="#000000" points="46.5,-105.5 46.5,-135.5 389.5,-135.5 389.5,-105.5 46.5,-105.5"/>
<text text-anchor="start" x="53.5" y="-116.9" font-family="Arial" font-size="14.00" fill="#000000">id_tramita_em_bloco </text>
<text text-anchor="start" x="187.2994" y="-116.9" font-family="Arial" font-size="14.00" fill="#666666">[int(11)]</text>
<polygon fill="none" stroke="#000000" points="46.5,-75.5 46.5,-105.5 389.5,-105.5 389.5,-75.5 46.5,-75.5"/>
<text text-anchor="start" x="53.5" y="-86.9" font-family="Arial" font-size="14.00" fill="#000000">sequencia </text>
<text text-anchor="start" x="121.1928" y="-86.9" font-family="Arial" font-size="14.00" fill="#666666">[int(11)]</text>
<polygon fill="none" stroke="#000000" points="46.5,-45.5 46.5,-75.5 389.5,-75.5 389.5,-45.5 46.5,-45.5"/>
<text text-anchor="start" x="53.5" y="-56.9" font-family="Arial" font-size="14.00" fill="#000000">idx_rel_bloco_protocolo </text>
<text text-anchor="start" x="205.2026" y="-56.9" font-family="Arial" font-size="14.00" fill="#666666">[varchar(4000)]</text>
<polygon fill="none" stroke="#000000" stroke-width="3" points="44.5,-44.5 44.5,-232.5 390.5,-232.5 390.5,-44.5 44.5,-44.5"/>
</g>
</g>
</svg>
