<?xml version="1.0" encoding="UTF-8" standalone="no"?>
<!DOCTYPE svg PUBLIC "-//W3C//DTD SVG 1.1//EN"
 "http://www.w3.org/Graphics/SVG/1.1/DTD/svg11.dtd">
<!-- Generated by graphviz version 2.40.1 (20161225.0304)
 -->
<!-- Title: md_pen_componente_digital Pages: 1 -->
<svg width="2410pt" height="1619pt"
 viewBox="0.00 0.00 2409.50 1619.00" xmlns="http://www.w3.org/2000/svg" xmlns:xlink="http://www.w3.org/1999/xlink">
<g id="graph0" class="graph" transform="scale(1 1) rotate(0) translate(4 1615)">
<title>md_pen_componente_digital</title>
<polygon fill="#ffffff" stroke="transparent" points="-4,4 -4,-1615 2405.5,-1615 2405.5,4 -4,4"/>
<!-- md_pen_componente_digital -->
<g id="node1" class="node">
<title>md_pen_componente_digital</title>
<polygon fill="#efefef" stroke="transparent" points="46,-1529.5 46,-1564.5 418,-1564.5 418,-1529.5 46,-1529.5"/>
<polygon fill="none" stroke="#000000" points="46,-1529.5 46,-1564.5 418,-1564.5 418,-1529.5 46,-1529.5"/>
<text text-anchor="start" x="52.6776" y="-1542.3" font-family="Arial Bold" font-size="18.00" fill="#000000">md_pen_componente_digital</text>
<text text-anchor="start" x="283.7544" y="-1542.3" font-family="Arial" font-size="14.00" fill="#000000">    </text>
<text text-anchor="start" x="317.9592" y="-1542.3" font-family="Arial" font-size="14.00" fill="#666666">[BASE TABLE]</text>
<polygon fill="none" stroke="#000000" points="46,-1499.5 46,-1529.5 418,-1529.5 418,-1499.5 46,-1499.5"/>
<text text-anchor="start" x="53" y="-1510.9" font-family="Arial" font-size="14.00" fill="#000000">numero_registro </text>
<text text-anchor="start" x="158.791" y="-1510.9" font-family="Arial" font-size="14.00" fill="#666666">[char(16)]</text>
<polygon fill="none" stroke="#000000" points="46,-1469.5 46,-1499.5 418,-1499.5 418,-1469.5 46,-1469.5"/>
<text text-anchor="start" x="53" y="-1480.9" font-family="Arial" font-size="14.00" fill="#000000">id_procedimento </text>
<text text-anchor="start" x="160.359" y="-1480.9" font-family="Arial" font-size="14.00" fill="#666666">[bigint(20)]</text>
<polygon fill="none" stroke="#000000" points="46,-1439.5 46,-1469.5 418,-1469.5 418,-1439.5 46,-1439.5"/>
<text text-anchor="start" x="53" y="-1450.9" font-family="Arial" font-size="14.00" fill="#000000">id_documento </text>
<text text-anchor="start" x="144.8092" y="-1450.9" font-family="Arial" font-size="14.00" fill="#666666">[bigint(20)]</text>
<polygon fill="none" stroke="#000000" points="46,-1409.5 46,-1439.5 418,-1439.5 418,-1409.5 46,-1409.5"/>
<text text-anchor="start" x="53" y="-1420.9" font-family="Arial" font-size="14.00" fill="#000000">id_tramite </text>
<text text-anchor="start" x="118.3366" y="-1420.9" font-family="Arial" font-size="14.00" fill="#666666">[bigint(20)]</text>
<polygon fill="none" stroke="#000000" points="46,-1379.5 46,-1409.5 418,-1409.5 418,-1379.5 46,-1379.5"/>
<text text-anchor="start" x="53" y="-1390.9" font-family="Arial" font-size="14.00" fill="#000000">id_anexo </text>
<text text-anchor="start" x="113.6928" y="-1390.9" font-family="Arial" font-size="14.00" fill="#666666">[int(11)]</text>
<polygon fill="none" stroke="#000000" points="46,-1349.5 46,-1379.5 418,-1379.5 418,-1349.5 46,-1349.5"/>
<text text-anchor="start" x="53" y="-1360.9" font-family="Arial" font-size="14.00" fill="#000000">protocolo </text>
<text text-anchor="start" x="114.4614" y="-1360.9" font-family="Arial" font-size="14.00" fill="#666666">[varchar(50)]</text>
<polygon fill="none" stroke="#000000" points="46,-1319.5 46,-1349.5 418,-1349.5 418,-1319.5 46,-1319.5"/>
<text text-anchor="start" x="53" y="-1330.9" font-family="Arial" font-size="14.00" fill="#000000">nome </text>
<text text-anchor="start" x="91.899" y="-1330.9" font-family="Arial" font-size="14.00" fill="#666666">[varchar(255)]</text>
<polygon fill="none" stroke="#000000" points="46,-1289.5 46,-1319.5 418,-1319.5 418,-1289.5 46,-1289.5"/>
<text text-anchor="start" x="53" y="-1300.9" font-family="Arial" font-size="14.00" fill="#000000">hash_conteudo </text>
<text text-anchor="start" x="152.6072" y="-1300.9" font-family="Arial" font-size="14.00" fill="#666666">[varchar(255)]</text>
<polygon fill="none" stroke="#000000" points="46,-1259.5 46,-1289.5 418,-1289.5 418,-1259.5 46,-1259.5"/>
<text text-anchor="start" x="53" y="-1270.9" font-family="Arial" font-size="14.00" fill="#000000">algoritmo_hash </text>
<text text-anchor="start" x="152.5764" y="-1270.9" font-family="Arial" font-size="14.00" fill="#666666">[varchar(20)]</text>
<polygon fill="none" stroke="#000000" points="46,-1229.5 46,-1259.5 418,-1259.5 418,-1229.5 46,-1229.5"/>
<text text-anchor="start" x="53" y="-1240.9" font-family="Arial" font-size="14.00" fill="#000000">tipo_conteudo </text>
<text text-anchor="start" x="144.8218" y="-1240.9" font-family="Arial" font-size="14.00" fill="#666666">[char(3)]</text>
<polygon fill="none" stroke="#000000" points="46,-1199.5 46,-1229.5 418,-1229.5 418,-1199.5 46,-1199.5"/>
<text text-anchor="start" x="53" y="-1210.9" font-family="Arial" font-size="14.00" fill="#000000">mime_type </text>
<text text-anchor="start" x="125.3394" y="-1210.9" font-family="Arial" font-size="14.00" fill="#666666">[varchar(100)]</text>
<polygon fill="none" stroke="#000000" points="46,-1169.5 46,-1199.5 418,-1199.5 418,-1169.5 46,-1169.5"/>
<text text-anchor="start" x="53" y="-1180.9" font-family="Arial" font-size="14.00" fill="#000000">dados_complementares </text>
<text text-anchor="start" x="206.2608" y="-1180.9" font-family="Arial" font-size="14.00" fill="#666666">[varchar(1000)]</text>
<polygon fill="none" stroke="#000000" points="46,-1139.5 46,-1169.5 418,-1169.5 418,-1139.5 46,-1139.5"/>
<text text-anchor="start" x="53" y="-1150.9" font-family="Arial" font-size="14.00" fill="#000000">tamanho </text>
<text text-anchor="start" x="111.3548" y="-1150.9" font-family="Arial" font-size="14.00" fill="#666666">[bigint(20)]</text>
<polygon fill="none" stroke="#000000" points="46,-1109.5 46,-1139.5 418,-1139.5 418,-1109.5 46,-1109.5"/>
<text text-anchor="start" x="53" y="-1120.9" font-family="Arial" font-size="14.00" fill="#000000">ordem </text>
<text text-anchor="start" x="96.5596" y="-1120.9" font-family="Arial" font-size="14.00" fill="#666666">[int(11)]</text>
<polygon fill="none" stroke="#000000" points="46,-1079.5 46,-1109.5 418,-1109.5 418,-1079.5 46,-1079.5"/>
<text text-anchor="start" x="53" y="-1090.9" font-family="Arial" font-size="14.00" fill="#000000">sin_enviar </text>
<text text-anchor="start" x="120.6774" y="-1090.9" font-family="Arial" font-size="14.00" fill="#666666">[char(1)]</text>
<polygon fill="none" stroke="#000000" points="46,-1049.5 46,-1079.5 418,-1079.5 418,-1049.5 46,-1049.5"/>
<text text-anchor="start" x="53" y="-1060.9" font-family="Arial" font-size="14.00" fill="#000000">codigo_especie </text>
<text text-anchor="start" x="154.1472" y="-1060.9" font-family="Arial" font-size="14.00" fill="#666666">[int(11)]</text>
<polygon fill="none" stroke="#000000" points="46,-1019.5 46,-1049.5 418,-1049.5 418,-1019.5 46,-1019.5"/>
<text text-anchor="start" x="53" y="-1030.9" font-family="Arial" font-size="14.00" fill="#000000">nome_especie_produtor </text>
<text text-anchor="start" x="207.826" y="-1030.9" font-family="Arial" font-size="14.00" fill="#666666">[varchar(255)]</text>
<polygon fill="none" stroke="#000000" points="46,-989.5 46,-1019.5 418,-1019.5 418,-989.5 46,-989.5"/>
<text text-anchor="start" x="53" y="-1000.9" font-family="Arial" font-size="14.00" fill="#000000">ordem_documento </text>
<text text-anchor="start" x="173.589" y="-1000.9" font-family="Arial" font-size="14.00" fill="#666666">[int(11)]</text>
<polygon fill="none" stroke="#000000" points="46,-959.5 46,-989.5 418,-989.5 418,-959.5 46,-959.5"/>
<text text-anchor="start" x="53" y="-970.9" font-family="Arial" font-size="14.00" fill="#000000">id_procedimento_anexado </text>
<text text-anchor="start" x="221.8372" y="-970.9" font-family="Arial" font-size="14.00" fill="#666666">[bigint(20)]</text>
<polygon fill="none" stroke="#000000" points="46,-929.5 46,-959.5 418,-959.5 418,-929.5 46,-929.5"/>
<text text-anchor="start" x="53" y="-940.9" font-family="Arial" font-size="14.00" fill="#000000">protocolo_procedimento_anexado </text>
<text text-anchor="start" x="268.5188" y="-940.9" font-family="Arial" font-size="14.00" fill="#666666">[varchar(50)]</text>
<polygon fill="none" stroke="#000000" points="46,-899.5 46,-929.5 418,-929.5 418,-899.5 46,-899.5"/>
<text text-anchor="start" x="53" y="-910.9" font-family="Arial" font-size="14.00" fill="#000000">ordem_documento_anexado </text>
<text text-anchor="start" x="235.0672" y="-910.9" font-family="Arial" font-size="14.00" fill="#666666">[int(11)]</text>
<polygon fill="none" stroke="#000000" points="46,-869.5 46,-899.5 418,-899.5 418,-869.5 46,-869.5"/>
<text text-anchor="start" x="53" y="-880.9" font-family="Arial" font-size="14.00" fill="#000000">ordem_documento_referenciado </text>
<text text-anchor="start" x="259.1682" y="-880.9" font-family="Arial" font-size="14.00" fill="#666666">[int(11)]</text>
<polygon fill="none" stroke="#000000" points="46,-839.5 46,-869.5 418,-869.5 418,-839.5 46,-839.5"/>
<text text-anchor="start" x="53" y="-850.9" font-family="Arial" font-size="14.00" fill="#000000">id_anexo_imutavel </text>
<text text-anchor="start" x="173.5876" y="-850.9" font-family="Arial" font-size="14.00" fill="#666666">[bigint(20)]</text>
<polygon fill="none" stroke="#000000" points="46,-809.5 46,-839.5 418,-839.5 418,-809.5 46,-809.5"/>
<text text-anchor="start" x="53" y="-820.9" font-family="Arial" font-size="14.00" fill="#000000">tarja_legada </text>
<text text-anchor="start" x="133.9158" y="-820.9" font-family="Arial" font-size="14.00" fill="#666666">[char(1)]</text>
<polygon fill="none" stroke="#000000" stroke-width="3" points="44.5,-808.5 44.5,-1566.5 419.5,-1566.5 419.5,-808.5 44.5,-808.5"/>
</g>
<!-- md_pen_processo_eletronico -->
<g id="node2" class="node">
<title>md_pen_processo_eletronico</title>
<polygon fill="#efefef" stroke="transparent" points="737,-132.5 737,-167.5 1114,-167.5 1114,-132.5 737,-132.5"/>
<polygon fill="none" stroke="#000000" points="737,-132.5 737,-167.5 1114,-167.5 1114,-132.5 737,-132.5"/>
<text text-anchor="start" x="743.6828" y="-145.3" font-family="Arial Bold" font-size="18.00" fill="#000000">md_pen_processo_eletronico</text>
<text text-anchor="start" x="979.7492" y="-145.3" font-family="Arial" font-size="14.00" fill="#000000">    </text>
<text text-anchor="start" x="1013.954" y="-145.3" font-family="Arial" font-size="14.00" fill="#666666">[BASE TABLE]</text>
<polygon fill="none" stroke="#000000" points="737,-102.5 737,-132.5 1114,-132.5 1114,-102.5 737,-102.5"/>
<text text-anchor="start" x="744" y="-113.9" font-family="Arial" font-size="14.00" fill="#000000">numero_registro    </text>
<text text-anchor="start" x="880.1052" y="-113.9" font-family="Arial" font-size="14.00" fill="#666666">[char(16)]</text>
<polygon fill="none" stroke="#000000" points="737,-72.5 737,-102.5 1114,-102.5 1114,-72.5 737,-72.5"/>
<text text-anchor="start" x="744" y="-83.9" font-family="Arial" font-size="14.00" fill="#000000">id_procedimento    </text>
<text text-anchor="start" x="881.6732" y="-83.9" font-family="Arial" font-size="14.00" fill="#666666">[bigint(20)]</text>
<polygon fill="none" stroke="#000000" points="737,-42.5 737,-72.5 1114,-72.5 1114,-42.5 737,-42.5"/>
<text text-anchor="start" x="744" y="-53.9" font-family="Arial" font-size="14.00" fill="#000000">sta_tipo_protocolo    </text>
<text text-anchor="start" x="892.5764" y="-53.9" font-family="Arial" font-size="14.00" fill="#666666">[varchar(1)]</text>
</g>
<!-- md_pen_componente_digital&#45;&gt;md_pen_processo_eletronico -->
<g id="edge1" class="edge">
<title>md_pen_componente_digital:numero_registro&#45;&gt;md_pen_processo_eletronico:numero_registro</title>
<path fill="none" stroke="#000000" d="M427.6392,-1511.2099C497.8113,-1460.6018 454.6873,-842.0639 473,-764 543.8835,-461.836 426.6332,-117.5 737,-117.5"/>
<polygon fill="#000000" stroke="#000000" points="427.4639,-1511.2696 416.5463,-1510.2412 422.7319,-1512.8848 418,-1514.5 418,-1514.5 418,-1514.5 422.7319,-1512.8848 419.4537,-1518.7588 427.4639,-1511.2696 427.4639,-1511.2696"/>
</g>
<!-- md_pen_tramite -->
<g id="node4" class="node">
<title>md_pen_tramite</title>
<polygon fill="#efefef" stroke="transparent" points="779,-649.5 779,-684.5 1072,-684.5 1072,-649.5 779,-649.5"/>
<polygon fill="none" stroke="#000000" points="779,-649.5 779,-684.5 1072,-684.5 1072,-649.5 779,-649.5"/>
<text text-anchor="start" x="796.7036" y="-662.3" font-family="Arial Bold" font-size="18.00" fill="#000000">md_pen_tramite</text>
<text text-anchor="start" x="926.7284" y="-662.3" font-family="Arial" font-size="14.00" fill="#000000">    </text>
<text text-anchor="start" x="960.9332" y="-662.3" font-family="Arial" font-size="14.00" fill="#666666">[BASE TABLE]</text>
<polygon fill="none" stroke="#000000" points="779,-619.5 779,-649.5 1072,-649.5 1072,-619.5 779,-619.5"/>
<text text-anchor="start" x="786" y="-630.9" font-family="Arial" font-size="14.00" fill="#000000">numero_registro    </text>
<text text-anchor="start" x="922.1052" y="-630.9" font-family="Arial" font-size="14.00" fill="#666666">[char(16)]</text>
<polygon fill="none" stroke="#000000" points="779,-589.5 779,-619.5 1072,-619.5 1072,-589.5 779,-589.5"/>
<text text-anchor="start" x="786" y="-600.9" font-family="Arial" font-size="14.00" fill="#000000">id_tramite    </text>
<text text-anchor="start" x="881.6508" y="-600.9" font-family="Arial" font-size="14.00" fill="#666666">[bigint(20)]</text>
<polygon fill="none" stroke="#000000" points="779,-559.5 779,-589.5 1072,-589.5 1072,-559.5 779,-559.5"/>
<text text-anchor="start" x="786" y="-570.9" font-family="Arial" font-size="14.00" fill="#000000">dth_registro    </text>
<text text-anchor="start" x="894.1094" y="-570.9" font-family="Arial" font-size="14.00" fill="#666666">[datetime]</text>
<polygon fill="none" stroke="#000000" points="779,-529.5 779,-559.5 1072,-559.5 1072,-529.5 779,-529.5"/>
<text text-anchor="start" x="786" y="-540.9" font-family="Arial" font-size="14.00" fill="#000000">id_andamento    </text>
<text text-anchor="start" x="908.906" y="-540.9" font-family="Arial" font-size="14.00" fill="#666666">[int(11)]</text>
<polygon fill="none" stroke="#000000" points="779,-499.5 779,-529.5 1072,-529.5 1072,-499.5 779,-499.5"/>
<text text-anchor="start" x="786" y="-510.9" font-family="Arial" font-size="14.00" fill="#000000">id_usuario    </text>
<text text-anchor="start" x="884.7742" y="-510.9" font-family="Arial" font-size="14.00" fill="#666666">[int(11)]</text>
<polygon fill="none" stroke="#000000" points="779,-469.5 779,-499.5 1072,-499.5 1072,-469.5 779,-469.5"/>
<text text-anchor="start" x="786" y="-480.9" font-family="Arial" font-size="14.00" fill="#000000">id_unidade    </text>
<text text-anchor="start" x="888.6788" y="-480.9" font-family="Arial" font-size="14.00" fill="#666666">[int(11)]</text>
<polygon fill="none" stroke="#000000" points="779,-439.5 779,-469.5 1072,-469.5 1072,-439.5 779,-439.5"/>
<text text-anchor="start" x="786" y="-450.9" font-family="Arial" font-size="14.00" fill="#000000">id_repositorio_origem    </text>
<text text-anchor="start" x="954.7728" y="-450.9" font-family="Arial" font-size="14.00" fill="#666666">[int(11)]</text>
<polygon fill="none" stroke="#000000" points="779,-409.5 779,-439.5 1072,-439.5 1072,-409.5 779,-409.5"/>
<text text-anchor="start" x="786" y="-420.9" font-family="Arial" font-size="14.00" fill="#000000">id_estrutura_origem    </text>
<text text-anchor="start" x="944.6676" y="-420.9" font-family="Arial" font-size="14.00" fill="#666666">[int(11)]</text>
<polygon fill="none" stroke="#000000" points="779,-379.5 779,-409.5 1072,-409.5 1072,-379.5 779,-379.5"/>
<text text-anchor="start" x="786" y="-390.9" font-family="Arial" font-size="14.00" fill="#000000">id_repositorio_destino    </text>
<text text-anchor="start" x="957.1248" y="-390.9" font-family="Arial" font-size="14.00" fill="#666666">[int(11)]</text>
<polygon fill="none" stroke="#000000" points="779,-349.5 779,-379.5 1072,-379.5 1072,-349.5 779,-349.5"/>
<text text-anchor="start" x="786" y="-360.9" font-family="Arial" font-size="14.00" fill="#000000">id_estrutura_destino    </text>
<text text-anchor="start" x="947.0196" y="-360.9" font-family="Arial" font-size="14.00" fill="#666666">[int(11)]</text>
<polygon fill="none" stroke="#000000" points="779,-319.5 779,-349.5 1072,-349.5 1072,-319.5 779,-319.5"/>
<text text-anchor="start" x="786" y="-330.9" font-family="Arial" font-size="14.00" fill="#000000">sta_tipo_tramite    </text>
<text text-anchor="start" x="919.7798" y="-330.9" font-family="Arial" font-size="14.00" fill="#666666">[char(1)]</text>
<polygon fill="none" stroke="#000000" points="779,-289.5 779,-319.5 1072,-319.5 1072,-289.5 779,-289.5"/>
<text text-anchor="start" x="785.8696" y="-300.9" font-family="Arial" font-size="14.00" fill="#000000">ticket_envio_componentes    </text>
<text text-anchor="start" x="985.7938" y="-300.9" font-family="Arial" font-size="14.00" fill="#666666">[varchar(10)]</text>
</g>
<!-- md_pen_componente_digital&#45;&gt;md_pen_tramite -->
<g id="edge4" class="edge">
<title>md_pen_componente_digital:numero_registro&#45;&gt;md_pen_tramite:numero_registro</title>
<path fill="none" stroke="#000000" d="M427.4753,-1511.1291C495.1475,-1459.2881 422.2143,-826.0495 473,-764 510.7008,-717.9374 546.7016,-750.0272 602,-728 684.6522,-695.077 690.032,-634.5 779,-634.5"/>
<polygon fill="#000000" stroke="#000000" points="427.4215,-1511.1481 416.4917,-1510.2603 422.7108,-1512.8241 418,-1514.5 418,-1514.5 418,-1514.5 422.7108,-1512.8241 419.5083,-1518.7397 427.4215,-1511.1481 427.4215,-1511.1481"/>
</g>
<!-- md_pen_rel_processo_apensado -->
<g id="node3" class="node">
<title>md_pen_rel_processo_apensado</title>
<polygon fill="#efefef" stroke="transparent" points="1176,-514.5 1176,-549.5 1584,-549.5 1584,-514.5 1176,-514.5"/>
<polygon fill="none" stroke="#000000" points="1176,-514.5 1176,-549.5 1584,-549.5 1584,-514.5 1176,-514.5"/>
<text text-anchor="start" x="1182.6686" y="-527.3" font-family="Arial Bold" font-size="18.00" fill="#000000">md_pen_rel_processo_apensado</text>
<text text-anchor="start" x="1449.7634" y="-527.3" font-family="Arial" font-size="14.00" fill="#000000">    </text>
<text text-anchor="start" x="1483.9682" y="-527.3" font-family="Arial" font-size="14.00" fill="#666666">[BASE TABLE]</text>
<polygon fill="none" stroke="#000000" points="1176,-484.5 1176,-514.5 1584,-514.5 1584,-484.5 1176,-484.5"/>
<text text-anchor="start" x="1183" y="-495.9" font-family="Arial" font-size="14.00" fill="#000000">numero_registro    </text>
<text text-anchor="start" x="1319.1052" y="-495.9" font-family="Arial" font-size="14.00" fill="#666666">[char(16)]</text>
<polygon fill="none" stroke="#000000" points="1176,-454.5 1176,-484.5 1584,-484.5 1584,-454.5 1176,-454.5"/>
<text text-anchor="start" x="1183" y="-465.9" font-family="Arial" font-size="14.00" fill="#000000">id_procedimento_apensado    </text>
<text text-anchor="start" x="1389.934" y="-465.9" font-family="Arial" font-size="14.00" fill="#666666">[bigint(20)]</text>
<polygon fill="none" stroke="#000000" points="1176,-424.5 1176,-454.5 1584,-454.5 1584,-424.5 1176,-424.5"/>
<text text-anchor="start" x="1183" y="-435.9" font-family="Arial" font-size="14.00" fill="#000000">protocolo    </text>
<text text-anchor="start" x="1274.7756" y="-435.9" font-family="Arial" font-size="14.00" fill="#666666">[varchar(50)]</text>
</g>
<!-- md_pen_rel_processo_apensado&#45;&gt;md_pen_processo_eletronico -->
<g id="edge2" class="edge">
<title>md_pen_rel_processo_apensado:numero_registro&#45;&gt;md_pen_processo_eletronico:numero_registro</title>
<path fill="none" stroke="#000000" d="M1165.9686,-497.4447C1099.0915,-467.3772 1196.3044,-117.5 1114,-117.5"/>
<polygon fill="#000000" stroke="#000000" points="1166.2035,-497.4928 1175.0968,-503.9084 1171.1017,-498.4964 1176,-499.5 1176,-499.5 1176,-499.5 1171.1017,-498.4964 1176.9032,-495.0916 1166.2035,-497.4928 1166.2035,-497.4928"/>
</g>
<!-- md_pen_tramite&#45;&gt;md_pen_processo_eletronico -->
<g id="edge3" class="edge">
<title>md_pen_tramite:numero_registro&#45;&gt;md_pen_processo_eletronico:numero_registro</title>
<path fill="none" stroke="#000000" d="M769.0598,-633.1948C661.4067,-604.6508 625.1096,-117.5 737,-117.5"/>
<polygon fill="#000000" stroke="#000000" points="769.0851,-633.198 778.4141,-638.9617 774.0426,-633.849 779,-634.5 779,-634.5 779,-634.5 774.0426,-633.849 779.5859,-630.0383 769.0851,-633.198 769.0851,-633.198"/>
</g>
<!-- md_pen_recibo_tramite -->
<g id="node5" class="node">
<title>md_pen_recibo_tramite</title>
<polygon fill="#efefef" stroke="transparent" points="525,-1244.5 525,-1279.5 855,-1279.5 855,-1244.5 525,-1244.5"/>
<polygon fill="none" stroke="#000000" points="525,-1244.5 525,-1279.5 855,-1279.5 855,-1244.5 525,-1244.5"/>
<text text-anchor="start" x="531.698" y="-1257.3" font-family="Arial Bold" font-size="18.00" fill="#000000">md_pen_recibo_tramite</text>
<text text-anchor="start" x="720.734" y="-1257.3" font-family="Arial" font-size="14.00" fill="#000000">    </text>
<text text-anchor="start" x="754.9388" y="-1257.3" font-family="Arial" font-size="14.00" fill="#666666">[BASE TABLE]</text>
<polygon fill="none" stroke="#000000" points="525,-1214.5 525,-1244.5 855,-1244.5 855,-1214.5 525,-1214.5"/>
<text text-anchor="start" x="532" y="-1225.9" font-family="Arial" font-size="14.00" fill="#000000">numero_registro    </text>
<text text-anchor="start" x="668.1052" y="-1225.9" font-family="Arial" font-size="14.00" fill="#666666">[char(16)]</text>
<polygon fill="none" stroke="#000000" points="525,-1184.5 525,-1214.5 855,-1214.5 855,-1184.5 525,-1184.5"/>
<text text-anchor="start" x="532" y="-1195.9" font-family="Arial" font-size="14.00" fill="#000000">id_tramite    </text>
<text text-anchor="start" x="627.6508" y="-1195.9" font-family="Arial" font-size="14.00" fill="#666666">[bigint(20)]</text>
<polygon fill="none" stroke="#000000" points="525,-1154.5 525,-1184.5 855,-1184.5 855,-1154.5 525,-1154.5"/>
<text text-anchor="start" x="532" y="-1165.9" font-family="Arial" font-size="14.00" fill="#000000">dth_recebimento    </text>
<text text-anchor="start" x="670.4572" y="-1165.9" font-family="Arial" font-size="14.00" fill="#666666">[datetime]</text>
<polygon fill="none" stroke="#000000" points="525,-1124.5 525,-1154.5 855,-1154.5 855,-1124.5 525,-1124.5"/>
<text text-anchor="start" x="532" y="-1135.9" font-family="Arial" font-size="14.00" fill="#000000">hash_assinatura    </text>
<text text-anchor="start" x="668.906" y="-1135.9" font-family="Arial" font-size="14.00" fill="#666666">[varchar(1000)]</text>
<polygon fill="none" stroke="#000000" points="525,-1094.5 525,-1124.5 855,-1124.5 855,-1094.5 525,-1094.5"/>
<text text-anchor="start" x="532" y="-1105.9" font-family="Arial" font-size="14.00" fill="#000000">cadeia_certificado    </text>
<text text-anchor="start" x="679.0098" y="-1105.9" font-family="Arial" font-size="14.00" fill="#666666">[longtext]</text>
</g>
<!-- md_pen_recibo_tramite&#45;&gt;md_pen_tramite -->
<g id="edge5" class="edge">
<title>md_pen_recibo_tramite:numero_registro&#45;&gt;md_pen_tramite:numero_registro</title>
<path fill="none" stroke="#000000" d="M865.2016,-1228.0954C969.2735,-1196.276 649.4785,-634.5 779,-634.5"/>
<polygon fill="#000000" stroke="#000000" points="864.9065,-1228.1359 854.3862,-1225.0421 859.9533,-1228.818 855,-1229.5 855,-1229.5 855,-1229.5 859.9533,-1228.818 855.6138,-1233.9579 864.9065,-1228.1359 864.9065,-1228.1359"/>
</g>
<!-- md_pen_recibo_tramite_enviado -->
<g id="node6" class="node">
<title>md_pen_recibo_tramite_enviado</title>
<polygon fill="#efefef" stroke="transparent" points="960,-1244.5 960,-1279.5 1363,-1279.5 1363,-1244.5 960,-1244.5"/>
<polygon fill="none" stroke="#000000" points="960,-1244.5 960,-1279.5 1363,-1279.5 1363,-1244.5 960,-1244.5"/>
<text text-anchor="start" x="966.6823" y="-1257.3" font-family="Arial Bold" font-size="18.00" fill="#000000">md_pen_recibo_tramite_enviado</text>
<text text-anchor="start" x="1228.7497" y="-1257.3" font-family="Arial" font-size="14.00" fill="#000000">    </text>
<text text-anchor="start" x="1262.9545" y="-1257.3" font-family="Arial" font-size="14.00" fill="#666666">[BASE TABLE]</text>
<polygon fill="none" stroke="#000000" points="960,-1214.5 960,-1244.5 1363,-1244.5 1363,-1214.5 960,-1214.5"/>
<text text-anchor="start" x="967" y="-1225.9" font-family="Arial" font-size="14.00" fill="#000000">numero_registro    </text>
<text text-anchor="start" x="1103.1052" y="-1225.9" font-family="Arial" font-size="14.00" fill="#666666">[char(16)]</text>
<polygon fill="none" stroke="#000000" points="960,-1184.5 960,-1214.5 1363,-1214.5 1363,-1184.5 960,-1184.5"/>
<text text-anchor="start" x="967" y="-1195.9" font-family="Arial" font-size="14.00" fill="#000000">id_tramite    </text>
<text text-anchor="start" x="1062.6508" y="-1195.9" font-family="Arial" font-size="14.00" fill="#666666">[bigint(20)]</text>
<polygon fill="none" stroke="#000000" points="960,-1154.5 960,-1184.5 1363,-1184.5 1363,-1154.5 960,-1154.5"/>
<text text-anchor="start" x="967" y="-1165.9" font-family="Arial" font-size="14.00" fill="#000000">dth_recebimento    </text>
<text text-anchor="start" x="1105.4572" y="-1165.9" font-family="Arial" font-size="14.00" fill="#666666">[datetime]</text>
<polygon fill="none" stroke="#000000" points="960,-1124.5 960,-1154.5 1363,-1154.5 1363,-1124.5 960,-1124.5"/>
<text text-anchor="start" x="967" y="-1135.9" font-family="Arial" font-size="14.00" fill="#000000">hash_assinatura    </text>
<text text-anchor="start" x="1103.906" y="-1135.9" font-family="Arial" font-size="14.00" fill="#666666">[varchar(1000)]</text>
<polygon fill="none" stroke="#000000" points="960,-1094.5 960,-1124.5 1363,-1124.5 1363,-1094.5 960,-1094.5"/>
<text text-anchor="start" x="967" y="-1105.9" font-family="Arial" font-size="14.00" fill="#000000">cadeia_certificado    </text>
<text text-anchor="start" x="1114.0098" y="-1105.9" font-family="Arial" font-size="14.00" fill="#666666">[longtext]</text>
</g>
<!-- md_pen_recibo_tramite_enviado&#45;&gt;md_pen_tramite -->
<g id="edge6" class="edge">
<title>md_pen_recibo_tramite_enviado:numero_registro&#45;&gt;md_pen_tramite:numero_registro</title>
<path fill="none" stroke="#000000" d="M949.8398,-1228.8553C887.166,-1220.2012 947.5451,-1126.1523 960,-1052 985.2375,-901.7439 1046.7625,-878.2561 1072,-728 1078.8834,-687.0185 1113.5556,-634.5 1072,-634.5"/>
<polygon fill="#000000" stroke="#000000" points="950.0201,-1228.8667 959.715,-1233.991 955.01,-1229.1833 960,-1229.5 960,-1229.5 960,-1229.5 955.01,-1229.1833 960.285,-1225.009 950.0201,-1228.8667 950.0201,-1228.8667"/>
</g>
<!-- md_pen_recibo_tramite_hash -->
<g id="node7" class="node">
<title>md_pen_recibo_tramite_hash</title>
<polygon fill="#efefef" stroke="transparent" points="1467,-1244.5 1467,-1279.5 1846,-1279.5 1846,-1244.5 1467,-1244.5"/>
<polygon fill="none" stroke="#000000" points="1467,-1244.5 1467,-1279.5 1846,-1279.5 1846,-1244.5 1467,-1244.5"/>
<text text-anchor="start" x="1473.6856" y="-1257.3" font-family="Arial Bold" font-size="18.00" fill="#000000">md_pen_recibo_tramite_hash</text>
<text text-anchor="start" x="1711.7464" y="-1257.3" font-family="Arial" font-size="14.00" fill="#000000">    </text>
<text text-anchor="start" x="1745.9512" y="-1257.3" font-family="Arial" font-size="14.00" fill="#666666">[BASE TABLE]</text>
<polygon fill="none" stroke="#000000" points="1467,-1214.5 1467,-1244.5 1846,-1244.5 1846,-1214.5 1467,-1214.5"/>
<text text-anchor="start" x="1474" y="-1225.9" font-family="Arial" font-size="14.00" fill="#000000">id_tramite_hash    </text>
<text text-anchor="start" x="1607.7812" y="-1225.9" font-family="Arial" font-size="14.00" fill="#666666">[bigint(20)]</text>
<polygon fill="none" stroke="#000000" points="1467,-1184.5 1467,-1214.5 1846,-1214.5 1846,-1184.5 1467,-1184.5"/>
<text text-anchor="start" x="1474" y="-1195.9" font-family="Arial" font-size="14.00" fill="#000000">numero_registro    </text>
<text text-anchor="start" x="1610.1052" y="-1195.9" font-family="Arial" font-size="14.00" fill="#666666">[char(16)]</text>
<polygon fill="none" stroke="#000000" points="1467,-1154.5 1467,-1184.5 1846,-1184.5 1846,-1154.5 1467,-1154.5"/>
<text text-anchor="start" x="1474" y="-1165.9" font-family="Arial" font-size="14.00" fill="#000000">id_tramite    </text>
<text text-anchor="start" x="1569.6508" y="-1165.9" font-family="Arial" font-size="14.00" fill="#666666">[bigint(20)]</text>
<polygon fill="none" stroke="#000000" points="1467,-1124.5 1467,-1154.5 1846,-1154.5 1846,-1124.5 1467,-1124.5"/>
<text text-anchor="start" x="1474" y="-1135.9" font-family="Arial" font-size="14.00" fill="#000000">tipo_recibo    </text>
<text text-anchor="start" x="1576.6648" y="-1135.9" font-family="Arial" font-size="14.00" fill="#666666">[char(1)]</text>
<polygon fill="none" stroke="#000000" points="1467,-1094.5 1467,-1124.5 1846,-1124.5 1846,-1094.5 1467,-1094.5"/>
<text text-anchor="start" x="1474" y="-1105.9" font-family="Arial" font-size="14.00" fill="#000000">hash_componente_digital    </text>
<text text-anchor="start" x="1667.7054" y="-1105.9" font-family="Arial" font-size="14.00" fill="#666666">[varchar(255)]</text>
</g>
<!-- md_pen_recibo_tramite_hash&#45;&gt;md_pen_tramite -->
<g id="edge7" class="edge">
<title>md_pen_recibo_tramite_hash:numero_registro&#45;&gt;md_pen_tramite:numero_registro</title>
<path fill="none" stroke="#000000" d="M1457.0038,-1198.0201C1377.7613,-1172.7131 1481.2198,-830.5015 1415,-764 1323.0462,-671.655 1232.0576,-800.8469 1124,-728 1084.5728,-701.4202 1119.5498,-634.5 1072,-634.5"/>
<polygon fill="#000000" stroke="#000000" points="1457.1078,-1198.0354 1466.3409,-1203.9515 1462.0539,-1198.7677 1467,-1199.5 1467,-1199.5 1467,-1199.5 1462.0539,-1198.7677 1467.6591,-1195.0485 1457.1078,-1198.0354 1457.1078,-1198.0354"/>
</g>
<!-- md_pen_recibo_tramite_recebido -->
<g id="node8" class="node">
<title>md_pen_recibo_tramite_recebido</title>
<polygon fill="#efefef" stroke="transparent" points="1950,-1244.5 1950,-1279.5 2359,-1279.5 2359,-1244.5 1950,-1244.5"/>
<polygon fill="none" stroke="#000000" points="1950,-1244.5 1950,-1279.5 2359,-1279.5 2359,-1244.5 1950,-1244.5"/>
<text text-anchor="start" x="1956.6862" y="-1257.3" font-family="Arial Bold" font-size="18.00" fill="#000000">md_pen_recibo_tramite_recebido</text>
<text text-anchor="start" x="2224.7458" y="-1257.3" font-family="Arial" font-size="14.00" fill="#000000">    </text>
<text text-anchor="start" x="2258.9506" y="-1257.3" font-family="Arial" font-size="14.00" fill="#666666">[BASE TABLE]</text>
<polygon fill="none" stroke="#000000" points="1950,-1214.5 1950,-1244.5 2359,-1244.5 2359,-1214.5 1950,-1214.5"/>
<text text-anchor="start" x="1957" y="-1225.9" font-family="Arial" font-size="14.00" fill="#000000">numero_registro    </text>
<text text-anchor="start" x="2093.1052" y="-1225.9" font-family="Arial" font-size="14.00" fill="#666666">[char(16)]</text>
<polygon fill="none" stroke="#000000" points="1950,-1184.5 1950,-1214.5 2359,-1214.5 2359,-1184.5 1950,-1184.5"/>
<text text-anchor="start" x="1957" y="-1195.9" font-family="Arial" font-size="14.00" fill="#000000">id_tramite    </text>
<text text-anchor="start" x="2052.6508" y="-1195.9" font-family="Arial" font-size="14.00" fill="#666666">[bigint(20)]</text>
<polygon fill="none" stroke="#000000" points="1950,-1154.5 1950,-1184.5 2359,-1184.5 2359,-1154.5 1950,-1154.5"/>
<text text-anchor="start" x="1957" y="-1165.9" font-family="Arial" font-size="14.00" fill="#000000">dth_recebimento    </text>
<text text-anchor="start" x="2095.4572" y="-1165.9" font-family="Arial" font-size="14.00" fill="#666666">[datetime]</text>
<polygon fill="none" stroke="#000000" points="1950,-1124.5 1950,-1154.5 2359,-1154.5 2359,-1124.5 1950,-1124.5"/>
<text text-anchor="start" x="1957" y="-1135.9" font-family="Arial" font-size="14.00" fill="#000000">hash_assinatura    </text>
<text text-anchor="start" x="2093.906" y="-1135.9" font-family="Arial" font-size="14.00" fill="#666666">[varchar(1000)]</text>
<polygon fill="none" stroke="#000000" points="1950,-1094.5 1950,-1124.5 2359,-1124.5 2359,-1094.5 1950,-1094.5"/>
<text text-anchor="start" x="1957" y="-1105.9" font-family="Arial" font-size="14.00" fill="#000000">cadeia_certificado    </text>
<text text-anchor="start" x="2104.0098" y="-1105.9" font-family="Arial" font-size="14.00" fill="#666666">[longtext]</text>
</g>
<!-- md_pen_recibo_tramite_recebido&#45;&gt;md_pen_tramite -->
<g id="edge8" class="edge">
<title>md_pen_recibo_tramite_recebido:numero_registro&#45;&gt;md_pen_tramite:numero_registro</title>
<path fill="none" stroke="#000000" d="M1939.8637,-1228.0691C1854.6624,-1202.1737 1971.2758,-832.6771 1898,-764 1835.1839,-705.1261 1197.1768,-773.3559 1124,-728 1083.5839,-702.9495 1119.5498,-634.5 1072,-634.5"/>
<polygon fill="#000000" stroke="#000000" points="1940.0982,-1228.1021 1949.3709,-1233.9558 1945.0491,-1228.801 1950,-1229.5 1950,-1229.5 1950,-1229.5 1945.0491,-1228.801 1950.6291,-1225.0442 1940.0982,-1228.1021 1940.0982,-1228.1021"/>
</g>
</g>
</svg>
