<svg xmlns="http://www.w3.org/2000/svg" width="608" height="562pt" viewBox="0 0 456 562"><g class="graph" transform="translate(4 558)"><title>md_pen_hipotese_legal</title><path fill="#fff" stroke="transparent" d="M-4 4v-562h456V4z"/><g class="node"><title>md_pen_hipotese_legal</title><path fill="#efefef" stroke="transparent" d="M58-165.5v-35h332v35z"/><path fill="none" stroke="#000" d="M58-165.5v-35h332v35z"/><text x="64.681" y="-178.3" font-family="Arial Bold" font-size="18">md_pen_hipotese_legal</text><text x="255.751" y="-178.3" font-family="Arial" font-size="14">    </text><text x="289.956" y="-178.3" fill="#666" font-family="Arial" font-size="14">[BASE TABLE]</text><path fill="none" stroke="#000" d="M58-135.5v-30h332v30z"/><text x="65" y="-146.9" font-family="Arial" font-size="14">id_hipotese_legal </text><text x="177.816" y="-146.9" fill="#666" font-family="Arial" font-size="14">[int(11)]</text><path fill="none" stroke="#000" d="M58-105.5v-30h332v30z"/><text x="65" y="-116.9" font-family="Arial" font-size="14">nome </text><text x="103.899" y="-116.9" fill="#666" font-family="Arial" font-size="14">[varchar(255)]</text><path fill="none" stroke="#000" d="M58-75.5v-30h332v30z"/><text x="65" y="-86.9" font-family="Arial" font-size="14">sin_ativo </text><text x="124.125" y="-86.9" fill="#666" font-family="Arial" font-size="14">[char(1)]</text><path fill="none" stroke="#000" d="M58-45.5v-30h332v30z"/><text x="65" y="-56.9" font-family="Arial" font-size="14">identificacao </text><text x="146.687" y="-56.9" fill="#666" font-family="Arial" font-size="14">[int(11)]</text><path fill="none" stroke="#000" stroke-width="3" d="M56.5-44.5v-158h335v158z"/></g><g class="node"><title>md_pen_rel_hipotese_legal</title><path fill="#efefef" stroke="transparent" d="M43-475.5v-35h362v35z"/><path fill="none" stroke="#000" d="M43-475.5v-35h362v35z"/><text x="49.682" y="-488.3" font-family="Arial Bold" font-size="18">md_pen_rel_hipotese_legal</text><text x="270.75" y="-488.3" font-family="Arial" font-size="14">    </text><text x="304.955" y="-488.3" fill="#666" font-family="Arial" font-size="14">[BASE TABLE]</text><path fill="none" stroke="#000" d="M43-445.5v-30h362v30z"/><text x="50" y="-456.9" font-family="Arial" font-size="14">id_mapeamento    </text><text x="184.567" y="-456.9" fill="#666" font-family="Arial" font-size="14">[bigint(20)]</text><path fill="none" stroke="#000" d="M43-415.5v-30h362v30z"/><text x="50" y="-426.9" font-family="Arial" font-size="14">id_hipotese_legal    </text><text x="193.13" y="-426.9" fill="#666" font-family="Arial" font-size="14">[int(11)]</text><path fill="none" stroke="#000" d="M43-385.5v-30h362v30z"/><text x="50" y="-396.9" font-family="Arial" font-size="14">id_hipotese_legal_pen    </text><text x="224.261" y="-396.9" fill="#666" font-family="Arial" font-size="14">[int(11)]</text><path fill="none" stroke="#000" d="M43-355.5v-30h362v30z"/><text x="50" y="-366.9" font-family="Arial" font-size="14">tipo    </text><text x="106.767" y="-366.9" fill="#666" font-family="Arial" font-size="14">[char(1)]</text><path fill="none" stroke="#000" d="M43-325.5v-30h362v30z"/><text x="50" y="-336.9" font-family="Arial" font-size="14">sin_ativo    </text><text x="139.439" y="-336.9" fill="#666" font-family="Arial" font-size="14">[char(1)]</text></g><g class="edge"><title>md_pen_rel_hipotese_legal:id_hipotese_legal_pen-&gt;md_pen_hipotese_legal:id_hipotese_legal</title><path fill="none" stroke="#000" d="M414.615-397.692C458.622-370.227 442.177-150.5 390-150.5"/><path stroke="#000" d="m414.6-397.697-10.861 1.517 6.06-2.918L405-400.5l4.8 1.402-3.539-5.722z"/></g></g></svg>