<svg xmlns="http://www.w3.org/2000/svg" width="493pt" height="562pt" viewBox="0 0 492.88 562"><g class="graph" transform="translate(4 558)"><title>md_pen_rel_hipotese_legal</title><path fill="#fff" stroke="transparent" d="M-4 4v-562h492.879V4z"/><g class="node"><title>md_pen_rel_hipotese_legal</title><path fill="#efefef" stroke="transparent" d="M46-472.5v-35h362v35z"/><path fill="none" stroke="#000" d="M46-472.5v-35h362v35z"/><text x="52.682" y="-485.3" font-family="Arial Bold" font-size="18">md_pen_rel_hipotese_legal</text><text x="273.75" y="-485.3" font-family="Arial" font-size="14">    </text><text x="307.955" y="-485.3" fill="#666" font-family="Arial" font-size="14">[BASE TABLE]</text><path fill="none" stroke="#000" d="M46-442.5v-30h362v30z"/><text x="53" y="-453.9" font-family="Arial" font-size="14">id_mapeamento </text><text x="157.252" y="-453.9" fill="#666" font-family="Arial" font-size="14">[bigint(20)]</text><path fill="none" stroke="#000" d="M46-412.5v-30h362v30z"/><text x="53" y="-423.9" font-family="Arial" font-size="14">id_hipotese_legal </text><text x="165.816" y="-423.9" fill="#666" font-family="Arial" font-size="14">[int(11)]</text><path fill="none" stroke="#000" d="M46-382.5v-30h362v30z"/><text x="53" y="-393.9" font-family="Arial" font-size="14">id_hipotese_legal_pen </text><text x="196.947" y="-393.9" fill="#666" font-family="Arial" font-size="14">[int(11)]</text><path fill="none" stroke="#000" d="M46-352.5v-30h362v30z"/><text x="53" y="-363.9" font-family="Arial" font-size="14">tipo </text><text x="79.453" y="-363.9" fill="#666" font-family="Arial" font-size="14">[char(1)]</text><path fill="none" stroke="#000" d="M46-322.5v-30h362v30z"/><text x="53" y="-333.9" font-family="Arial" font-size="14">sin_ativo </text><text x="112.125" y="-333.9" fill="#666" font-family="Arial" font-size="14">[char(1)]</text><path fill="none" stroke="#000" stroke-width="3" d="M44.5-321.5v-188h365v188z"/></g><g class="node"><title>md_pen_hipotese_legal</title><path fill="#efefef" stroke="transparent" d="M61-162.5v-35h332v35z"/><path fill="none" stroke="#000" d="M61-162.5v-35h332v35z"/><text x="67.681" y="-175.3" font-family="Arial Bold" font-size="18">md_pen_hipotese_legal</text><text x="258.751" y="-175.3" font-family="Arial" font-size="14">    </text><text x="292.956" y="-175.3" fill="#666" font-family="Arial" font-size="14">[BASE TABLE]</text><path fill="none" stroke="#000" d="M61-132.5v-30h332v30z"/><text x="68" y="-143.9" font-family="Arial" font-size="14">id_hipotese_legal    </text><text x="211.13" y="-143.9" fill="#666" font-family="Arial" font-size="14">[int(11)]</text><path fill="none" stroke="#000" d="M61-102.5v-30h332v30z"/><text x="68" y="-113.9" font-family="Arial" font-size="14">nome    </text><text x="137.213" y="-113.9" fill="#666" font-family="Arial" font-size="14">[varchar(255)]</text><path fill="none" stroke="#000" d="M61-72.5v-30h332v30z"/><text x="68" y="-83.9" font-family="Arial" font-size="14">sin_ativo    </text><text x="157.439" y="-83.9" fill="#666" font-family="Arial" font-size="14">[char(1)]</text><path fill="none" stroke="#000" d="M61-42.5v-30h332v30z"/><text x="68" y="-53.9" font-family="Arial" font-size="14">identificacao    </text><text x="180.001" y="-53.9" fill="#666" font-family="Arial" font-size="14">[int(11)]</text></g><g class="edge"><title>md_pen_rel_hipotese_legal:id_hipotese_legal_pen-&gt;md_pen_hipotese_legal:id_hipotese_legal</title><path fill="none" stroke="#000" d="M418.066-396.783C518.28-382.119 500.833-147.5 393-147.5"/><path stroke="#000" d="m417.975-396.79-10.295 3.779 5.307-4.134L408-397.5l4.987.355-4.667-4.844 9.655 5.2z"/></g></g></svg>