<?xml version="1.0" encoding="UTF-8" standalone="no"?>
<!DOCTYPE svg PUBLIC "-//W3C//DTD SVG 1.1//EN"
 "http://www.w3.org/Graphics/SVG/1.1/DTD/svg11.dtd">
<!-- Generated by graphviz version 2.40.1 (20161225.0304)
 -->
<!-- Title: md_pen_rel_doc_map_recebido Pages: 1 -->
<svg width="996pt" height="442pt"
 viewBox="0.00 0.00 996.00 442.00" xmlns="http://www.w3.org/2000/svg" xmlns:xlink="http://www.w3.org/1999/xlink">
<g id="graph0" class="graph" transform="scale(1 1) rotate(0) translate(4 438)">
<title>md_pen_rel_doc_map_recebido</title>
<polygon fill="#ffffff" stroke="transparent" points="-4,4 -4,-438 992,-438 992,4 -4,4"/>
<!-- md_pen_rel_doc_map_recebido -->
<g id="node1" class="node">
<title>md_pen_rel_doc_map_recebido</title>
<polygon fill="#efefef" stroke="transparent" points="46.5,-352.5 46.5,-387.5 445.5,-387.5 445.5,-352.5 46.5,-352.5"/>
<polygon fill="none" stroke="#000000" points="46.5,-352.5 46.5,-387.5 445.5,-387.5 445.5,-352.5 46.5,-352.5"/>
<text text-anchor="start" x="53.1785" y="-365.3" font-family="Arial Bold" font-size="18.00" fill="#000000">md_pen_rel_doc_map_recebido</text>
<text text-anchor="start" x="311.2535" y="-365.3" font-family="Arial" font-size="14.00" fill="#000000">    </text>
<text text-anchor="start" x="345.4583" y="-365.3" font-family="Arial" font-size="14.00" fill="#666666">[BASE TABLE]</text>
<polygon fill="none" stroke="#000000" points="46.5,-322.5 46.5,-352.5 445.5,-352.5 445.5,-322.5 46.5,-322.5"/>
<text text-anchor="start" x="53.5" y="-333.9" font-family="Arial" font-size="14.00" fill="#000000">id_mapeamento </text>
<text text-anchor="start" x="157.7524" y="-333.9" font-family="Arial" font-size="14.00" fill="#666666">[bigint(20)]</text>
<polygon fill="none" stroke="#000000" points="46.5,-292.5 46.5,-322.5 445.5,-322.5 445.5,-292.5 46.5,-292.5"/>
<text text-anchor="start" x="53.5" y="-303.9" font-family="Arial" font-size="14.00" fill="#000000">codigo_especie </text>
<text text-anchor="start" x="154.6472" y="-303.9" font-family="Arial" font-size="14.00" fill="#666666">[int(11)]</text>
<polygon fill="none" stroke="#000000" points="46.5,-262.5 46.5,-292.5 445.5,-292.5 445.5,-262.5 46.5,-262.5"/>
<text text-anchor="start" x="53.5" y="-273.9" font-family="Arial" font-size="14.00" fill="#000000">id_serie </text>
<text text-anchor="start" x="106.3948" y="-273.9" font-family="Arial" font-size="14.00" fill="#666666">[int(11)]</text>
<polygon fill="none" stroke="#000000" stroke-width="3" points="44.5,-261.5 44.5,-389.5 446.5,-389.5 446.5,-261.5 44.5,-261.5"/>
</g>
<!-- md_pen_especie_documental -->
<g id="node2" class="node">
<title>md_pen_especie_documental</title>
<polygon fill="#efefef" stroke="transparent" points="306.5,-102.5 306.5,-137.5 687.5,-137.5 687.5,-102.5 306.5,-102.5"/>
<polygon fill="none" stroke="#000000" points="306.5,-102.5 306.5,-137.5 687.5,-137.5 687.5,-102.5 306.5,-102.5"/>
<text text-anchor="start" x="313.1758" y="-115.3" font-family="Arial Bold" font-size="18.00" fill="#000000">md_pen_especie_documental</text>
<text text-anchor="start" x="553.2562" y="-115.3" font-family="Arial" font-size="14.00" fill="#000000">    </text>
<text text-anchor="start" x="587.461" y="-115.3" font-family="Arial" font-size="14.00" fill="#666666">[BASE TABLE]</text>
<polygon fill="none" stroke="#000000" points="306.5,-72.5 306.5,-102.5 687.5,-102.5 687.5,-72.5 306.5,-72.5"/>
<text text-anchor="start" x="313.5" y="-83.9" font-family="Arial" font-size="14.00" fill="#000000">id_especie    </text>
<text text-anchor="start" x="414.6136" y="-83.9" font-family="Arial" font-size="14.00" fill="#666666">[int(11)]</text>
<polygon fill="none" stroke="#000000" points="306.5,-42.5 306.5,-72.5 687.5,-72.5 687.5,-42.5 306.5,-42.5"/>
<text text-anchor="start" x="313.5" y="-53.9" font-family="Arial" font-size="14.00" fill="#000000">nome_especie    </text>
<text text-anchor="start" x="438.7328" y="-53.9" font-family="Arial" font-size="14.00" fill="#666666">[varchar(255)]</text>
</g>
<!-- md_pen_rel_doc_map_recebido&#45;&gt;md_pen_especie_documental -->
<g id="edge1" class="edge">
<title>md_pen_rel_doc_map_recebido:codigo_especie&#45;&gt;md_pen_especie_documental:id_especie</title>
<path fill="none" stroke="#000000" d="M455.7303,-305.9005C482.5888,-296.293 467.7149,-245.7014 445.5,-217 406.4396,-166.5344 345.5604,-231.4656 306.5,-181 281.0647,-148.138 264.9444,-87.5 306.5,-87.5"/>
<polygon fill="#000000" stroke="#000000" points="455.38,-305.9552 444.8048,-303.054 450.44,-306.7276 445.5,-307.5 445.5,-307.5 445.5,-307.5 450.44,-306.7276 446.1952,-311.946 455.38,-305.9552 455.38,-305.9552"/>
</g>
<!-- md_pen_rel_doc_map_enviado -->
<g id="node3" class="node">
<title>md_pen_rel_doc_map_enviado</title>
<polygon fill="#efefef" stroke="transparent" points="552.5,-352.5 552.5,-387.5 945.5,-387.5 945.5,-352.5 552.5,-352.5"/>
<polygon fill="none" stroke="#000000" points="552.5,-352.5 552.5,-387.5 945.5,-387.5 945.5,-352.5 552.5,-352.5"/>
<text text-anchor="start" x="559.1746" y="-365.3" font-family="Arial Bold" font-size="18.00" fill="#000000">md_pen_rel_doc_map_enviado</text>
<text text-anchor="start" x="811.2574" y="-365.3" font-family="Arial" font-size="14.00" fill="#000000">    </text>
<text text-anchor="start" x="845.4622" y="-365.3" font-family="Arial" font-size="14.00" fill="#666666">[BASE TABLE]</text>
<polygon fill="none" stroke="#000000" points="552.5,-322.5 552.5,-352.5 945.5,-352.5 945.5,-322.5 552.5,-322.5"/>
<text text-anchor="start" x="559.5" y="-333.9" font-family="Arial" font-size="14.00" fill="#000000">id_mapeamento    </text>
<text text-anchor="start" x="694.0666" y="-333.9" font-family="Arial" font-size="14.00" fill="#666666">[bigint(20)]</text>
<polygon fill="none" stroke="#000000" points="552.5,-292.5 552.5,-322.5 945.5,-322.5 945.5,-292.5 552.5,-292.5"/>
<text text-anchor="start" x="559.5" y="-303.9" font-family="Arial" font-size="14.00" fill="#000000">codigo_especie    </text>
<text text-anchor="start" x="690.9614" y="-303.9" font-family="Arial" font-size="14.00" fill="#666666">[int(11)]</text>
<polygon fill="none" stroke="#000000" points="552.5,-262.5 552.5,-292.5 945.5,-292.5 945.5,-262.5 552.5,-262.5"/>
<text text-anchor="start" x="559.5" y="-273.9" font-family="Arial" font-size="14.00" fill="#000000">id_serie    </text>
<text text-anchor="start" x="642.709" y="-273.9" font-family="Arial" font-size="14.00" fill="#666666">[int(11)]</text>
</g>
<!-- md_pen_rel_doc_map_enviado&#45;&gt;md_pen_especie_documental -->
<g id="edge2" class="edge">
<title>md_pen_rel_doc_map_enviado:codigo_especie&#45;&gt;md_pen_especie_documental:id_especie</title>
<path fill="none" stroke="#000000" d="M542.2858,-305.8398C516.8438,-296.3013 531.5007,-247.9245 552.5,-220 590.0361,-170.0852 649.9639,-230.9148 687.5,-181 712.4759,-147.7875 729.0556,-87.5 687.5,-87.5"/>
<polygon fill="#000000" stroke="#000000" points="542.6295,-305.8956 551.778,-311.9417 547.5648,-306.6978 552.5,-307.5 552.5,-307.5 552.5,-307.5 547.5648,-306.6978 553.222,-303.0583 542.6295,-305.8956 542.6295,-305.8956"/>
</g>
</g>
</svg>
