<?xml version="1.0" encoding="UTF-8" standalone="no"?>
<!DOCTYPE svg PUBLIC "-//W3C//DTD SVG 1.1//EN"
 "http://www.w3.org/Graphics/SVG/1.1/DTD/svg11.dtd">
<!-- Generated by graphviz version 2.40.1 (20161225.0304)
 -->
<!-- Title: md_pen_tramite_pendente Pages: 1 -->
<svg width="456pt" height="225pt"
 viewBox="0.00 0.00 456.00 225.00" xmlns="http://www.w3.org/2000/svg" xmlns:xlink="http://www.w3.org/1999/xlink">
<g id="graph0" class="graph" transform="scale(1 1) rotate(0) translate(4 221)">
<title>md_pen_tramite_pendente</title>
<polygon fill="#ffffff" stroke="transparent" points="-4,4 -4,-221 452,-221 452,4 -4,4"/>
<!-- md_pen_tramite_pendente -->
<g id="node1" class="node">
<title>md_pen_tramite_pendente</title>
<polygon fill="#efefef" stroke="transparent" points="46,-135.5 46,-170.5 402,-170.5 402,-135.5 46,-135.5"/>
<polygon fill="none" stroke="#000000" points="46,-135.5 46,-170.5 402,-170.5 402,-135.5 46,-135.5"/>
<text text-anchor="start" x="52.6777" y="-148.3" font-family="Arial Bold" font-size="18.00" fill="#000000">md_pen_tramite_pendente</text>
<text text-anchor="start" x="267.7543" y="-148.3" font-family="Arial" font-size="14.00" fill="#000000">    </text>
<text text-anchor="start" x="301.9591" y="-148.3" font-family="Arial" font-size="14.00" fill="#666666">[BASE TABLE]</text>
<polygon fill="none" stroke="#000000" points="46,-105.5 46,-135.5 402,-135.5 402,-105.5 46,-105.5"/>
<text text-anchor="start" x="53" y="-116.9" font-family="Arial" font-size="14.00" fill="#000000">id </text>
<text text-anchor="start" x="67.7798" y="-116.9" font-family="Arial" font-size="14.00" fill="#666666">[int(11)]</text>
<polygon fill="none" stroke="#000000" points="46,-75.5 46,-105.5 402,-105.5 402,-75.5 46,-75.5"/>
<text text-anchor="start" x="53" y="-86.9" font-family="Arial" font-size="14.00" fill="#000000">numero_tramite </text>
<text text-anchor="start" x="154.899" y="-86.9" font-family="Arial" font-size="14.00" fill="#666666">[varchar(255)]</text>
<polygon fill="none" stroke="#000000" points="46,-45.5 46,-75.5 402,-75.5 402,-45.5 46,-45.5"/>
<text text-anchor="start" x="53" y="-56.9" font-family="Arial" font-size="14.00" fill="#000000">id_atividade_expedicao </text>
<text text-anchor="start" x="203.164" y="-56.9" font-family="Arial" font-size="14.00" fill="#666666">[int(11)]</text>
<polygon fill="none" stroke="#000000" stroke-width="3" points="44.5,-44.5 44.5,-172.5 403.5,-172.5 403.5,-44.5 44.5,-44.5"/>
</g>
</g>
</svg>
