<?xml version="1.0" encoding="UTF-8" standalone="no"?>
<!DOCTYPE svg PUBLIC "-//W3C//DTD SVG 1.1//EN"
 "http://www.w3.org/Graphics/SVG/1.1/DTD/svg11.dtd">
<!-- Generated by graphviz version 2.40.1 (20161225.0304)
 -->
<!-- Title: md_pen_rel_expedir_lote Pages: 1 -->
<svg width="444pt" height="742pt"
 viewBox="0.00 0.00 444.00 742.00" xmlns="http://www.w3.org/2000/svg" xmlns:xlink="http://www.w3.org/1999/xlink">
<g id="graph0" class="graph" transform="scale(1 1) rotate(0) translate(4 738)">
<title>md_pen_rel_expedir_lote</title>
<polygon fill="#ffffff" stroke="transparent" points="-4,4 -4,-738 440,-738 440,4 -4,4"/>
<!-- md_pen_rel_expedir_lote -->
<g id="node1" class="node">
<title>md_pen_rel_expedir_lote</title>
<polygon fill="#efefef" stroke="transparent" points="46,-652.5 46,-687.5 390,-687.5 390,-652.5 46,-652.5"/>
<polygon fill="none" stroke="#000000" points="46,-652.5 46,-687.5 390,-687.5 390,-652.5 46,-652.5"/>
<text text-anchor="start" x="52.6888" y="-665.3" font-family="Arial Bold" font-size="18.00" fill="#000000">md_pen_rel_expedir_lote</text>
<text text-anchor="start" x="255.7432" y="-665.3" font-family="Arial" font-size="14.00" fill="#000000">    </text>
<text text-anchor="start" x="289.948" y="-665.3" font-family="Arial" font-size="14.00" fill="#666666">[BASE TABLE]</text>
<polygon fill="none" stroke="#000000" points="46,-622.5 46,-652.5 390,-652.5 390,-622.5 46,-622.5"/>
<text text-anchor="start" x="53" y="-633.9" font-family="Arial" font-size="14.00" fill="#000000">id_lote </text>
<text text-anchor="start" x="98.1248" y="-633.9" font-family="Arial" font-size="14.00" fill="#666666">[int(11)]</text>
<polygon fill="none" stroke="#000000" points="46,-592.5 46,-622.5 390,-622.5 390,-592.5 46,-592.5"/>
<text text-anchor="start" x="53" y="-603.9" font-family="Arial" font-size="14.00" fill="#000000">id_procedimento </text>
<text text-anchor="start" x="160.359" y="-603.9" font-family="Arial" font-size="14.00" fill="#666666">[bigint(20)]</text>
<polygon fill="none" stroke="#000000" points="46,-562.5 46,-592.5 390,-592.5 390,-562.5 46,-562.5"/>
<text text-anchor="start" x="53" y="-573.9" font-family="Arial" font-size="14.00" fill="#000000">id_andamento </text>
<text text-anchor="start" x="145.5918" y="-573.9" font-family="Arial" font-size="14.00" fill="#666666">[int(11)]</text>
<polygon fill="none" stroke="#000000" points="46,-532.5 46,-562.5 390,-562.5 390,-532.5 46,-532.5"/>
<text text-anchor="start" x="53" y="-543.9" font-family="Arial" font-size="14.00" fill="#000000">id_atividade_expedicao </text>
<text text-anchor="start" x="203.164" y="-543.9" font-family="Arial" font-size="14.00" fill="#666666">[int(11)]</text>
<polygon fill="none" stroke="#000000" points="46,-502.5 46,-532.5 390,-532.5 390,-502.5 46,-502.5"/>
<text text-anchor="start" x="53" y="-513.9" font-family="Arial" font-size="14.00" fill="#000000">tentativas </text>
<text text-anchor="start" x="116.7994" y="-513.9" font-family="Arial" font-size="14.00" fill="#666666">[int(11)]</text>
<polygon fill="none" stroke="#000000" stroke-width="3" points="44.5,-501.5 44.5,-689.5 391.5,-689.5 391.5,-501.5 44.5,-501.5"/>
</g>
<!-- md_pen_expedir_lote -->
<g id="node2" class="node">
<title>md_pen_expedir_lote</title>
<polygon fill="#efefef" stroke="transparent" points="61,-342.5 61,-377.5 375,-377.5 375,-342.5 61,-342.5"/>
<polygon fill="none" stroke="#000000" points="61,-342.5 61,-377.5 375,-377.5 375,-342.5 61,-342.5"/>
<text text-anchor="start" x="67.6882" y="-355.3" font-family="Arial Bold" font-size="18.00" fill="#000000">md_pen_expedir_lote</text>
<text text-anchor="start" x="240.7438" y="-355.3" font-family="Arial" font-size="14.00" fill="#000000">    </text>
<text text-anchor="start" x="274.9486" y="-355.3" font-family="Arial" font-size="14.00" fill="#666666">[BASE TABLE]</text>
<polygon fill="none" stroke="#000000" points="61,-312.5 61,-342.5 375,-342.5 375,-312.5 61,-312.5"/>
<text text-anchor="start" x="68" y="-323.9" font-family="Arial" font-size="14.00" fill="#000000">id_lote    </text>
<text text-anchor="start" x="143.439" y="-323.9" font-family="Arial" font-size="14.00" fill="#666666">[int(11)]</text>
<polygon fill="none" stroke="#000000" points="61,-282.5 61,-312.5 375,-312.5 375,-282.5 61,-282.5"/>
<text text-anchor="start" x="68" y="-293.9" font-family="Arial" font-size="14.00" fill="#000000">id_repositorio_destino    </text>
<text text-anchor="start" x="239.1248" y="-293.9" font-family="Arial" font-size="14.00" fill="#666666">[int(11)]</text>
<polygon fill="none" stroke="#000000" points="61,-252.5 61,-282.5 375,-282.5 375,-252.5 61,-252.5"/>
<text text-anchor="start" x="68" y="-263.9" font-family="Arial" font-size="14.00" fill="#000000">str_repositorio_destino    </text>
<text text-anchor="start" x="243.7868" y="-263.9" font-family="Arial" font-size="14.00" fill="#666666">[varchar(250)]</text>
<polygon fill="none" stroke="#000000" points="61,-222.5 61,-252.5 375,-252.5 375,-222.5 61,-222.5"/>
<text text-anchor="start" x="68" y="-233.9" font-family="Arial" font-size="14.00" fill="#000000">id_repositorio_origem    </text>
<text text-anchor="start" x="236.7728" y="-233.9" font-family="Arial" font-size="14.00" fill="#666666">[int(11)]</text>
<polygon fill="none" stroke="#000000" points="61,-192.5 61,-222.5 375,-222.5 375,-192.5 61,-192.5"/>
<text text-anchor="start" x="68" y="-203.9" font-family="Arial" font-size="14.00" fill="#000000">id_unidade_origem    </text>
<text text-anchor="start" x="221.237" y="-203.9" font-family="Arial" font-size="14.00" fill="#666666">[int(11)]</text>
<polygon fill="none" stroke="#000000" points="61,-162.5 61,-192.5 375,-192.5 375,-162.5 61,-162.5"/>
<text text-anchor="start" x="68" y="-173.9" font-family="Arial" font-size="14.00" fill="#000000">id_unidade_destino    </text>
<text text-anchor="start" x="223.589" y="-173.9" font-family="Arial" font-size="14.00" fill="#666666">[int(11)]</text>
<polygon fill="none" stroke="#000000" points="61,-132.5 61,-162.5 375,-162.5 375,-132.5 61,-132.5"/>
<text text-anchor="start" x="68" y="-143.9" font-family="Arial" font-size="14.00" fill="#000000">str_unidade_destino    </text>
<text text-anchor="start" x="228.251" y="-143.9" font-family="Arial" font-size="14.00" fill="#666666">[varchar(250)]</text>
<polygon fill="none" stroke="#000000" points="61,-102.5 61,-132.5 375,-132.5 375,-102.5 61,-102.5"/>
<text text-anchor="start" x="68" y="-113.9" font-family="Arial" font-size="14.00" fill="#000000">id_usuario    </text>
<text text-anchor="start" x="166.7742" y="-113.9" font-family="Arial" font-size="14.00" fill="#666666">[int(11)]</text>
<polygon fill="none" stroke="#000000" points="61,-72.5 61,-102.5 375,-102.5 375,-72.5 61,-72.5"/>
<text text-anchor="start" x="68" y="-83.9" font-family="Arial" font-size="14.00" fill="#000000">id_unidade    </text>
<text text-anchor="start" x="170.6788" y="-83.9" font-family="Arial" font-size="14.00" fill="#666666">[int(11)]</text>
<polygon fill="none" stroke="#000000" points="61,-42.5 61,-72.5 375,-72.5 375,-42.5 61,-42.5"/>
<text text-anchor="start" x="68" y="-53.9" font-family="Arial" font-size="14.00" fill="#000000">dth_registro    </text>
<text text-anchor="start" x="176.1094" y="-53.9" font-family="Arial" font-size="14.00" fill="#666666">[datetime]</text>
</g>
<!-- md_pen_rel_expedir_lote&#45;&gt;md_pen_expedir_lote -->
<g id="edge1" class="edge">
<title>md_pen_rel_expedir_lote:id_lote&#45;&gt;md_pen_expedir_lote:id_lote</title>
<path fill="none" stroke="#000000" d="M399.8614,-635.183C457.3069,-606.815 440.4671,-327.5 375,-327.5"/>
<polygon fill="#000000" stroke="#000000" points="399.7349,-635.2126 388.9707,-633.1193 394.8674,-636.3563 390,-637.5 390,-637.5 390,-637.5 394.8674,-636.3563 391.0293,-641.8807 399.7349,-635.2126 399.7349,-635.2126"/>
</g>
</g>
</svg>
