<?xml version="1.0" encoding="UTF-8" standalone="no"?>
<!DOCTYPE svg PUBLIC "-//W3C//DTD SVG 1.1//EN"
 "http://www.w3.org/Graphics/SVG/1.1/DTD/svg11.dtd">
<!-- Generated by graphviz version 2.40.1 (20161225.0304)
 -->
<!-- Title: md_pen_seq_rel_doc_map_recebid Pages: 1 -->
<svg width="528pt" height="195pt"
 viewBox="0.00 0.00 528.00 195.00" xmlns="http://www.w3.org/2000/svg" xmlns:xlink="http://www.w3.org/1999/xlink">
<g id="graph0" class="graph" transform="scale(1 1) rotate(0) translate(4 191)">
<title>md_pen_seq_rel_doc_map_recebid</title>
<polygon fill="#ffffff" stroke="transparent" points="-4,4 -4,-191 524,-191 524,4 -4,4"/>
<!-- md_pen_seq_rel_doc_map_recebid -->
<g id="node1" class="node">
<title>md_pen_seq_rel_doc_map_recebid</title>
<polygon fill="#efefef" stroke="transparent" points="46,-105.5 46,-140.5 474,-140.5 474,-105.5 46,-105.5"/>
<polygon fill="none" stroke="#000000" points="46,-105.5 46,-140.5 474,-140.5 474,-105.5 46,-105.5"/>
<text text-anchor="start" x="52.6723" y="-118.3" font-family="Arial Bold" font-size="18.00" fill="#000000">md_pen_seq_rel_doc_map_recebid</text>
<text text-anchor="start" x="339.7597" y="-118.3" font-family="Arial" font-size="14.00" fill="#000000">    </text>
<text text-anchor="start" x="373.9645" y="-118.3" font-family="Arial" font-size="14.00" fill="#666666">[BASE TABLE]</text>
<polygon fill="none" stroke="#000000" points="46,-75.5 46,-105.5 474,-105.5 474,-75.5 46,-75.5"/>
<text text-anchor="start" x="53" y="-86.9" font-family="Arial" font-size="14.00" fill="#000000">id </text>
<text text-anchor="start" x="67.7798" y="-86.9" font-family="Arial" font-size="14.00" fill="#666666">[int(11)]</text>
<polygon fill="none" stroke="#000000" points="46,-45.5 46,-75.5 474,-75.5 474,-45.5 46,-45.5"/>
<text text-anchor="start" x="53" y="-56.9" font-family="Arial" font-size="14.00" fill="#000000">campo </text>
<text text-anchor="start" x="98.899" y="-56.9" font-family="Arial" font-size="14.00" fill="#666666">[char(1)]</text>
<polygon fill="none" stroke="#000000" stroke-width="3" points="44.5,-44.5 44.5,-142.5 475.5,-142.5 475.5,-44.5 44.5,-44.5"/>
</g>
</g>
</svg>
