<?xml version="1.0" encoding="UTF-8" standalone="no"?>
<!DOCTYPE svg PUBLIC "-//W3C//DTD SVG 1.1//EN"
 "http://www.w3.org/Graphics/SVG/1.1/DTD/svg11.dtd">
<!-- Generated by graphviz version 2.40.1 (20161225.0304)
 -->
<!-- Title: md_pen_rel_tarefa_operacao Pages: 1 -->
<svg width="477pt" height="195pt"
 viewBox="0.00 0.00 477.00 195.00" xmlns="http://www.w3.org/2000/svg" xmlns:xlink="http://www.w3.org/1999/xlink">
<g id="graph0" class="graph" transform="scale(1 1) rotate(0) translate(4 191)">
<title>md_pen_rel_tarefa_operacao</title>
<polygon fill="#ffffff" stroke="transparent" points="-4,4 -4,-191 473,-191 473,4 -4,4"/>
<!-- md_pen_rel_tarefa_operacao -->
<g id="node1" class="node">
<title>md_pen_rel_tarefa_operacao</title>
<polygon fill="#efefef" stroke="transparent" points="46.5,-105.5 46.5,-140.5 423.5,-140.5 423.5,-105.5 46.5,-105.5"/>
<polygon fill="none" stroke="#000000" points="46.5,-105.5 46.5,-140.5 423.5,-140.5 423.5,-105.5 46.5,-105.5"/>
<text text-anchor="start" x="53.1765" y="-118.3" font-family="Arial Bold" font-size="18.00" fill="#000000">md_pen_rel_tarefa_operacao</text>
<text text-anchor="start" x="289.2555" y="-118.3" font-family="Arial" font-size="14.00" fill="#000000">    </text>
<text text-anchor="start" x="323.4603" y="-118.3" font-family="Arial" font-size="14.00" fill="#666666">[BASE TABLE]</text>
<polygon fill="none" stroke="#000000" points="46.5,-75.5 46.5,-105.5 423.5,-105.5 423.5,-75.5 46.5,-75.5"/>
<text text-anchor="start" x="53.5" y="-86.9" font-family="Arial" font-size="14.00" fill="#000000">id_tarefa </text>
<text text-anchor="start" x="111.852" y="-86.9" font-family="Arial" font-size="14.00" fill="#666666">[int(11)]</text>
<polygon fill="none" stroke="#000000" points="46.5,-45.5 46.5,-75.5 423.5,-75.5 423.5,-45.5 46.5,-45.5"/>
<text text-anchor="start" x="53.5" y="-56.9" font-family="Arial" font-size="14.00" fill="#000000">codigo_operacao </text>
<text text-anchor="start" x="164.7664" y="-56.9" font-family="Arial" font-size="14.00" fill="#666666">[char(2)]</text>
<polygon fill="none" stroke="#000000" stroke-width="3" points="44.5,-44.5 44.5,-142.5 424.5,-142.5 424.5,-44.5 44.5,-44.5"/>
</g>
</g>
</svg>
