<?xml version="1.0" encoding="UTF-8" standalone="no"?>
<!DOCTYPE svg PUBLIC "-//W3C//DTD SVG 1.1//EN"
 "http://www.w3.org/Graphics/SVG/1.1/DTD/svg11.dtd">
<!-- Generated by graphviz version 2.40.1 (20161225.0304)
 -->
<!-- Title: md_pen_recibo_tramite_recebido Pages: 1 -->
<svg width="2410pt" height="1613pt"
 viewBox="0.00 0.00 2410.00 1613.00" xmlns="http://www.w3.org/2000/svg" xmlns:xlink="http://www.w3.org/1999/xlink">
<g id="graph0" class="graph" transform="scale(1 1) rotate(0) translate(4 1609)">
<title>md_pen_recibo_tramite_recebido</title>
<polygon fill="#ffffff" stroke="transparent" points="-4,4 -4,-1609 2406,-1609 2406,4 -4,4"/>
<!-- md_pen_recibo_tramite_recebido -->
<g id="node1" class="node">
<title>md_pen_recibo_tramite_recebido</title>
<polygon fill="#efefef" stroke="transparent" points="46.5,-1241.5 46.5,-1276.5 455.5,-1276.5 455.5,-1241.5 46.5,-1241.5"/>
<polygon fill="none" stroke="#000000" points="46.5,-1241.5 46.5,-1276.5 455.5,-1276.5 455.5,-1241.5 46.5,-1241.5"/>
<text text-anchor="start" x="53.1862" y="-1254.3" font-family="Arial Bold" font-size="18.00" fill="#000000">md_pen_recibo_tramite_recebido</text>
<text text-anchor="start" x="321.2458" y="-1254.3" font-family="Arial" font-size="14.00" fill="#000000">    </text>
<text text-anchor="start" x="355.4506" y="-1254.3" font-family="Arial" font-size="14.00" fill="#666666">[BASE TABLE]</text>
<polygon fill="none" stroke="#000000" points="46.5,-1211.5 46.5,-1241.5 455.5,-1241.5 455.5,-1211.5 46.5,-1211.5"/>
<text text-anchor="start" x="53.5" y="-1222.9" font-family="Arial" font-size="14.00" fill="#000000">numero_registro </text>
<text text-anchor="start" x="159.291" y="-1222.9" font-family="Arial" font-size="14.00" fill="#666666">[char(16)]</text>
<polygon fill="none" stroke="#000000" points="46.5,-1181.5 46.5,-1211.5 455.5,-1211.5 455.5,-1181.5 46.5,-1181.5"/>
<text text-anchor="start" x="53.5" y="-1192.9" font-family="Arial" font-size="14.00" fill="#000000">id_tramite </text>
<text text-anchor="start" x="118.8366" y="-1192.9" font-family="Arial" font-size="14.00" fill="#666666">[bigint(20)]</text>
<polygon fill="none" stroke="#000000" points="46.5,-1151.5 46.5,-1181.5 455.5,-1181.5 455.5,-1151.5 46.5,-1151.5"/>
<text text-anchor="start" x="53.5" y="-1162.9" font-family="Arial" font-size="14.00" fill="#000000">dth_recebimento </text>
<text text-anchor="start" x="161.643" y="-1162.9" font-family="Arial" font-size="14.00" fill="#666666">[datetime]</text>
<polygon fill="none" stroke="#000000" points="46.5,-1121.5 46.5,-1151.5 455.5,-1151.5 455.5,-1121.5 46.5,-1121.5"/>
<text text-anchor="start" x="53.5" y="-1132.9" font-family="Arial" font-size="14.00" fill="#000000">hash_assinatura </text>
<text text-anchor="start" x="160.0918" y="-1132.9" font-family="Arial" font-size="14.00" fill="#666666">[varchar(1000)]</text>
<polygon fill="none" stroke="#000000" points="46.5,-1091.5 46.5,-1121.5 455.5,-1121.5 455.5,-1091.5 46.5,-1091.5"/>
<text text-anchor="start" x="53.5" y="-1102.9" font-family="Arial" font-size="14.00" fill="#000000">cadeia_certificado </text>
<text text-anchor="start" x="170.1956" y="-1102.9" font-family="Arial" font-size="14.00" fill="#666666">[longtext]</text>
<polygon fill="none" stroke="#000000" stroke-width="3" points="44.5,-1090.5 44.5,-1278.5 456.5,-1278.5 456.5,-1090.5 44.5,-1090.5"/>
</g>
<!-- md_pen_tramite -->
<g id="node2" class="node">
<title>md_pen_tramite</title>
<polygon fill="#efefef" stroke="transparent" points="1056.5,-649.5 1056.5,-684.5 1349.5,-684.5 1349.5,-649.5 1056.5,-649.5"/>
<polygon fill="none" stroke="#000000" points="1056.5,-649.5 1056.5,-684.5 1349.5,-684.5 1349.5,-649.5 1056.5,-649.5"/>
<text text-anchor="start" x="1074.2036" y="-662.3" font-family="Arial Bold" font-size="18.00" fill="#000000">md_pen_tramite</text>
<text text-anchor="start" x="1204.2284" y="-662.3" font-family="Arial" font-size="14.00" fill="#000000">    </text>
<text text-anchor="start" x="1238.4332" y="-662.3" font-family="Arial" font-size="14.00" fill="#666666">[BASE TABLE]</text>
<polygon fill="none" stroke="#000000" points="1056.5,-619.5 1056.5,-649.5 1349.5,-649.5 1349.5,-619.5 1056.5,-619.5"/>
<text text-anchor="start" x="1063.5" y="-630.9" font-family="Arial" font-size="14.00" fill="#000000">numero_registro    </text>
<text text-anchor="start" x="1199.6052" y="-630.9" font-family="Arial" font-size="14.00" fill="#666666">[char(16)]</text>
<polygon fill="none" stroke="#000000" points="1056.5,-589.5 1056.5,-619.5 1349.5,-619.5 1349.5,-589.5 1056.5,-589.5"/>
<text text-anchor="start" x="1063.5" y="-600.9" font-family="Arial" font-size="14.00" fill="#000000">id_tramite    </text>
<text text-anchor="start" x="1159.1508" y="-600.9" font-family="Arial" font-size="14.00" fill="#666666">[bigint(20)]</text>
<polygon fill="none" stroke="#000000" points="1056.5,-559.5 1056.5,-589.5 1349.5,-589.5 1349.5,-559.5 1056.5,-559.5"/>
<text text-anchor="start" x="1063.5" y="-570.9" font-family="Arial" font-size="14.00" fill="#000000">dth_registro    </text>
<text text-anchor="start" x="1171.6094" y="-570.9" font-family="Arial" font-size="14.00" fill="#666666">[datetime]</text>
<polygon fill="none" stroke="#000000" points="1056.5,-529.5 1056.5,-559.5 1349.5,-559.5 1349.5,-529.5 1056.5,-529.5"/>
<text text-anchor="start" x="1063.5" y="-540.9" font-family="Arial" font-size="14.00" fill="#000000">id_andamento    </text>
<text text-anchor="start" x="1186.406" y="-540.9" font-family="Arial" font-size="14.00" fill="#666666">[int(11)]</text>
<polygon fill="none" stroke="#000000" points="1056.5,-499.5 1056.5,-529.5 1349.5,-529.5 1349.5,-499.5 1056.5,-499.5"/>
<text text-anchor="start" x="1063.5" y="-510.9" font-family="Arial" font-size="14.00" fill="#000000">id_usuario    </text>
<text text-anchor="start" x="1162.2742" y="-510.9" font-family="Arial" font-size="14.00" fill="#666666">[int(11)]</text>
<polygon fill="none" stroke="#000000" points="1056.5,-469.5 1056.5,-499.5 1349.5,-499.5 1349.5,-469.5 1056.5,-469.5"/>
<text text-anchor="start" x="1063.5" y="-480.9" font-family="Arial" font-size="14.00" fill="#000000">id_unidade    </text>
<text text-anchor="start" x="1166.1788" y="-480.9" font-family="Arial" font-size="14.00" fill="#666666">[int(11)]</text>
<polygon fill="none" stroke="#000000" points="1056.5,-439.5 1056.5,-469.5 1349.5,-469.5 1349.5,-439.5 1056.5,-439.5"/>
<text text-anchor="start" x="1063.5" y="-450.9" font-family="Arial" font-size="14.00" fill="#000000">id_repositorio_origem    </text>
<text text-anchor="start" x="1232.2728" y="-450.9" font-family="Arial" font-size="14.00" fill="#666666">[int(11)]</text>
<polygon fill="none" stroke="#000000" points="1056.5,-409.5 1056.5,-439.5 1349.5,-439.5 1349.5,-409.5 1056.5,-409.5"/>
<text text-anchor="start" x="1063.5" y="-420.9" font-family="Arial" font-size="14.00" fill="#000000">id_estrutura_origem    </text>
<text text-anchor="start" x="1222.1676" y="-420.9" font-family="Arial" font-size="14.00" fill="#666666">[int(11)]</text>
<polygon fill="none" stroke="#000000" points="1056.5,-379.5 1056.5,-409.5 1349.5,-409.5 1349.5,-379.5 1056.5,-379.5"/>
<text text-anchor="start" x="1063.5" y="-390.9" font-family="Arial" font-size="14.00" fill="#000000">id_repositorio_destino    </text>
<text text-anchor="start" x="1234.6248" y="-390.9" font-family="Arial" font-size="14.00" fill="#666666">[int(11)]</text>
<polygon fill="none" stroke="#000000" points="1056.5,-349.5 1056.5,-379.5 1349.5,-379.5 1349.5,-349.5 1056.5,-349.5"/>
<text text-anchor="start" x="1063.5" y="-360.9" font-family="Arial" font-size="14.00" fill="#000000">id_estrutura_destino    </text>
<text text-anchor="start" x="1224.5196" y="-360.9" font-family="Arial" font-size="14.00" fill="#666666">[int(11)]</text>
<polygon fill="none" stroke="#000000" points="1056.5,-319.5 1056.5,-349.5 1349.5,-349.5 1349.5,-319.5 1056.5,-319.5"/>
<text text-anchor="start" x="1063.5" y="-330.9" font-family="Arial" font-size="14.00" fill="#000000">sta_tipo_tramite    </text>
<text text-anchor="start" x="1197.2798" y="-330.9" font-family="Arial" font-size="14.00" fill="#666666">[char(1)]</text>
<polygon fill="none" stroke="#000000" points="1056.5,-289.5 1056.5,-319.5 1349.5,-319.5 1349.5,-289.5 1056.5,-289.5"/>
<text text-anchor="start" x="1063.3696" y="-300.9" font-family="Arial" font-size="14.00" fill="#000000">ticket_envio_componentes    </text>
<text text-anchor="start" x="1263.2938" y="-300.9" font-family="Arial" font-size="14.00" fill="#666666">[varchar(10)]</text>
</g>
<!-- md_pen_recibo_tramite_recebido&#45;&gt;md_pen_tramite -->
<g id="edge1" class="edge">
<title>md_pen_recibo_tramite_recebido:numero_registro&#45;&gt;md_pen_tramite:numero_registro</title>
<path fill="none" stroke="#000000" d="M465.6149,-1225.1017C550.9788,-1199.7931 444.0427,-838.5391 510.5,-764 593.4854,-670.9228 931.8006,-634.5 1056.5,-634.5"/>
<polygon fill="#000000" stroke="#000000" points="465.4058,-1225.1305 454.8837,-1222.0424 460.4529,-1225.8153 455.5,-1226.5 455.5,-1226.5 455.5,-1226.5 460.4529,-1225.8153 456.1163,-1230.9576 465.4058,-1225.1305 465.4058,-1225.1305"/>
</g>
<!-- md_pen_processo_eletronico -->
<g id="node3" class="node">
<title>md_pen_processo_eletronico</title>
<polygon fill="#efefef" stroke="transparent" points="1014.5,-132.5 1014.5,-167.5 1391.5,-167.5 1391.5,-132.5 1014.5,-132.5"/>
<polygon fill="none" stroke="#000000" points="1014.5,-132.5 1014.5,-167.5 1391.5,-167.5 1391.5,-132.5 1014.5,-132.5"/>
<text text-anchor="start" x="1021.1828" y="-145.3" font-family="Arial Bold" font-size="18.00" fill="#000000">md_pen_processo_eletronico</text>
<text text-anchor="start" x="1257.2492" y="-145.3" font-family="Arial" font-size="14.00" fill="#000000">    </text>
<text text-anchor="start" x="1291.454" y="-145.3" font-family="Arial" font-size="14.00" fill="#666666">[BASE TABLE]</text>
<polygon fill="none" stroke="#000000" points="1014.5,-102.5 1014.5,-132.5 1391.5,-132.5 1391.5,-102.5 1014.5,-102.5"/>
<text text-anchor="start" x="1021.5" y="-113.9" font-family="Arial" font-size="14.00" fill="#000000">numero_registro    </text>
<text text-anchor="start" x="1157.6052" y="-113.9" font-family="Arial" font-size="14.00" fill="#666666">[char(16)]</text>
<polygon fill="none" stroke="#000000" points="1014.5,-72.5 1014.5,-102.5 1391.5,-102.5 1391.5,-72.5 1014.5,-72.5"/>
<text text-anchor="start" x="1021.5" y="-83.9" font-family="Arial" font-size="14.00" fill="#000000">id_procedimento    </text>
<text text-anchor="start" x="1159.1732" y="-83.9" font-family="Arial" font-size="14.00" fill="#666666">[bigint(20)]</text>
<polygon fill="none" stroke="#000000" points="1014.5,-42.5 1014.5,-72.5 1391.5,-72.5 1391.5,-42.5 1014.5,-42.5"/>
<text text-anchor="start" x="1021.5" y="-53.9" font-family="Arial" font-size="14.00" fill="#000000">sta_tipo_protocolo    </text>
<text text-anchor="start" x="1170.0764" y="-53.9" font-family="Arial" font-size="14.00" fill="#666666">[varchar(1)]</text>
</g>
<!-- md_pen_tramite&#45;&gt;md_pen_processo_eletronico -->
<g id="edge2" class="edge">
<title>md_pen_tramite:numero_registro&#45;&gt;md_pen_processo_eletronico:numero_registro</title>
<path fill="none" stroke="#000000" d="M1046.4907,-634.1704C824.7933,-619.4645 787.3422,-117.5 1014.5,-117.5"/>
<polygon fill="#000000" stroke="#000000" points="1046.5054,-634.1708 1056.3519,-638.9976 1051.5027,-634.3354 1056.5,-634.5 1056.5,-634.5 1056.5,-634.5 1051.5027,-634.3354 1056.6481,-630.0024 1046.5054,-634.1708 1046.5054,-634.1708"/>
</g>
<!-- md_pen_componente_digital -->
<g id="node4" class="node">
<title>md_pen_componente_digital</title>
<polygon fill="#efefef" stroke="transparent" points="562.5,-1526.5 562.5,-1561.5 934.5,-1561.5 934.5,-1526.5 562.5,-1526.5"/>
<polygon fill="none" stroke="#000000" points="562.5,-1526.5 562.5,-1561.5 934.5,-1561.5 934.5,-1526.5 562.5,-1526.5"/>
<text text-anchor="start" x="569.1776" y="-1539.3" font-family="Arial Bold" font-size="18.00" fill="#000000">md_pen_componente_digital</text>
<text text-anchor="start" x="800.2544" y="-1539.3" font-family="Arial" font-size="14.00" fill="#000000">    </text>
<text text-anchor="start" x="834.4592" y="-1539.3" font-family="Arial" font-size="14.00" fill="#666666">[BASE TABLE]</text>
<polygon fill="none" stroke="#000000" points="562.5,-1496.5 562.5,-1526.5 934.5,-1526.5 934.5,-1496.5 562.5,-1496.5"/>
<text text-anchor="start" x="569.5" y="-1507.9" font-family="Arial" font-size="14.00" fill="#000000">numero_registro    </text>
<text text-anchor="start" x="705.6052" y="-1507.9" font-family="Arial" font-size="14.00" fill="#666666">[char(16)]</text>
<polygon fill="none" stroke="#000000" points="562.5,-1466.5 562.5,-1496.5 934.5,-1496.5 934.5,-1466.5 562.5,-1466.5"/>
<text text-anchor="start" x="569.5" y="-1477.9" font-family="Arial" font-size="14.00" fill="#000000">id_procedimento    </text>
<text text-anchor="start" x="707.1732" y="-1477.9" font-family="Arial" font-size="14.00" fill="#666666">[bigint(20)]</text>
<polygon fill="none" stroke="#000000" points="562.5,-1436.5 562.5,-1466.5 934.5,-1466.5 934.5,-1436.5 562.5,-1436.5"/>
<text text-anchor="start" x="569.5" y="-1447.9" font-family="Arial" font-size="14.00" fill="#000000">id_documento    </text>
<text text-anchor="start" x="691.6234" y="-1447.9" font-family="Arial" font-size="14.00" fill="#666666">[bigint(20)]</text>
<polygon fill="none" stroke="#000000" points="562.5,-1406.5 562.5,-1436.5 934.5,-1436.5 934.5,-1406.5 562.5,-1406.5"/>
<text text-anchor="start" x="569.5" y="-1417.9" font-family="Arial" font-size="14.00" fill="#000000">id_tramite    </text>
<text text-anchor="start" x="665.1508" y="-1417.9" font-family="Arial" font-size="14.00" fill="#666666">[bigint(20)]</text>
<polygon fill="none" stroke="#000000" points="562.5,-1376.5 562.5,-1406.5 934.5,-1406.5 934.5,-1376.5 562.5,-1376.5"/>
<text text-anchor="start" x="569.5" y="-1387.9" font-family="Arial" font-size="14.00" fill="#000000">id_anexo    </text>
<text text-anchor="start" x="660.507" y="-1387.9" font-family="Arial" font-size="14.00" fill="#666666">[int(11)]</text>
<polygon fill="none" stroke="#000000" points="562.5,-1346.5 562.5,-1376.5 934.5,-1376.5 934.5,-1346.5 562.5,-1346.5"/>
<text text-anchor="start" x="569.5" y="-1357.9" font-family="Arial" font-size="14.00" fill="#000000">protocolo    </text>
<text text-anchor="start" x="661.2756" y="-1357.9" font-family="Arial" font-size="14.00" fill="#666666">[varchar(50)]</text>
<polygon fill="none" stroke="#000000" points="562.5,-1316.5 562.5,-1346.5 934.5,-1346.5 934.5,-1316.5 562.5,-1316.5"/>
<text text-anchor="start" x="569.5" y="-1327.9" font-family="Arial" font-size="14.00" fill="#000000">nome    </text>
<text text-anchor="start" x="638.7132" y="-1327.9" font-family="Arial" font-size="14.00" fill="#666666">[varchar(255)]</text>
<polygon fill="none" stroke="#000000" points="562.5,-1286.5 562.5,-1316.5 934.5,-1316.5 934.5,-1286.5 562.5,-1286.5"/>
<text text-anchor="start" x="569.5" y="-1297.9" font-family="Arial" font-size="14.00" fill="#000000">hash_conteudo    </text>
<text text-anchor="start" x="699.4214" y="-1297.9" font-family="Arial" font-size="14.00" fill="#666666">[varchar(255)]</text>
<polygon fill="none" stroke="#000000" points="562.5,-1256.5 562.5,-1286.5 934.5,-1286.5 934.5,-1256.5 562.5,-1256.5"/>
<text text-anchor="start" x="569.5" y="-1267.9" font-family="Arial" font-size="14.00" fill="#000000">algoritmo_hash    </text>
<text text-anchor="start" x="699.3906" y="-1267.9" font-family="Arial" font-size="14.00" fill="#666666">[varchar(20)]</text>
<polygon fill="none" stroke="#000000" points="562.5,-1226.5 562.5,-1256.5 934.5,-1256.5 934.5,-1226.5 562.5,-1226.5"/>
<text text-anchor="start" x="569.5" y="-1237.9" font-family="Arial" font-size="14.00" fill="#000000">tipo_conteudo    </text>
<text text-anchor="start" x="691.636" y="-1237.9" font-family="Arial" font-size="14.00" fill="#666666">[char(3)]</text>
<polygon fill="none" stroke="#000000" points="562.5,-1196.5 562.5,-1226.5 934.5,-1226.5 934.5,-1196.5 562.5,-1196.5"/>
<text text-anchor="start" x="569.5" y="-1207.9" font-family="Arial" font-size="14.00" fill="#000000">mime_type    </text>
<text text-anchor="start" x="672.1536" y="-1207.9" font-family="Arial" font-size="14.00" fill="#666666">[varchar(100)]</text>
<polygon fill="none" stroke="#000000" points="562.5,-1166.5 562.5,-1196.5 934.5,-1196.5 934.5,-1166.5 562.5,-1166.5"/>
<text text-anchor="start" x="569.5" y="-1177.9" font-family="Arial" font-size="14.00" fill="#000000">dados_complementares    </text>
<text text-anchor="start" x="753.075" y="-1177.9" font-family="Arial" font-size="14.00" fill="#666666">[varchar(1000)]</text>
<polygon fill="none" stroke="#000000" points="562.5,-1136.5 562.5,-1166.5 934.5,-1166.5 934.5,-1136.5 562.5,-1136.5"/>
<text text-anchor="start" x="569.5" y="-1147.9" font-family="Arial" font-size="14.00" fill="#000000">tamanho    </text>
<text text-anchor="start" x="658.169" y="-1147.9" font-family="Arial" font-size="14.00" fill="#666666">[bigint(20)]</text>
<polygon fill="none" stroke="#000000" points="562.5,-1106.5 562.5,-1136.5 934.5,-1136.5 934.5,-1106.5 562.5,-1106.5"/>
<text text-anchor="start" x="569.5" y="-1117.9" font-family="Arial" font-size="14.00" fill="#000000">ordem    </text>
<text text-anchor="start" x="643.3738" y="-1117.9" font-family="Arial" font-size="14.00" fill="#666666">[int(11)]</text>
<polygon fill="none" stroke="#000000" points="562.5,-1076.5 562.5,-1106.5 934.5,-1106.5 934.5,-1076.5 562.5,-1076.5"/>
<text text-anchor="start" x="569.5" y="-1087.9" font-family="Arial" font-size="14.00" fill="#000000">sin_enviar    </text>
<text text-anchor="start" x="667.4916" y="-1087.9" font-family="Arial" font-size="14.00" fill="#666666">[char(1)]</text>
<polygon fill="none" stroke="#000000" points="562.5,-1046.5 562.5,-1076.5 934.5,-1076.5 934.5,-1046.5 562.5,-1046.5"/>
<text text-anchor="start" x="569.5" y="-1057.9" font-family="Arial" font-size="14.00" fill="#000000">codigo_especie    </text>
<text text-anchor="start" x="700.9614" y="-1057.9" font-family="Arial" font-size="14.00" fill="#666666">[int(11)]</text>
<polygon fill="none" stroke="#000000" points="562.5,-1016.5 562.5,-1046.5 934.5,-1046.5 934.5,-1016.5 562.5,-1016.5"/>
<text text-anchor="start" x="569.5" y="-1027.9" font-family="Arial" font-size="14.00" fill="#000000">nome_especie_produtor    </text>
<text text-anchor="start" x="754.6402" y="-1027.9" font-family="Arial" font-size="14.00" fill="#666666">[varchar(255)]</text>
<polygon fill="none" stroke="#000000" points="562.5,-986.5 562.5,-1016.5 934.5,-1016.5 934.5,-986.5 562.5,-986.5"/>
<text text-anchor="start" x="569.5" y="-997.9" font-family="Arial" font-size="14.00" fill="#000000">ordem_documento    </text>
<text text-anchor="start" x="720.4032" y="-997.9" font-family="Arial" font-size="14.00" fill="#666666">[int(11)]</text>
<polygon fill="none" stroke="#000000" points="562.5,-956.5 562.5,-986.5 934.5,-986.5 934.5,-956.5 562.5,-956.5"/>
<text text-anchor="start" x="569.5" y="-967.9" font-family="Arial" font-size="14.00" fill="#000000">id_procedimento_anexado    </text>
<text text-anchor="start" x="768.6514" y="-967.9" font-family="Arial" font-size="14.00" fill="#666666">[bigint(20)]</text>
<polygon fill="none" stroke="#000000" points="562.5,-926.5 562.5,-956.5 934.5,-956.5 934.5,-926.5 562.5,-926.5"/>
<text text-anchor="start" x="569.5" y="-937.9" font-family="Arial" font-size="14.00" fill="#000000">protocolo_procedimento_anexado    </text>
<text text-anchor="start" x="815.333" y="-937.9" font-family="Arial" font-size="14.00" fill="#666666">[varchar(50)]</text>
<polygon fill="none" stroke="#000000" points="562.5,-896.5 562.5,-926.5 934.5,-926.5 934.5,-896.5 562.5,-896.5"/>
<text text-anchor="start" x="569.5" y="-907.9" font-family="Arial" font-size="14.00" fill="#000000">ordem_documento_anexado    </text>
<text text-anchor="start" x="781.8814" y="-907.9" font-family="Arial" font-size="14.00" fill="#666666">[int(11)]</text>
<polygon fill="none" stroke="#000000" points="562.5,-866.5 562.5,-896.5 934.5,-896.5 934.5,-866.5 562.5,-866.5"/>
<text text-anchor="start" x="569.5" y="-877.9" font-family="Arial" font-size="14.00" fill="#000000">ordem_documento_referenciado    </text>
<text text-anchor="start" x="805.9824" y="-877.9" font-family="Arial" font-size="14.00" fill="#666666">[int(11)]</text>
<polygon fill="none" stroke="#000000" points="562.5,-836.5 562.5,-866.5 934.5,-866.5 934.5,-836.5 562.5,-836.5"/>
<text text-anchor="start" x="569.5" y="-847.9" font-family="Arial" font-size="14.00" fill="#000000">id_anexo_imutavel    </text>
<text text-anchor="start" x="720.4018" y="-847.9" font-family="Arial" font-size="14.00" fill="#666666">[bigint(20)]</text>
<polygon fill="none" stroke="#000000" points="562.5,-806.5 562.5,-836.5 934.5,-836.5 934.5,-806.5 562.5,-806.5"/>
<text text-anchor="start" x="569.5" y="-817.9" font-family="Arial" font-size="14.00" fill="#000000">tarja_legada    </text>
<text text-anchor="start" x="680.73" y="-817.9" font-family="Arial" font-size="14.00" fill="#666666">[char(1)]</text>
</g>
<!-- md_pen_componente_digital&#45;&gt;md_pen_tramite -->
<g id="edge3" class="edge">
<title>md_pen_componente_digital:numero_registro&#45;&gt;md_pen_tramite:numero_registro</title>
<path fill="none" stroke="#000000" d="M944.0642,-1508.2176C1013.4191,-1457.729 964.2434,-840.6766 986.5,-764 1004.7381,-701.1676 991.0741,-634.5 1056.5,-634.5"/>
<polygon fill="#000000" stroke="#000000" points="943.9585,-1508.2538 933.0392,-1507.2437 939.2292,-1509.8769 934.5,-1511.5 934.5,-1511.5 934.5,-1511.5 939.2292,-1509.8769 935.9608,-1515.7563 943.9585,-1508.2538 943.9585,-1508.2538"/>
</g>
<!-- md_pen_recibo_tramite -->
<g id="node5" class="node">
<title>md_pen_recibo_tramite</title>
<polygon fill="#efefef" stroke="transparent" points="1038.5,-1241.5 1038.5,-1276.5 1368.5,-1276.5 1368.5,-1241.5 1038.5,-1241.5"/>
<polygon fill="none" stroke="#000000" points="1038.5,-1241.5 1038.5,-1276.5 1368.5,-1276.5 1368.5,-1241.5 1038.5,-1241.5"/>
<text text-anchor="start" x="1045.198" y="-1254.3" font-family="Arial Bold" font-size="18.00" fill="#000000">md_pen_recibo_tramite</text>
<text text-anchor="start" x="1234.234" y="-1254.3" font-family="Arial" font-size="14.00" fill="#000000">    </text>
<text text-anchor="start" x="1268.4388" y="-1254.3" font-family="Arial" font-size="14.00" fill="#666666">[BASE TABLE]</text>
<polygon fill="none" stroke="#000000" points="1038.5,-1211.5 1038.5,-1241.5 1368.5,-1241.5 1368.5,-1211.5 1038.5,-1211.5"/>
<text text-anchor="start" x="1045.5" y="-1222.9" font-family="Arial" font-size="14.00" fill="#000000">numero_registro    </text>
<text text-anchor="start" x="1181.6052" y="-1222.9" font-family="Arial" font-size="14.00" fill="#666666">[char(16)]</text>
<polygon fill="none" stroke="#000000" points="1038.5,-1181.5 1038.5,-1211.5 1368.5,-1211.5 1368.5,-1181.5 1038.5,-1181.5"/>
<text text-anchor="start" x="1045.5" y="-1192.9" font-family="Arial" font-size="14.00" fill="#000000">id_tramite    </text>
<text text-anchor="start" x="1141.1508" y="-1192.9" font-family="Arial" font-size="14.00" fill="#666666">[bigint(20)]</text>
<polygon fill="none" stroke="#000000" points="1038.5,-1151.5 1038.5,-1181.5 1368.5,-1181.5 1368.5,-1151.5 1038.5,-1151.5"/>
<text text-anchor="start" x="1045.5" y="-1162.9" font-family="Arial" font-size="14.00" fill="#000000">dth_recebimento    </text>
<text text-anchor="start" x="1183.9572" y="-1162.9" font-family="Arial" font-size="14.00" fill="#666666">[datetime]</text>
<polygon fill="none" stroke="#000000" points="1038.5,-1121.5 1038.5,-1151.5 1368.5,-1151.5 1368.5,-1121.5 1038.5,-1121.5"/>
<text text-anchor="start" x="1045.5" y="-1132.9" font-family="Arial" font-size="14.00" fill="#000000">hash_assinatura    </text>
<text text-anchor="start" x="1182.406" y="-1132.9" font-family="Arial" font-size="14.00" fill="#666666">[varchar(1000)]</text>
<polygon fill="none" stroke="#000000" points="1038.5,-1091.5 1038.5,-1121.5 1368.5,-1121.5 1368.5,-1091.5 1038.5,-1091.5"/>
<text text-anchor="start" x="1045.5" y="-1102.9" font-family="Arial" font-size="14.00" fill="#000000">cadeia_certificado    </text>
<text text-anchor="start" x="1192.5098" y="-1102.9" font-family="Arial" font-size="14.00" fill="#666666">[longtext]</text>
</g>
<!-- md_pen_recibo_tramite&#45;&gt;md_pen_tramite -->
<g id="edge4" class="edge">
<title>md_pen_recibo_tramite:numero_registro&#45;&gt;md_pen_tramite:numero_registro</title>
<path fill="none" stroke="#000000" d="M1028.2359,-1225.8259C964.1876,-1216.7831 1010.2761,-1118.6929 1038.5,-1049 1124.9503,-835.5297 1579.8111,-634.5 1349.5,-634.5"/>
<polygon fill="#000000" stroke="#000000" points="1028.5215,-1225.8446 1038.2051,-1230.9903 1033.5107,-1226.1723 1038.5,-1226.5 1038.5,-1226.5 1038.5,-1226.5 1033.5107,-1226.1723 1038.7949,-1222.0097 1028.5215,-1225.8446 1028.5215,-1225.8446"/>
</g>
<!-- md_pen_recibo_tramite_enviado -->
<g id="node6" class="node">
<title>md_pen_recibo_tramite_enviado</title>
<polygon fill="#efefef" stroke="transparent" points="1473.5,-1241.5 1473.5,-1276.5 1876.5,-1276.5 1876.5,-1241.5 1473.5,-1241.5"/>
<polygon fill="none" stroke="#000000" points="1473.5,-1241.5 1473.5,-1276.5 1876.5,-1276.5 1876.5,-1241.5 1473.5,-1241.5"/>
<text text-anchor="start" x="1480.1823" y="-1254.3" font-family="Arial Bold" font-size="18.00" fill="#000000">md_pen_recibo_tramite_enviado</text>
<text text-anchor="start" x="1742.2497" y="-1254.3" font-family="Arial" font-size="14.00" fill="#000000">    </text>
<text text-anchor="start" x="1776.4545" y="-1254.3" font-family="Arial" font-size="14.00" fill="#666666">[BASE TABLE]</text>
<polygon fill="none" stroke="#000000" points="1473.5,-1211.5 1473.5,-1241.5 1876.5,-1241.5 1876.5,-1211.5 1473.5,-1211.5"/>
<text text-anchor="start" x="1480.5" y="-1222.9" font-family="Arial" font-size="14.00" fill="#000000">numero_registro    </text>
<text text-anchor="start" x="1616.6052" y="-1222.9" font-family="Arial" font-size="14.00" fill="#666666">[char(16)]</text>
<polygon fill="none" stroke="#000000" points="1473.5,-1181.5 1473.5,-1211.5 1876.5,-1211.5 1876.5,-1181.5 1473.5,-1181.5"/>
<text text-anchor="start" x="1480.5" y="-1192.9" font-family="Arial" font-size="14.00" fill="#000000">id_tramite    </text>
<text text-anchor="start" x="1576.1508" y="-1192.9" font-family="Arial" font-size="14.00" fill="#666666">[bigint(20)]</text>
<polygon fill="none" stroke="#000000" points="1473.5,-1151.5 1473.5,-1181.5 1876.5,-1181.5 1876.5,-1151.5 1473.5,-1151.5"/>
<text text-anchor="start" x="1480.5" y="-1162.9" font-family="Arial" font-size="14.00" fill="#000000">dth_recebimento    </text>
<text text-anchor="start" x="1618.9572" y="-1162.9" font-family="Arial" font-size="14.00" fill="#666666">[datetime]</text>
<polygon fill="none" stroke="#000000" points="1473.5,-1121.5 1473.5,-1151.5 1876.5,-1151.5 1876.5,-1121.5 1473.5,-1121.5"/>
<text text-anchor="start" x="1480.5" y="-1132.9" font-family="Arial" font-size="14.00" fill="#000000">hash_assinatura    </text>
<text text-anchor="start" x="1617.406" y="-1132.9" font-family="Arial" font-size="14.00" fill="#666666">[varchar(1000)]</text>
<polygon fill="none" stroke="#000000" points="1473.5,-1091.5 1473.5,-1121.5 1876.5,-1121.5 1876.5,-1091.5 1473.5,-1091.5"/>
<text text-anchor="start" x="1480.5" y="-1102.9" font-family="Arial" font-size="14.00" fill="#000000">cadeia_certificado    </text>
<text text-anchor="start" x="1627.5098" y="-1102.9" font-family="Arial" font-size="14.00" fill="#666666">[longtext]</text>
</g>
<!-- md_pen_recibo_tramite_enviado&#45;&gt;md_pen_tramite -->
<g id="edge5" class="edge">
<title>md_pen_recibo_tramite_enviado:numero_registro&#45;&gt;md_pen_tramite:numero_registro</title>
<path fill="none" stroke="#000000" d="M1464.5529,-1221.8475C1423.4569,-1176.2708 1435.1915,-810.2133 1420.5,-764 1400.6139,-701.4465 1415.1384,-634.5 1349.5,-634.5"/>
<polygon fill="#000000" stroke="#000000" points="1464.6278,-1221.8864 1471.4239,-1230.4925 1469.0639,-1224.1932 1473.5,-1226.5 1473.5,-1226.5 1473.5,-1226.5 1469.0639,-1224.1932 1475.5761,-1222.5075 1464.6278,-1221.8864 1464.6278,-1221.8864"/>
</g>
<!-- md_pen_recibo_tramite_hash -->
<g id="node7" class="node">
<title>md_pen_recibo_tramite_hash</title>
<polygon fill="#efefef" stroke="transparent" points="1980.5,-1241.5 1980.5,-1276.5 2359.5,-1276.5 2359.5,-1241.5 1980.5,-1241.5"/>
<polygon fill="none" stroke="#000000" points="1980.5,-1241.5 1980.5,-1276.5 2359.5,-1276.5 2359.5,-1241.5 1980.5,-1241.5"/>
<text text-anchor="start" x="1987.1856" y="-1254.3" font-family="Arial Bold" font-size="18.00" fill="#000000">md_pen_recibo_tramite_hash</text>
<text text-anchor="start" x="2225.2464" y="-1254.3" font-family="Arial" font-size="14.00" fill="#000000">    </text>
<text text-anchor="start" x="2259.4512" y="-1254.3" font-family="Arial" font-size="14.00" fill="#666666">[BASE TABLE]</text>
<polygon fill="none" stroke="#000000" points="1980.5,-1211.5 1980.5,-1241.5 2359.5,-1241.5 2359.5,-1211.5 1980.5,-1211.5"/>
<text text-anchor="start" x="1987.5" y="-1222.9" font-family="Arial" font-size="14.00" fill="#000000">id_tramite_hash    </text>
<text text-anchor="start" x="2121.2812" y="-1222.9" font-family="Arial" font-size="14.00" fill="#666666">[bigint(20)]</text>
<polygon fill="none" stroke="#000000" points="1980.5,-1181.5 1980.5,-1211.5 2359.5,-1211.5 2359.5,-1181.5 1980.5,-1181.5"/>
<text text-anchor="start" x="1987.5" y="-1192.9" font-family="Arial" font-size="14.00" fill="#000000">numero_registro    </text>
<text text-anchor="start" x="2123.6052" y="-1192.9" font-family="Arial" font-size="14.00" fill="#666666">[char(16)]</text>
<polygon fill="none" stroke="#000000" points="1980.5,-1151.5 1980.5,-1181.5 2359.5,-1181.5 2359.5,-1151.5 1980.5,-1151.5"/>
<text text-anchor="start" x="1987.5" y="-1162.9" font-family="Arial" font-size="14.00" fill="#000000">id_tramite    </text>
<text text-anchor="start" x="2083.1508" y="-1162.9" font-family="Arial" font-size="14.00" fill="#666666">[bigint(20)]</text>
<polygon fill="none" stroke="#000000" points="1980.5,-1121.5 1980.5,-1151.5 2359.5,-1151.5 2359.5,-1121.5 1980.5,-1121.5"/>
<text text-anchor="start" x="1987.5" y="-1132.9" font-family="Arial" font-size="14.00" fill="#000000">tipo_recibo    </text>
<text text-anchor="start" x="2090.1648" y="-1132.9" font-family="Arial" font-size="14.00" fill="#666666">[char(1)]</text>
<polygon fill="none" stroke="#000000" points="1980.5,-1091.5 1980.5,-1121.5 2359.5,-1121.5 2359.5,-1091.5 1980.5,-1091.5"/>
<text text-anchor="start" x="1987.5" y="-1102.9" font-family="Arial" font-size="14.00" fill="#000000">hash_componente_digital    </text>
<text text-anchor="start" x="2181.2054" y="-1102.9" font-family="Arial" font-size="14.00" fill="#666666">[varchar(255)]</text>
</g>
<!-- md_pen_recibo_tramite_hash&#45;&gt;md_pen_tramite -->
<g id="edge6" class="edge">
<title>md_pen_recibo_tramite_hash:numero_registro&#45;&gt;md_pen_tramite:numero_registro</title>
<path fill="none" stroke="#000000" d="M1970.5569,-1195.043C1891.6004,-1170.127 1991.0204,-833.1339 1928.5,-764 1840.0658,-666.2111 1481.3456,-634.5 1349.5,-634.5"/>
<polygon fill="#000000" stroke="#000000" points="1970.6057,-1195.0501 1979.8475,-1200.9525 1975.5528,-1195.775 1980.5,-1196.5 1980.5,-1196.5 1980.5,-1196.5 1975.5528,-1195.775 1981.1525,-1192.0475 1970.6057,-1195.0501 1970.6057,-1195.0501"/>
</g>
</g>
</svg>
