<?xml version="1.0" encoding="UTF-8" standalone="no"?>
<!DOCTYPE svg PUBLIC "-//W3C//DTD SVG 1.1//EN"
 "http://www.w3.org/Graphics/SVG/1.1/DTD/svg11.dtd">
<!-- Generated by graphviz version 2.40.1 (20161225.0304)
 -->
<!-- Title: md_pen_rel_processo_apensado Pages: 1 -->
<svg width="1382pt" height="1096pt"
 viewBox="0.00 0.00 1381.50 1096.00" xmlns="http://www.w3.org/2000/svg" xmlns:xlink="http://www.w3.org/1999/xlink">
<g id="graph0" class="graph" transform="scale(1 1) rotate(0) translate(4 1092)">
<title>md_pen_rel_processo_apensado</title>
<polygon fill="#ffffff" stroke="transparent" points="-4,4 -4,-1092 1377.5,-1092 1377.5,4 -4,4"/>
<!-- md_pen_rel_processo_apensado -->
<g id="node1" class="node">
<title>md_pen_rel_processo_apensado</title>
<polygon fill="#efefef" stroke="transparent" points="46,-694.5 46,-729.5 454,-729.5 454,-694.5 46,-694.5"/>
<polygon fill="none" stroke="#000000" points="46,-694.5 46,-729.5 454,-729.5 454,-694.5 46,-694.5"/>
<text text-anchor="start" x="52.6686" y="-707.3" font-family="Arial Bold" font-size="18.00" fill="#000000">md_pen_rel_processo_apensado</text>
<text text-anchor="start" x="319.7634" y="-707.3" font-family="Arial" font-size="14.00" fill="#000000">    </text>
<text text-anchor="start" x="353.9682" y="-707.3" font-family="Arial" font-size="14.00" fill="#666666">[BASE TABLE]</text>
<polygon fill="none" stroke="#000000" points="46,-664.5 46,-694.5 454,-694.5 454,-664.5 46,-664.5"/>
<text text-anchor="start" x="53" y="-675.9" font-family="Arial" font-size="14.00" fill="#000000">numero_registro </text>
<text text-anchor="start" x="158.791" y="-675.9" font-family="Arial" font-size="14.00" fill="#666666">[char(16)]</text>
<polygon fill="none" stroke="#000000" points="46,-634.5 46,-664.5 454,-664.5 454,-634.5 46,-634.5"/>
<text text-anchor="start" x="53" y="-645.9" font-family="Arial" font-size="14.00" fill="#000000">id_procedimento_apensado </text>
<text text-anchor="start" x="229.6198" y="-645.9" font-family="Arial" font-size="14.00" fill="#666666">[bigint(20)]</text>
<polygon fill="none" stroke="#000000" points="46,-604.5 46,-634.5 454,-634.5 454,-604.5 46,-604.5"/>
<text text-anchor="start" x="53" y="-615.9" font-family="Arial" font-size="14.00" fill="#000000">protocolo </text>
<text text-anchor="start" x="114.4614" y="-615.9" font-family="Arial" font-size="14.00" fill="#666666">[varchar(50)]</text>
<polygon fill="none" stroke="#000000" stroke-width="3" points="44.5,-603.5 44.5,-731.5 455.5,-731.5 455.5,-603.5 44.5,-603.5"/>
</g>
<!-- md_pen_processo_eletronico -->
<g id="node2" class="node">
<title>md_pen_processo_eletronico</title>
<polygon fill="#efefef" stroke="transparent" points="558,-132.5 558,-167.5 935,-167.5 935,-132.5 558,-132.5"/>
<polygon fill="none" stroke="#000000" points="558,-132.5 558,-167.5 935,-167.5 935,-132.5 558,-132.5"/>
<text text-anchor="start" x="564.6828" y="-145.3" font-family="Arial Bold" font-size="18.00" fill="#000000">md_pen_processo_eletronico</text>
<text text-anchor="start" x="800.7492" y="-145.3" font-family="Arial" font-size="14.00" fill="#000000">    </text>
<text text-anchor="start" x="834.954" y="-145.3" font-family="Arial" font-size="14.00" fill="#666666">[BASE TABLE]</text>
<polygon fill="none" stroke="#000000" points="558,-102.5 558,-132.5 935,-132.5 935,-102.5 558,-102.5"/>
<text text-anchor="start" x="565" y="-113.9" font-family="Arial" font-size="14.00" fill="#000000">numero_registro    </text>
<text text-anchor="start" x="701.1052" y="-113.9" font-family="Arial" font-size="14.00" fill="#666666">[char(16)]</text>
<polygon fill="none" stroke="#000000" points="558,-72.5 558,-102.5 935,-102.5 935,-72.5 558,-72.5"/>
<text text-anchor="start" x="565" y="-83.9" font-family="Arial" font-size="14.00" fill="#000000">id_procedimento    </text>
<text text-anchor="start" x="702.6732" y="-83.9" font-family="Arial" font-size="14.00" fill="#666666">[bigint(20)]</text>
<polygon fill="none" stroke="#000000" points="558,-42.5 558,-72.5 935,-72.5 935,-42.5 558,-42.5"/>
<text text-anchor="start" x="565" y="-53.9" font-family="Arial" font-size="14.00" fill="#000000">sta_tipo_protocolo    </text>
<text text-anchor="start" x="713.5764" y="-53.9" font-family="Arial" font-size="14.00" fill="#666666">[varchar(1)]</text>
</g>
<!-- md_pen_rel_processo_apensado&#45;&gt;md_pen_processo_eletronico -->
<g id="edge1" class="edge">
<title>md_pen_rel_processo_apensado:numero_registro&#45;&gt;md_pen_processo_eletronico:numero_registro</title>
<path fill="none" stroke="#000000" d="M462.9623,-674.6122C501.8328,-629.7943 498.0693,-290.8849 509,-247 523.8732,-187.2865 496.4621,-117.5 558,-117.5"/>
<polygon fill="#000000" stroke="#000000" points="462.7793,-674.712 451.8454,-675.5493 458.3896,-677.106 454,-679.5 454,-679.5 454,-679.5 458.3896,-677.106 456.1546,-683.4507 462.7793,-674.712 462.7793,-674.712"/>
</g>
<!-- md_pen_componente_digital -->
<g id="node3" class="node">
<title>md_pen_componente_digital</title>
<polygon fill="#efefef" stroke="transparent" points="561,-1009.5 561,-1044.5 933,-1044.5 933,-1009.5 561,-1009.5"/>
<polygon fill="none" stroke="#000000" points="561,-1009.5 561,-1044.5 933,-1044.5 933,-1009.5 561,-1009.5"/>
<text text-anchor="start" x="567.6776" y="-1022.3" font-family="Arial Bold" font-size="18.00" fill="#000000">md_pen_componente_digital</text>
<text text-anchor="start" x="798.7544" y="-1022.3" font-family="Arial" font-size="14.00" fill="#000000">    </text>
<text text-anchor="start" x="832.9592" y="-1022.3" font-family="Arial" font-size="14.00" fill="#666666">[BASE TABLE]</text>
<polygon fill="none" stroke="#000000" points="561,-979.5 561,-1009.5 933,-1009.5 933,-979.5 561,-979.5"/>
<text text-anchor="start" x="568" y="-990.9" font-family="Arial" font-size="14.00" fill="#000000">numero_registro    </text>
<text text-anchor="start" x="704.1052" y="-990.9" font-family="Arial" font-size="14.00" fill="#666666">[char(16)]</text>
<polygon fill="none" stroke="#000000" points="561,-949.5 561,-979.5 933,-979.5 933,-949.5 561,-949.5"/>
<text text-anchor="start" x="568" y="-960.9" font-family="Arial" font-size="14.00" fill="#000000">id_procedimento    </text>
<text text-anchor="start" x="705.6732" y="-960.9" font-family="Arial" font-size="14.00" fill="#666666">[bigint(20)]</text>
<polygon fill="none" stroke="#000000" points="561,-919.5 561,-949.5 933,-949.5 933,-919.5 561,-919.5"/>
<text text-anchor="start" x="568" y="-930.9" font-family="Arial" font-size="14.00" fill="#000000">id_documento    </text>
<text text-anchor="start" x="690.1234" y="-930.9" font-family="Arial" font-size="14.00" fill="#666666">[bigint(20)]</text>
<polygon fill="none" stroke="#000000" points="561,-889.5 561,-919.5 933,-919.5 933,-889.5 561,-889.5"/>
<text text-anchor="start" x="568" y="-900.9" font-family="Arial" font-size="14.00" fill="#000000">id_tramite    </text>
<text text-anchor="start" x="663.6508" y="-900.9" font-family="Arial" font-size="14.00" fill="#666666">[bigint(20)]</text>
<polygon fill="none" stroke="#000000" points="561,-859.5 561,-889.5 933,-889.5 933,-859.5 561,-859.5"/>
<text text-anchor="start" x="568" y="-870.9" font-family="Arial" font-size="14.00" fill="#000000">id_anexo    </text>
<text text-anchor="start" x="659.007" y="-870.9" font-family="Arial" font-size="14.00" fill="#666666">[int(11)]</text>
<polygon fill="none" stroke="#000000" points="561,-829.5 561,-859.5 933,-859.5 933,-829.5 561,-829.5"/>
<text text-anchor="start" x="568" y="-840.9" font-family="Arial" font-size="14.00" fill="#000000">protocolo    </text>
<text text-anchor="start" x="659.7756" y="-840.9" font-family="Arial" font-size="14.00" fill="#666666">[varchar(50)]</text>
<polygon fill="none" stroke="#000000" points="561,-799.5 561,-829.5 933,-829.5 933,-799.5 561,-799.5"/>
<text text-anchor="start" x="568" y="-810.9" font-family="Arial" font-size="14.00" fill="#000000">nome    </text>
<text text-anchor="start" x="637.2132" y="-810.9" font-family="Arial" font-size="14.00" fill="#666666">[varchar(255)]</text>
<polygon fill="none" stroke="#000000" points="561,-769.5 561,-799.5 933,-799.5 933,-769.5 561,-769.5"/>
<text text-anchor="start" x="568" y="-780.9" font-family="Arial" font-size="14.00" fill="#000000">hash_conteudo    </text>
<text text-anchor="start" x="697.9214" y="-780.9" font-family="Arial" font-size="14.00" fill="#666666">[varchar(255)]</text>
<polygon fill="none" stroke="#000000" points="561,-739.5 561,-769.5 933,-769.5 933,-739.5 561,-739.5"/>
<text text-anchor="start" x="568" y="-750.9" font-family="Arial" font-size="14.00" fill="#000000">algoritmo_hash    </text>
<text text-anchor="start" x="697.8906" y="-750.9" font-family="Arial" font-size="14.00" fill="#666666">[varchar(20)]</text>
<polygon fill="none" stroke="#000000" points="561,-709.5 561,-739.5 933,-739.5 933,-709.5 561,-709.5"/>
<text text-anchor="start" x="568" y="-720.9" font-family="Arial" font-size="14.00" fill="#000000">tipo_conteudo    </text>
<text text-anchor="start" x="690.136" y="-720.9" font-family="Arial" font-size="14.00" fill="#666666">[char(3)]</text>
<polygon fill="none" stroke="#000000" points="561,-679.5 561,-709.5 933,-709.5 933,-679.5 561,-679.5"/>
<text text-anchor="start" x="568" y="-690.9" font-family="Arial" font-size="14.00" fill="#000000">mime_type    </text>
<text text-anchor="start" x="670.6536" y="-690.9" font-family="Arial" font-size="14.00" fill="#666666">[varchar(100)]</text>
<polygon fill="none" stroke="#000000" points="561,-649.5 561,-679.5 933,-679.5 933,-649.5 561,-649.5"/>
<text text-anchor="start" x="568" y="-660.9" font-family="Arial" font-size="14.00" fill="#000000">dados_complementares    </text>
<text text-anchor="start" x="751.575" y="-660.9" font-family="Arial" font-size="14.00" fill="#666666">[varchar(1000)]</text>
<polygon fill="none" stroke="#000000" points="561,-619.5 561,-649.5 933,-649.5 933,-619.5 561,-619.5"/>
<text text-anchor="start" x="568" y="-630.9" font-family="Arial" font-size="14.00" fill="#000000">tamanho    </text>
<text text-anchor="start" x="656.669" y="-630.9" font-family="Arial" font-size="14.00" fill="#666666">[bigint(20)]</text>
<polygon fill="none" stroke="#000000" points="561,-589.5 561,-619.5 933,-619.5 933,-589.5 561,-589.5"/>
<text text-anchor="start" x="568" y="-600.9" font-family="Arial" font-size="14.00" fill="#000000">ordem    </text>
<text text-anchor="start" x="641.8738" y="-600.9" font-family="Arial" font-size="14.00" fill="#666666">[int(11)]</text>
<polygon fill="none" stroke="#000000" points="561,-559.5 561,-589.5 933,-589.5 933,-559.5 561,-559.5"/>
<text text-anchor="start" x="568" y="-570.9" font-family="Arial" font-size="14.00" fill="#000000">sin_enviar    </text>
<text text-anchor="start" x="665.9916" y="-570.9" font-family="Arial" font-size="14.00" fill="#666666">[char(1)]</text>
<polygon fill="none" stroke="#000000" points="561,-529.5 561,-559.5 933,-559.5 933,-529.5 561,-529.5"/>
<text text-anchor="start" x="568" y="-540.9" font-family="Arial" font-size="14.00" fill="#000000">codigo_especie    </text>
<text text-anchor="start" x="699.4614" y="-540.9" font-family="Arial" font-size="14.00" fill="#666666">[int(11)]</text>
<polygon fill="none" stroke="#000000" points="561,-499.5 561,-529.5 933,-529.5 933,-499.5 561,-499.5"/>
<text text-anchor="start" x="568" y="-510.9" font-family="Arial" font-size="14.00" fill="#000000">nome_especie_produtor    </text>
<text text-anchor="start" x="753.1402" y="-510.9" font-family="Arial" font-size="14.00" fill="#666666">[varchar(255)]</text>
<polygon fill="none" stroke="#000000" points="561,-469.5 561,-499.5 933,-499.5 933,-469.5 561,-469.5"/>
<text text-anchor="start" x="568" y="-480.9" font-family="Arial" font-size="14.00" fill="#000000">ordem_documento    </text>
<text text-anchor="start" x="718.9032" y="-480.9" font-family="Arial" font-size="14.00" fill="#666666">[int(11)]</text>
<polygon fill="none" stroke="#000000" points="561,-439.5 561,-469.5 933,-469.5 933,-439.5 561,-439.5"/>
<text text-anchor="start" x="568" y="-450.9" font-family="Arial" font-size="14.00" fill="#000000">id_procedimento_anexado    </text>
<text text-anchor="start" x="767.1514" y="-450.9" font-family="Arial" font-size="14.00" fill="#666666">[bigint(20)]</text>
<polygon fill="none" stroke="#000000" points="561,-409.5 561,-439.5 933,-439.5 933,-409.5 561,-409.5"/>
<text text-anchor="start" x="568" y="-420.9" font-family="Arial" font-size="14.00" fill="#000000">protocolo_procedimento_anexado    </text>
<text text-anchor="start" x="813.833" y="-420.9" font-family="Arial" font-size="14.00" fill="#666666">[varchar(50)]</text>
<polygon fill="none" stroke="#000000" points="561,-379.5 561,-409.5 933,-409.5 933,-379.5 561,-379.5"/>
<text text-anchor="start" x="568" y="-390.9" font-family="Arial" font-size="14.00" fill="#000000">ordem_documento_anexado    </text>
<text text-anchor="start" x="780.3814" y="-390.9" font-family="Arial" font-size="14.00" fill="#666666">[int(11)]</text>
<polygon fill="none" stroke="#000000" points="561,-349.5 561,-379.5 933,-379.5 933,-349.5 561,-349.5"/>
<text text-anchor="start" x="568" y="-360.9" font-family="Arial" font-size="14.00" fill="#000000">ordem_documento_referenciado    </text>
<text text-anchor="start" x="804.4824" y="-360.9" font-family="Arial" font-size="14.00" fill="#666666">[int(11)]</text>
<polygon fill="none" stroke="#000000" points="561,-319.5 561,-349.5 933,-349.5 933,-319.5 561,-319.5"/>
<text text-anchor="start" x="568" y="-330.9" font-family="Arial" font-size="14.00" fill="#000000">id_anexo_imutavel    </text>
<text text-anchor="start" x="718.9018" y="-330.9" font-family="Arial" font-size="14.00" fill="#666666">[bigint(20)]</text>
<polygon fill="none" stroke="#000000" points="561,-289.5 561,-319.5 933,-319.5 933,-289.5 561,-289.5"/>
<text text-anchor="start" x="568" y="-300.9" font-family="Arial" font-size="14.00" fill="#000000">tarja_legada    </text>
<text text-anchor="start" x="679.23" y="-300.9" font-family="Arial" font-size="14.00" fill="#666666">[char(1)]</text>
</g>
<!-- md_pen_componente_digital&#45;&gt;md_pen_processo_eletronico -->
<g id="edge2" class="edge">
<title>md_pen_componente_digital:numero_registro&#45;&gt;md_pen_processo_eletronico:numero_registro</title>
<path fill="none" stroke="#000000" d="M554.0542,-986.9286C521.1722,-910.2196 534.7682,-275.878 561,-247 617.1404,-185.1962 878.8596,-272.8038 935,-211 962.9411,-180.2403 976.5556,-117.5 935,-117.5"/>
<polygon fill="#000000" stroke="#000000" points="554.2399,-987.131 557.684,-997.5421 557.6199,-990.8155 561,-994.5 561,-994.5 561,-994.5 557.6199,-990.8155 564.316,-991.4579 554.2399,-987.131 554.2399,-987.131"/>
</g>
<!-- md_pen_tramite -->
<g id="node4" class="node">
<title>md_pen_tramite</title>
<polygon fill="#efefef" stroke="transparent" points="1038,-829.5 1038,-864.5 1331,-864.5 1331,-829.5 1038,-829.5"/>
<polygon fill="none" stroke="#000000" points="1038,-829.5 1038,-864.5 1331,-864.5 1331,-829.5 1038,-829.5"/>
<text text-anchor="start" x="1055.7036" y="-842.3" font-family="Arial Bold" font-size="18.00" fill="#000000">md_pen_tramite</text>
<text text-anchor="start" x="1185.7284" y="-842.3" font-family="Arial" font-size="14.00" fill="#000000">    </text>
<text text-anchor="start" x="1219.9332" y="-842.3" font-family="Arial" font-size="14.00" fill="#666666">[BASE TABLE]</text>
<polygon fill="none" stroke="#000000" points="1038,-799.5 1038,-829.5 1331,-829.5 1331,-799.5 1038,-799.5"/>
<text text-anchor="start" x="1045" y="-810.9" font-family="Arial" font-size="14.00" fill="#000000">numero_registro    </text>
<text text-anchor="start" x="1181.1052" y="-810.9" font-family="Arial" font-size="14.00" fill="#666666">[char(16)]</text>
<polygon fill="none" stroke="#000000" points="1038,-769.5 1038,-799.5 1331,-799.5 1331,-769.5 1038,-769.5"/>
<text text-anchor="start" x="1045" y="-780.9" font-family="Arial" font-size="14.00" fill="#000000">id_tramite    </text>
<text text-anchor="start" x="1140.6508" y="-780.9" font-family="Arial" font-size="14.00" fill="#666666">[bigint(20)]</text>
<polygon fill="none" stroke="#000000" points="1038,-739.5 1038,-769.5 1331,-769.5 1331,-739.5 1038,-739.5"/>
<text text-anchor="start" x="1045" y="-750.9" font-family="Arial" font-size="14.00" fill="#000000">dth_registro    </text>
<text text-anchor="start" x="1153.1094" y="-750.9" font-family="Arial" font-size="14.00" fill="#666666">[datetime]</text>
<polygon fill="none" stroke="#000000" points="1038,-709.5 1038,-739.5 1331,-739.5 1331,-709.5 1038,-709.5"/>
<text text-anchor="start" x="1045" y="-720.9" font-family="Arial" font-size="14.00" fill="#000000">id_andamento    </text>
<text text-anchor="start" x="1167.906" y="-720.9" font-family="Arial" font-size="14.00" fill="#666666">[int(11)]</text>
<polygon fill="none" stroke="#000000" points="1038,-679.5 1038,-709.5 1331,-709.5 1331,-679.5 1038,-679.5"/>
<text text-anchor="start" x="1045" y="-690.9" font-family="Arial" font-size="14.00" fill="#000000">id_usuario    </text>
<text text-anchor="start" x="1143.7742" y="-690.9" font-family="Arial" font-size="14.00" fill="#666666">[int(11)]</text>
<polygon fill="none" stroke="#000000" points="1038,-649.5 1038,-679.5 1331,-679.5 1331,-649.5 1038,-649.5"/>
<text text-anchor="start" x="1045" y="-660.9" font-family="Arial" font-size="14.00" fill="#000000">id_unidade    </text>
<text text-anchor="start" x="1147.6788" y="-660.9" font-family="Arial" font-size="14.00" fill="#666666">[int(11)]</text>
<polygon fill="none" stroke="#000000" points="1038,-619.5 1038,-649.5 1331,-649.5 1331,-619.5 1038,-619.5"/>
<text text-anchor="start" x="1045" y="-630.9" font-family="Arial" font-size="14.00" fill="#000000">id_repositorio_origem    </text>
<text text-anchor="start" x="1213.7728" y="-630.9" font-family="Arial" font-size="14.00" fill="#666666">[int(11)]</text>
<polygon fill="none" stroke="#000000" points="1038,-589.5 1038,-619.5 1331,-619.5 1331,-589.5 1038,-589.5"/>
<text text-anchor="start" x="1045" y="-600.9" font-family="Arial" font-size="14.00" fill="#000000">id_estrutura_origem    </text>
<text text-anchor="start" x="1203.6676" y="-600.9" font-family="Arial" font-size="14.00" fill="#666666">[int(11)]</text>
<polygon fill="none" stroke="#000000" points="1038,-559.5 1038,-589.5 1331,-589.5 1331,-559.5 1038,-559.5"/>
<text text-anchor="start" x="1045" y="-570.9" font-family="Arial" font-size="14.00" fill="#000000">id_repositorio_destino    </text>
<text text-anchor="start" x="1216.1248" y="-570.9" font-family="Arial" font-size="14.00" fill="#666666">[int(11)]</text>
<polygon fill="none" stroke="#000000" points="1038,-529.5 1038,-559.5 1331,-559.5 1331,-529.5 1038,-529.5"/>
<text text-anchor="start" x="1045" y="-540.9" font-family="Arial" font-size="14.00" fill="#000000">id_estrutura_destino    </text>
<text text-anchor="start" x="1206.0196" y="-540.9" font-family="Arial" font-size="14.00" fill="#666666">[int(11)]</text>
<polygon fill="none" stroke="#000000" points="1038,-499.5 1038,-529.5 1331,-529.5 1331,-499.5 1038,-499.5"/>
<text text-anchor="start" x="1045" y="-510.9" font-family="Arial" font-size="14.00" fill="#000000">sta_tipo_tramite    </text>
<text text-anchor="start" x="1178.7798" y="-510.9" font-family="Arial" font-size="14.00" fill="#666666">[char(1)]</text>
<polygon fill="none" stroke="#000000" points="1038,-469.5 1038,-499.5 1331,-499.5 1331,-469.5 1038,-469.5"/>
<text text-anchor="start" x="1044.8696" y="-480.9" font-family="Arial" font-size="14.00" fill="#000000">ticket_envio_componentes    </text>
<text text-anchor="start" x="1244.7938" y="-480.9" font-family="Arial" font-size="14.00" fill="#666666">[varchar(10)]</text>
</g>
<!-- md_pen_tramite&#45;&gt;md_pen_processo_eletronico -->
<g id="edge3" class="edge">
<title>md_pen_tramite:numero_registro&#45;&gt;md_pen_processo_eletronico:numero_registro</title>
<path fill="none" stroke="#000000" d="M1028.6977,-810.4192C977.1781,-762.384 998.7228,-305.3996 985,-247 970.8868,-186.9393 996.6966,-117.5 935,-117.5"/>
<polygon fill="#000000" stroke="#000000" points="1028.8424,-810.4826 1036.1922,-818.6209 1033.4212,-812.4913 1038,-814.5 1038,-814.5 1038,-814.5 1033.4212,-812.4913 1039.8078,-810.3791 1028.8424,-810.4826 1028.8424,-810.4826"/>
</g>
</g>
</svg>
