<?xml version="1.0" encoding="UTF-8" standalone="no"?>
<!DOCTYPE svg PUBLIC "-//W3C//DTD SVG 1.1//EN"
 "http://www.w3.org/Graphics/SVG/1.1/DTD/svg11.dtd">
<!-- Generated by graphviz version 2.40.1 (20161225.0304)
 -->
<!-- Title: md_pen_recibo_tramite Pages: 1 -->
<svg width="2410pt" height="1613pt"
 viewBox="0.00 0.00 2409.50 1613.00" xmlns="http://www.w3.org/2000/svg" xmlns:xlink="http://www.w3.org/1999/xlink">
<g id="graph0" class="graph" transform="scale(1 1) rotate(0) translate(4 1609)">
<title>md_pen_recibo_tramite</title>
<polygon fill="#ffffff" stroke="transparent" points="-4,4 -4,-1609 2405.5,-1609 2405.5,4 -4,4"/>
<!-- md_pen_recibo_tramite -->
<g id="node1" class="node">
<title>md_pen_recibo_tramite</title>
<polygon fill="#efefef" stroke="transparent" points="46,-1241.5 46,-1276.5 376,-1276.5 376,-1241.5 46,-1241.5"/>
<polygon fill="none" stroke="#000000" points="46,-1241.5 46,-1276.5 376,-1276.5 376,-1241.5 46,-1241.5"/>
<text text-anchor="start" x="52.698" y="-1254.3" font-family="Arial Bold" font-size="18.00" fill="#000000">md_pen_recibo_tramite</text>
<text text-anchor="start" x="241.734" y="-1254.3" font-family="Arial" font-size="14.00" fill="#000000">    </text>
<text text-anchor="start" x="275.9388" y="-1254.3" font-family="Arial" font-size="14.00" fill="#666666">[BASE TABLE]</text>
<polygon fill="none" stroke="#000000" points="46,-1211.5 46,-1241.5 376,-1241.5 376,-1211.5 46,-1211.5"/>
<text text-anchor="start" x="53" y="-1222.9" font-family="Arial" font-size="14.00" fill="#000000">numero_registro </text>
<text text-anchor="start" x="158.791" y="-1222.9" font-family="Arial" font-size="14.00" fill="#666666">[char(16)]</text>
<polygon fill="none" stroke="#000000" points="46,-1181.5 46,-1211.5 376,-1211.5 376,-1181.5 46,-1181.5"/>
<text text-anchor="start" x="53" y="-1192.9" font-family="Arial" font-size="14.00" fill="#000000">id_tramite </text>
<text text-anchor="start" x="118.3366" y="-1192.9" font-family="Arial" font-size="14.00" fill="#666666">[bigint(20)]</text>
<polygon fill="none" stroke="#000000" points="46,-1151.5 46,-1181.5 376,-1181.5 376,-1151.5 46,-1151.5"/>
<text text-anchor="start" x="53" y="-1162.9" font-family="Arial" font-size="14.00" fill="#000000">dth_recebimento </text>
<text text-anchor="start" x="161.143" y="-1162.9" font-family="Arial" font-size="14.00" fill="#666666">[datetime]</text>
<polygon fill="none" stroke="#000000" points="46,-1121.5 46,-1151.5 376,-1151.5 376,-1121.5 46,-1121.5"/>
<text text-anchor="start" x="53" y="-1132.9" font-family="Arial" font-size="14.00" fill="#000000">hash_assinatura </text>
<text text-anchor="start" x="159.5918" y="-1132.9" font-family="Arial" font-size="14.00" fill="#666666">[varchar(1000)]</text>
<polygon fill="none" stroke="#000000" points="46,-1091.5 46,-1121.5 376,-1121.5 376,-1091.5 46,-1091.5"/>
<text text-anchor="start" x="53" y="-1102.9" font-family="Arial" font-size="14.00" fill="#000000">cadeia_certificado </text>
<text text-anchor="start" x="169.6956" y="-1102.9" font-family="Arial" font-size="14.00" fill="#666666">[longtext]</text>
<polygon fill="none" stroke="#000000" stroke-width="3" points="44.5,-1090.5 44.5,-1278.5 377.5,-1278.5 377.5,-1090.5 44.5,-1090.5"/>
</g>
<!-- md_pen_tramite -->
<g id="node2" class="node">
<title>md_pen_tramite</title>
<polygon fill="#efefef" stroke="transparent" points="1015,-649.5 1015,-684.5 1308,-684.5 1308,-649.5 1015,-649.5"/>
<polygon fill="none" stroke="#000000" points="1015,-649.5 1015,-684.5 1308,-684.5 1308,-649.5 1015,-649.5"/>
<text text-anchor="start" x="1032.7036" y="-662.3" font-family="Arial Bold" font-size="18.00" fill="#000000">md_pen_tramite</text>
<text text-anchor="start" x="1162.7284" y="-662.3" font-family="Arial" font-size="14.00" fill="#000000">    </text>
<text text-anchor="start" x="1196.9332" y="-662.3" font-family="Arial" font-size="14.00" fill="#666666">[BASE TABLE]</text>
<polygon fill="none" stroke="#000000" points="1015,-619.5 1015,-649.5 1308,-649.5 1308,-619.5 1015,-619.5"/>
<text text-anchor="start" x="1022" y="-630.9" font-family="Arial" font-size="14.00" fill="#000000">numero_registro    </text>
<text text-anchor="start" x="1158.1052" y="-630.9" font-family="Arial" font-size="14.00" fill="#666666">[char(16)]</text>
<polygon fill="none" stroke="#000000" points="1015,-589.5 1015,-619.5 1308,-619.5 1308,-589.5 1015,-589.5"/>
<text text-anchor="start" x="1022" y="-600.9" font-family="Arial" font-size="14.00" fill="#000000">id_tramite    </text>
<text text-anchor="start" x="1117.6508" y="-600.9" font-family="Arial" font-size="14.00" fill="#666666">[bigint(20)]</text>
<polygon fill="none" stroke="#000000" points="1015,-559.5 1015,-589.5 1308,-589.5 1308,-559.5 1015,-559.5"/>
<text text-anchor="start" x="1022" y="-570.9" font-family="Arial" font-size="14.00" fill="#000000">dth_registro    </text>
<text text-anchor="start" x="1130.1094" y="-570.9" font-family="Arial" font-size="14.00" fill="#666666">[datetime]</text>
<polygon fill="none" stroke="#000000" points="1015,-529.5 1015,-559.5 1308,-559.5 1308,-529.5 1015,-529.5"/>
<text text-anchor="start" x="1022" y="-540.9" font-family="Arial" font-size="14.00" fill="#000000">id_andamento    </text>
<text text-anchor="start" x="1144.906" y="-540.9" font-family="Arial" font-size="14.00" fill="#666666">[int(11)]</text>
<polygon fill="none" stroke="#000000" points="1015,-499.5 1015,-529.5 1308,-529.5 1308,-499.5 1015,-499.5"/>
<text text-anchor="start" x="1022" y="-510.9" font-family="Arial" font-size="14.00" fill="#000000">id_usuario    </text>
<text text-anchor="start" x="1120.7742" y="-510.9" font-family="Arial" font-size="14.00" fill="#666666">[int(11)]</text>
<polygon fill="none" stroke="#000000" points="1015,-469.5 1015,-499.5 1308,-499.5 1308,-469.5 1015,-469.5"/>
<text text-anchor="start" x="1022" y="-480.9" font-family="Arial" font-size="14.00" fill="#000000">id_unidade    </text>
<text text-anchor="start" x="1124.6788" y="-480.9" font-family="Arial" font-size="14.00" fill="#666666">[int(11)]</text>
<polygon fill="none" stroke="#000000" points="1015,-439.5 1015,-469.5 1308,-469.5 1308,-439.5 1015,-439.5"/>
<text text-anchor="start" x="1022" y="-450.9" font-family="Arial" font-size="14.00" fill="#000000">id_repositorio_origem    </text>
<text text-anchor="start" x="1190.7728" y="-450.9" font-family="Arial" font-size="14.00" fill="#666666">[int(11)]</text>
<polygon fill="none" stroke="#000000" points="1015,-409.5 1015,-439.5 1308,-439.5 1308,-409.5 1015,-409.5"/>
<text text-anchor="start" x="1022" y="-420.9" font-family="Arial" font-size="14.00" fill="#000000">id_estrutura_origem    </text>
<text text-anchor="start" x="1180.6676" y="-420.9" font-family="Arial" font-size="14.00" fill="#666666">[int(11)]</text>
<polygon fill="none" stroke="#000000" points="1015,-379.5 1015,-409.5 1308,-409.5 1308,-379.5 1015,-379.5"/>
<text text-anchor="start" x="1022" y="-390.9" font-family="Arial" font-size="14.00" fill="#000000">id_repositorio_destino    </text>
<text text-anchor="start" x="1193.1248" y="-390.9" font-family="Arial" font-size="14.00" fill="#666666">[int(11)]</text>
<polygon fill="none" stroke="#000000" points="1015,-349.5 1015,-379.5 1308,-379.5 1308,-349.5 1015,-349.5"/>
<text text-anchor="start" x="1022" y="-360.9" font-family="Arial" font-size="14.00" fill="#000000">id_estrutura_destino    </text>
<text text-anchor="start" x="1183.0196" y="-360.9" font-family="Arial" font-size="14.00" fill="#666666">[int(11)]</text>
<polygon fill="none" stroke="#000000" points="1015,-319.5 1015,-349.5 1308,-349.5 1308,-319.5 1015,-319.5"/>
<text text-anchor="start" x="1022" y="-330.9" font-family="Arial" font-size="14.00" fill="#000000">sta_tipo_tramite    </text>
<text text-anchor="start" x="1155.7798" y="-330.9" font-family="Arial" font-size="14.00" fill="#666666">[char(1)]</text>
<polygon fill="none" stroke="#000000" points="1015,-289.5 1015,-319.5 1308,-319.5 1308,-289.5 1015,-289.5"/>
<text text-anchor="start" x="1021.8696" y="-300.9" font-family="Arial" font-size="14.00" fill="#000000">ticket_envio_componentes    </text>
<text text-anchor="start" x="1221.7938" y="-300.9" font-family="Arial" font-size="14.00" fill="#666666">[varchar(10)]</text>
</g>
<!-- md_pen_recibo_tramite&#45;&gt;md_pen_tramite -->
<g id="edge1" class="edge">
<title>md_pen_recibo_tramite:numero_registro&#45;&gt;md_pen_tramite:numero_registro</title>
<path fill="none" stroke="#000000" d="M386.1129,-1225.0999C471.4405,-1199.7587 363.9981,-838.05 431,-764 520.1878,-665.4304 882.0698,-634.5 1015,-634.5"/>
<polygon fill="#000000" stroke="#000000" points="385.9055,-1225.1285 375.3828,-1222.0425 380.9528,-1225.8142 376,-1226.5 376,-1226.5 376,-1226.5 380.9528,-1225.8142 376.6172,-1230.9575 385.9055,-1225.1285 385.9055,-1225.1285"/>
</g>
<!-- md_pen_processo_eletronico -->
<g id="node3" class="node">
<title>md_pen_processo_eletronico</title>
<polygon fill="#efefef" stroke="transparent" points="973,-132.5 973,-167.5 1350,-167.5 1350,-132.5 973,-132.5"/>
<polygon fill="none" stroke="#000000" points="973,-132.5 973,-167.5 1350,-167.5 1350,-132.5 973,-132.5"/>
<text text-anchor="start" x="979.6828" y="-145.3" font-family="Arial Bold" font-size="18.00" fill="#000000">md_pen_processo_eletronico</text>
<text text-anchor="start" x="1215.7492" y="-145.3" font-family="Arial" font-size="14.00" fill="#000000">    </text>
<text text-anchor="start" x="1249.954" y="-145.3" font-family="Arial" font-size="14.00" fill="#666666">[BASE TABLE]</text>
<polygon fill="none" stroke="#000000" points="973,-102.5 973,-132.5 1350,-132.5 1350,-102.5 973,-102.5"/>
<text text-anchor="start" x="980" y="-113.9" font-family="Arial" font-size="14.00" fill="#000000">numero_registro    </text>
<text text-anchor="start" x="1116.1052" y="-113.9" font-family="Arial" font-size="14.00" fill="#666666">[char(16)]</text>
<polygon fill="none" stroke="#000000" points="973,-72.5 973,-102.5 1350,-102.5 1350,-72.5 973,-72.5"/>
<text text-anchor="start" x="980" y="-83.9" font-family="Arial" font-size="14.00" fill="#000000">id_procedimento    </text>
<text text-anchor="start" x="1117.6732" y="-83.9" font-family="Arial" font-size="14.00" fill="#666666">[bigint(20)]</text>
<polygon fill="none" stroke="#000000" points="973,-42.5 973,-72.5 1350,-72.5 1350,-42.5 973,-42.5"/>
<text text-anchor="start" x="980" y="-53.9" font-family="Arial" font-size="14.00" fill="#000000">sta_tipo_protocolo    </text>
<text text-anchor="start" x="1128.5764" y="-53.9" font-family="Arial" font-size="14.00" fill="#666666">[varchar(1)]</text>
</g>
<!-- md_pen_tramite&#45;&gt;md_pen_processo_eletronico -->
<g id="edge2" class="edge">
<title>md_pen_tramite:numero_registro&#45;&gt;md_pen_processo_eletronico:numero_registro</title>
<path fill="none" stroke="#000000" d="M1004.9907,-634.1704C783.2933,-619.4645 745.8422,-117.5 973,-117.5"/>
<polygon fill="#000000" stroke="#000000" points="1005.0054,-634.1708 1014.8519,-638.9976 1010.0027,-634.3354 1015,-634.5 1015,-634.5 1015,-634.5 1010.0027,-634.3354 1015.1481,-630.0024 1005.0054,-634.1708 1005.0054,-634.1708"/>
</g>
<!-- md_pen_componente_digital -->
<g id="node4" class="node">
<title>md_pen_componente_digital</title>
<polygon fill="#efefef" stroke="transparent" points="483,-1526.5 483,-1561.5 855,-1561.5 855,-1526.5 483,-1526.5"/>
<polygon fill="none" stroke="#000000" points="483,-1526.5 483,-1561.5 855,-1561.5 855,-1526.5 483,-1526.5"/>
<text text-anchor="start" x="489.6776" y="-1539.3" font-family="Arial Bold" font-size="18.00" fill="#000000">md_pen_componente_digital</text>
<text text-anchor="start" x="720.7544" y="-1539.3" font-family="Arial" font-size="14.00" fill="#000000">    </text>
<text text-anchor="start" x="754.9592" y="-1539.3" font-family="Arial" font-size="14.00" fill="#666666">[BASE TABLE]</text>
<polygon fill="none" stroke="#000000" points="483,-1496.5 483,-1526.5 855,-1526.5 855,-1496.5 483,-1496.5"/>
<text text-anchor="start" x="490" y="-1507.9" font-family="Arial" font-size="14.00" fill="#000000">numero_registro    </text>
<text text-anchor="start" x="626.1052" y="-1507.9" font-family="Arial" font-size="14.00" fill="#666666">[char(16)]</text>
<polygon fill="none" stroke="#000000" points="483,-1466.5 483,-1496.5 855,-1496.5 855,-1466.5 483,-1466.5"/>
<text text-anchor="start" x="490" y="-1477.9" font-family="Arial" font-size="14.00" fill="#000000">id_procedimento    </text>
<text text-anchor="start" x="627.6732" y="-1477.9" font-family="Arial" font-size="14.00" fill="#666666">[bigint(20)]</text>
<polygon fill="none" stroke="#000000" points="483,-1436.5 483,-1466.5 855,-1466.5 855,-1436.5 483,-1436.5"/>
<text text-anchor="start" x="490" y="-1447.9" font-family="Arial" font-size="14.00" fill="#000000">id_documento    </text>
<text text-anchor="start" x="612.1234" y="-1447.9" font-family="Arial" font-size="14.00" fill="#666666">[bigint(20)]</text>
<polygon fill="none" stroke="#000000" points="483,-1406.5 483,-1436.5 855,-1436.5 855,-1406.5 483,-1406.5"/>
<text text-anchor="start" x="490" y="-1417.9" font-family="Arial" font-size="14.00" fill="#000000">id_tramite    </text>
<text text-anchor="start" x="585.6508" y="-1417.9" font-family="Arial" font-size="14.00" fill="#666666">[bigint(20)]</text>
<polygon fill="none" stroke="#000000" points="483,-1376.5 483,-1406.5 855,-1406.5 855,-1376.5 483,-1376.5"/>
<text text-anchor="start" x="490" y="-1387.9" font-family="Arial" font-size="14.00" fill="#000000">id_anexo    </text>
<text text-anchor="start" x="581.007" y="-1387.9" font-family="Arial" font-size="14.00" fill="#666666">[int(11)]</text>
<polygon fill="none" stroke="#000000" points="483,-1346.5 483,-1376.5 855,-1376.5 855,-1346.5 483,-1346.5"/>
<text text-anchor="start" x="490" y="-1357.9" font-family="Arial" font-size="14.00" fill="#000000">protocolo    </text>
<text text-anchor="start" x="581.7756" y="-1357.9" font-family="Arial" font-size="14.00" fill="#666666">[varchar(50)]</text>
<polygon fill="none" stroke="#000000" points="483,-1316.5 483,-1346.5 855,-1346.5 855,-1316.5 483,-1316.5"/>
<text text-anchor="start" x="490" y="-1327.9" font-family="Arial" font-size="14.00" fill="#000000">nome    </text>
<text text-anchor="start" x="559.2132" y="-1327.9" font-family="Arial" font-size="14.00" fill="#666666">[varchar(255)]</text>
<polygon fill="none" stroke="#000000" points="483,-1286.5 483,-1316.5 855,-1316.5 855,-1286.5 483,-1286.5"/>
<text text-anchor="start" x="490" y="-1297.9" font-family="Arial" font-size="14.00" fill="#000000">hash_conteudo    </text>
<text text-anchor="start" x="619.9214" y="-1297.9" font-family="Arial" font-size="14.00" fill="#666666">[varchar(255)]</text>
<polygon fill="none" stroke="#000000" points="483,-1256.5 483,-1286.5 855,-1286.5 855,-1256.5 483,-1256.5"/>
<text text-anchor="start" x="490" y="-1267.9" font-family="Arial" font-size="14.00" fill="#000000">algoritmo_hash    </text>
<text text-anchor="start" x="619.8906" y="-1267.9" font-family="Arial" font-size="14.00" fill="#666666">[varchar(20)]</text>
<polygon fill="none" stroke="#000000" points="483,-1226.5 483,-1256.5 855,-1256.5 855,-1226.5 483,-1226.5"/>
<text text-anchor="start" x="490" y="-1237.9" font-family="Arial" font-size="14.00" fill="#000000">tipo_conteudo    </text>
<text text-anchor="start" x="612.136" y="-1237.9" font-family="Arial" font-size="14.00" fill="#666666">[char(3)]</text>
<polygon fill="none" stroke="#000000" points="483,-1196.5 483,-1226.5 855,-1226.5 855,-1196.5 483,-1196.5"/>
<text text-anchor="start" x="490" y="-1207.9" font-family="Arial" font-size="14.00" fill="#000000">mime_type    </text>
<text text-anchor="start" x="592.6536" y="-1207.9" font-family="Arial" font-size="14.00" fill="#666666">[varchar(100)]</text>
<polygon fill="none" stroke="#000000" points="483,-1166.5 483,-1196.5 855,-1196.5 855,-1166.5 483,-1166.5"/>
<text text-anchor="start" x="490" y="-1177.9" font-family="Arial" font-size="14.00" fill="#000000">dados_complementares    </text>
<text text-anchor="start" x="673.575" y="-1177.9" font-family="Arial" font-size="14.00" fill="#666666">[varchar(1000)]</text>
<polygon fill="none" stroke="#000000" points="483,-1136.5 483,-1166.5 855,-1166.5 855,-1136.5 483,-1136.5"/>
<text text-anchor="start" x="490" y="-1147.9" font-family="Arial" font-size="14.00" fill="#000000">tamanho    </text>
<text text-anchor="start" x="578.669" y="-1147.9" font-family="Arial" font-size="14.00" fill="#666666">[bigint(20)]</text>
<polygon fill="none" stroke="#000000" points="483,-1106.5 483,-1136.5 855,-1136.5 855,-1106.5 483,-1106.5"/>
<text text-anchor="start" x="490" y="-1117.9" font-family="Arial" font-size="14.00" fill="#000000">ordem    </text>
<text text-anchor="start" x="563.8738" y="-1117.9" font-family="Arial" font-size="14.00" fill="#666666">[int(11)]</text>
<polygon fill="none" stroke="#000000" points="483,-1076.5 483,-1106.5 855,-1106.5 855,-1076.5 483,-1076.5"/>
<text text-anchor="start" x="490" y="-1087.9" font-family="Arial" font-size="14.00" fill="#000000">sin_enviar    </text>
<text text-anchor="start" x="587.9916" y="-1087.9" font-family="Arial" font-size="14.00" fill="#666666">[char(1)]</text>
<polygon fill="none" stroke="#000000" points="483,-1046.5 483,-1076.5 855,-1076.5 855,-1046.5 483,-1046.5"/>
<text text-anchor="start" x="490" y="-1057.9" font-family="Arial" font-size="14.00" fill="#000000">codigo_especie    </text>
<text text-anchor="start" x="621.4614" y="-1057.9" font-family="Arial" font-size="14.00" fill="#666666">[int(11)]</text>
<polygon fill="none" stroke="#000000" points="483,-1016.5 483,-1046.5 855,-1046.5 855,-1016.5 483,-1016.5"/>
<text text-anchor="start" x="490" y="-1027.9" font-family="Arial" font-size="14.00" fill="#000000">nome_especie_produtor    </text>
<text text-anchor="start" x="675.1402" y="-1027.9" font-family="Arial" font-size="14.00" fill="#666666">[varchar(255)]</text>
<polygon fill="none" stroke="#000000" points="483,-986.5 483,-1016.5 855,-1016.5 855,-986.5 483,-986.5"/>
<text text-anchor="start" x="490" y="-997.9" font-family="Arial" font-size="14.00" fill="#000000">ordem_documento    </text>
<text text-anchor="start" x="640.9032" y="-997.9" font-family="Arial" font-size="14.00" fill="#666666">[int(11)]</text>
<polygon fill="none" stroke="#000000" points="483,-956.5 483,-986.5 855,-986.5 855,-956.5 483,-956.5"/>
<text text-anchor="start" x="490" y="-967.9" font-family="Arial" font-size="14.00" fill="#000000">id_procedimento_anexado    </text>
<text text-anchor="start" x="689.1514" y="-967.9" font-family="Arial" font-size="14.00" fill="#666666">[bigint(20)]</text>
<polygon fill="none" stroke="#000000" points="483,-926.5 483,-956.5 855,-956.5 855,-926.5 483,-926.5"/>
<text text-anchor="start" x="490" y="-937.9" font-family="Arial" font-size="14.00" fill="#000000">protocolo_procedimento_anexado    </text>
<text text-anchor="start" x="735.833" y="-937.9" font-family="Arial" font-size="14.00" fill="#666666">[varchar(50)]</text>
<polygon fill="none" stroke="#000000" points="483,-896.5 483,-926.5 855,-926.5 855,-896.5 483,-896.5"/>
<text text-anchor="start" x="490" y="-907.9" font-family="Arial" font-size="14.00" fill="#000000">ordem_documento_anexado    </text>
<text text-anchor="start" x="702.3814" y="-907.9" font-family="Arial" font-size="14.00" fill="#666666">[int(11)]</text>
<polygon fill="none" stroke="#000000" points="483,-866.5 483,-896.5 855,-896.5 855,-866.5 483,-866.5"/>
<text text-anchor="start" x="490" y="-877.9" font-family="Arial" font-size="14.00" fill="#000000">ordem_documento_referenciado    </text>
<text text-anchor="start" x="726.4824" y="-877.9" font-family="Arial" font-size="14.00" fill="#666666">[int(11)]</text>
<polygon fill="none" stroke="#000000" points="483,-836.5 483,-866.5 855,-866.5 855,-836.5 483,-836.5"/>
<text text-anchor="start" x="490" y="-847.9" font-family="Arial" font-size="14.00" fill="#000000">id_anexo_imutavel    </text>
<text text-anchor="start" x="640.9018" y="-847.9" font-family="Arial" font-size="14.00" fill="#666666">[bigint(20)]</text>
<polygon fill="none" stroke="#000000" points="483,-806.5 483,-836.5 855,-836.5 855,-806.5 483,-806.5"/>
<text text-anchor="start" x="490" y="-817.9" font-family="Arial" font-size="14.00" fill="#000000">tarja_legada    </text>
<text text-anchor="start" x="601.23" y="-817.9" font-family="Arial" font-size="14.00" fill="#666666">[char(1)]</text>
</g>
<!-- md_pen_componente_digital&#45;&gt;md_pen_tramite -->
<g id="edge3" class="edge">
<title>md_pen_componente_digital:numero_registro&#45;&gt;md_pen_tramite:numero_registro</title>
<path fill="none" stroke="#000000" d="M864.5262,-1508.2045C933.3016,-1457.5159 877.2158,-838.0781 907,-764 934.9574,-694.4656 940.0557,-634.5 1015,-634.5"/>
<polygon fill="#000000" stroke="#000000" points="864.4505,-1508.2306 853.5288,-1507.2473 859.7252,-1509.8653 855,-1511.5 855,-1511.5 855,-1511.5 859.7252,-1509.8653 856.4712,-1515.7527 864.4505,-1508.2306 864.4505,-1508.2306"/>
</g>
<!-- md_pen_recibo_tramite_enviado -->
<g id="node5" class="node">
<title>md_pen_recibo_tramite_enviado</title>
<polygon fill="#efefef" stroke="transparent" points="960,-1241.5 960,-1276.5 1363,-1276.5 1363,-1241.5 960,-1241.5"/>
<polygon fill="none" stroke="#000000" points="960,-1241.5 960,-1276.5 1363,-1276.5 1363,-1241.5 960,-1241.5"/>
<text text-anchor="start" x="966.6823" y="-1254.3" font-family="Arial Bold" font-size="18.00" fill="#000000">md_pen_recibo_tramite_enviado</text>
<text text-anchor="start" x="1228.7497" y="-1254.3" font-family="Arial" font-size="14.00" fill="#000000">    </text>
<text text-anchor="start" x="1262.9545" y="-1254.3" font-family="Arial" font-size="14.00" fill="#666666">[BASE TABLE]</text>
<polygon fill="none" stroke="#000000" points="960,-1211.5 960,-1241.5 1363,-1241.5 1363,-1211.5 960,-1211.5"/>
<text text-anchor="start" x="967" y="-1222.9" font-family="Arial" font-size="14.00" fill="#000000">numero_registro    </text>
<text text-anchor="start" x="1103.1052" y="-1222.9" font-family="Arial" font-size="14.00" fill="#666666">[char(16)]</text>
<polygon fill="none" stroke="#000000" points="960,-1181.5 960,-1211.5 1363,-1211.5 1363,-1181.5 960,-1181.5"/>
<text text-anchor="start" x="967" y="-1192.9" font-family="Arial" font-size="14.00" fill="#000000">id_tramite    </text>
<text text-anchor="start" x="1062.6508" y="-1192.9" font-family="Arial" font-size="14.00" fill="#666666">[bigint(20)]</text>
<polygon fill="none" stroke="#000000" points="960,-1151.5 960,-1181.5 1363,-1181.5 1363,-1151.5 960,-1151.5"/>
<text text-anchor="start" x="967" y="-1162.9" font-family="Arial" font-size="14.00" fill="#000000">dth_recebimento    </text>
<text text-anchor="start" x="1105.4572" y="-1162.9" font-family="Arial" font-size="14.00" fill="#666666">[datetime]</text>
<polygon fill="none" stroke="#000000" points="960,-1121.5 960,-1151.5 1363,-1151.5 1363,-1121.5 960,-1121.5"/>
<text text-anchor="start" x="967" y="-1132.9" font-family="Arial" font-size="14.00" fill="#000000">hash_assinatura    </text>
<text text-anchor="start" x="1103.906" y="-1132.9" font-family="Arial" font-size="14.00" fill="#666666">[varchar(1000)]</text>
<polygon fill="none" stroke="#000000" points="960,-1091.5 960,-1121.5 1363,-1121.5 1363,-1091.5 960,-1091.5"/>
<text text-anchor="start" x="967" y="-1102.9" font-family="Arial" font-size="14.00" fill="#000000">cadeia_certificado    </text>
<text text-anchor="start" x="1114.0098" y="-1102.9" font-family="Arial" font-size="14.00" fill="#666666">[longtext]</text>
</g>
<!-- md_pen_recibo_tramite_enviado&#45;&gt;md_pen_tramite -->
<g id="edge4" class="edge">
<title>md_pen_recibo_tramite_enviado:numero_registro&#45;&gt;md_pen_tramite:numero_registro</title>
<path fill="none" stroke="#000000" d="M950.8582,-1222.0752C899.5534,-1167.9016 952.2936,-634.5 1015,-634.5"/>
<polygon fill="#000000" stroke="#000000" points="950.9989,-1222.1433 958.0395,-1230.5505 955.4995,-1224.3216 960,-1226.5 960,-1226.5 960,-1226.5 955.4995,-1224.3216 961.9605,-1222.4495 950.9989,-1222.1433 950.9989,-1222.1433"/>
</g>
<!-- md_pen_recibo_tramite_hash -->
<g id="node6" class="node">
<title>md_pen_recibo_tramite_hash</title>
<polygon fill="#efefef" stroke="transparent" points="1467,-1241.5 1467,-1276.5 1846,-1276.5 1846,-1241.5 1467,-1241.5"/>
<polygon fill="none" stroke="#000000" points="1467,-1241.5 1467,-1276.5 1846,-1276.5 1846,-1241.5 1467,-1241.5"/>
<text text-anchor="start" x="1473.6856" y="-1254.3" font-family="Arial Bold" font-size="18.00" fill="#000000">md_pen_recibo_tramite_hash</text>
<text text-anchor="start" x="1711.7464" y="-1254.3" font-family="Arial" font-size="14.00" fill="#000000">    </text>
<text text-anchor="start" x="1745.9512" y="-1254.3" font-family="Arial" font-size="14.00" fill="#666666">[BASE TABLE]</text>
<polygon fill="none" stroke="#000000" points="1467,-1211.5 1467,-1241.5 1846,-1241.5 1846,-1211.5 1467,-1211.5"/>
<text text-anchor="start" x="1474" y="-1222.9" font-family="Arial" font-size="14.00" fill="#000000">id_tramite_hash    </text>
<text text-anchor="start" x="1607.7812" y="-1222.9" font-family="Arial" font-size="14.00" fill="#666666">[bigint(20)]</text>
<polygon fill="none" stroke="#000000" points="1467,-1181.5 1467,-1211.5 1846,-1211.5 1846,-1181.5 1467,-1181.5"/>
<text text-anchor="start" x="1474" y="-1192.9" font-family="Arial" font-size="14.00" fill="#000000">numero_registro    </text>
<text text-anchor="start" x="1610.1052" y="-1192.9" font-family="Arial" font-size="14.00" fill="#666666">[char(16)]</text>
<polygon fill="none" stroke="#000000" points="1467,-1151.5 1467,-1181.5 1846,-1181.5 1846,-1151.5 1467,-1151.5"/>
<text text-anchor="start" x="1474" y="-1162.9" font-family="Arial" font-size="14.00" fill="#000000">id_tramite    </text>
<text text-anchor="start" x="1569.6508" y="-1162.9" font-family="Arial" font-size="14.00" fill="#666666">[bigint(20)]</text>
<polygon fill="none" stroke="#000000" points="1467,-1121.5 1467,-1151.5 1846,-1151.5 1846,-1121.5 1467,-1121.5"/>
<text text-anchor="start" x="1474" y="-1132.9" font-family="Arial" font-size="14.00" fill="#000000">tipo_recibo    </text>
<text text-anchor="start" x="1576.6648" y="-1132.9" font-family="Arial" font-size="14.00" fill="#666666">[char(1)]</text>
<polygon fill="none" stroke="#000000" points="1467,-1091.5 1467,-1121.5 1846,-1121.5 1846,-1091.5 1467,-1091.5"/>
<text text-anchor="start" x="1474" y="-1102.9" font-family="Arial" font-size="14.00" fill="#000000">hash_componente_digital    </text>
<text text-anchor="start" x="1667.7054" y="-1102.9" font-family="Arial" font-size="14.00" fill="#666666">[varchar(255)]</text>
</g>
<!-- md_pen_recibo_tramite_hash&#45;&gt;md_pen_tramite -->
<g id="edge5" class="edge">
<title>md_pen_recibo_tramite_hash:numero_registro&#45;&gt;md_pen_tramite:numero_registro</title>
<path fill="none" stroke="#000000" d="M1456.9503,-1195.1113C1376.1867,-1171.3541 1451.7356,-849.6667 1415,-764 1385.5754,-695.3825 1382.6604,-634.5 1308,-634.5"/>
<polygon fill="#000000" stroke="#000000" points="1457.0941,-1195.1311 1466.384,-1200.9576 1462.0471,-1195.8156 1467,-1196.5 1467,-1196.5 1467,-1196.5 1462.0471,-1195.8156 1467.616,-1192.0424 1457.0941,-1195.1311 1457.0941,-1195.1311"/>
</g>
<!-- md_pen_recibo_tramite_recebido -->
<g id="node7" class="node">
<title>md_pen_recibo_tramite_recebido</title>
<polygon fill="#efefef" stroke="transparent" points="1950,-1241.5 1950,-1276.5 2359,-1276.5 2359,-1241.5 1950,-1241.5"/>
<polygon fill="none" stroke="#000000" points="1950,-1241.5 1950,-1276.5 2359,-1276.5 2359,-1241.5 1950,-1241.5"/>
<text text-anchor="start" x="1956.6862" y="-1254.3" font-family="Arial Bold" font-size="18.00" fill="#000000">md_pen_recibo_tramite_recebido</text>
<text text-anchor="start" x="2224.7458" y="-1254.3" font-family="Arial" font-size="14.00" fill="#000000">    </text>
<text text-anchor="start" x="2258.9506" y="-1254.3" font-family="Arial" font-size="14.00" fill="#666666">[BASE TABLE]</text>
<polygon fill="none" stroke="#000000" points="1950,-1211.5 1950,-1241.5 2359,-1241.5 2359,-1211.5 1950,-1211.5"/>
<text text-anchor="start" x="1957" y="-1222.9" font-family="Arial" font-size="14.00" fill="#000000">numero_registro    </text>
<text text-anchor="start" x="2093.1052" y="-1222.9" font-family="Arial" font-size="14.00" fill="#666666">[char(16)]</text>
<polygon fill="none" stroke="#000000" points="1950,-1181.5 1950,-1211.5 2359,-1211.5 2359,-1181.5 1950,-1181.5"/>
<text text-anchor="start" x="1957" y="-1192.9" font-family="Arial" font-size="14.00" fill="#000000">id_tramite    </text>
<text text-anchor="start" x="2052.6508" y="-1192.9" font-family="Arial" font-size="14.00" fill="#666666">[bigint(20)]</text>
<polygon fill="none" stroke="#000000" points="1950,-1151.5 1950,-1181.5 2359,-1181.5 2359,-1151.5 1950,-1151.5"/>
<text text-anchor="start" x="1957" y="-1162.9" font-family="Arial" font-size="14.00" fill="#000000">dth_recebimento    </text>
<text text-anchor="start" x="2095.4572" y="-1162.9" font-family="Arial" font-size="14.00" fill="#666666">[datetime]</text>
<polygon fill="none" stroke="#000000" points="1950,-1121.5 1950,-1151.5 2359,-1151.5 2359,-1121.5 1950,-1121.5"/>
<text text-anchor="start" x="1957" y="-1132.9" font-family="Arial" font-size="14.00" fill="#000000">hash_assinatura    </text>
<text text-anchor="start" x="2093.906" y="-1132.9" font-family="Arial" font-size="14.00" fill="#666666">[varchar(1000)]</text>
<polygon fill="none" stroke="#000000" points="1950,-1091.5 1950,-1121.5 2359,-1121.5 2359,-1091.5 1950,-1091.5"/>
<text text-anchor="start" x="1957" y="-1102.9" font-family="Arial" font-size="14.00" fill="#000000">cadeia_certificado    </text>
<text text-anchor="start" x="2104.0098" y="-1102.9" font-family="Arial" font-size="14.00" fill="#666666">[longtext]</text>
</g>
<!-- md_pen_recibo_tramite_recebido&#45;&gt;md_pen_tramite -->
<g id="edge6" class="edge">
<title>md_pen_recibo_tramite_recebido:numero_registro&#45;&gt;md_pen_tramite:numero_registro</title>
<path fill="none" stroke="#000000" d="M1939.9047,-1225.1002C1854.8235,-1199.7649 1964.7949,-838.1373 1898,-764 1808.1504,-664.2737 1442.2322,-634.5 1308,-634.5"/>
<polygon fill="#000000" stroke="#000000" points="1940.0948,-1225.1265 1949.3819,-1230.9574 1945.0474,-1225.8132 1950,-1226.5 1950,-1226.5 1950,-1226.5 1945.0474,-1225.8132 1950.6181,-1222.0426 1940.0948,-1225.1265 1940.0948,-1225.1265"/>
</g>
</g>
</svg>
