<?xml version="1.0" encoding="UTF-8" standalone="no"?>
<!DOCTYPE svg PUBLIC "-//W3C//DTD SVG 1.1//EN"
 "http://www.w3.org/Graphics/SVG/1.1/DTD/svg11.dtd">
<!-- Generated by graphviz version 2.40.1 (20161225.0304)
 -->
<!-- Title: md_pen_recibo_tramite_hash Pages: 1 -->
<svg width="2410pt" height="1613pt"
 viewBox="0.00 0.00 2410.00 1613.00" xmlns="http://www.w3.org/2000/svg" xmlns:xlink="http://www.w3.org/1999/xlink">
<g id="graph0" class="graph" transform="scale(1 1) rotate(0) translate(4 1609)">
<title>md_pen_recibo_tramite_hash</title>
<polygon fill="#ffffff" stroke="transparent" points="-4,4 -4,-1609 2406,-1609 2406,4 -4,4"/>
<!-- md_pen_recibo_tramite_hash -->
<g id="node1" class="node">
<title>md_pen_recibo_tramite_hash</title>
<polygon fill="#efefef" stroke="transparent" points="46.5,-1241.5 46.5,-1276.5 425.5,-1276.5 425.5,-1241.5 46.5,-1241.5"/>
<polygon fill="none" stroke="#000000" points="46.5,-1241.5 46.5,-1276.5 425.5,-1276.5 425.5,-1241.5 46.5,-1241.5"/>
<text text-anchor="start" x="53.1856" y="-1254.3" font-family="Arial Bold" font-size="18.00" fill="#000000">md_pen_recibo_tramite_hash</text>
<text text-anchor="start" x="291.2464" y="-1254.3" font-family="Arial" font-size="14.00" fill="#000000">    </text>
<text text-anchor="start" x="325.4512" y="-1254.3" font-family="Arial" font-size="14.00" fill="#666666">[BASE TABLE]</text>
<polygon fill="none" stroke="#000000" points="46.5,-1211.5 46.5,-1241.5 425.5,-1241.5 425.5,-1211.5 46.5,-1211.5"/>
<text text-anchor="start" x="53.5" y="-1222.9" font-family="Arial" font-size="14.00" fill="#000000">id_tramite_hash </text>
<text text-anchor="start" x="156.967" y="-1222.9" font-family="Arial" font-size="14.00" fill="#666666">[bigint(20)]</text>
<polygon fill="none" stroke="#000000" points="46.5,-1181.5 46.5,-1211.5 425.5,-1211.5 425.5,-1181.5 46.5,-1181.5"/>
<text text-anchor="start" x="53.5" y="-1192.9" font-family="Arial" font-size="14.00" fill="#000000">numero_registro </text>
<text text-anchor="start" x="159.291" y="-1192.9" font-family="Arial" font-size="14.00" fill="#666666">[char(16)]</text>
<polygon fill="none" stroke="#000000" points="46.5,-1151.5 46.5,-1181.5 425.5,-1181.5 425.5,-1151.5 46.5,-1151.5"/>
<text text-anchor="start" x="53.5" y="-1162.9" font-family="Arial" font-size="14.00" fill="#000000">id_tramite </text>
<text text-anchor="start" x="118.8366" y="-1162.9" font-family="Arial" font-size="14.00" fill="#666666">[bigint(20)]</text>
<polygon fill="none" stroke="#000000" points="46.5,-1121.5 46.5,-1151.5 425.5,-1151.5 425.5,-1121.5 46.5,-1121.5"/>
<text text-anchor="start" x="53.5" y="-1132.9" font-family="Arial" font-size="14.00" fill="#000000">tipo_recibo </text>
<text text-anchor="start" x="125.8506" y="-1132.9" font-family="Arial" font-size="14.00" fill="#666666">[char(1)]</text>
<polygon fill="none" stroke="#000000" points="46.5,-1091.5 46.5,-1121.5 425.5,-1121.5 425.5,-1091.5 46.5,-1091.5"/>
<text text-anchor="start" x="53.5" y="-1102.9" font-family="Arial" font-size="14.00" fill="#000000">hash_componente_digital </text>
<text text-anchor="start" x="216.8912" y="-1102.9" font-family="Arial" font-size="14.00" fill="#666666">[varchar(255)]</text>
<polygon fill="none" stroke="#000000" stroke-width="3" points="44.5,-1090.5 44.5,-1278.5 426.5,-1278.5 426.5,-1090.5 44.5,-1090.5"/>
</g>
<!-- md_pen_tramite -->
<g id="node2" class="node">
<title>md_pen_tramite</title>
<polygon fill="#efefef" stroke="transparent" points="1026.5,-649.5 1026.5,-684.5 1319.5,-684.5 1319.5,-649.5 1026.5,-649.5"/>
<polygon fill="none" stroke="#000000" points="1026.5,-649.5 1026.5,-684.5 1319.5,-684.5 1319.5,-649.5 1026.5,-649.5"/>
<text text-anchor="start" x="1044.2036" y="-662.3" font-family="Arial Bold" font-size="18.00" fill="#000000">md_pen_tramite</text>
<text text-anchor="start" x="1174.2284" y="-662.3" font-family="Arial" font-size="14.00" fill="#000000">    </text>
<text text-anchor="start" x="1208.4332" y="-662.3" font-family="Arial" font-size="14.00" fill="#666666">[BASE TABLE]</text>
<polygon fill="none" stroke="#000000" points="1026.5,-619.5 1026.5,-649.5 1319.5,-649.5 1319.5,-619.5 1026.5,-619.5"/>
<text text-anchor="start" x="1033.5" y="-630.9" font-family="Arial" font-size="14.00" fill="#000000">numero_registro    </text>
<text text-anchor="start" x="1169.6052" y="-630.9" font-family="Arial" font-size="14.00" fill="#666666">[char(16)]</text>
<polygon fill="none" stroke="#000000" points="1026.5,-589.5 1026.5,-619.5 1319.5,-619.5 1319.5,-589.5 1026.5,-589.5"/>
<text text-anchor="start" x="1033.5" y="-600.9" font-family="Arial" font-size="14.00" fill="#000000">id_tramite    </text>
<text text-anchor="start" x="1129.1508" y="-600.9" font-family="Arial" font-size="14.00" fill="#666666">[bigint(20)]</text>
<polygon fill="none" stroke="#000000" points="1026.5,-559.5 1026.5,-589.5 1319.5,-589.5 1319.5,-559.5 1026.5,-559.5"/>
<text text-anchor="start" x="1033.5" y="-570.9" font-family="Arial" font-size="14.00" fill="#000000">dth_registro    </text>
<text text-anchor="start" x="1141.6094" y="-570.9" font-family="Arial" font-size="14.00" fill="#666666">[datetime]</text>
<polygon fill="none" stroke="#000000" points="1026.5,-529.5 1026.5,-559.5 1319.5,-559.5 1319.5,-529.5 1026.5,-529.5"/>
<text text-anchor="start" x="1033.5" y="-540.9" font-family="Arial" font-size="14.00" fill="#000000">id_andamento    </text>
<text text-anchor="start" x="1156.406" y="-540.9" font-family="Arial" font-size="14.00" fill="#666666">[int(11)]</text>
<polygon fill="none" stroke="#000000" points="1026.5,-499.5 1026.5,-529.5 1319.5,-529.5 1319.5,-499.5 1026.5,-499.5"/>
<text text-anchor="start" x="1033.5" y="-510.9" font-family="Arial" font-size="14.00" fill="#000000">id_usuario    </text>
<text text-anchor="start" x="1132.2742" y="-510.9" font-family="Arial" font-size="14.00" fill="#666666">[int(11)]</text>
<polygon fill="none" stroke="#000000" points="1026.5,-469.5 1026.5,-499.5 1319.5,-499.5 1319.5,-469.5 1026.5,-469.5"/>
<text text-anchor="start" x="1033.5" y="-480.9" font-family="Arial" font-size="14.00" fill="#000000">id_unidade    </text>
<text text-anchor="start" x="1136.1788" y="-480.9" font-family="Arial" font-size="14.00" fill="#666666">[int(11)]</text>
<polygon fill="none" stroke="#000000" points="1026.5,-439.5 1026.5,-469.5 1319.5,-469.5 1319.5,-439.5 1026.5,-439.5"/>
<text text-anchor="start" x="1033.5" y="-450.9" font-family="Arial" font-size="14.00" fill="#000000">id_repositorio_origem    </text>
<text text-anchor="start" x="1202.2728" y="-450.9" font-family="Arial" font-size="14.00" fill="#666666">[int(11)]</text>
<polygon fill="none" stroke="#000000" points="1026.5,-409.5 1026.5,-439.5 1319.5,-439.5 1319.5,-409.5 1026.5,-409.5"/>
<text text-anchor="start" x="1033.5" y="-420.9" font-family="Arial" font-size="14.00" fill="#000000">id_estrutura_origem    </text>
<text text-anchor="start" x="1192.1676" y="-420.9" font-family="Arial" font-size="14.00" fill="#666666">[int(11)]</text>
<polygon fill="none" stroke="#000000" points="1026.5,-379.5 1026.5,-409.5 1319.5,-409.5 1319.5,-379.5 1026.5,-379.5"/>
<text text-anchor="start" x="1033.5" y="-390.9" font-family="Arial" font-size="14.00" fill="#000000">id_repositorio_destino    </text>
<text text-anchor="start" x="1204.6248" y="-390.9" font-family="Arial" font-size="14.00" fill="#666666">[int(11)]</text>
<polygon fill="none" stroke="#000000" points="1026.5,-349.5 1026.5,-379.5 1319.5,-379.5 1319.5,-349.5 1026.5,-349.5"/>
<text text-anchor="start" x="1033.5" y="-360.9" font-family="Arial" font-size="14.00" fill="#000000">id_estrutura_destino    </text>
<text text-anchor="start" x="1194.5196" y="-360.9" font-family="Arial" font-size="14.00" fill="#666666">[int(11)]</text>
<polygon fill="none" stroke="#000000" points="1026.5,-319.5 1026.5,-349.5 1319.5,-349.5 1319.5,-319.5 1026.5,-319.5"/>
<text text-anchor="start" x="1033.5" y="-330.9" font-family="Arial" font-size="14.00" fill="#000000">sta_tipo_tramite    </text>
<text text-anchor="start" x="1167.2798" y="-330.9" font-family="Arial" font-size="14.00" fill="#666666">[char(1)]</text>
<polygon fill="none" stroke="#000000" points="1026.5,-289.5 1026.5,-319.5 1319.5,-319.5 1319.5,-289.5 1026.5,-289.5"/>
<text text-anchor="start" x="1033.3696" y="-300.9" font-family="Arial" font-size="14.00" fill="#000000">ticket_envio_componentes    </text>
<text text-anchor="start" x="1233.2938" y="-300.9" font-family="Arial" font-size="14.00" fill="#666666">[varchar(10)]</text>
</g>
<!-- md_pen_recibo_tramite_hash&#45;&gt;md_pen_tramite -->
<g id="edge1" class="edge">
<title>md_pen_recibo_tramite_hash:numero_registro&#45;&gt;md_pen_tramite:numero_registro</title>
<path fill="none" stroke="#000000" d="M435.4643,-1195.044C514.7055,-1170.1453 418.1348,-833.3799 480.5,-764 563.8629,-671.2607 901.8006,-634.5 1026.5,-634.5"/>
<polygon fill="#000000" stroke="#000000" points="435.3949,-1195.0541 424.8493,-1192.0473 430.4475,-1195.777 425.5,-1196.5 425.5,-1196.5 425.5,-1196.5 430.4475,-1195.777 426.1507,-1200.9527 435.3949,-1195.0541 435.3949,-1195.0541"/>
</g>
<!-- md_pen_processo_eletronico -->
<g id="node3" class="node">
<title>md_pen_processo_eletronico</title>
<polygon fill="#efefef" stroke="transparent" points="984.5,-132.5 984.5,-167.5 1361.5,-167.5 1361.5,-132.5 984.5,-132.5"/>
<polygon fill="none" stroke="#000000" points="984.5,-132.5 984.5,-167.5 1361.5,-167.5 1361.5,-132.5 984.5,-132.5"/>
<text text-anchor="start" x="991.1828" y="-145.3" font-family="Arial Bold" font-size="18.00" fill="#000000">md_pen_processo_eletronico</text>
<text text-anchor="start" x="1227.2492" y="-145.3" font-family="Arial" font-size="14.00" fill="#000000">    </text>
<text text-anchor="start" x="1261.454" y="-145.3" font-family="Arial" font-size="14.00" fill="#666666">[BASE TABLE]</text>
<polygon fill="none" stroke="#000000" points="984.5,-102.5 984.5,-132.5 1361.5,-132.5 1361.5,-102.5 984.5,-102.5"/>
<text text-anchor="start" x="991.5" y="-113.9" font-family="Arial" font-size="14.00" fill="#000000">numero_registro    </text>
<text text-anchor="start" x="1127.6052" y="-113.9" font-family="Arial" font-size="14.00" fill="#666666">[char(16)]</text>
<polygon fill="none" stroke="#000000" points="984.5,-72.5 984.5,-102.5 1361.5,-102.5 1361.5,-72.5 984.5,-72.5"/>
<text text-anchor="start" x="991.5" y="-83.9" font-family="Arial" font-size="14.00" fill="#000000">id_procedimento    </text>
<text text-anchor="start" x="1129.1732" y="-83.9" font-family="Arial" font-size="14.00" fill="#666666">[bigint(20)]</text>
<polygon fill="none" stroke="#000000" points="984.5,-42.5 984.5,-72.5 1361.5,-72.5 1361.5,-42.5 984.5,-42.5"/>
<text text-anchor="start" x="991.5" y="-53.9" font-family="Arial" font-size="14.00" fill="#000000">sta_tipo_protocolo    </text>
<text text-anchor="start" x="1140.0764" y="-53.9" font-family="Arial" font-size="14.00" fill="#666666">[varchar(1)]</text>
</g>
<!-- md_pen_tramite&#45;&gt;md_pen_processo_eletronico -->
<g id="edge2" class="edge">
<title>md_pen_tramite:numero_registro&#45;&gt;md_pen_processo_eletronico:numero_registro</title>
<path fill="none" stroke="#000000" d="M1016.4907,-634.1704C794.7933,-619.4645 757.3422,-117.5 984.5,-117.5"/>
<polygon fill="#000000" stroke="#000000" points="1016.5054,-634.1708 1026.3519,-638.9976 1021.5027,-634.3354 1026.5,-634.5 1026.5,-634.5 1026.5,-634.5 1021.5027,-634.3354 1026.6481,-630.0024 1016.5054,-634.1708 1016.5054,-634.1708"/>
</g>
<!-- md_pen_componente_digital -->
<g id="node4" class="node">
<title>md_pen_componente_digital</title>
<polygon fill="#efefef" stroke="transparent" points="532.5,-1526.5 532.5,-1561.5 904.5,-1561.5 904.5,-1526.5 532.5,-1526.5"/>
<polygon fill="none" stroke="#000000" points="532.5,-1526.5 532.5,-1561.5 904.5,-1561.5 904.5,-1526.5 532.5,-1526.5"/>
<text text-anchor="start" x="539.1776" y="-1539.3" font-family="Arial Bold" font-size="18.00" fill="#000000">md_pen_componente_digital</text>
<text text-anchor="start" x="770.2544" y="-1539.3" font-family="Arial" font-size="14.00" fill="#000000">    </text>
<text text-anchor="start" x="804.4592" y="-1539.3" font-family="Arial" font-size="14.00" fill="#666666">[BASE TABLE]</text>
<polygon fill="none" stroke="#000000" points="532.5,-1496.5 532.5,-1526.5 904.5,-1526.5 904.5,-1496.5 532.5,-1496.5"/>
<text text-anchor="start" x="539.5" y="-1507.9" font-family="Arial" font-size="14.00" fill="#000000">numero_registro    </text>
<text text-anchor="start" x="675.6052" y="-1507.9" font-family="Arial" font-size="14.00" fill="#666666">[char(16)]</text>
<polygon fill="none" stroke="#000000" points="532.5,-1466.5 532.5,-1496.5 904.5,-1496.5 904.5,-1466.5 532.5,-1466.5"/>
<text text-anchor="start" x="539.5" y="-1477.9" font-family="Arial" font-size="14.00" fill="#000000">id_procedimento    </text>
<text text-anchor="start" x="677.1732" y="-1477.9" font-family="Arial" font-size="14.00" fill="#666666">[bigint(20)]</text>
<polygon fill="none" stroke="#000000" points="532.5,-1436.5 532.5,-1466.5 904.5,-1466.5 904.5,-1436.5 532.5,-1436.5"/>
<text text-anchor="start" x="539.5" y="-1447.9" font-family="Arial" font-size="14.00" fill="#000000">id_documento    </text>
<text text-anchor="start" x="661.6234" y="-1447.9" font-family="Arial" font-size="14.00" fill="#666666">[bigint(20)]</text>
<polygon fill="none" stroke="#000000" points="532.5,-1406.5 532.5,-1436.5 904.5,-1436.5 904.5,-1406.5 532.5,-1406.5"/>
<text text-anchor="start" x="539.5" y="-1417.9" font-family="Arial" font-size="14.00" fill="#000000">id_tramite    </text>
<text text-anchor="start" x="635.1508" y="-1417.9" font-family="Arial" font-size="14.00" fill="#666666">[bigint(20)]</text>
<polygon fill="none" stroke="#000000" points="532.5,-1376.5 532.5,-1406.5 904.5,-1406.5 904.5,-1376.5 532.5,-1376.5"/>
<text text-anchor="start" x="539.5" y="-1387.9" font-family="Arial" font-size="14.00" fill="#000000">id_anexo    </text>
<text text-anchor="start" x="630.507" y="-1387.9" font-family="Arial" font-size="14.00" fill="#666666">[int(11)]</text>
<polygon fill="none" stroke="#000000" points="532.5,-1346.5 532.5,-1376.5 904.5,-1376.5 904.5,-1346.5 532.5,-1346.5"/>
<text text-anchor="start" x="539.5" y="-1357.9" font-family="Arial" font-size="14.00" fill="#000000">protocolo    </text>
<text text-anchor="start" x="631.2756" y="-1357.9" font-family="Arial" font-size="14.00" fill="#666666">[varchar(50)]</text>
<polygon fill="none" stroke="#000000" points="532.5,-1316.5 532.5,-1346.5 904.5,-1346.5 904.5,-1316.5 532.5,-1316.5"/>
<text text-anchor="start" x="539.5" y="-1327.9" font-family="Arial" font-size="14.00" fill="#000000">nome    </text>
<text text-anchor="start" x="608.7132" y="-1327.9" font-family="Arial" font-size="14.00" fill="#666666">[varchar(255)]</text>
<polygon fill="none" stroke="#000000" points="532.5,-1286.5 532.5,-1316.5 904.5,-1316.5 904.5,-1286.5 532.5,-1286.5"/>
<text text-anchor="start" x="539.5" y="-1297.9" font-family="Arial" font-size="14.00" fill="#000000">hash_conteudo    </text>
<text text-anchor="start" x="669.4214" y="-1297.9" font-family="Arial" font-size="14.00" fill="#666666">[varchar(255)]</text>
<polygon fill="none" stroke="#000000" points="532.5,-1256.5 532.5,-1286.5 904.5,-1286.5 904.5,-1256.5 532.5,-1256.5"/>
<text text-anchor="start" x="539.5" y="-1267.9" font-family="Arial" font-size="14.00" fill="#000000">algoritmo_hash    </text>
<text text-anchor="start" x="669.3906" y="-1267.9" font-family="Arial" font-size="14.00" fill="#666666">[varchar(20)]</text>
<polygon fill="none" stroke="#000000" points="532.5,-1226.5 532.5,-1256.5 904.5,-1256.5 904.5,-1226.5 532.5,-1226.5"/>
<text text-anchor="start" x="539.5" y="-1237.9" font-family="Arial" font-size="14.00" fill="#000000">tipo_conteudo    </text>
<text text-anchor="start" x="661.636" y="-1237.9" font-family="Arial" font-size="14.00" fill="#666666">[char(3)]</text>
<polygon fill="none" stroke="#000000" points="532.5,-1196.5 532.5,-1226.5 904.5,-1226.5 904.5,-1196.5 532.5,-1196.5"/>
<text text-anchor="start" x="539.5" y="-1207.9" font-family="Arial" font-size="14.00" fill="#000000">mime_type    </text>
<text text-anchor="start" x="642.1536" y="-1207.9" font-family="Arial" font-size="14.00" fill="#666666">[varchar(100)]</text>
<polygon fill="none" stroke="#000000" points="532.5,-1166.5 532.5,-1196.5 904.5,-1196.5 904.5,-1166.5 532.5,-1166.5"/>
<text text-anchor="start" x="539.5" y="-1177.9" font-family="Arial" font-size="14.00" fill="#000000">dados_complementares    </text>
<text text-anchor="start" x="723.075" y="-1177.9" font-family="Arial" font-size="14.00" fill="#666666">[varchar(1000)]</text>
<polygon fill="none" stroke="#000000" points="532.5,-1136.5 532.5,-1166.5 904.5,-1166.5 904.5,-1136.5 532.5,-1136.5"/>
<text text-anchor="start" x="539.5" y="-1147.9" font-family="Arial" font-size="14.00" fill="#000000">tamanho    </text>
<text text-anchor="start" x="628.169" y="-1147.9" font-family="Arial" font-size="14.00" fill="#666666">[bigint(20)]</text>
<polygon fill="none" stroke="#000000" points="532.5,-1106.5 532.5,-1136.5 904.5,-1136.5 904.5,-1106.5 532.5,-1106.5"/>
<text text-anchor="start" x="539.5" y="-1117.9" font-family="Arial" font-size="14.00" fill="#000000">ordem    </text>
<text text-anchor="start" x="613.3738" y="-1117.9" font-family="Arial" font-size="14.00" fill="#666666">[int(11)]</text>
<polygon fill="none" stroke="#000000" points="532.5,-1076.5 532.5,-1106.5 904.5,-1106.5 904.5,-1076.5 532.5,-1076.5"/>
<text text-anchor="start" x="539.5" y="-1087.9" font-family="Arial" font-size="14.00" fill="#000000">sin_enviar    </text>
<text text-anchor="start" x="637.4916" y="-1087.9" font-family="Arial" font-size="14.00" fill="#666666">[char(1)]</text>
<polygon fill="none" stroke="#000000" points="532.5,-1046.5 532.5,-1076.5 904.5,-1076.5 904.5,-1046.5 532.5,-1046.5"/>
<text text-anchor="start" x="539.5" y="-1057.9" font-family="Arial" font-size="14.00" fill="#000000">codigo_especie    </text>
<text text-anchor="start" x="670.9614" y="-1057.9" font-family="Arial" font-size="14.00" fill="#666666">[int(11)]</text>
<polygon fill="none" stroke="#000000" points="532.5,-1016.5 532.5,-1046.5 904.5,-1046.5 904.5,-1016.5 532.5,-1016.5"/>
<text text-anchor="start" x="539.5" y="-1027.9" font-family="Arial" font-size="14.00" fill="#000000">nome_especie_produtor    </text>
<text text-anchor="start" x="724.6402" y="-1027.9" font-family="Arial" font-size="14.00" fill="#666666">[varchar(255)]</text>
<polygon fill="none" stroke="#000000" points="532.5,-986.5 532.5,-1016.5 904.5,-1016.5 904.5,-986.5 532.5,-986.5"/>
<text text-anchor="start" x="539.5" y="-997.9" font-family="Arial" font-size="14.00" fill="#000000">ordem_documento    </text>
<text text-anchor="start" x="690.4032" y="-997.9" font-family="Arial" font-size="14.00" fill="#666666">[int(11)]</text>
<polygon fill="none" stroke="#000000" points="532.5,-956.5 532.5,-986.5 904.5,-986.5 904.5,-956.5 532.5,-956.5"/>
<text text-anchor="start" x="539.5" y="-967.9" font-family="Arial" font-size="14.00" fill="#000000">id_procedimento_anexado    </text>
<text text-anchor="start" x="738.6514" y="-967.9" font-family="Arial" font-size="14.00" fill="#666666">[bigint(20)]</text>
<polygon fill="none" stroke="#000000" points="532.5,-926.5 532.5,-956.5 904.5,-956.5 904.5,-926.5 532.5,-926.5"/>
<text text-anchor="start" x="539.5" y="-937.9" font-family="Arial" font-size="14.00" fill="#000000">protocolo_procedimento_anexado    </text>
<text text-anchor="start" x="785.333" y="-937.9" font-family="Arial" font-size="14.00" fill="#666666">[varchar(50)]</text>
<polygon fill="none" stroke="#000000" points="532.5,-896.5 532.5,-926.5 904.5,-926.5 904.5,-896.5 532.5,-896.5"/>
<text text-anchor="start" x="539.5" y="-907.9" font-family="Arial" font-size="14.00" fill="#000000">ordem_documento_anexado    </text>
<text text-anchor="start" x="751.8814" y="-907.9" font-family="Arial" font-size="14.00" fill="#666666">[int(11)]</text>
<polygon fill="none" stroke="#000000" points="532.5,-866.5 532.5,-896.5 904.5,-896.5 904.5,-866.5 532.5,-866.5"/>
<text text-anchor="start" x="539.5" y="-877.9" font-family="Arial" font-size="14.00" fill="#000000">ordem_documento_referenciado    </text>
<text text-anchor="start" x="775.9824" y="-877.9" font-family="Arial" font-size="14.00" fill="#666666">[int(11)]</text>
<polygon fill="none" stroke="#000000" points="532.5,-836.5 532.5,-866.5 904.5,-866.5 904.5,-836.5 532.5,-836.5"/>
<text text-anchor="start" x="539.5" y="-847.9" font-family="Arial" font-size="14.00" fill="#000000">id_anexo_imutavel    </text>
<text text-anchor="start" x="690.4018" y="-847.9" font-family="Arial" font-size="14.00" fill="#666666">[bigint(20)]</text>
<polygon fill="none" stroke="#000000" points="532.5,-806.5 532.5,-836.5 904.5,-836.5 904.5,-806.5 532.5,-806.5"/>
<text text-anchor="start" x="539.5" y="-817.9" font-family="Arial" font-size="14.00" fill="#000000">tarja_legada    </text>
<text text-anchor="start" x="650.73" y="-817.9" font-family="Arial" font-size="14.00" fill="#666666">[char(1)]</text>
</g>
<!-- md_pen_componente_digital&#45;&gt;md_pen_tramite -->
<g id="edge3" class="edge">
<title>md_pen_componente_digital:numero_registro&#45;&gt;md_pen_tramite:numero_registro</title>
<path fill="none" stroke="#000000" d="M914.0642,-1508.2176C983.4191,-1457.729 934.2434,-840.6766 956.5,-764 974.7381,-701.1676 961.0741,-634.5 1026.5,-634.5"/>
<polygon fill="#000000" stroke="#000000" points="913.9585,-1508.2538 903.0392,-1507.2437 909.2292,-1509.8769 904.5,-1511.5 904.5,-1511.5 904.5,-1511.5 909.2292,-1509.8769 905.9608,-1515.7563 913.9585,-1508.2538 913.9585,-1508.2538"/>
</g>
<!-- md_pen_recibo_tramite -->
<g id="node5" class="node">
<title>md_pen_recibo_tramite</title>
<polygon fill="#efefef" stroke="transparent" points="1008.5,-1241.5 1008.5,-1276.5 1338.5,-1276.5 1338.5,-1241.5 1008.5,-1241.5"/>
<polygon fill="none" stroke="#000000" points="1008.5,-1241.5 1008.5,-1276.5 1338.5,-1276.5 1338.5,-1241.5 1008.5,-1241.5"/>
<text text-anchor="start" x="1015.198" y="-1254.3" font-family="Arial Bold" font-size="18.00" fill="#000000">md_pen_recibo_tramite</text>
<text text-anchor="start" x="1204.234" y="-1254.3" font-family="Arial" font-size="14.00" fill="#000000">    </text>
<text text-anchor="start" x="1238.4388" y="-1254.3" font-family="Arial" font-size="14.00" fill="#666666">[BASE TABLE]</text>
<polygon fill="none" stroke="#000000" points="1008.5,-1211.5 1008.5,-1241.5 1338.5,-1241.5 1338.5,-1211.5 1008.5,-1211.5"/>
<text text-anchor="start" x="1015.5" y="-1222.9" font-family="Arial" font-size="14.00" fill="#000000">numero_registro    </text>
<text text-anchor="start" x="1151.6052" y="-1222.9" font-family="Arial" font-size="14.00" fill="#666666">[char(16)]</text>
<polygon fill="none" stroke="#000000" points="1008.5,-1181.5 1008.5,-1211.5 1338.5,-1211.5 1338.5,-1181.5 1008.5,-1181.5"/>
<text text-anchor="start" x="1015.5" y="-1192.9" font-family="Arial" font-size="14.00" fill="#000000">id_tramite    </text>
<text text-anchor="start" x="1111.1508" y="-1192.9" font-family="Arial" font-size="14.00" fill="#666666">[bigint(20)]</text>
<polygon fill="none" stroke="#000000" points="1008.5,-1151.5 1008.5,-1181.5 1338.5,-1181.5 1338.5,-1151.5 1008.5,-1151.5"/>
<text text-anchor="start" x="1015.5" y="-1162.9" font-family="Arial" font-size="14.00" fill="#000000">dth_recebimento    </text>
<text text-anchor="start" x="1153.9572" y="-1162.9" font-family="Arial" font-size="14.00" fill="#666666">[datetime]</text>
<polygon fill="none" stroke="#000000" points="1008.5,-1121.5 1008.5,-1151.5 1338.5,-1151.5 1338.5,-1121.5 1008.5,-1121.5"/>
<text text-anchor="start" x="1015.5" y="-1132.9" font-family="Arial" font-size="14.00" fill="#000000">hash_assinatura    </text>
<text text-anchor="start" x="1152.406" y="-1132.9" font-family="Arial" font-size="14.00" fill="#666666">[varchar(1000)]</text>
<polygon fill="none" stroke="#000000" points="1008.5,-1091.5 1008.5,-1121.5 1338.5,-1121.5 1338.5,-1091.5 1008.5,-1091.5"/>
<text text-anchor="start" x="1015.5" y="-1102.9" font-family="Arial" font-size="14.00" fill="#000000">cadeia_certificado    </text>
<text text-anchor="start" x="1162.5098" y="-1102.9" font-family="Arial" font-size="14.00" fill="#666666">[longtext]</text>
</g>
<!-- md_pen_recibo_tramite&#45;&gt;md_pen_tramite -->
<g id="edge4" class="edge">
<title>md_pen_recibo_tramite:numero_registro&#45;&gt;md_pen_tramite:numero_registro</title>
<path fill="none" stroke="#000000" d="M998.2359,-1225.8259C934.1876,-1216.7831 980.2761,-1118.6929 1008.5,-1049 1094.9503,-835.5297 1549.8111,-634.5 1319.5,-634.5"/>
<polygon fill="#000000" stroke="#000000" points="998.5215,-1225.8446 1008.2051,-1230.9903 1003.5107,-1226.1723 1008.5,-1226.5 1008.5,-1226.5 1008.5,-1226.5 1003.5107,-1226.1723 1008.7949,-1222.0097 998.5215,-1225.8446 998.5215,-1225.8446"/>
</g>
<!-- md_pen_recibo_tramite_enviado -->
<g id="node6" class="node">
<title>md_pen_recibo_tramite_enviado</title>
<polygon fill="#efefef" stroke="transparent" points="1443.5,-1241.5 1443.5,-1276.5 1846.5,-1276.5 1846.5,-1241.5 1443.5,-1241.5"/>
<polygon fill="none" stroke="#000000" points="1443.5,-1241.5 1443.5,-1276.5 1846.5,-1276.5 1846.5,-1241.5 1443.5,-1241.5"/>
<text text-anchor="start" x="1450.1823" y="-1254.3" font-family="Arial Bold" font-size="18.00" fill="#000000">md_pen_recibo_tramite_enviado</text>
<text text-anchor="start" x="1712.2497" y="-1254.3" font-family="Arial" font-size="14.00" fill="#000000">    </text>
<text text-anchor="start" x="1746.4545" y="-1254.3" font-family="Arial" font-size="14.00" fill="#666666">[BASE TABLE]</text>
<polygon fill="none" stroke="#000000" points="1443.5,-1211.5 1443.5,-1241.5 1846.5,-1241.5 1846.5,-1211.5 1443.5,-1211.5"/>
<text text-anchor="start" x="1450.5" y="-1222.9" font-family="Arial" font-size="14.00" fill="#000000">numero_registro    </text>
<text text-anchor="start" x="1586.6052" y="-1222.9" font-family="Arial" font-size="14.00" fill="#666666">[char(16)]</text>
<polygon fill="none" stroke="#000000" points="1443.5,-1181.5 1443.5,-1211.5 1846.5,-1211.5 1846.5,-1181.5 1443.5,-1181.5"/>
<text text-anchor="start" x="1450.5" y="-1192.9" font-family="Arial" font-size="14.00" fill="#000000">id_tramite    </text>
<text text-anchor="start" x="1546.1508" y="-1192.9" font-family="Arial" font-size="14.00" fill="#666666">[bigint(20)]</text>
<polygon fill="none" stroke="#000000" points="1443.5,-1151.5 1443.5,-1181.5 1846.5,-1181.5 1846.5,-1151.5 1443.5,-1151.5"/>
<text text-anchor="start" x="1450.5" y="-1162.9" font-family="Arial" font-size="14.00" fill="#000000">dth_recebimento    </text>
<text text-anchor="start" x="1588.9572" y="-1162.9" font-family="Arial" font-size="14.00" fill="#666666">[datetime]</text>
<polygon fill="none" stroke="#000000" points="1443.5,-1121.5 1443.5,-1151.5 1846.5,-1151.5 1846.5,-1121.5 1443.5,-1121.5"/>
<text text-anchor="start" x="1450.5" y="-1132.9" font-family="Arial" font-size="14.00" fill="#000000">hash_assinatura    </text>
<text text-anchor="start" x="1587.406" y="-1132.9" font-family="Arial" font-size="14.00" fill="#666666">[varchar(1000)]</text>
<polygon fill="none" stroke="#000000" points="1443.5,-1091.5 1443.5,-1121.5 1846.5,-1121.5 1846.5,-1091.5 1443.5,-1091.5"/>
<text text-anchor="start" x="1450.5" y="-1102.9" font-family="Arial" font-size="14.00" fill="#000000">cadeia_certificado    </text>
<text text-anchor="start" x="1597.5098" y="-1102.9" font-family="Arial" font-size="14.00" fill="#666666">[longtext]</text>
</g>
<!-- md_pen_recibo_tramite_enviado&#45;&gt;md_pen_tramite -->
<g id="edge5" class="edge">
<title>md_pen_recibo_tramite_enviado:numero_registro&#45;&gt;md_pen_tramite:numero_registro</title>
<path fill="none" stroke="#000000" d="M1434.5529,-1221.8475C1393.4569,-1176.2708 1405.1915,-810.2133 1390.5,-764 1370.6139,-701.4465 1385.1384,-634.5 1319.5,-634.5"/>
<polygon fill="#000000" stroke="#000000" points="1434.6278,-1221.8864 1441.4239,-1230.4925 1439.0639,-1224.1932 1443.5,-1226.5 1443.5,-1226.5 1443.5,-1226.5 1439.0639,-1224.1932 1445.5761,-1222.5075 1434.6278,-1221.8864 1434.6278,-1221.8864"/>
</g>
<!-- md_pen_recibo_tramite_recebido -->
<g id="node7" class="node">
<title>md_pen_recibo_tramite_recebido</title>
<polygon fill="#efefef" stroke="transparent" points="1950.5,-1241.5 1950.5,-1276.5 2359.5,-1276.5 2359.5,-1241.5 1950.5,-1241.5"/>
<polygon fill="none" stroke="#000000" points="1950.5,-1241.5 1950.5,-1276.5 2359.5,-1276.5 2359.5,-1241.5 1950.5,-1241.5"/>
<text text-anchor="start" x="1957.1862" y="-1254.3" font-family="Arial Bold" font-size="18.00" fill="#000000">md_pen_recibo_tramite_recebido</text>
<text text-anchor="start" x="2225.2458" y="-1254.3" font-family="Arial" font-size="14.00" fill="#000000">    </text>
<text text-anchor="start" x="2259.4506" y="-1254.3" font-family="Arial" font-size="14.00" fill="#666666">[BASE TABLE]</text>
<polygon fill="none" stroke="#000000" points="1950.5,-1211.5 1950.5,-1241.5 2359.5,-1241.5 2359.5,-1211.5 1950.5,-1211.5"/>
<text text-anchor="start" x="1957.5" y="-1222.9" font-family="Arial" font-size="14.00" fill="#000000">numero_registro    </text>
<text text-anchor="start" x="2093.6052" y="-1222.9" font-family="Arial" font-size="14.00" fill="#666666">[char(16)]</text>
<polygon fill="none" stroke="#000000" points="1950.5,-1181.5 1950.5,-1211.5 2359.5,-1211.5 2359.5,-1181.5 1950.5,-1181.5"/>
<text text-anchor="start" x="1957.5" y="-1192.9" font-family="Arial" font-size="14.00" fill="#000000">id_tramite    </text>
<text text-anchor="start" x="2053.1508" y="-1192.9" font-family="Arial" font-size="14.00" fill="#666666">[bigint(20)]</text>
<polygon fill="none" stroke="#000000" points="1950.5,-1151.5 1950.5,-1181.5 2359.5,-1181.5 2359.5,-1151.5 1950.5,-1151.5"/>
<text text-anchor="start" x="1957.5" y="-1162.9" font-family="Arial" font-size="14.00" fill="#000000">dth_recebimento    </text>
<text text-anchor="start" x="2095.9572" y="-1162.9" font-family="Arial" font-size="14.00" fill="#666666">[datetime]</text>
<polygon fill="none" stroke="#000000" points="1950.5,-1121.5 1950.5,-1151.5 2359.5,-1151.5 2359.5,-1121.5 1950.5,-1121.5"/>
<text text-anchor="start" x="1957.5" y="-1132.9" font-family="Arial" font-size="14.00" fill="#000000">hash_assinatura    </text>
<text text-anchor="start" x="2094.406" y="-1132.9" font-family="Arial" font-size="14.00" fill="#666666">[varchar(1000)]</text>
<polygon fill="none" stroke="#000000" points="1950.5,-1091.5 1950.5,-1121.5 2359.5,-1121.5 2359.5,-1091.5 1950.5,-1091.5"/>
<text text-anchor="start" x="1957.5" y="-1102.9" font-family="Arial" font-size="14.00" fill="#000000">cadeia_certificado    </text>
<text text-anchor="start" x="2104.5098" y="-1102.9" font-family="Arial" font-size="14.00" fill="#666666">[longtext]</text>
</g>
<!-- md_pen_recibo_tramite_recebido&#45;&gt;md_pen_tramite -->
<g id="edge6" class="edge">
<title>md_pen_recibo_tramite_recebido:numero_registro&#45;&gt;md_pen_tramite:numero_registro</title>
<path fill="none" stroke="#000000" d="M1940.4042,-1225.1007C1855.3131,-1199.7742 1965.1475,-838.2699 1898.5,-764 1810.4427,-665.8716 1451.3456,-634.5 1319.5,-634.5"/>
<polygon fill="#000000" stroke="#000000" points="1940.5947,-1225.127 1949.8822,-1230.9574 1945.5473,-1225.8135 1950.5,-1226.5 1950.5,-1226.5 1950.5,-1226.5 1945.5473,-1225.8135 1951.1178,-1222.0426 1940.5947,-1225.127 1940.5947,-1225.127"/>
</g>
</g>
</svg>
