<?xml version="1.0" encoding="UTF-8" standalone="no"?>
<!DOCTYPE svg PUBLIC "-//W3C//DTD SVG 1.1//EN"
 "http://www.w3.org/Graphics/SVG/1.1/DTD/svg11.dtd">
<!-- Generated by graphviz version 2.40.1 (20161225.0304)
 -->
<!-- Title: md_pen_hipotese_legal Pages: 1 -->
<svg width="456pt" height="562pt"
 viewBox="0.00 0.00 456.00 562.00" xmlns="http://www.w3.org/2000/svg" xmlns:xlink="http://www.w3.org/1999/xlink">
<g id="graph0" class="graph" transform="scale(1 1) rotate(0) translate(4 558)">
<title>md_pen_hipotese_legal</title>
<polygon fill="#ffffff" stroke="transparent" points="-4,4 -4,-558 452,-558 452,4 -4,4"/>
<!-- md_pen_hipotese_legal -->
<g id="node1" class="node">
<title>md_pen_hipotese_legal</title>
<polygon fill="#efefef" stroke="transparent" points="58,-165.5 58,-200.5 390,-200.5 390,-165.5 58,-165.5"/>
<polygon fill="none" stroke="#000000" points="58,-165.5 58,-200.5 390,-200.5 390,-165.5 58,-165.5"/>
<text text-anchor="start" x="64.681" y="-178.3" font-family="Arial Bold" font-size="18.00" fill="#000000">md_pen_hipotese_legal</text>
<text text-anchor="start" x="255.751" y="-178.3" font-family="Arial" font-size="14.00" fill="#000000">    </text>
<text text-anchor="start" x="289.9558" y="-178.3" font-family="Arial" font-size="14.00" fill="#666666">[BASE TABLE]</text>
<polygon fill="none" stroke="#000000" points="58,-135.5 58,-165.5 390,-165.5 390,-135.5 58,-135.5"/>
<text text-anchor="start" x="65" y="-146.9" font-family="Arial" font-size="14.00" fill="#000000">id_hipotese_legal </text>
<text text-anchor="start" x="177.8162" y="-146.9" font-family="Arial" font-size="14.00" fill="#666666">[int(11)]</text>
<polygon fill="none" stroke="#000000" points="58,-105.5 58,-135.5 390,-135.5 390,-105.5 58,-105.5"/>
<text text-anchor="start" x="65" y="-116.9" font-family="Arial" font-size="14.00" fill="#000000">nome </text>
<text text-anchor="start" x="103.899" y="-116.9" font-family="Arial" font-size="14.00" fill="#666666">[varchar(255)]</text>
<polygon fill="none" stroke="#000000" points="58,-75.5 58,-105.5 390,-105.5 390,-75.5 58,-75.5"/>
<text text-anchor="start" x="65" y="-86.9" font-family="Arial" font-size="14.00" fill="#000000">sin_ativo </text>
<text text-anchor="start" x="124.1248" y="-86.9" font-family="Arial" font-size="14.00" fill="#666666">[char(1)]</text>
<polygon fill="none" stroke="#000000" points="58,-45.5 58,-75.5 390,-75.5 390,-45.5 58,-45.5"/>
<text text-anchor="start" x="65" y="-56.9" font-family="Arial" font-size="14.00" fill="#000000">identificacao </text>
<text text-anchor="start" x="146.6872" y="-56.9" font-family="Arial" font-size="14.00" fill="#666666">[int(11)]</text>
<polygon fill="none" stroke="#000000" stroke-width="3" points="56.5,-44.5 56.5,-202.5 391.5,-202.5 391.5,-44.5 56.5,-44.5"/>
</g>
<!-- md_pen_rel_hipotese_legal -->
<g id="node2" class="node">
<title>md_pen_rel_hipotese_legal</title>
<polygon fill="#efefef" stroke="transparent" points="43,-475.5 43,-510.5 405,-510.5 405,-475.5 43,-475.5"/>
<polygon fill="none" stroke="#000000" points="43,-475.5 43,-510.5 405,-510.5 405,-475.5 43,-475.5"/>
<text text-anchor="start" x="49.6816" y="-488.3" font-family="Arial Bold" font-size="18.00" fill="#000000">md_pen_rel_hipotese_legal</text>
<text text-anchor="start" x="270.7504" y="-488.3" font-family="Arial" font-size="14.00" fill="#000000">    </text>
<text text-anchor="start" x="304.9552" y="-488.3" font-family="Arial" font-size="14.00" fill="#666666">[BASE TABLE]</text>
<polygon fill="none" stroke="#000000" points="43,-445.5 43,-475.5 405,-475.5 405,-445.5 43,-445.5"/>
<text text-anchor="start" x="50" y="-456.9" font-family="Arial" font-size="14.00" fill="#000000">id_mapeamento    </text>
<text text-anchor="start" x="184.5666" y="-456.9" font-family="Arial" font-size="14.00" fill="#666666">[bigint(20)]</text>
<polygon fill="none" stroke="#000000" points="43,-415.5 43,-445.5 405,-445.5 405,-415.5 43,-415.5"/>
<text text-anchor="start" x="50" y="-426.9" font-family="Arial" font-size="14.00" fill="#000000">id_hipotese_legal    </text>
<text text-anchor="start" x="193.1304" y="-426.9" font-family="Arial" font-size="14.00" fill="#666666">[int(11)]</text>
<polygon fill="none" stroke="#000000" points="43,-385.5 43,-415.5 405,-415.5 405,-385.5 43,-385.5"/>
<text text-anchor="start" x="50" y="-396.9" font-family="Arial" font-size="14.00" fill="#000000">id_hipotese_legal_pen    </text>
<text text-anchor="start" x="224.2608" y="-396.9" font-family="Arial" font-size="14.00" fill="#666666">[int(11)]</text>
<polygon fill="none" stroke="#000000" points="43,-355.5 43,-385.5 405,-385.5 405,-355.5 43,-355.5"/>
<text text-anchor="start" x="50" y="-366.9" font-family="Arial" font-size="14.00" fill="#000000">tipo    </text>
<text text-anchor="start" x="106.7672" y="-366.9" font-family="Arial" font-size="14.00" fill="#666666">[char(1)]</text>
<polygon fill="none" stroke="#000000" points="43,-325.5 43,-355.5 405,-355.5 405,-325.5 43,-325.5"/>
<text text-anchor="start" x="50" y="-336.9" font-family="Arial" font-size="14.00" fill="#000000">sin_ativo    </text>
<text text-anchor="start" x="139.439" y="-336.9" font-family="Arial" font-size="14.00" fill="#666666">[char(1)]</text>
</g>
<!-- md_pen_rel_hipotese_legal&#45;&gt;md_pen_hipotese_legal -->
<g id="edge1" class="edge">
<title>md_pen_rel_hipotese_legal:id_hipotese_legal_pen&#45;&gt;md_pen_hipotese_legal:id_hipotese_legal</title>
<path fill="none" stroke="#000000" d="M414.6147,-397.6924C458.6217,-370.2266 442.177,-150.5 390,-150.5"/>
<polygon fill="#000000" stroke="#000000" points="414.5991,-397.6969 403.7386,-396.1804 409.7996,-399.0984 405,-400.5 405,-400.5 405,-400.5 409.7996,-399.0984 406.2614,-404.8196 414.5991,-397.6969 414.5991,-397.6969"/>
</g>
</g>
</svg>
