<?xml version="1.0" encoding="UTF-8" standalone="no"?>
<!DOCTYPE svg PUBLIC "-//W3C//DTD SVG 1.1//EN"
 "http://www.w3.org/Graphics/SVG/1.1/DTD/svg11.dtd">
<!-- Generated by graphviz version 2.40.1 (20161225.0304)
 -->
<!-- Title: md_pen_unidade Pages: 1 -->
<svg width="380pt" height="255pt"
 viewBox="0.00 0.00 380.00 255.00" xmlns="http://www.w3.org/2000/svg" xmlns:xlink="http://www.w3.org/1999/xlink">
<g id="graph0" class="graph" transform="scale(1 1) rotate(0) translate(4 251)">
<title>md_pen_unidade</title>
<polygon fill="#ffffff" stroke="transparent" points="-4,4 -4,-251 376,-251 376,4 -4,4"/>
<!-- md_pen_unidade -->
<g id="node1" class="node">
<title>md_pen_unidade</title>
<polygon fill="#efefef" stroke="transparent" points="46,-165.5 46,-200.5 326,-200.5 326,-165.5 46,-165.5"/>
<polygon fill="none" stroke="#000000" points="46,-165.5 46,-200.5 326,-200.5 326,-165.5 46,-165.5"/>
<text text-anchor="start" x="52.6856" y="-178.3" font-family="Arial Bold" font-size="18.00" fill="#000000">md_pen_unidade</text>
<text text-anchor="start" x="191.7464" y="-178.3" font-family="Arial" font-size="14.00" fill="#000000">    </text>
<text text-anchor="start" x="225.9512" y="-178.3" font-family="Arial" font-size="14.00" fill="#666666">[BASE TABLE]</text>
<polygon fill="none" stroke="#000000" points="46,-135.5 46,-165.5 326,-165.5 326,-135.5 46,-135.5"/>
<text text-anchor="start" x="53" y="-146.9" font-family="Arial" font-size="14.00" fill="#000000">id_unidade </text>
<text text-anchor="start" x="125.3646" y="-146.9" font-family="Arial" font-size="14.00" fill="#666666">[int(11)]</text>
<polygon fill="none" stroke="#000000" points="46,-105.5 46,-135.5 326,-135.5 326,-105.5 46,-105.5"/>
<text text-anchor="start" x="53" y="-116.9" font-family="Arial" font-size="14.00" fill="#000000">id_unidade_rh </text>
<text text-anchor="start" x="145.5904" y="-116.9" font-family="Arial" font-size="14.00" fill="#666666">[bigint(20)]</text>
<polygon fill="none" stroke="#000000" points="46,-75.5 46,-105.5 326,-105.5 326,-75.5 46,-75.5"/>
<text text-anchor="start" x="53" y="-86.9" font-family="Arial" font-size="14.00" fill="#000000">sigla_unidade_rh </text>
<text text-anchor="start" x="163.4796" y="-86.9" font-family="Arial" font-size="14.00" fill="#666666">[varchar(20)]</text>
<polygon fill="none" stroke="#000000" points="46,-45.5 46,-75.5 326,-75.5 326,-45.5 46,-45.5"/>
<text text-anchor="start" x="53" y="-56.9" font-family="Arial" font-size="14.00" fill="#000000">nome_unidade_rh </text>
<text text-anchor="start" x="169.7096" y="-56.9" font-family="Arial" font-size="14.00" fill="#666666">[varchar(250)]</text>
<polygon fill="none" stroke="#000000" stroke-width="3" points="44.5,-44.5 44.5,-202.5 327.5,-202.5 327.5,-44.5 44.5,-44.5"/>
</g>
</g>
</svg>
