<?xml version="1.0" encoding="UTF-8" standalone="no"?>
<!DOCTYPE svg PUBLIC "-//W3C//DTD SVG 1.1//EN"
 "http://www.w3.org/Graphics/SVG/1.1/DTD/svg11.dtd">
<!-- Generated by graphviz version 2.40.1 (20161225.0304)
 -->
<!-- Title: md_pen_tramite_recibo_envio Pages: 1 -->
<svg width="483pt" height="255pt"
 viewBox="0.00 0.00 483.00 255.00" xmlns="http://www.w3.org/2000/svg" xmlns:xlink="http://www.w3.org/1999/xlink">
<g id="graph0" class="graph" transform="scale(1 1) rotate(0) translate(4 251)">
<title>md_pen_tramite_recibo_envio</title>
<polygon fill="#ffffff" stroke="transparent" points="-4,4 -4,-251 479,-251 479,4 -4,4"/>
<!-- md_pen_tramite_recibo_envio -->
<g id="node1" class="node">
<title>md_pen_tramite_recibo_envio</title>
<polygon fill="#efefef" stroke="transparent" points="46.5,-165.5 46.5,-200.5 429.5,-200.5 429.5,-165.5 46.5,-165.5"/>
<polygon fill="none" stroke="#000000" points="46.5,-165.5 46.5,-200.5 429.5,-200.5 429.5,-165.5 46.5,-165.5"/>
<text text-anchor="start" x="53.1885" y="-178.3" font-family="Arial Bold" font-size="18.00" fill="#000000">md_pen_tramite_recibo_envio</text>
<text text-anchor="start" x="295.2435" y="-178.3" font-family="Arial" font-size="14.00" fill="#000000">    </text>
<text text-anchor="start" x="329.4483" y="-178.3" font-family="Arial" font-size="14.00" fill="#666666">[BASE TABLE]</text>
<polygon fill="none" stroke="#000000" points="46.5,-135.5 46.5,-165.5 429.5,-165.5 429.5,-135.5 46.5,-135.5"/>
<text text-anchor="start" x="53.5" y="-146.9" font-family="Arial" font-size="14.00" fill="#000000">numero_registro </text>
<text text-anchor="start" x="159.291" y="-146.9" font-family="Arial" font-size="14.00" fill="#666666">[char(16)]</text>
<polygon fill="none" stroke="#000000" points="46.5,-105.5 46.5,-135.5 429.5,-135.5 429.5,-105.5 46.5,-105.5"/>
<text text-anchor="start" x="53.5" y="-116.9" font-family="Arial" font-size="14.00" fill="#000000">id_tramite </text>
<text text-anchor="start" x="118.8366" y="-116.9" font-family="Arial" font-size="14.00" fill="#666666">[bigint(20)]</text>
<polygon fill="none" stroke="#000000" points="46.5,-75.5 46.5,-105.5 429.5,-105.5 429.5,-75.5 46.5,-75.5"/>
<text text-anchor="start" x="53.5" y="-86.9" font-family="Arial" font-size="14.00" fill="#000000">dth_recebimento </text>
<text text-anchor="start" x="161.643" y="-86.9" font-family="Arial" font-size="14.00" fill="#666666">[datetime]</text>
<polygon fill="none" stroke="#000000" points="46.5,-45.5 46.5,-75.5 429.5,-75.5 429.5,-45.5 46.5,-45.5"/>
<text text-anchor="start" x="53.5" y="-56.9" font-family="Arial" font-size="14.00" fill="#000000">hash_assinatura </text>
<text text-anchor="start" x="160.0918" y="-56.9" font-family="Arial" font-size="14.00" fill="#666666">[varchar(1000)]</text>
<polygon fill="none" stroke="#000000" stroke-width="3" points="44.5,-44.5 44.5,-202.5 430.5,-202.5 430.5,-44.5 44.5,-44.5"/>
</g>
</g>
</svg>
