<?xml version="1.0" encoding="UTF-8" standalone="no"?>
<!DOCTYPE svg PUBLIC "-//W3C//DTD SVG 1.1//EN"
 "http://www.w3.org/Graphics/SVG/1.1/DTD/svg11.dtd">
<!-- Generated by graphviz version 2.40.1 (20161225.0304)
 -->
<!-- Title: md_pen_bloco Pages: 1 -->
<svg width="359pt" height="345pt"
 viewBox="0.00 0.00 359.00 345.00" xmlns="http://www.w3.org/2000/svg" xmlns:xlink="http://www.w3.org/1999/xlink">
<g id="graph0" class="graph" transform="scale(1 1) rotate(0) translate(4 341)">
<title>md_pen_bloco</title>
<polygon fill="#ffffff" stroke="transparent" points="-4,4 -4,-341 355,-341 355,4 -4,4"/>
<!-- md_pen_bloco -->
<g id="node1" class="node">
<title>md_pen_bloco</title>
<polygon fill="#efefef" stroke="transparent" points="46.5,-255.5 46.5,-290.5 305.5,-290.5 305.5,-255.5 46.5,-255.5"/>
<polygon fill="none" stroke="#000000" points="46.5,-255.5 46.5,-290.5 305.5,-290.5 305.5,-255.5 46.5,-255.5"/>
<text text-anchor="start" x="53.1949" y="-268.3" font-family="Arial Bold" font-size="18.00" fill="#000000">md_pen_bloco</text>
<text text-anchor="start" x="171.2371" y="-268.3" font-family="Arial" font-size="14.00" fill="#000000">    </text>
<text text-anchor="start" x="205.4419" y="-268.3" font-family="Arial" font-size="14.00" fill="#666666">[BASE TABLE]</text>
<polygon fill="none" stroke="#000000" points="46.5,-225.5 46.5,-255.5 305.5,-255.5 305.5,-225.5 46.5,-225.5"/>
<text text-anchor="start" x="53.5" y="-236.9" font-family="Arial" font-size="14.00" fill="#000000">id </text>
<text text-anchor="start" x="68.2798" y="-236.9" font-family="Arial" font-size="14.00" fill="#666666">[int(11)]</text>
<polygon fill="none" stroke="#000000" points="46.5,-195.5 46.5,-225.5 305.5,-225.5 305.5,-195.5 46.5,-195.5"/>
<text text-anchor="start" x="53.5" y="-206.9" font-family="Arial" font-size="14.00" fill="#000000">id_unidade </text>
<text text-anchor="start" x="125.8646" y="-206.9" font-family="Arial" font-size="14.00" fill="#666666">[int(11)]</text>
<polygon fill="none" stroke="#000000" points="46.5,-165.5 46.5,-195.5 305.5,-195.5 305.5,-165.5 46.5,-165.5"/>
<text text-anchor="start" x="53.5" y="-176.9" font-family="Arial" font-size="14.00" fill="#000000">id_usuario </text>
<text text-anchor="start" x="121.96" y="-176.9" font-family="Arial" font-size="14.00" fill="#666666">[int(11)]</text>
<polygon fill="none" stroke="#000000" points="46.5,-135.5 46.5,-165.5 305.5,-165.5 305.5,-135.5 46.5,-135.5"/>
<text text-anchor="start" x="53.5" y="-146.9" font-family="Arial" font-size="14.00" fill="#000000">descricao </text>
<text text-anchor="start" x="117.2882" y="-146.9" font-family="Arial" font-size="14.00" fill="#666666">[varchar(255)]</text>
<polygon fill="none" stroke="#000000" points="46.5,-105.5 46.5,-135.5 305.5,-135.5 305.5,-105.5 46.5,-105.5"/>
<text text-anchor="start" x="53.5" y="-116.9" font-family="Arial" font-size="14.00" fill="#000000">idx_bloco </text>
<text text-anchor="start" x="116.5168" y="-116.9" font-family="Arial" font-size="14.00" fill="#666666">[varchar(500)]</text>
<polygon fill="none" stroke="#000000" points="46.5,-75.5 46.5,-105.5 305.5,-105.5 305.5,-75.5 46.5,-75.5"/>
<text text-anchor="start" x="53.5" y="-86.9" font-family="Arial" font-size="14.00" fill="#000000">sta_tipo </text>
<text text-anchor="start" x="106.4088" y="-86.9" font-family="Arial" font-size="14.00" fill="#666666">[char(1)]</text>
<polygon fill="none" stroke="#000000" points="46.5,-45.5 46.5,-75.5 305.5,-75.5 305.5,-45.5 46.5,-45.5"/>
<text text-anchor="start" x="53.5" y="-56.9" font-family="Arial" font-size="14.00" fill="#000000">sta_estado </text>
<text text-anchor="start" x="125.8674" y="-56.9" font-family="Arial" font-size="14.00" fill="#666666">[char(1)]</text>
<polygon fill="none" stroke="#000000" stroke-width="3" points="44.5,-44.5 44.5,-292.5 306.5,-292.5 306.5,-44.5 44.5,-44.5"/>
</g>
</g>
</svg>
