<?xml version="1.0" encoding="UTF-8" standalone="no"?>
<!DOCTYPE svg PUBLIC "-//W3C//DTD SVG 1.1//EN"
 "http://www.w3.org/Graphics/SVG/1.1/DTD/svg11.dtd">
<!-- Generated by graphviz version 2.40.1 (20161225.0304)
 -->
<!-- Title: md_pen_protocolo Pages: 1 -->
<svg width="390pt" height="195pt"
 viewBox="0.00 0.00 390.00 195.00" xmlns="http://www.w3.org/2000/svg" xmlns:xlink="http://www.w3.org/1999/xlink">
<g id="graph0" class="graph" transform="scale(1 1) rotate(0) translate(4 191)">
<title>md_pen_protocolo</title>
<polygon fill="#ffffff" stroke="transparent" points="-4,4 -4,-191 386,-191 386,4 -4,4"/>
<!-- md_pen_protocolo -->
<g id="node1" class="node">
<title>md_pen_protocolo</title>
<polygon fill="#efefef" stroke="transparent" points="46,-105.5 46,-140.5 336,-140.5 336,-105.5 46,-105.5"/>
<polygon fill="none" stroke="#000000" points="46,-105.5 46,-140.5 336,-140.5 336,-105.5 46,-105.5"/>
<text text-anchor="start" x="52.6915" y="-118.3" font-family="Arial Bold" font-size="18.00" fill="#000000">md_pen_protocolo</text>
<text text-anchor="start" x="201.7405" y="-118.3" font-family="Arial" font-size="14.00" fill="#000000">    </text>
<text text-anchor="start" x="235.9453" y="-118.3" font-family="Arial" font-size="14.00" fill="#666666">[BASE TABLE]</text>
<polygon fill="none" stroke="#000000" points="46,-75.5 46,-105.5 336,-105.5 336,-75.5 46,-75.5"/>
<text text-anchor="start" x="53" y="-86.9" font-family="Arial" font-size="14.00" fill="#000000">id_protocolo </text>
<text text-anchor="start" x="133.1332" y="-86.9" font-family="Arial" font-size="14.00" fill="#666666">[bigint(20)]</text>
<polygon fill="none" stroke="#000000" points="46,-45.5 46,-75.5 336,-75.5 336,-45.5 46,-45.5"/>
<text text-anchor="start" x="53" y="-56.9" font-family="Arial" font-size="14.00" fill="#000000">sin_obteve_recusa </text>
<text text-anchor="start" x="174.3744" y="-56.9" font-family="Arial" font-size="14.00" fill="#666666">[char(1)]</text>
<polygon fill="none" stroke="#000000" stroke-width="3" points="44.5,-44.5 44.5,-142.5 337.5,-142.5 337.5,-44.5 44.5,-44.5"/>
</g>
</g>
</svg>
