<?xml version="1.0" encoding="UTF-8" standalone="no"?>
<!DOCTYPE svg PUBLIC "-//W3C//DTD SVG 1.1//EN"
 "http://www.w3.org/Graphics/SVG/1.1/DTD/svg11.dtd">
<!-- Generated by graphviz version 2.40.1 (20161225.0304)
 -->
<!-- Title: md_pen_rel_hipotese_legal Pages: 1 -->
<svg width="493pt" height="562pt"
 viewBox="0.00 0.00 492.88 562.00" xmlns="http://www.w3.org/2000/svg" xmlns:xlink="http://www.w3.org/1999/xlink">
<g id="graph0" class="graph" transform="scale(1 1) rotate(0) translate(4 558)">
<title>md_pen_rel_hipotese_legal</title>
<polygon fill="#ffffff" stroke="transparent" points="-4,4 -4,-558 488.8788,-558 488.8788,4 -4,4"/>
<!-- md_pen_rel_hipotese_legal -->
<g id="node1" class="node">
<title>md_pen_rel_hipotese_legal</title>
<polygon fill="#efefef" stroke="transparent" points="46,-472.5 46,-507.5 408,-507.5 408,-472.5 46,-472.5"/>
<polygon fill="none" stroke="#000000" points="46,-472.5 46,-507.5 408,-507.5 408,-472.5 46,-472.5"/>
<text text-anchor="start" x="52.6816" y="-485.3" font-family="Arial Bold" font-size="18.00" fill="#000000">md_pen_rel_hipotese_legal</text>
<text text-anchor="start" x="273.7504" y="-485.3" font-family="Arial" font-size="14.00" fill="#000000">    </text>
<text text-anchor="start" x="307.9552" y="-485.3" font-family="Arial" font-size="14.00" fill="#666666">[BASE TABLE]</text>
<polygon fill="none" stroke="#000000" points="46,-442.5 46,-472.5 408,-472.5 408,-442.5 46,-442.5"/>
<text text-anchor="start" x="53" y="-453.9" font-family="Arial" font-size="14.00" fill="#000000">id_mapeamento </text>
<text text-anchor="start" x="157.2524" y="-453.9" font-family="Arial" font-size="14.00" fill="#666666">[bigint(20)]</text>
<polygon fill="none" stroke="#000000" points="46,-412.5 46,-442.5 408,-442.5 408,-412.5 46,-412.5"/>
<text text-anchor="start" x="53" y="-423.9" font-family="Arial" font-size="14.00" fill="#000000">id_hipotese_legal </text>
<text text-anchor="start" x="165.8162" y="-423.9" font-family="Arial" font-size="14.00" fill="#666666">[int(11)]</text>
<polygon fill="none" stroke="#000000" points="46,-382.5 46,-412.5 408,-412.5 408,-382.5 46,-382.5"/>
<text text-anchor="start" x="53" y="-393.9" font-family="Arial" font-size="14.00" fill="#000000">id_hipotese_legal_pen </text>
<text text-anchor="start" x="196.9466" y="-393.9" font-family="Arial" font-size="14.00" fill="#666666">[int(11)]</text>
<polygon fill="none" stroke="#000000" points="46,-352.5 46,-382.5 408,-382.5 408,-352.5 46,-352.5"/>
<text text-anchor="start" x="53" y="-363.9" font-family="Arial" font-size="14.00" fill="#000000">tipo </text>
<text text-anchor="start" x="79.453" y="-363.9" font-family="Arial" font-size="14.00" fill="#666666">[char(1)]</text>
<polygon fill="none" stroke="#000000" points="46,-322.5 46,-352.5 408,-352.5 408,-322.5 46,-322.5"/>
<text text-anchor="start" x="53" y="-333.9" font-family="Arial" font-size="14.00" fill="#000000">sin_ativo </text>
<text text-anchor="start" x="112.1248" y="-333.9" font-family="Arial" font-size="14.00" fill="#666666">[char(1)]</text>
<polygon fill="none" stroke="#000000" stroke-width="3" points="44.5,-321.5 44.5,-509.5 409.5,-509.5 409.5,-321.5 44.5,-321.5"/>
</g>
<!-- md_pen_hipotese_legal -->
<g id="node2" class="node">
<title>md_pen_hipotese_legal</title>
<polygon fill="#efefef" stroke="transparent" points="61,-162.5 61,-197.5 393,-197.5 393,-162.5 61,-162.5"/>
<polygon fill="none" stroke="#000000" points="61,-162.5 61,-197.5 393,-197.5 393,-162.5 61,-162.5"/>
<text text-anchor="start" x="67.681" y="-175.3" font-family="Arial Bold" font-size="18.00" fill="#000000">md_pen_hipotese_legal</text>
<text text-anchor="start" x="258.751" y="-175.3" font-family="Arial" font-size="14.00" fill="#000000">    </text>
<text text-anchor="start" x="292.9558" y="-175.3" font-family="Arial" font-size="14.00" fill="#666666">[BASE TABLE]</text>
<polygon fill="none" stroke="#000000" points="61,-132.5 61,-162.5 393,-162.5 393,-132.5 61,-132.5"/>
<text text-anchor="start" x="68" y="-143.9" font-family="Arial" font-size="14.00" fill="#000000">id_hipotese_legal    </text>
<text text-anchor="start" x="211.1304" y="-143.9" font-family="Arial" font-size="14.00" fill="#666666">[int(11)]</text>
<polygon fill="none" stroke="#000000" points="61,-102.5 61,-132.5 393,-132.5 393,-102.5 61,-102.5"/>
<text text-anchor="start" x="68" y="-113.9" font-family="Arial" font-size="14.00" fill="#000000">nome    </text>
<text text-anchor="start" x="137.2132" y="-113.9" font-family="Arial" font-size="14.00" fill="#666666">[varchar(255)]</text>
<polygon fill="none" stroke="#000000" points="61,-72.5 61,-102.5 393,-102.5 393,-72.5 61,-72.5"/>
<text text-anchor="start" x="68" y="-83.9" font-family="Arial" font-size="14.00" fill="#000000">sin_ativo    </text>
<text text-anchor="start" x="157.439" y="-83.9" font-family="Arial" font-size="14.00" fill="#666666">[char(1)]</text>
<polygon fill="none" stroke="#000000" points="61,-42.5 61,-72.5 393,-72.5 393,-42.5 61,-42.5"/>
<text text-anchor="start" x="68" y="-53.9" font-family="Arial" font-size="14.00" fill="#000000">identificacao    </text>
<text text-anchor="start" x="180.0014" y="-53.9" font-family="Arial" font-size="14.00" fill="#666666">[int(11)]</text>
</g>
<!-- md_pen_rel_hipotese_legal&#45;&gt;md_pen_hipotese_legal -->
<g id="edge1" class="edge">
<title>md_pen_rel_hipotese_legal:id_hipotese_legal_pen&#45;&gt;md_pen_hipotese_legal:id_hipotese_legal</title>
<path fill="none" stroke="#000000" d="M418.0663,-396.7828C518.2794,-382.1191 500.8325,-147.5 393,-147.5"/>
<polygon fill="#000000" stroke="#000000" points="417.9747,-396.7893 407.6802,-393.0114 412.9874,-397.1446 408,-397.5 408,-397.5 408,-397.5 412.9874,-397.1446 408.3198,-401.9886 417.9747,-396.7893 417.9747,-396.7893"/>
</g>
</g>
</svg>
