<svg xmlns="http://www.w3.org/2000/svg" width="380pt" height="340" viewBox="0 0 380 255"><g class="graph" transform="translate(4 251)"><title>md_pen_unidade</title><path fill="#fff" stroke="transparent" d="M-4 4v-255h380V4z"/><g class="node"><title>md_pen_unidade</title><path fill="#efefef" stroke="transparent" d="M46-165.5v-35h280v35z"/><path fill="none" stroke="#000" d="M46-165.5v-35h280v35z"/><text x="52.686" y="-178.3" font-family="Arial Bold" font-size="18">md_pen_unidade</text><text x="191.746" y="-178.3" font-family="Arial" font-size="14">    </text><text x="225.951" y="-178.3" fill="#666" font-family="Arial" font-size="14">[BASE TABLE]</text><path fill="none" stroke="#000" d="M46-135.5v-30h280v30z"/><text x="53" y="-146.9" font-family="Arial" font-size="14">id_unidade </text><text x="125.365" y="-146.9" fill="#666" font-family="Arial" font-size="14">[int(11)]</text><path fill="none" stroke="#000" d="M46-105.5v-30h280v30z"/><text x="53" y="-116.9" font-family="Arial" font-size="14">id_unidade_rh </text><text x="145.59" y="-116.9" fill="#666" font-family="Arial" font-size="14">[bigint(20)]</text><path fill="none" stroke="#000" d="M46-75.5v-30h280v30z"/><text x="53" y="-86.9" font-family="Arial" font-size="14">sigla_unidade_rh </text><text x="163.48" y="-86.9" fill="#666" font-family="Arial" font-size="14">[varchar(20)]</text><path fill="none" stroke="#000" d="M46-45.5v-30h280v30z"/><text x="53" y="-56.9" font-family="Arial" font-size="14">nome_unidade_rh </text><text x="169.71" y="-56.9" fill="#666" font-family="Arial" font-size="14">[varchar(250)]</text><path fill="none" stroke="#000" stroke-width="3" d="M44.5-44.5v-158h283v158z"/></g></g></svg>