<?xml version="1.0" encoding="UTF-8" standalone="no"?>
<!DOCTYPE svg PUBLIC "-//W3C//DTD SVG 1.1//EN"
 "http://www.w3.org/Graphics/SVG/1.1/DTD/svg11.dtd">
<!-- Generated by graphviz version 2.40.1 (20161225.0304)
 -->
<!-- Title: md_pen_seq_procedimento_andam Pages: 1 -->
<svg width="529pt" height="195pt"
 viewBox="0.00 0.00 529.00 195.00" xmlns="http://www.w3.org/2000/svg" xmlns:xlink="http://www.w3.org/1999/xlink">
<g id="graph0" class="graph" transform="scale(1 1) rotate(0) translate(4 191)">
<title>md_pen_seq_procedimento_andam</title>
<polygon fill="#ffffff" stroke="transparent" points="-4,4 -4,-191 525,-191 525,4 -4,4"/>
<!-- md_pen_seq_procedimento_andam -->
<g id="node1" class="node">
<title>md_pen_seq_procedimento_andam</title>
<polygon fill="#efefef" stroke="transparent" points="46.5,-105.5 46.5,-140.5 475.5,-140.5 475.5,-105.5 46.5,-105.5"/>
<polygon fill="none" stroke="#000000" points="46.5,-105.5 46.5,-140.5 475.5,-140.5 475.5,-105.5 46.5,-105.5"/>
<text text-anchor="start" x="53.1683" y="-118.3" font-family="Arial Bold" font-size="18.00" fill="#000000">md_pen_seq_procedimento_andam</text>
<text text-anchor="start" x="341.2637" y="-118.3" font-family="Arial" font-size="14.00" fill="#000000">    </text>
<text text-anchor="start" x="375.4685" y="-118.3" font-family="Arial" font-size="14.00" fill="#666666">[BASE TABLE]</text>
<polygon fill="none" stroke="#000000" points="46.5,-75.5 46.5,-105.5 475.5,-105.5 475.5,-75.5 46.5,-75.5"/>
<text text-anchor="start" x="53.5" y="-86.9" font-family="Arial" font-size="14.00" fill="#000000">id </text>
<text text-anchor="start" x="68.2798" y="-86.9" font-family="Arial" font-size="14.00" fill="#666666">[int(11)]</text>
<polygon fill="none" stroke="#000000" points="46.5,-45.5 46.5,-75.5 475.5,-75.5 475.5,-45.5 46.5,-45.5"/>
<text text-anchor="start" x="53.5" y="-56.9" font-family="Arial" font-size="14.00" fill="#000000">campo </text>
<text text-anchor="start" x="99.399" y="-56.9" font-family="Arial" font-size="14.00" fill="#666666">[char(1)]</text>
<polygon fill="none" stroke="#000000" stroke-width="3" points="44.5,-44.5 44.5,-142.5 476.5,-142.5 476.5,-44.5 44.5,-44.5"/>
</g>
</g>
</svg>
