<?xml version="1.0" encoding="UTF-8" standalone="no"?>
<!DOCTYPE svg PUBLIC "-//W3C//DTD SVG 1.1//EN"
 "http://www.w3.org/Graphics/SVG/1.1/DTD/svg11.dtd">
<!-- Generated by graphviz version 2.40.1 (20161225.0304)
 -->
<!-- Title: md_pen_orgao_externo Pages: 1 -->
<svg width="492pt" height="832pt"
 viewBox="0.00 0.00 491.65 832.00" xmlns="http://www.w3.org/2000/svg" xmlns:xlink="http://www.w3.org/1999/xlink">
<g id="graph0" class="graph" transform="scale(1 1) rotate(0) translate(4 828)">
<title>md_pen_orgao_externo</title>
<polygon fill="#ffffff" stroke="transparent" points="-4,4 -4,-828 487.6471,-828 487.6471,4 -4,4"/>
<!-- md_pen_orgao_externo -->
<g id="node1" class="node">
<title>md_pen_orgao_externo</title>
<polygon fill="#efefef" stroke="transparent" points="64.5,-345.5 64.5,-380.5 396.5,-380.5 396.5,-345.5 64.5,-345.5"/>
<polygon fill="none" stroke="#000000" points="64.5,-345.5 64.5,-380.5 396.5,-380.5 396.5,-345.5 64.5,-345.5"/>
<text text-anchor="start" x="71.1801" y="-358.3" font-family="Arial Bold" font-size="18.00" fill="#000000">md_pen_orgao_externo</text>
<text text-anchor="start" x="262.2519" y="-358.3" font-family="Arial" font-size="14.00" fill="#000000">    </text>
<text text-anchor="start" x="296.4567" y="-358.3" font-family="Arial" font-size="14.00" fill="#666666">[BASE TABLE]</text>
<polygon fill="none" stroke="#000000" points="64.5,-315.5 64.5,-345.5 396.5,-345.5 396.5,-315.5 64.5,-315.5"/>
<text text-anchor="start" x="71.5" y="-326.9" font-family="Arial" font-size="14.00" fill="#000000">id </text>
<text text-anchor="start" x="86.2798" y="-326.9" font-family="Arial" font-size="14.00" fill="#666666">[int(11)]</text>
<polygon fill="none" stroke="#000000" points="64.5,-285.5 64.5,-315.5 396.5,-315.5 396.5,-285.5 64.5,-285.5"/>
<text text-anchor="start" x="71.5" y="-296.9" font-family="Arial" font-size="14.00" fill="#000000">id_orgao_origem </text>
<text text-anchor="start" x="180.4116" y="-296.9" font-family="Arial" font-size="14.00" fill="#666666">[int(11)]</text>
<polygon fill="none" stroke="#000000" points="64.5,-255.5 64.5,-285.5 396.5,-285.5 396.5,-255.5 64.5,-255.5"/>
<text text-anchor="start" x="71.5" y="-266.9" font-family="Arial" font-size="14.00" fill="#000000">str_orgao_origem </text>
<text text-anchor="start" x="185.0736" y="-266.9" font-family="Arial" font-size="14.00" fill="#666666">[varchar(250)]</text>
<polygon fill="none" stroke="#000000" points="64.5,-225.5 64.5,-255.5 396.5,-255.5 396.5,-225.5 64.5,-225.5"/>
<text text-anchor="start" x="71.5" y="-236.9" font-family="Arial" font-size="14.00" fill="#000000">id_estrutura_origem </text>
<text text-anchor="start" x="199.8534" y="-236.9" font-family="Arial" font-size="14.00" fill="#666666">[int(11)]</text>
<polygon fill="none" stroke="#000000" points="64.5,-195.5 64.5,-225.5 396.5,-225.5 396.5,-195.5 64.5,-195.5"/>
<text text-anchor="start" x="71.5" y="-206.9" font-family="Arial" font-size="14.00" fill="#000000">str_estrutura_origem </text>
<text text-anchor="start" x="204.5154" y="-206.9" font-family="Arial" font-size="14.00" fill="#666666">[varchar(250)]</text>
<polygon fill="none" stroke="#000000" points="64.5,-165.5 64.5,-195.5 396.5,-195.5 396.5,-165.5 64.5,-165.5"/>
<text text-anchor="start" x="71.5" y="-176.9" font-family="Arial" font-size="14.00" fill="#000000">id_orgao_destino </text>
<text text-anchor="start" x="182.7636" y="-176.9" font-family="Arial" font-size="14.00" fill="#666666">[int(11)]</text>
<polygon fill="none" stroke="#000000" points="64.5,-135.5 64.5,-165.5 396.5,-165.5 396.5,-135.5 64.5,-135.5"/>
<text text-anchor="start" x="71.5" y="-146.9" font-family="Arial" font-size="14.00" fill="#000000">str_orgao_destino </text>
<text text-anchor="start" x="187.4256" y="-146.9" font-family="Arial" font-size="14.00" fill="#666666">[varchar(250)]</text>
<polygon fill="none" stroke="#000000" points="64.5,-105.5 64.5,-135.5 396.5,-135.5 396.5,-105.5 64.5,-105.5"/>
<text text-anchor="start" x="71.5" y="-116.9" font-family="Arial" font-size="14.00" fill="#000000">sin_ativo </text>
<text text-anchor="start" x="130.6248" y="-116.9" font-family="Arial" font-size="14.00" fill="#666666">[char(1)]</text>
<polygon fill="none" stroke="#000000" points="64.5,-75.5 64.5,-105.5 396.5,-105.5 396.5,-75.5 64.5,-75.5"/>
<text text-anchor="start" x="71.5" y="-86.9" font-family="Arial" font-size="14.00" fill="#000000">id_unidade </text>
<text text-anchor="start" x="143.8646" y="-86.9" font-family="Arial" font-size="14.00" fill="#666666">[int(11)]</text>
<polygon fill="none" stroke="#000000" points="64.5,-45.5 64.5,-75.5 396.5,-75.5 396.5,-45.5 64.5,-45.5"/>
<text text-anchor="start" x="71.5" y="-56.9" font-family="Arial" font-size="14.00" fill="#000000">dth_criacao </text>
<text text-anchor="start" x="147.744" y="-56.9" font-family="Arial" font-size="14.00" fill="#666666">[datetime]</text>
<polygon fill="none" stroke="#000000" stroke-width="3" points="63,-44.5 63,-382.5 398,-382.5 398,-44.5 63,-44.5"/>
</g>
<!-- md_pen_map_tipo_processo -->
<g id="node2" class="node">
<title>md_pen_map_tipo_processo</title>
<polygon fill="#efefef" stroke="transparent" points="43.5,-745.5 43.5,-780.5 416.5,-780.5 416.5,-745.5 43.5,-745.5"/>
<polygon fill="none" stroke="#000000" points="43.5,-745.5 43.5,-780.5 416.5,-780.5 416.5,-745.5 43.5,-745.5"/>
<text text-anchor="start" x="50.1799" y="-758.3" font-family="Arial Bold" font-size="18.00" fill="#000000">md_pen_map_tipo_processo</text>
<text text-anchor="start" x="282.2521" y="-758.3" font-family="Arial" font-size="14.00" fill="#000000">    </text>
<text text-anchor="start" x="316.4569" y="-758.3" font-family="Arial" font-size="14.00" fill="#666666">[BASE TABLE]</text>
<polygon fill="none" stroke="#000000" points="43.5,-715.5 43.5,-745.5 416.5,-745.5 416.5,-715.5 43.5,-715.5"/>
<text text-anchor="start" x="50.5" y="-726.9" font-family="Arial" font-size="14.00" fill="#000000">id    </text>
<text text-anchor="start" x="95.594" y="-726.9" font-family="Arial" font-size="14.00" fill="#666666">[int(11)]</text>
<polygon fill="none" stroke="#000000" points="43.5,-685.5 43.5,-715.5 416.5,-715.5 416.5,-685.5 43.5,-685.5"/>
<text text-anchor="start" x="50.5" y="-696.9" font-family="Arial" font-size="14.00" fill="#000000">id_map_orgao    </text>
<text text-anchor="start" x="174.176" y="-696.9" font-family="Arial" font-size="14.00" fill="#666666">[int(11)]</text>
<polygon fill="none" stroke="#000000" points="43.5,-655.5 43.5,-685.5 416.5,-685.5 416.5,-655.5 43.5,-655.5"/>
<text text-anchor="start" x="50.5" y="-666.9" font-family="Arial" font-size="14.00" fill="#000000">id_tipo_processo_origem    </text>
<text text-anchor="start" x="241.0708" y="-666.9" font-family="Arial" font-size="14.00" fill="#666666">[int(11)]</text>
<polygon fill="none" stroke="#000000" points="43.5,-625.5 43.5,-655.5 416.5,-655.5 416.5,-625.5 43.5,-625.5"/>
<text text-anchor="start" x="50.5" y="-636.9" font-family="Arial" font-size="14.00" fill="#000000">id_tipo_processo_destino    </text>
<text text-anchor="start" x="243.4228" y="-636.9" font-family="Arial" font-size="14.00" fill="#666666">[int(11)]</text>
<polygon fill="none" stroke="#000000" points="43.5,-595.5 43.5,-625.5 416.5,-625.5 416.5,-595.5 43.5,-595.5"/>
<text text-anchor="start" x="50.5" y="-606.9" font-family="Arial" font-size="14.00" fill="#000000">nome_tipo_processo    </text>
<text text-anchor="start" x="214.6318" y="-606.9" font-family="Arial" font-size="14.00" fill="#666666">[varchar(250)]</text>
<polygon fill="none" stroke="#000000" points="43.5,-565.5 43.5,-595.5 416.5,-595.5 416.5,-565.5 43.5,-565.5"/>
<text text-anchor="start" x="50.5" y="-576.9" font-family="Arial" font-size="14.00" fill="#000000">sin_ativo    </text>
<text text-anchor="start" x="139.939" y="-576.9" font-family="Arial" font-size="14.00" fill="#666666">[char(1)]</text>
<polygon fill="none" stroke="#000000" points="43.5,-535.5 43.5,-565.5 416.5,-565.5 416.5,-535.5 43.5,-535.5"/>
<text text-anchor="start" x="50.5" y="-546.9" font-family="Arial" font-size="14.00" fill="#000000">id_unidade    </text>
<text text-anchor="start" x="153.1788" y="-546.9" font-family="Arial" font-size="14.00" fill="#666666">[int(11)]</text>
<polygon fill="none" stroke="#000000" points="43.5,-505.5 43.5,-535.5 416.5,-535.5 416.5,-505.5 43.5,-505.5"/>
<text text-anchor="start" x="50.5" y="-516.9" font-family="Arial" font-size="14.00" fill="#000000">dth_criacao    </text>
<text text-anchor="start" x="157.0582" y="-516.9" font-family="Arial" font-size="14.00" fill="#666666">[datetime]</text>
</g>
<!-- md_pen_map_tipo_processo&#45;&gt;md_pen_orgao_externo -->
<g id="edge1" class="edge">
<title>md_pen_map_tipo_processo:id_map_orgao&#45;&gt;md_pen_orgao_externo:id</title>
<path fill="none" stroke="#000000" d="M426.5539,-699.9824C519.704,-690.0201 484.8915,-538.7428 416.5,-463 363.8043,-404.6401 117.1957,-485.3599 64.5,-427 35.7571,-395.1676 21.6111,-330.5 64.5,-330.5"/>
<polygon fill="#000000" stroke="#000000" points="426.4868,-699.9858 416.2686,-696.006 421.4934,-700.2429 416.5,-700.5 416.5,-700.5 416.5,-700.5 421.4934,-700.2429 416.7314,-704.994 426.4868,-699.9858 426.4868,-699.9858"/>
</g>
</g>
</svg>
