<?xml version="1.0" encoding="UTF-8" standalone="no"?>
<!DOCTYPE svg PUBLIC "-//W3C//DTD SVG 1.1//EN"
 "http://www.w3.org/Graphics/SVG/1.1/DTD/svg11.dtd">
<!-- Generated by graphviz version 2.40.1 (20161225.0304)
 -->
<!-- Title: md_pen_rel_tipo_doc_map_rec Pages: 1 -->
<svg width="494pt" height="225pt"
 viewBox="0.00 0.00 494.00 225.00" xmlns="http://www.w3.org/2000/svg" xmlns:xlink="http://www.w3.org/1999/xlink">
<g id="graph0" class="graph" transform="scale(1 1) rotate(0) translate(4 221)">
<title>md_pen_rel_tipo_doc_map_rec</title>
<polygon fill="#ffffff" stroke="transparent" points="-4,4 -4,-221 490,-221 490,4 -4,4"/>
<!-- md_pen_rel_tipo_doc_map_rec -->
<g id="node1" class="node">
<title>md_pen_rel_tipo_doc_map_rec</title>
<polygon fill="#efefef" stroke="transparent" points="46,-135.5 46,-170.5 440,-170.5 440,-135.5 46,-135.5"/>
<polygon fill="none" stroke="#000000" points="46,-135.5 46,-170.5 440,-170.5 440,-135.5 46,-135.5"/>
<text text-anchor="start" x="52.6805" y="-148.3" font-family="Arial Bold" font-size="18.00" fill="#000000">md_pen_rel_tipo_doc_map_rec</text>
<text text-anchor="start" x="305.7515" y="-148.3" font-family="Arial" font-size="14.00" fill="#000000">    </text>
<text text-anchor="start" x="339.9563" y="-148.3" font-family="Arial" font-size="14.00" fill="#666666">[BASE TABLE]</text>
<polygon fill="none" stroke="#000000" points="46,-105.5 46,-135.5 440,-135.5 440,-105.5 46,-105.5"/>
<text text-anchor="start" x="53" y="-116.9" font-family="Arial" font-size="14.00" fill="#000000">codigo_especie </text>
<text text-anchor="start" x="154.1472" y="-116.9" font-family="Arial" font-size="14.00" fill="#666666">[int(11)]</text>
<polygon fill="none" stroke="#000000" points="46,-75.5 46,-105.5 440,-105.5 440,-75.5 46,-75.5"/>
<text text-anchor="start" x="53" y="-86.9" font-family="Arial" font-size="14.00" fill="#000000">id_serie </text>
<text text-anchor="start" x="105.8948" y="-86.9" font-family="Arial" font-size="14.00" fill="#666666">[int(11)]</text>
<polygon fill="none" stroke="#000000" points="46,-45.5 46,-75.5 440,-75.5 440,-45.5 46,-45.5"/>
<text text-anchor="start" x="53" y="-56.9" font-family="Arial" font-size="14.00" fill="#000000">sin_padrao </text>
<text text-anchor="start" x="126.136" y="-56.9" font-family="Arial" font-size="14.00" fill="#666666">[char(2)]</text>
<polygon fill="none" stroke="#000000" stroke-width="3" points="44.5,-44.5 44.5,-172.5 441.5,-172.5 441.5,-44.5 44.5,-44.5"/>
</g>
</g>
</svg>
