<?xml version="1.0" encoding="UTF-8" standalone="no"?>
<!DOCTYPE svg PUBLIC "-//W3C//DTD SVG 1.1//EN"
 "http://www.w3.org/Graphics/SVG/1.1/DTD/svg11.dtd">
<!-- Generated by graphviz version 2.40.1 (20161225.0304)
 -->
<!-- Title: md_pen_map_tipo_processo Pages: 1 -->
<svg width="495pt" height="832pt"
 viewBox="0.00 0.00 495.50 832.00" xmlns="http://www.w3.org/2000/svg" xmlns:xlink="http://www.w3.org/1999/xlink">
<g id="graph0" class="graph" transform="scale(1 1) rotate(0) translate(4 828)">
<title>md_pen_map_tipo_processo</title>
<polygon fill="#ffffff" stroke="transparent" points="-4,4 -4,-828 491.4953,-828 491.4953,4 -4,4"/>
<!-- md_pen_map_tipo_processo -->
<g id="node1" class="node">
<title>md_pen_map_tipo_processo</title>
<polygon fill="#efefef" stroke="transparent" points="46.5,-742.5 46.5,-777.5 419.5,-777.5 419.5,-742.5 46.5,-742.5"/>
<polygon fill="none" stroke="#000000" points="46.5,-742.5 46.5,-777.5 419.5,-777.5 419.5,-742.5 46.5,-742.5"/>
<text text-anchor="start" x="53.1799" y="-755.3" font-family="Arial Bold" font-size="18.00" fill="#000000">md_pen_map_tipo_processo</text>
<text text-anchor="start" x="285.2521" y="-755.3" font-family="Arial" font-size="14.00" fill="#000000">    </text>
<text text-anchor="start" x="319.4569" y="-755.3" font-family="Arial" font-size="14.00" fill="#666666">[BASE TABLE]</text>
<polygon fill="none" stroke="#000000" points="46.5,-712.5 46.5,-742.5 419.5,-742.5 419.5,-712.5 46.5,-712.5"/>
<text text-anchor="start" x="53.5" y="-723.9" font-family="Arial" font-size="14.00" fill="#000000">id </text>
<text text-anchor="start" x="68.2798" y="-723.9" font-family="Arial" font-size="14.00" fill="#666666">[int(11)]</text>
<polygon fill="none" stroke="#000000" points="46.5,-682.5 46.5,-712.5 419.5,-712.5 419.5,-682.5 46.5,-682.5"/>
<text text-anchor="start" x="53.5" y="-693.9" font-family="Arial" font-size="14.00" fill="#000000">id_map_orgao </text>
<text text-anchor="start" x="146.8618" y="-693.9" font-family="Arial" font-size="14.00" fill="#666666">[int(11)]</text>
<polygon fill="none" stroke="#000000" points="46.5,-652.5 46.5,-682.5 419.5,-682.5 419.5,-652.5 46.5,-652.5"/>
<text text-anchor="start" x="53.5" y="-663.9" font-family="Arial" font-size="14.00" fill="#000000">id_tipo_processo_origem </text>
<text text-anchor="start" x="213.7566" y="-663.9" font-family="Arial" font-size="14.00" fill="#666666">[int(11)]</text>
<polygon fill="none" stroke="#000000" points="46.5,-622.5 46.5,-652.5 419.5,-652.5 419.5,-622.5 46.5,-622.5"/>
<text text-anchor="start" x="53.5" y="-633.9" font-family="Arial" font-size="14.00" fill="#000000">id_tipo_processo_destino </text>
<text text-anchor="start" x="216.1086" y="-633.9" font-family="Arial" font-size="14.00" fill="#666666">[int(11)]</text>
<polygon fill="none" stroke="#000000" points="46.5,-592.5 46.5,-622.5 419.5,-622.5 419.5,-592.5 46.5,-592.5"/>
<text text-anchor="start" x="53.5" y="-603.9" font-family="Arial" font-size="14.00" fill="#000000">nome_tipo_processo </text>
<text text-anchor="start" x="187.3176" y="-603.9" font-family="Arial" font-size="14.00" fill="#666666">[varchar(250)]</text>
<polygon fill="none" stroke="#000000" points="46.5,-562.5 46.5,-592.5 419.5,-592.5 419.5,-562.5 46.5,-562.5"/>
<text text-anchor="start" x="53.5" y="-573.9" font-family="Arial" font-size="14.00" fill="#000000">sin_ativo </text>
<text text-anchor="start" x="112.6248" y="-573.9" font-family="Arial" font-size="14.00" fill="#666666">[char(1)]</text>
<polygon fill="none" stroke="#000000" points="46.5,-532.5 46.5,-562.5 419.5,-562.5 419.5,-532.5 46.5,-532.5"/>
<text text-anchor="start" x="53.5" y="-543.9" font-family="Arial" font-size="14.00" fill="#000000">id_unidade </text>
<text text-anchor="start" x="125.8646" y="-543.9" font-family="Arial" font-size="14.00" fill="#666666">[int(11)]</text>
<polygon fill="none" stroke="#000000" points="46.5,-502.5 46.5,-532.5 419.5,-532.5 419.5,-502.5 46.5,-502.5"/>
<text text-anchor="start" x="53.5" y="-513.9" font-family="Arial" font-size="14.00" fill="#000000">dth_criacao </text>
<text text-anchor="start" x="129.744" y="-513.9" font-family="Arial" font-size="14.00" fill="#666666">[datetime]</text>
<polygon fill="none" stroke="#000000" stroke-width="3" points="44.5,-501.5 44.5,-779.5 420.5,-779.5 420.5,-501.5 44.5,-501.5"/>
</g>
<!-- md_pen_orgao_externo -->
<g id="node2" class="node">
<title>md_pen_orgao_externo</title>
<polygon fill="#efefef" stroke="transparent" points="67.5,-342.5 67.5,-377.5 399.5,-377.5 399.5,-342.5 67.5,-342.5"/>
<polygon fill="none" stroke="#000000" points="67.5,-342.5 67.5,-377.5 399.5,-377.5 399.5,-342.5 67.5,-342.5"/>
<text text-anchor="start" x="74.1801" y="-355.3" font-family="Arial Bold" font-size="18.00" fill="#000000">md_pen_orgao_externo</text>
<text text-anchor="start" x="265.2519" y="-355.3" font-family="Arial" font-size="14.00" fill="#000000">    </text>
<text text-anchor="start" x="299.4567" y="-355.3" font-family="Arial" font-size="14.00" fill="#666666">[BASE TABLE]</text>
<polygon fill="none" stroke="#000000" points="67.5,-312.5 67.5,-342.5 399.5,-342.5 399.5,-312.5 67.5,-312.5"/>
<text text-anchor="start" x="74.5" y="-323.9" font-family="Arial" font-size="14.00" fill="#000000">id    </text>
<text text-anchor="start" x="119.594" y="-323.9" font-family="Arial" font-size="14.00" fill="#666666">[int(11)]</text>
<polygon fill="none" stroke="#000000" points="67.5,-282.5 67.5,-312.5 399.5,-312.5 399.5,-282.5 67.5,-282.5"/>
<text text-anchor="start" x="74.5" y="-293.9" font-family="Arial" font-size="14.00" fill="#000000">id_orgao_origem    </text>
<text text-anchor="start" x="213.7258" y="-293.9" font-family="Arial" font-size="14.00" fill="#666666">[int(11)]</text>
<polygon fill="none" stroke="#000000" points="67.5,-252.5 67.5,-282.5 399.5,-282.5 399.5,-252.5 67.5,-252.5"/>
<text text-anchor="start" x="74.5" y="-263.9" font-family="Arial" font-size="14.00" fill="#000000">str_orgao_origem    </text>
<text text-anchor="start" x="218.3878" y="-263.9" font-family="Arial" font-size="14.00" fill="#666666">[varchar(250)]</text>
<polygon fill="none" stroke="#000000" points="67.5,-222.5 67.5,-252.5 399.5,-252.5 399.5,-222.5 67.5,-222.5"/>
<text text-anchor="start" x="74.5" y="-233.9" font-family="Arial" font-size="14.00" fill="#000000">id_estrutura_origem    </text>
<text text-anchor="start" x="233.1676" y="-233.9" font-family="Arial" font-size="14.00" fill="#666666">[int(11)]</text>
<polygon fill="none" stroke="#000000" points="67.5,-192.5 67.5,-222.5 399.5,-222.5 399.5,-192.5 67.5,-192.5"/>
<text text-anchor="start" x="74.5" y="-203.9" font-family="Arial" font-size="14.00" fill="#000000">str_estrutura_origem    </text>
<text text-anchor="start" x="237.8296" y="-203.9" font-family="Arial" font-size="14.00" fill="#666666">[varchar(250)]</text>
<polygon fill="none" stroke="#000000" points="67.5,-162.5 67.5,-192.5 399.5,-192.5 399.5,-162.5 67.5,-162.5"/>
<text text-anchor="start" x="74.5" y="-173.9" font-family="Arial" font-size="14.00" fill="#000000">id_orgao_destino    </text>
<text text-anchor="start" x="216.0778" y="-173.9" font-family="Arial" font-size="14.00" fill="#666666">[int(11)]</text>
<polygon fill="none" stroke="#000000" points="67.5,-132.5 67.5,-162.5 399.5,-162.5 399.5,-132.5 67.5,-132.5"/>
<text text-anchor="start" x="74.5" y="-143.9" font-family="Arial" font-size="14.00" fill="#000000">str_orgao_destino    </text>
<text text-anchor="start" x="220.7398" y="-143.9" font-family="Arial" font-size="14.00" fill="#666666">[varchar(250)]</text>
<polygon fill="none" stroke="#000000" points="67.5,-102.5 67.5,-132.5 399.5,-132.5 399.5,-102.5 67.5,-102.5"/>
<text text-anchor="start" x="74.5" y="-113.9" font-family="Arial" font-size="14.00" fill="#000000">sin_ativo    </text>
<text text-anchor="start" x="163.939" y="-113.9" font-family="Arial" font-size="14.00" fill="#666666">[char(1)]</text>
<polygon fill="none" stroke="#000000" points="67.5,-72.5 67.5,-102.5 399.5,-102.5 399.5,-72.5 67.5,-72.5"/>
<text text-anchor="start" x="74.5" y="-83.9" font-family="Arial" font-size="14.00" fill="#000000">id_unidade    </text>
<text text-anchor="start" x="177.1788" y="-83.9" font-family="Arial" font-size="14.00" fill="#666666">[int(11)]</text>
<polygon fill="none" stroke="#000000" points="67.5,-42.5 67.5,-72.5 399.5,-72.5 399.5,-42.5 67.5,-42.5"/>
<text text-anchor="start" x="74.5" y="-53.9" font-family="Arial" font-size="14.00" fill="#000000">dth_criacao    </text>
<text text-anchor="start" x="181.0582" y="-53.9" font-family="Arial" font-size="14.00" fill="#666666">[datetime]</text>
</g>
<!-- md_pen_map_tipo_processo&#45;&gt;md_pen_orgao_externo -->
<g id="edge1" class="edge">
<title>md_pen_map_tipo_processo:id_map_orgao&#45;&gt;md_pen_orgao_externo:id</title>
<path fill="none" stroke="#000000" d="M429.6809,-696.9759C524.0076,-686.8878 488.7554,-533.6995 419.5,-457 366.8043,-398.6401 120.1957,-479.3599 67.5,-421 39.6507,-390.1572 25.9444,-327.5 67.5,-327.5"/>
<polygon fill="#000000" stroke="#000000" points="429.4868,-696.9858 419.2686,-693.006 424.4934,-697.2429 419.5,-697.5 419.5,-697.5 419.5,-697.5 424.4934,-697.2429 419.7314,-701.994 429.4868,-696.9858 429.4868,-696.9858"/>
</g>
</g>
</svg>
