<?xml version="1.0" encoding="UTF-8" standalone="no"?>
<!DOCTYPE svg PUBLIC "-//W3C//DTD SVG 1.1//EN"
 "http://www.w3.org/Graphics/SVG/1.1/DTD/svg11.dtd">
<!-- Generated by graphviz version 2.40.1 (20161225.0304)
 -->
<!-- Title: md_pen_envio_comp_digitais Pages: 1 -->
<svg width="479pt" height="285pt"
 viewBox="0.00 0.00 479.00 285.00" xmlns="http://www.w3.org/2000/svg" xmlns:xlink="http://www.w3.org/1999/xlink">
<g id="graph0" class="graph" transform="scale(1 1) rotate(0) translate(4 281)">
<title>md_pen_envio_comp_digitais</title>
<polygon fill="#ffffff" stroke="transparent" points="-4,4 -4,-281 475,-281 475,4 -4,4"/>
<!-- md_pen_envio_comp_digitais -->
<g id="node1" class="node">
<title>md_pen_envio_comp_digitais</title>
<polygon fill="#efefef" stroke="transparent" points="46.5,-195.5 46.5,-230.5 425.5,-230.5 425.5,-195.5 46.5,-195.5"/>
<polygon fill="none" stroke="#000000" points="46.5,-195.5 46.5,-230.5 425.5,-230.5 425.5,-195.5 46.5,-195.5"/>
<text text-anchor="start" x="53.1847" y="-208.3" font-family="Arial Bold" font-size="18.00" fill="#000000">md_pen_envio_comp_digitais</text>
<text text-anchor="start" x="291.2473" y="-208.3" font-family="Arial" font-size="14.00" fill="#000000">    </text>
<text text-anchor="start" x="325.4521" y="-208.3" font-family="Arial" font-size="14.00" fill="#666666">[BASE TABLE]</text>
<polygon fill="none" stroke="#000000" points="46.5,-165.5 46.5,-195.5 425.5,-195.5 425.5,-165.5 46.5,-165.5"/>
<text text-anchor="start" x="53.5" y="-176.9" font-family="Arial" font-size="14.00" fill="#000000">id_comp_digitais </text>
<text text-anchor="start" x="161.629" y="-176.9" font-family="Arial" font-size="14.00" fill="#666666">[bigint(20)]</text>
<polygon fill="none" stroke="#000000" points="46.5,-135.5 46.5,-165.5 425.5,-165.5 425.5,-135.5 46.5,-135.5"/>
<text text-anchor="start" x="53.5" y="-146.9" font-family="Arial" font-size="14.00" fill="#000000">id_estrutura </text>
<text text-anchor="start" x="131.2952" y="-146.9" font-family="Arial" font-size="14.00" fill="#666666">[int(11)]</text>
<polygon fill="none" stroke="#000000" points="46.5,-105.5 46.5,-135.5 425.5,-135.5 425.5,-105.5 46.5,-105.5"/>
<text text-anchor="start" x="53.5" y="-116.9" font-family="Arial" font-size="14.00" fill="#000000">str_estrutura </text>
<text text-anchor="start" x="135.9572" y="-116.9" font-family="Arial" font-size="14.00" fill="#666666">[longtext]</text>
<polygon fill="none" stroke="#000000" points="46.5,-75.5 46.5,-105.5 425.5,-105.5 425.5,-75.5 46.5,-75.5"/>
<text text-anchor="start" x="53.5" y="-86.9" font-family="Arial" font-size="14.00" fill="#000000">id_unidade_pen </text>
<text text-anchor="start" x="156.995" y="-86.9" font-family="Arial" font-size="14.00" fill="#666666">[int(11)]</text>
<polygon fill="none" stroke="#000000" points="46.5,-45.5 46.5,-75.5 425.5,-75.5 425.5,-45.5 46.5,-45.5"/>
<text text-anchor="start" x="53.5" y="-56.9" font-family="Arial" font-size="14.00" fill="#000000">str_unidade_pen </text>
<text text-anchor="start" x="161.657" y="-56.9" font-family="Arial" font-size="14.00" fill="#666666">[longtext]</text>
<polygon fill="none" stroke="#000000" stroke-width="3" points="44.5,-44.5 44.5,-232.5 426.5,-232.5 426.5,-44.5 44.5,-44.5"/>
</g>
</g>
</svg>
