<?xml version="1.0" encoding="UTF-8" standalone="no"?>
<!DOCTYPE svg PUBLIC "-//W3C//DTD SVG 1.1//EN"
 "http://www.w3.org/Graphics/SVG/1.1/DTD/svg11.dtd">
<!-- Generated by graphviz version 2.40.1 (20161225.0304)
 -->
<!-- Title: md_pen_tramite Pages: 1 -->
<svg width="2430pt" height="1619pt"
 viewBox="0.00 0.00 2430.00 1619.00" xmlns="http://www.w3.org/2000/svg" xmlns:xlink="http://www.w3.org/1999/xlink">
<g id="graph0" class="graph" transform="scale(1 1) rotate(0) translate(4 1615)">
<title>md_pen_tramite</title>
<polygon fill="#ffffff" stroke="transparent" points="-4,4 -4,-1615 2426,-1615 2426,4 -4,4"/>
<!-- md_pen_tramite -->
<g id="node1" class="node">
<title>md_pen_tramite</title>
<polygon fill="#efefef" stroke="transparent" points="1288,-652.5 1288,-687.5 1559,-687.5 1559,-652.5 1288,-652.5"/>
<polygon fill="none" stroke="#000000" points="1288,-652.5 1288,-687.5 1559,-687.5 1559,-652.5 1288,-652.5"/>
<text text-anchor="start" x="1294.7036" y="-665.3" font-family="Arial Bold" font-size="18.00" fill="#000000">md_pen_tramite</text>
<text text-anchor="start" x="1424.7284" y="-665.3" font-family="Arial" font-size="14.00" fill="#000000">    </text>
<text text-anchor="start" x="1458.9332" y="-665.3" font-family="Arial" font-size="14.00" fill="#666666">[BASE TABLE]</text>
<polygon fill="none" stroke="#000000" points="1288,-622.5 1288,-652.5 1559,-652.5 1559,-622.5 1288,-622.5"/>
<text text-anchor="start" x="1295" y="-633.9" font-family="Arial" font-size="14.00" fill="#000000">numero_registro </text>
<text text-anchor="start" x="1400.791" y="-633.9" font-family="Arial" font-size="14.00" fill="#666666">[char(16)]</text>
<polygon fill="none" stroke="#000000" points="1288,-592.5 1288,-622.5 1559,-622.5 1559,-592.5 1288,-592.5"/>
<text text-anchor="start" x="1295" y="-603.9" font-family="Arial" font-size="14.00" fill="#000000">id_tramite </text>
<text text-anchor="start" x="1360.3366" y="-603.9" font-family="Arial" font-size="14.00" fill="#666666">[bigint(20)]</text>
<polygon fill="none" stroke="#000000" points="1288,-562.5 1288,-592.5 1559,-592.5 1559,-562.5 1288,-562.5"/>
<text text-anchor="start" x="1295" y="-573.9" font-family="Arial" font-size="14.00" fill="#000000">dth_registro </text>
<text text-anchor="start" x="1372.7952" y="-573.9" font-family="Arial" font-size="14.00" fill="#666666">[datetime]</text>
<polygon fill="none" stroke="#000000" points="1288,-532.5 1288,-562.5 1559,-562.5 1559,-532.5 1288,-532.5"/>
<text text-anchor="start" x="1295" y="-543.9" font-family="Arial" font-size="14.00" fill="#000000">id_andamento </text>
<text text-anchor="start" x="1387.5918" y="-543.9" font-family="Arial" font-size="14.00" fill="#666666">[int(11)]</text>
<polygon fill="none" stroke="#000000" points="1288,-502.5 1288,-532.5 1559,-532.5 1559,-502.5 1288,-502.5"/>
<text text-anchor="start" x="1295" y="-513.9" font-family="Arial" font-size="14.00" fill="#000000">id_usuario </text>
<text text-anchor="start" x="1363.46" y="-513.9" font-family="Arial" font-size="14.00" fill="#666666">[int(11)]</text>
<polygon fill="none" stroke="#000000" points="1288,-472.5 1288,-502.5 1559,-502.5 1559,-472.5 1288,-472.5"/>
<text text-anchor="start" x="1295" y="-483.9" font-family="Arial" font-size="14.00" fill="#000000">id_unidade </text>
<text text-anchor="start" x="1367.3646" y="-483.9" font-family="Arial" font-size="14.00" fill="#666666">[int(11)]</text>
<polygon fill="none" stroke="#000000" points="1288,-442.5 1288,-472.5 1559,-472.5 1559,-442.5 1288,-442.5"/>
<text text-anchor="start" x="1295" y="-453.9" font-family="Arial" font-size="14.00" fill="#000000">id_repositorio_origem </text>
<text text-anchor="start" x="1433.4586" y="-453.9" font-family="Arial" font-size="14.00" fill="#666666">[int(11)]</text>
<polygon fill="none" stroke="#000000" points="1288,-412.5 1288,-442.5 1559,-442.5 1559,-412.5 1288,-412.5"/>
<text text-anchor="start" x="1295" y="-423.9" font-family="Arial" font-size="14.00" fill="#000000">id_estrutura_origem </text>
<text text-anchor="start" x="1423.3534" y="-423.9" font-family="Arial" font-size="14.00" fill="#666666">[int(11)]</text>
<polygon fill="none" stroke="#000000" points="1288,-382.5 1288,-412.5 1559,-412.5 1559,-382.5 1288,-382.5"/>
<text text-anchor="start" x="1295" y="-393.9" font-family="Arial" font-size="14.00" fill="#000000">id_repositorio_destino </text>
<text text-anchor="start" x="1435.8106" y="-393.9" font-family="Arial" font-size="14.00" fill="#666666">[int(11)]</text>
<polygon fill="none" stroke="#000000" points="1288,-352.5 1288,-382.5 1559,-382.5 1559,-352.5 1288,-352.5"/>
<text text-anchor="start" x="1295" y="-363.9" font-family="Arial" font-size="14.00" fill="#000000">id_estrutura_destino </text>
<text text-anchor="start" x="1425.7054" y="-363.9" font-family="Arial" font-size="14.00" fill="#666666">[int(11)]</text>
<polygon fill="none" stroke="#000000" points="1288,-322.5 1288,-352.5 1559,-352.5 1559,-322.5 1288,-322.5"/>
<text text-anchor="start" x="1295" y="-333.9" font-family="Arial" font-size="14.00" fill="#000000">sta_tipo_tramite </text>
<text text-anchor="start" x="1398.4656" y="-333.9" font-family="Arial" font-size="14.00" fill="#666666">[char(1)]</text>
<polygon fill="none" stroke="#000000" points="1288,-292.5 1288,-322.5 1559,-322.5 1559,-292.5 1288,-292.5"/>
<text text-anchor="start" x="1295" y="-303.9" font-family="Arial" font-size="14.00" fill="#000000">ticket_envio_componentes </text>
<text text-anchor="start" x="1464.61" y="-303.9" font-family="Arial" font-size="14.00" fill="#666666">[varchar(10)]</text>
<polygon fill="none" stroke="#000000" stroke-width="3" points="1286,-291.5 1286,-689.5 1560,-689.5 1560,-291.5 1286,-291.5"/>
</g>
<!-- md_pen_processo_eletronico -->
<g id="node2" class="node">
<title>md_pen_processo_eletronico</title>
<polygon fill="#efefef" stroke="transparent" points="1711,-132.5 1711,-167.5 2088,-167.5 2088,-132.5 1711,-132.5"/>
<polygon fill="none" stroke="#000000" points="1711,-132.5 1711,-167.5 2088,-167.5 2088,-132.5 1711,-132.5"/>
<text text-anchor="start" x="1717.6828" y="-145.3" font-family="Arial Bold" font-size="18.00" fill="#000000">md_pen_processo_eletronico</text>
<text text-anchor="start" x="1953.7492" y="-145.3" font-family="Arial" font-size="14.00" fill="#000000">    </text>
<text text-anchor="start" x="1987.954" y="-145.3" font-family="Arial" font-size="14.00" fill="#666666">[BASE TABLE]</text>
<polygon fill="none" stroke="#000000" points="1711,-102.5 1711,-132.5 2088,-132.5 2088,-102.5 1711,-102.5"/>
<text text-anchor="start" x="1718" y="-113.9" font-family="Arial" font-size="14.00" fill="#000000">numero_registro    </text>
<text text-anchor="start" x="1854.1052" y="-113.9" font-family="Arial" font-size="14.00" fill="#666666">[char(16)]</text>
<polygon fill="none" stroke="#000000" points="1711,-72.5 1711,-102.5 2088,-102.5 2088,-72.5 1711,-72.5"/>
<text text-anchor="start" x="1718" y="-83.9" font-family="Arial" font-size="14.00" fill="#000000">id_procedimento    </text>
<text text-anchor="start" x="1855.6732" y="-83.9" font-family="Arial" font-size="14.00" fill="#666666">[bigint(20)]</text>
<polygon fill="none" stroke="#000000" points="1711,-42.5 1711,-72.5 2088,-72.5 2088,-42.5 1711,-42.5"/>
<text text-anchor="start" x="1718" y="-53.9" font-family="Arial" font-size="14.00" fill="#000000">sta_tipo_protocolo    </text>
<text text-anchor="start" x="1866.5764" y="-53.9" font-family="Arial" font-size="14.00" fill="#666666">[varchar(1)]</text>
</g>
<!-- md_pen_tramite&#45;&gt;md_pen_processo_eletronico -->
<g id="edge1" class="edge">
<title>md_pen_tramite:numero_registro&#45;&gt;md_pen_processo_eletronico:numero_registro</title>
<path fill="none" stroke="#000000" d="M1569.2177,-637.1685C1790.2494,-622.3772 1473.7448,-117.5 1711,-117.5"/>
<polygon fill="#000000" stroke="#000000" points="1568.9947,-637.1757 1558.8541,-633.0024 1563.9974,-637.3378 1559,-637.5 1559,-637.5 1559,-637.5 1563.9974,-637.3378 1559.1459,-641.9976 1568.9947,-637.1757 1568.9947,-637.1757"/>
</g>
<!-- md_pen_componente_digital -->
<g id="node3" class="node">
<title>md_pen_componente_digital</title>
<polygon fill="#efefef" stroke="transparent" points="1981,-1532.5 1981,-1567.5 2353,-1567.5 2353,-1532.5 1981,-1532.5"/>
<polygon fill="none" stroke="#000000" points="1981,-1532.5 1981,-1567.5 2353,-1567.5 2353,-1532.5 1981,-1532.5"/>
<text text-anchor="start" x="1987.6776" y="-1545.3" font-family="Arial Bold" font-size="18.00" fill="#000000">md_pen_componente_digital</text>
<text text-anchor="start" x="2218.7544" y="-1545.3" font-family="Arial" font-size="14.00" fill="#000000">    </text>
<text text-anchor="start" x="2252.9592" y="-1545.3" font-family="Arial" font-size="14.00" fill="#666666">[BASE TABLE]</text>
<polygon fill="none" stroke="#000000" points="1981,-1502.5 1981,-1532.5 2353,-1532.5 2353,-1502.5 1981,-1502.5"/>
<text text-anchor="start" x="1988" y="-1513.9" font-family="Arial" font-size="14.00" fill="#000000">numero_registro    </text>
<text text-anchor="start" x="2124.1052" y="-1513.9" font-family="Arial" font-size="14.00" fill="#666666">[char(16)]</text>
<polygon fill="none" stroke="#000000" points="1981,-1472.5 1981,-1502.5 2353,-1502.5 2353,-1472.5 1981,-1472.5"/>
<text text-anchor="start" x="1988" y="-1483.9" font-family="Arial" font-size="14.00" fill="#000000">id_procedimento    </text>
<text text-anchor="start" x="2125.6732" y="-1483.9" font-family="Arial" font-size="14.00" fill="#666666">[bigint(20)]</text>
<polygon fill="none" stroke="#000000" points="1981,-1442.5 1981,-1472.5 2353,-1472.5 2353,-1442.5 1981,-1442.5"/>
<text text-anchor="start" x="1988" y="-1453.9" font-family="Arial" font-size="14.00" fill="#000000">id_documento    </text>
<text text-anchor="start" x="2110.1234" y="-1453.9" font-family="Arial" font-size="14.00" fill="#666666">[bigint(20)]</text>
<polygon fill="none" stroke="#000000" points="1981,-1412.5 1981,-1442.5 2353,-1442.5 2353,-1412.5 1981,-1412.5"/>
<text text-anchor="start" x="1988" y="-1423.9" font-family="Arial" font-size="14.00" fill="#000000">id_tramite    </text>
<text text-anchor="start" x="2083.6508" y="-1423.9" font-family="Arial" font-size="14.00" fill="#666666">[bigint(20)]</text>
<polygon fill="none" stroke="#000000" points="1981,-1382.5 1981,-1412.5 2353,-1412.5 2353,-1382.5 1981,-1382.5"/>
<text text-anchor="start" x="1988" y="-1393.9" font-family="Arial" font-size="14.00" fill="#000000">id_anexo    </text>
<text text-anchor="start" x="2079.007" y="-1393.9" font-family="Arial" font-size="14.00" fill="#666666">[int(11)]</text>
<polygon fill="none" stroke="#000000" points="1981,-1352.5 1981,-1382.5 2353,-1382.5 2353,-1352.5 1981,-1352.5"/>
<text text-anchor="start" x="1988" y="-1363.9" font-family="Arial" font-size="14.00" fill="#000000">protocolo    </text>
<text text-anchor="start" x="2079.7756" y="-1363.9" font-family="Arial" font-size="14.00" fill="#666666">[varchar(50)]</text>
<polygon fill="none" stroke="#000000" points="1981,-1322.5 1981,-1352.5 2353,-1352.5 2353,-1322.5 1981,-1322.5"/>
<text text-anchor="start" x="1988" y="-1333.9" font-family="Arial" font-size="14.00" fill="#000000">nome    </text>
<text text-anchor="start" x="2057.2132" y="-1333.9" font-family="Arial" font-size="14.00" fill="#666666">[varchar(255)]</text>
<polygon fill="none" stroke="#000000" points="1981,-1292.5 1981,-1322.5 2353,-1322.5 2353,-1292.5 1981,-1292.5"/>
<text text-anchor="start" x="1988" y="-1303.9" font-family="Arial" font-size="14.00" fill="#000000">hash_conteudo    </text>
<text text-anchor="start" x="2117.9214" y="-1303.9" font-family="Arial" font-size="14.00" fill="#666666">[varchar(255)]</text>
<polygon fill="none" stroke="#000000" points="1981,-1262.5 1981,-1292.5 2353,-1292.5 2353,-1262.5 1981,-1262.5"/>
<text text-anchor="start" x="1988" y="-1273.9" font-family="Arial" font-size="14.00" fill="#000000">algoritmo_hash    </text>
<text text-anchor="start" x="2117.8906" y="-1273.9" font-family="Arial" font-size="14.00" fill="#666666">[varchar(20)]</text>
<polygon fill="none" stroke="#000000" points="1981,-1232.5 1981,-1262.5 2353,-1262.5 2353,-1232.5 1981,-1232.5"/>
<text text-anchor="start" x="1988" y="-1243.9" font-family="Arial" font-size="14.00" fill="#000000">tipo_conteudo    </text>
<text text-anchor="start" x="2110.136" y="-1243.9" font-family="Arial" font-size="14.00" fill="#666666">[char(3)]</text>
<polygon fill="none" stroke="#000000" points="1981,-1202.5 1981,-1232.5 2353,-1232.5 2353,-1202.5 1981,-1202.5"/>
<text text-anchor="start" x="1988" y="-1213.9" font-family="Arial" font-size="14.00" fill="#000000">mime_type    </text>
<text text-anchor="start" x="2090.6536" y="-1213.9" font-family="Arial" font-size="14.00" fill="#666666">[varchar(100)]</text>
<polygon fill="none" stroke="#000000" points="1981,-1172.5 1981,-1202.5 2353,-1202.5 2353,-1172.5 1981,-1172.5"/>
<text text-anchor="start" x="1988" y="-1183.9" font-family="Arial" font-size="14.00" fill="#000000">dados_complementares    </text>
<text text-anchor="start" x="2171.575" y="-1183.9" font-family="Arial" font-size="14.00" fill="#666666">[varchar(1000)]</text>
<polygon fill="none" stroke="#000000" points="1981,-1142.5 1981,-1172.5 2353,-1172.5 2353,-1142.5 1981,-1142.5"/>
<text text-anchor="start" x="1988" y="-1153.9" font-family="Arial" font-size="14.00" fill="#000000">tamanho    </text>
<text text-anchor="start" x="2076.669" y="-1153.9" font-family="Arial" font-size="14.00" fill="#666666">[bigint(20)]</text>
<polygon fill="none" stroke="#000000" points="1981,-1112.5 1981,-1142.5 2353,-1142.5 2353,-1112.5 1981,-1112.5"/>
<text text-anchor="start" x="1988" y="-1123.9" font-family="Arial" font-size="14.00" fill="#000000">ordem    </text>
<text text-anchor="start" x="2061.8738" y="-1123.9" font-family="Arial" font-size="14.00" fill="#666666">[int(11)]</text>
<polygon fill="none" stroke="#000000" points="1981,-1082.5 1981,-1112.5 2353,-1112.5 2353,-1082.5 1981,-1082.5"/>
<text text-anchor="start" x="1988" y="-1093.9" font-family="Arial" font-size="14.00" fill="#000000">sin_enviar    </text>
<text text-anchor="start" x="2085.9916" y="-1093.9" font-family="Arial" font-size="14.00" fill="#666666">[char(1)]</text>
<polygon fill="none" stroke="#000000" points="1981,-1052.5 1981,-1082.5 2353,-1082.5 2353,-1052.5 1981,-1052.5"/>
<text text-anchor="start" x="1988" y="-1063.9" font-family="Arial" font-size="14.00" fill="#000000">codigo_especie    </text>
<text text-anchor="start" x="2119.4614" y="-1063.9" font-family="Arial" font-size="14.00" fill="#666666">[int(11)]</text>
<polygon fill="none" stroke="#000000" points="1981,-1022.5 1981,-1052.5 2353,-1052.5 2353,-1022.5 1981,-1022.5"/>
<text text-anchor="start" x="1988" y="-1033.9" font-family="Arial" font-size="14.00" fill="#000000">nome_especie_produtor    </text>
<text text-anchor="start" x="2173.1402" y="-1033.9" font-family="Arial" font-size="14.00" fill="#666666">[varchar(255)]</text>
<polygon fill="none" stroke="#000000" points="1981,-992.5 1981,-1022.5 2353,-1022.5 2353,-992.5 1981,-992.5"/>
<text text-anchor="start" x="1988" y="-1003.9" font-family="Arial" font-size="14.00" fill="#000000">ordem_documento    </text>
<text text-anchor="start" x="2138.9032" y="-1003.9" font-family="Arial" font-size="14.00" fill="#666666">[int(11)]</text>
<polygon fill="none" stroke="#000000" points="1981,-962.5 1981,-992.5 2353,-992.5 2353,-962.5 1981,-962.5"/>
<text text-anchor="start" x="1988" y="-973.9" font-family="Arial" font-size="14.00" fill="#000000">id_procedimento_anexado    </text>
<text text-anchor="start" x="2187.1514" y="-973.9" font-family="Arial" font-size="14.00" fill="#666666">[bigint(20)]</text>
<polygon fill="none" stroke="#000000" points="1981,-932.5 1981,-962.5 2353,-962.5 2353,-932.5 1981,-932.5"/>
<text text-anchor="start" x="1988" y="-943.9" font-family="Arial" font-size="14.00" fill="#000000">protocolo_procedimento_anexado    </text>
<text text-anchor="start" x="2233.833" y="-943.9" font-family="Arial" font-size="14.00" fill="#666666">[varchar(50)]</text>
<polygon fill="none" stroke="#000000" points="1981,-902.5 1981,-932.5 2353,-932.5 2353,-902.5 1981,-902.5"/>
<text text-anchor="start" x="1988" y="-913.9" font-family="Arial" font-size="14.00" fill="#000000">ordem_documento_anexado    </text>
<text text-anchor="start" x="2200.3814" y="-913.9" font-family="Arial" font-size="14.00" fill="#666666">[int(11)]</text>
<polygon fill="none" stroke="#000000" points="1981,-872.5 1981,-902.5 2353,-902.5 2353,-872.5 1981,-872.5"/>
<text text-anchor="start" x="1988" y="-883.9" font-family="Arial" font-size="14.00" fill="#000000">ordem_documento_referenciado    </text>
<text text-anchor="start" x="2224.4824" y="-883.9" font-family="Arial" font-size="14.00" fill="#666666">[int(11)]</text>
<polygon fill="none" stroke="#000000" points="1981,-842.5 1981,-872.5 2353,-872.5 2353,-842.5 1981,-842.5"/>
<text text-anchor="start" x="1988" y="-853.9" font-family="Arial" font-size="14.00" fill="#000000">id_anexo_imutavel    </text>
<text text-anchor="start" x="2138.9018" y="-853.9" font-family="Arial" font-size="14.00" fill="#666666">[bigint(20)]</text>
<polygon fill="none" stroke="#000000" points="1981,-812.5 1981,-842.5 2353,-842.5 2353,-812.5 1981,-812.5"/>
<text text-anchor="start" x="1988" y="-823.9" font-family="Arial" font-size="14.00" fill="#000000">tarja_legada    </text>
<text text-anchor="start" x="2099.23" y="-823.9" font-family="Arial" font-size="14.00" fill="#666666">[char(1)]</text>
</g>
<!-- md_pen_componente_digital&#45;&gt;md_pen_tramite -->
<g id="edge4" class="edge">
<title>md_pen_componente_digital:numero_registro&#45;&gt;md_pen_tramite:numero_registro</title>
<path fill="none" stroke="#000000" d="M1971.5667,-1514.1519C1904.2093,-1462.6603 1977.2035,-833.6481 1929,-770 1902.636,-735.1889 1602.6677,-637.5 1559,-637.5"/>
<polygon fill="#000000" stroke="#000000" points="1971.576,-1514.1551 1979.4948,-1521.7408 1976.288,-1515.8275 1981,-1517.5 1981,-1517.5 1981,-1517.5 1976.288,-1515.8275 1982.5052,-1513.2592 1971.576,-1514.1551 1971.576,-1514.1551"/>
</g>
<!-- md_pen_componente_digital&#45;&gt;md_pen_processo_eletronico -->
<g id="edge2" class="edge">
<title>md_pen_componente_digital:numero_registro&#45;&gt;md_pen_processo_eletronico:numero_registro</title>
<path fill="none" stroke="#000000" d="M1971.3917,-1514.2278C1901.3645,-1463.894 1942.5235,-848.6878 1929,-770 1926.1873,-753.6341 1921.2428,-750.4537 1919,-734 1889.7671,-519.5387 1782.8242,-415.239 1919,-247 1967.3163,-187.3074 2039.6837,-270.6926 2088,-211 2114.1446,-178.6995 2129.5556,-117.5 2088,-117.5"/>
<polygon fill="#000000" stroke="#000000" points="1971.5339,-1514.2761 1979.5493,-1521.7597 1976.2669,-1515.8881 1981,-1517.5 1981,-1517.5 1981,-1517.5 1976.2669,-1515.8881 1982.4507,-1513.2403 1971.5339,-1514.2761 1971.5339,-1514.2761"/>
</g>
<!-- md_pen_rel_processo_apensado -->
<g id="node4" class="node">
<title>md_pen_rel_processo_apensado</title>
<polygon fill="#efefef" stroke="transparent" points="1971,-517.5 1971,-552.5 2379,-552.5 2379,-517.5 1971,-517.5"/>
<polygon fill="none" stroke="#000000" points="1971,-517.5 1971,-552.5 2379,-552.5 2379,-517.5 1971,-517.5"/>
<text text-anchor="start" x="1977.6686" y="-530.3" font-family="Arial Bold" font-size="18.00" fill="#000000">md_pen_rel_processo_apensado</text>
<text text-anchor="start" x="2244.7634" y="-530.3" font-family="Arial" font-size="14.00" fill="#000000">    </text>
<text text-anchor="start" x="2278.9682" y="-530.3" font-family="Arial" font-size="14.00" fill="#666666">[BASE TABLE]</text>
<polygon fill="none" stroke="#000000" points="1971,-487.5 1971,-517.5 2379,-517.5 2379,-487.5 1971,-487.5"/>
<text text-anchor="start" x="1978" y="-498.9" font-family="Arial" font-size="14.00" fill="#000000">numero_registro    </text>
<text text-anchor="start" x="2114.1052" y="-498.9" font-family="Arial" font-size="14.00" fill="#666666">[char(16)]</text>
<polygon fill="none" stroke="#000000" points="1971,-457.5 1971,-487.5 2379,-487.5 2379,-457.5 1971,-457.5"/>
<text text-anchor="start" x="1978" y="-468.9" font-family="Arial" font-size="14.00" fill="#000000">id_procedimento_apensado    </text>
<text text-anchor="start" x="2184.934" y="-468.9" font-family="Arial" font-size="14.00" fill="#666666">[bigint(20)]</text>
<polygon fill="none" stroke="#000000" points="1971,-427.5 1971,-457.5 2379,-457.5 2379,-427.5 1971,-427.5"/>
<text text-anchor="start" x="1978" y="-438.9" font-family="Arial" font-size="14.00" fill="#000000">protocolo    </text>
<text text-anchor="start" x="2069.7756" y="-438.9" font-family="Arial" font-size="14.00" fill="#666666">[varchar(50)]</text>
</g>
<!-- md_pen_rel_processo_apensado&#45;&gt;md_pen_processo_eletronico -->
<g id="edge3" class="edge">
<title>md_pen_rel_processo_apensado:numero_registro&#45;&gt;md_pen_processo_eletronico:numero_registro</title>
<path fill="none" stroke="#000000" d="M1960.8013,-501.4186C1924.1486,-492.5702 1956.8982,-431.244 1971,-385 1998.182,-295.862 2060.818,-300.138 2088,-211 2100.121,-171.2515 2129.5556,-117.5 2088,-117.5"/>
<polygon fill="#000000" stroke="#000000" points="1961.0557,-501.4454 1970.5255,-506.9749 1966.0279,-501.9727 1971,-502.5 1971,-502.5 1971,-502.5 1966.0279,-501.9727 1971.4745,-498.0251 1961.0557,-501.4454 1961.0557,-501.4454"/>
</g>
<!-- md_pen_recibo_tramite -->
<g id="node5" class="node">
<title>md_pen_recibo_tramite</title>
<polygon fill="#efefef" stroke="transparent" points="43,-1247.5 43,-1282.5 373,-1282.5 373,-1247.5 43,-1247.5"/>
<polygon fill="none" stroke="#000000" points="43,-1247.5 43,-1282.5 373,-1282.5 373,-1247.5 43,-1247.5"/>
<text text-anchor="start" x="49.698" y="-1260.3" font-family="Arial Bold" font-size="18.00" fill="#000000">md_pen_recibo_tramite</text>
<text text-anchor="start" x="238.734" y="-1260.3" font-family="Arial" font-size="14.00" fill="#000000">    </text>
<text text-anchor="start" x="272.9388" y="-1260.3" font-family="Arial" font-size="14.00" fill="#666666">[BASE TABLE]</text>
<polygon fill="none" stroke="#000000" points="43,-1217.5 43,-1247.5 373,-1247.5 373,-1217.5 43,-1217.5"/>
<text text-anchor="start" x="50" y="-1228.9" font-family="Arial" font-size="14.00" fill="#000000">numero_registro    </text>
<text text-anchor="start" x="186.1052" y="-1228.9" font-family="Arial" font-size="14.00" fill="#666666">[char(16)]</text>
<polygon fill="none" stroke="#000000" points="43,-1187.5 43,-1217.5 373,-1217.5 373,-1187.5 43,-1187.5"/>
<text text-anchor="start" x="50" y="-1198.9" font-family="Arial" font-size="14.00" fill="#000000">id_tramite    </text>
<text text-anchor="start" x="145.6508" y="-1198.9" font-family="Arial" font-size="14.00" fill="#666666">[bigint(20)]</text>
<polygon fill="none" stroke="#000000" points="43,-1157.5 43,-1187.5 373,-1187.5 373,-1157.5 43,-1157.5"/>
<text text-anchor="start" x="50" y="-1168.9" font-family="Arial" font-size="14.00" fill="#000000">dth_recebimento    </text>
<text text-anchor="start" x="188.4572" y="-1168.9" font-family="Arial" font-size="14.00" fill="#666666">[datetime]</text>
<polygon fill="none" stroke="#000000" points="43,-1127.5 43,-1157.5 373,-1157.5 373,-1127.5 43,-1127.5"/>
<text text-anchor="start" x="50" y="-1138.9" font-family="Arial" font-size="14.00" fill="#000000">hash_assinatura    </text>
<text text-anchor="start" x="186.906" y="-1138.9" font-family="Arial" font-size="14.00" fill="#666666">[varchar(1000)]</text>
<polygon fill="none" stroke="#000000" points="43,-1097.5 43,-1127.5 373,-1127.5 373,-1097.5 43,-1097.5"/>
<text text-anchor="start" x="50" y="-1108.9" font-family="Arial" font-size="14.00" fill="#000000">cadeia_certificado    </text>
<text text-anchor="start" x="197.0098" y="-1108.9" font-family="Arial" font-size="14.00" fill="#666666">[longtext]</text>
</g>
<!-- md_pen_recibo_tramite&#45;&gt;md_pen_tramite -->
<g id="edge5" class="edge">
<title>md_pen_recibo_tramite:numero_registro&#45;&gt;md_pen_tramite:numero_registro</title>
<path fill="none" stroke="#000000" d="M383.0866,-1231.0922C468.0129,-1205.6126 355.8773,-841.9719 425,-770 492.1992,-700.0308 1190.9875,-637.5 1288,-637.5"/>
<polygon fill="#000000" stroke="#000000" points="382.904,-1231.1176 372.3779,-1228.0432 377.952,-1231.8088 373,-1232.5 373,-1232.5 373,-1232.5 377.952,-1231.8088 373.6221,-1236.9568 382.904,-1231.1176 382.904,-1231.1176"/>
</g>
<!-- md_pen_recibo_tramite_enviado -->
<g id="node6" class="node">
<title>md_pen_recibo_tramite_enviado</title>
<polygon fill="#efefef" stroke="transparent" points="478,-1247.5 478,-1282.5 881,-1282.5 881,-1247.5 478,-1247.5"/>
<polygon fill="none" stroke="#000000" points="478,-1247.5 478,-1282.5 881,-1282.5 881,-1247.5 478,-1247.5"/>
<text text-anchor="start" x="484.6823" y="-1260.3" font-family="Arial Bold" font-size="18.00" fill="#000000">md_pen_recibo_tramite_enviado</text>
<text text-anchor="start" x="746.7497" y="-1260.3" font-family="Arial" font-size="14.00" fill="#000000">    </text>
<text text-anchor="start" x="780.9545" y="-1260.3" font-family="Arial" font-size="14.00" fill="#666666">[BASE TABLE]</text>
<polygon fill="none" stroke="#000000" points="478,-1217.5 478,-1247.5 881,-1247.5 881,-1217.5 478,-1217.5"/>
<text text-anchor="start" x="485" y="-1228.9" font-family="Arial" font-size="14.00" fill="#000000">numero_registro    </text>
<text text-anchor="start" x="621.1052" y="-1228.9" font-family="Arial" font-size="14.00" fill="#666666">[char(16)]</text>
<polygon fill="none" stroke="#000000" points="478,-1187.5 478,-1217.5 881,-1217.5 881,-1187.5 478,-1187.5"/>
<text text-anchor="start" x="485" y="-1198.9" font-family="Arial" font-size="14.00" fill="#000000">id_tramite    </text>
<text text-anchor="start" x="580.6508" y="-1198.9" font-family="Arial" font-size="14.00" fill="#666666">[bigint(20)]</text>
<polygon fill="none" stroke="#000000" points="478,-1157.5 478,-1187.5 881,-1187.5 881,-1157.5 478,-1157.5"/>
<text text-anchor="start" x="485" y="-1168.9" font-family="Arial" font-size="14.00" fill="#000000">dth_recebimento    </text>
<text text-anchor="start" x="623.4572" y="-1168.9" font-family="Arial" font-size="14.00" fill="#666666">[datetime]</text>
<polygon fill="none" stroke="#000000" points="478,-1127.5 478,-1157.5 881,-1157.5 881,-1127.5 478,-1127.5"/>
<text text-anchor="start" x="485" y="-1138.9" font-family="Arial" font-size="14.00" fill="#000000">hash_assinatura    </text>
<text text-anchor="start" x="621.906" y="-1138.9" font-family="Arial" font-size="14.00" fill="#666666">[varchar(1000)]</text>
<polygon fill="none" stroke="#000000" points="478,-1097.5 478,-1127.5 881,-1127.5 881,-1097.5 478,-1097.5"/>
<text text-anchor="start" x="485" y="-1108.9" font-family="Arial" font-size="14.00" fill="#000000">cadeia_certificado    </text>
<text text-anchor="start" x="632.0098" y="-1108.9" font-family="Arial" font-size="14.00" fill="#666666">[longtext]</text>
</g>
<!-- md_pen_recibo_tramite_enviado&#45;&gt;md_pen_tramite -->
<g id="edge6" class="edge">
<title>md_pen_recibo_tramite_enviado:numero_registro&#45;&gt;md_pen_tramite:numero_registro</title>
<path fill="none" stroke="#000000" d="M891.1095,-1231.117C976.4683,-1206.0844 870.6621,-848.6818 932,-770 983.8988,-703.4263 1203.5871,-637.5 1288,-637.5"/>
<polygon fill="#000000" stroke="#000000" points="890.9077,-1231.1446 880.39,-1228.0415 885.9539,-1231.8223 881,-1232.5 881,-1232.5 881,-1232.5 885.9539,-1231.8223 881.61,-1236.9585 890.9077,-1231.1446 890.9077,-1231.1446"/>
</g>
<!-- md_pen_recibo_tramite_hash -->
<g id="node7" class="node">
<title>md_pen_recibo_tramite_hash</title>
<polygon fill="#efefef" stroke="transparent" points="985,-1247.5 985,-1282.5 1364,-1282.5 1364,-1247.5 985,-1247.5"/>
<polygon fill="none" stroke="#000000" points="985,-1247.5 985,-1282.5 1364,-1282.5 1364,-1247.5 985,-1247.5"/>
<text text-anchor="start" x="991.6856" y="-1260.3" font-family="Arial Bold" font-size="18.00" fill="#000000">md_pen_recibo_tramite_hash</text>
<text text-anchor="start" x="1229.7464" y="-1260.3" font-family="Arial" font-size="14.00" fill="#000000">    </text>
<text text-anchor="start" x="1263.9512" y="-1260.3" font-family="Arial" font-size="14.00" fill="#666666">[BASE TABLE]</text>
<polygon fill="none" stroke="#000000" points="985,-1217.5 985,-1247.5 1364,-1247.5 1364,-1217.5 985,-1217.5"/>
<text text-anchor="start" x="992" y="-1228.9" font-family="Arial" font-size="14.00" fill="#000000">id_tramite_hash    </text>
<text text-anchor="start" x="1125.7812" y="-1228.9" font-family="Arial" font-size="14.00" fill="#666666">[bigint(20)]</text>
<polygon fill="none" stroke="#000000" points="985,-1187.5 985,-1217.5 1364,-1217.5 1364,-1187.5 985,-1187.5"/>
<text text-anchor="start" x="992" y="-1198.9" font-family="Arial" font-size="14.00" fill="#000000">numero_registro    </text>
<text text-anchor="start" x="1128.1052" y="-1198.9" font-family="Arial" font-size="14.00" fill="#666666">[char(16)]</text>
<polygon fill="none" stroke="#000000" points="985,-1157.5 985,-1187.5 1364,-1187.5 1364,-1157.5 985,-1157.5"/>
<text text-anchor="start" x="992" y="-1168.9" font-family="Arial" font-size="14.00" fill="#000000">id_tramite    </text>
<text text-anchor="start" x="1087.6508" y="-1168.9" font-family="Arial" font-size="14.00" fill="#666666">[bigint(20)]</text>
<polygon fill="none" stroke="#000000" points="985,-1127.5 985,-1157.5 1364,-1157.5 1364,-1127.5 985,-1127.5"/>
<text text-anchor="start" x="992" y="-1138.9" font-family="Arial" font-size="14.00" fill="#000000">tipo_recibo    </text>
<text text-anchor="start" x="1094.6648" y="-1138.9" font-family="Arial" font-size="14.00" fill="#666666">[char(1)]</text>
<polygon fill="none" stroke="#000000" points="985,-1097.5 985,-1127.5 1364,-1127.5 1364,-1097.5 985,-1097.5"/>
<text text-anchor="start" x="992" y="-1108.9" font-family="Arial" font-size="14.00" fill="#000000">hash_componente_digital    </text>
<text text-anchor="start" x="1185.7054" y="-1108.9" font-family="Arial" font-size="14.00" fill="#666666">[varchar(255)]</text>
</g>
<!-- md_pen_recibo_tramite_hash&#45;&gt;md_pen_tramite -->
<g id="edge7" class="edge">
<title>md_pen_recibo_tramite_hash:numero_registro&#45;&gt;md_pen_tramite:numero_registro</title>
<path fill="none" stroke="#000000" d="M1373.9832,-1201.0736C1471.7786,-1169.8795 1165.0252,-637.5 1288,-637.5"/>
<polygon fill="#000000" stroke="#000000" points="1373.8995,-1201.0855 1363.3635,-1198.0452 1368.9497,-1201.7927 1364,-1202.5 1364,-1202.5 1364,-1202.5 1368.9497,-1201.7927 1364.6365,-1206.9548 1373.8995,-1201.0855 1373.8995,-1201.0855"/>
</g>
<!-- md_pen_recibo_tramite_recebido -->
<g id="node8" class="node">
<title>md_pen_recibo_tramite_recebido</title>
<polygon fill="#efefef" stroke="transparent" points="1468,-1247.5 1468,-1282.5 1877,-1282.5 1877,-1247.5 1468,-1247.5"/>
<polygon fill="none" stroke="#000000" points="1468,-1247.5 1468,-1282.5 1877,-1282.5 1877,-1247.5 1468,-1247.5"/>
<text text-anchor="start" x="1474.6862" y="-1260.3" font-family="Arial Bold" font-size="18.00" fill="#000000">md_pen_recibo_tramite_recebido</text>
<text text-anchor="start" x="1742.7458" y="-1260.3" font-family="Arial" font-size="14.00" fill="#000000">    </text>
<text text-anchor="start" x="1776.9506" y="-1260.3" font-family="Arial" font-size="14.00" fill="#666666">[BASE TABLE]</text>
<polygon fill="none" stroke="#000000" points="1468,-1217.5 1468,-1247.5 1877,-1247.5 1877,-1217.5 1468,-1217.5"/>
<text text-anchor="start" x="1475" y="-1228.9" font-family="Arial" font-size="14.00" fill="#000000">numero_registro    </text>
<text text-anchor="start" x="1611.1052" y="-1228.9" font-family="Arial" font-size="14.00" fill="#666666">[char(16)]</text>
<polygon fill="none" stroke="#000000" points="1468,-1187.5 1468,-1217.5 1877,-1217.5 1877,-1187.5 1468,-1187.5"/>
<text text-anchor="start" x="1475" y="-1198.9" font-family="Arial" font-size="14.00" fill="#000000">id_tramite    </text>
<text text-anchor="start" x="1570.6508" y="-1198.9" font-family="Arial" font-size="14.00" fill="#666666">[bigint(20)]</text>
<polygon fill="none" stroke="#000000" points="1468,-1157.5 1468,-1187.5 1877,-1187.5 1877,-1157.5 1468,-1157.5"/>
<text text-anchor="start" x="1475" y="-1168.9" font-family="Arial" font-size="14.00" fill="#000000">dth_recebimento    </text>
<text text-anchor="start" x="1613.4572" y="-1168.9" font-family="Arial" font-size="14.00" fill="#666666">[datetime]</text>
<polygon fill="none" stroke="#000000" points="1468,-1127.5 1468,-1157.5 1877,-1157.5 1877,-1127.5 1468,-1127.5"/>
<text text-anchor="start" x="1475" y="-1138.9" font-family="Arial" font-size="14.00" fill="#000000">hash_assinatura    </text>
<text text-anchor="start" x="1611.906" y="-1138.9" font-family="Arial" font-size="14.00" fill="#666666">[varchar(1000)]</text>
<polygon fill="none" stroke="#000000" points="1468,-1097.5 1468,-1127.5 1877,-1127.5 1877,-1097.5 1468,-1097.5"/>
<text text-anchor="start" x="1475" y="-1108.9" font-family="Arial" font-size="14.00" fill="#000000">cadeia_certificado    </text>
<text text-anchor="start" x="1622.0098" y="-1108.9" font-family="Arial" font-size="14.00" fill="#666666">[longtext]</text>
</g>
<!-- md_pen_recibo_tramite_recebido&#45;&gt;md_pen_tramite -->
<g id="edge8" class="edge">
<title>md_pen_recibo_tramite_recebido:numero_registro&#45;&gt;md_pen_tramite:numero_registro</title>
<path fill="none" stroke="#000000" d="M1457.8537,-1231.8574C1395.3631,-1223.2314 1457.6476,-1129.4749 1468,-1055 1488.4167,-908.1236 1538.5833,-880.8764 1559,-734 1564.905,-691.5196 1601.8889,-637.5 1559,-637.5"/>
<polygon fill="#000000" stroke="#000000" points="1458.02,-1231.8679 1467.7155,-1236.991 1463.01,-1232.1839 1468,-1232.5 1468,-1232.5 1468,-1232.5 1463.01,-1232.1839 1468.2845,-1228.009 1458.02,-1231.8679 1458.02,-1231.8679"/>
</g>
</g>
</svg>
