<?xml version="1.0" encoding="UTF-8" standalone="no"?>
<!DOCTYPE svg PUBLIC "-//W3C//DTD SVG 1.1//EN"
 "http://www.w3.org/Graphics/SVG/1.1/DTD/svg11.dtd">
<!-- Generated by graphviz version 2.40.1 (20161225.0304)
 -->
<!-- Title: md_pen_recibo_tramite_enviado Pages: 1 -->
<svg width="2410pt" height="1613pt"
 viewBox="0.00 0.00 2410.00 1613.00" xmlns="http://www.w3.org/2000/svg" xmlns:xlink="http://www.w3.org/1999/xlink">
<g id="graph0" class="graph" transform="scale(1 1) rotate(0) translate(4 1609)">
<title>md_pen_recibo_tramite_enviado</title>
<polygon fill="#ffffff" stroke="transparent" points="-4,4 -4,-1609 2406,-1609 2406,4 -4,4"/>
<!-- md_pen_recibo_tramite_enviado -->
<g id="node1" class="node">
<title>md_pen_recibo_tramite_enviado</title>
<polygon fill="#efefef" stroke="transparent" points="46.5,-1241.5 46.5,-1276.5 449.5,-1276.5 449.5,-1241.5 46.5,-1241.5"/>
<polygon fill="none" stroke="#000000" points="46.5,-1241.5 46.5,-1276.5 449.5,-1276.5 449.5,-1241.5 46.5,-1241.5"/>
<text text-anchor="start" x="53.1823" y="-1254.3" font-family="Arial Bold" font-size="18.00" fill="#000000">md_pen_recibo_tramite_enviado</text>
<text text-anchor="start" x="315.2497" y="-1254.3" font-family="Arial" font-size="14.00" fill="#000000">    </text>
<text text-anchor="start" x="349.4545" y="-1254.3" font-family="Arial" font-size="14.00" fill="#666666">[BASE TABLE]</text>
<polygon fill="none" stroke="#000000" points="46.5,-1211.5 46.5,-1241.5 449.5,-1241.5 449.5,-1211.5 46.5,-1211.5"/>
<text text-anchor="start" x="53.5" y="-1222.9" font-family="Arial" font-size="14.00" fill="#000000">numero_registro </text>
<text text-anchor="start" x="159.291" y="-1222.9" font-family="Arial" font-size="14.00" fill="#666666">[char(16)]</text>
<polygon fill="none" stroke="#000000" points="46.5,-1181.5 46.5,-1211.5 449.5,-1211.5 449.5,-1181.5 46.5,-1181.5"/>
<text text-anchor="start" x="53.5" y="-1192.9" font-family="Arial" font-size="14.00" fill="#000000">id_tramite </text>
<text text-anchor="start" x="118.8366" y="-1192.9" font-family="Arial" font-size="14.00" fill="#666666">[bigint(20)]</text>
<polygon fill="none" stroke="#000000" points="46.5,-1151.5 46.5,-1181.5 449.5,-1181.5 449.5,-1151.5 46.5,-1151.5"/>
<text text-anchor="start" x="53.5" y="-1162.9" font-family="Arial" font-size="14.00" fill="#000000">dth_recebimento </text>
<text text-anchor="start" x="161.643" y="-1162.9" font-family="Arial" font-size="14.00" fill="#666666">[datetime]</text>
<polygon fill="none" stroke="#000000" points="46.5,-1121.5 46.5,-1151.5 449.5,-1151.5 449.5,-1121.5 46.5,-1121.5"/>
<text text-anchor="start" x="53.5" y="-1132.9" font-family="Arial" font-size="14.00" fill="#000000">hash_assinatura </text>
<text text-anchor="start" x="160.0918" y="-1132.9" font-family="Arial" font-size="14.00" fill="#666666">[varchar(1000)]</text>
<polygon fill="none" stroke="#000000" points="46.5,-1091.5 46.5,-1121.5 449.5,-1121.5 449.5,-1091.5 46.5,-1091.5"/>
<text text-anchor="start" x="53.5" y="-1102.9" font-family="Arial" font-size="14.00" fill="#000000">cadeia_certificado </text>
<text text-anchor="start" x="170.1956" y="-1102.9" font-family="Arial" font-size="14.00" fill="#666666">[longtext]</text>
<polygon fill="none" stroke="#000000" stroke-width="3" points="44.5,-1090.5 44.5,-1278.5 450.5,-1278.5 450.5,-1090.5 44.5,-1090.5"/>
</g>
<!-- md_pen_tramite -->
<g id="node2" class="node">
<title>md_pen_tramite</title>
<polygon fill="#efefef" stroke="transparent" points="1050.5,-649.5 1050.5,-684.5 1343.5,-684.5 1343.5,-649.5 1050.5,-649.5"/>
<polygon fill="none" stroke="#000000" points="1050.5,-649.5 1050.5,-684.5 1343.5,-684.5 1343.5,-649.5 1050.5,-649.5"/>
<text text-anchor="start" x="1068.2036" y="-662.3" font-family="Arial Bold" font-size="18.00" fill="#000000">md_pen_tramite</text>
<text text-anchor="start" x="1198.2284" y="-662.3" font-family="Arial" font-size="14.00" fill="#000000">    </text>
<text text-anchor="start" x="1232.4332" y="-662.3" font-family="Arial" font-size="14.00" fill="#666666">[BASE TABLE]</text>
<polygon fill="none" stroke="#000000" points="1050.5,-619.5 1050.5,-649.5 1343.5,-649.5 1343.5,-619.5 1050.5,-619.5"/>
<text text-anchor="start" x="1057.5" y="-630.9" font-family="Arial" font-size="14.00" fill="#000000">numero_registro    </text>
<text text-anchor="start" x="1193.6052" y="-630.9" font-family="Arial" font-size="14.00" fill="#666666">[char(16)]</text>
<polygon fill="none" stroke="#000000" points="1050.5,-589.5 1050.5,-619.5 1343.5,-619.5 1343.5,-589.5 1050.5,-589.5"/>
<text text-anchor="start" x="1057.5" y="-600.9" font-family="Arial" font-size="14.00" fill="#000000">id_tramite    </text>
<text text-anchor="start" x="1153.1508" y="-600.9" font-family="Arial" font-size="14.00" fill="#666666">[bigint(20)]</text>
<polygon fill="none" stroke="#000000" points="1050.5,-559.5 1050.5,-589.5 1343.5,-589.5 1343.5,-559.5 1050.5,-559.5"/>
<text text-anchor="start" x="1057.5" y="-570.9" font-family="Arial" font-size="14.00" fill="#000000">dth_registro    </text>
<text text-anchor="start" x="1165.6094" y="-570.9" font-family="Arial" font-size="14.00" fill="#666666">[datetime]</text>
<polygon fill="none" stroke="#000000" points="1050.5,-529.5 1050.5,-559.5 1343.5,-559.5 1343.5,-529.5 1050.5,-529.5"/>
<text text-anchor="start" x="1057.5" y="-540.9" font-family="Arial" font-size="14.00" fill="#000000">id_andamento    </text>
<text text-anchor="start" x="1180.406" y="-540.9" font-family="Arial" font-size="14.00" fill="#666666">[int(11)]</text>
<polygon fill="none" stroke="#000000" points="1050.5,-499.5 1050.5,-529.5 1343.5,-529.5 1343.5,-499.5 1050.5,-499.5"/>
<text text-anchor="start" x="1057.5" y="-510.9" font-family="Arial" font-size="14.00" fill="#000000">id_usuario    </text>
<text text-anchor="start" x="1156.2742" y="-510.9" font-family="Arial" font-size="14.00" fill="#666666">[int(11)]</text>
<polygon fill="none" stroke="#000000" points="1050.5,-469.5 1050.5,-499.5 1343.5,-499.5 1343.5,-469.5 1050.5,-469.5"/>
<text text-anchor="start" x="1057.5" y="-480.9" font-family="Arial" font-size="14.00" fill="#000000">id_unidade    </text>
<text text-anchor="start" x="1160.1788" y="-480.9" font-family="Arial" font-size="14.00" fill="#666666">[int(11)]</text>
<polygon fill="none" stroke="#000000" points="1050.5,-439.5 1050.5,-469.5 1343.5,-469.5 1343.5,-439.5 1050.5,-439.5"/>
<text text-anchor="start" x="1057.5" y="-450.9" font-family="Arial" font-size="14.00" fill="#000000">id_repositorio_origem    </text>
<text text-anchor="start" x="1226.2728" y="-450.9" font-family="Arial" font-size="14.00" fill="#666666">[int(11)]</text>
<polygon fill="none" stroke="#000000" points="1050.5,-409.5 1050.5,-439.5 1343.5,-439.5 1343.5,-409.5 1050.5,-409.5"/>
<text text-anchor="start" x="1057.5" y="-420.9" font-family="Arial" font-size="14.00" fill="#000000">id_estrutura_origem    </text>
<text text-anchor="start" x="1216.1676" y="-420.9" font-family="Arial" font-size="14.00" fill="#666666">[int(11)]</text>
<polygon fill="none" stroke="#000000" points="1050.5,-379.5 1050.5,-409.5 1343.5,-409.5 1343.5,-379.5 1050.5,-379.5"/>
<text text-anchor="start" x="1057.5" y="-390.9" font-family="Arial" font-size="14.00" fill="#000000">id_repositorio_destino    </text>
<text text-anchor="start" x="1228.6248" y="-390.9" font-family="Arial" font-size="14.00" fill="#666666">[int(11)]</text>
<polygon fill="none" stroke="#000000" points="1050.5,-349.5 1050.5,-379.5 1343.5,-379.5 1343.5,-349.5 1050.5,-349.5"/>
<text text-anchor="start" x="1057.5" y="-360.9" font-family="Arial" font-size="14.00" fill="#000000">id_estrutura_destino    </text>
<text text-anchor="start" x="1218.5196" y="-360.9" font-family="Arial" font-size="14.00" fill="#666666">[int(11)]</text>
<polygon fill="none" stroke="#000000" points="1050.5,-319.5 1050.5,-349.5 1343.5,-349.5 1343.5,-319.5 1050.5,-319.5"/>
<text text-anchor="start" x="1057.5" y="-330.9" font-family="Arial" font-size="14.00" fill="#000000">sta_tipo_tramite    </text>
<text text-anchor="start" x="1191.2798" y="-330.9" font-family="Arial" font-size="14.00" fill="#666666">[char(1)]</text>
<polygon fill="none" stroke="#000000" points="1050.5,-289.5 1050.5,-319.5 1343.5,-319.5 1343.5,-289.5 1050.5,-289.5"/>
<text text-anchor="start" x="1057.3696" y="-300.9" font-family="Arial" font-size="14.00" fill="#000000">ticket_envio_componentes    </text>
<text text-anchor="start" x="1257.2938" y="-300.9" font-family="Arial" font-size="14.00" fill="#666666">[varchar(10)]</text>
</g>
<!-- md_pen_recibo_tramite_enviado&#45;&gt;md_pen_tramite -->
<g id="edge1" class="edge">
<title>md_pen_recibo_tramite_enviado:numero_registro&#45;&gt;md_pen_tramite:numero_registro</title>
<path fill="none" stroke="#000000" d="M459.6149,-1225.1017C544.9788,-1199.7931 438.0427,-838.5391 504.5,-764 587.4854,-670.9228 925.8006,-634.5 1050.5,-634.5"/>
<polygon fill="#000000" stroke="#000000" points="459.4058,-1225.1305 448.8837,-1222.0424 454.4529,-1225.8153 449.5,-1226.5 449.5,-1226.5 449.5,-1226.5 454.4529,-1225.8153 450.1163,-1230.9576 459.4058,-1225.1305 459.4058,-1225.1305"/>
</g>
<!-- md_pen_processo_eletronico -->
<g id="node3" class="node">
<title>md_pen_processo_eletronico</title>
<polygon fill="#efefef" stroke="transparent" points="1008.5,-132.5 1008.5,-167.5 1385.5,-167.5 1385.5,-132.5 1008.5,-132.5"/>
<polygon fill="none" stroke="#000000" points="1008.5,-132.5 1008.5,-167.5 1385.5,-167.5 1385.5,-132.5 1008.5,-132.5"/>
<text text-anchor="start" x="1015.1828" y="-145.3" font-family="Arial Bold" font-size="18.00" fill="#000000">md_pen_processo_eletronico</text>
<text text-anchor="start" x="1251.2492" y="-145.3" font-family="Arial" font-size="14.00" fill="#000000">    </text>
<text text-anchor="start" x="1285.454" y="-145.3" font-family="Arial" font-size="14.00" fill="#666666">[BASE TABLE]</text>
<polygon fill="none" stroke="#000000" points="1008.5,-102.5 1008.5,-132.5 1385.5,-132.5 1385.5,-102.5 1008.5,-102.5"/>
<text text-anchor="start" x="1015.5" y="-113.9" font-family="Arial" font-size="14.00" fill="#000000">numero_registro    </text>
<text text-anchor="start" x="1151.6052" y="-113.9" font-family="Arial" font-size="14.00" fill="#666666">[char(16)]</text>
<polygon fill="none" stroke="#000000" points="1008.5,-72.5 1008.5,-102.5 1385.5,-102.5 1385.5,-72.5 1008.5,-72.5"/>
<text text-anchor="start" x="1015.5" y="-83.9" font-family="Arial" font-size="14.00" fill="#000000">id_procedimento    </text>
<text text-anchor="start" x="1153.1732" y="-83.9" font-family="Arial" font-size="14.00" fill="#666666">[bigint(20)]</text>
<polygon fill="none" stroke="#000000" points="1008.5,-42.5 1008.5,-72.5 1385.5,-72.5 1385.5,-42.5 1008.5,-42.5"/>
<text text-anchor="start" x="1015.5" y="-53.9" font-family="Arial" font-size="14.00" fill="#000000">sta_tipo_protocolo    </text>
<text text-anchor="start" x="1164.0764" y="-53.9" font-family="Arial" font-size="14.00" fill="#666666">[varchar(1)]</text>
</g>
<!-- md_pen_tramite&#45;&gt;md_pen_processo_eletronico -->
<g id="edge2" class="edge">
<title>md_pen_tramite:numero_registro&#45;&gt;md_pen_processo_eletronico:numero_registro</title>
<path fill="none" stroke="#000000" d="M1040.4907,-634.1704C818.7933,-619.4645 781.3422,-117.5 1008.5,-117.5"/>
<polygon fill="#000000" stroke="#000000" points="1040.5054,-634.1708 1050.3519,-638.9976 1045.5027,-634.3354 1050.5,-634.5 1050.5,-634.5 1050.5,-634.5 1045.5027,-634.3354 1050.6481,-630.0024 1040.5054,-634.1708 1040.5054,-634.1708"/>
</g>
<!-- md_pen_componente_digital -->
<g id="node4" class="node">
<title>md_pen_componente_digital</title>
<polygon fill="#efefef" stroke="transparent" points="556.5,-1526.5 556.5,-1561.5 928.5,-1561.5 928.5,-1526.5 556.5,-1526.5"/>
<polygon fill="none" stroke="#000000" points="556.5,-1526.5 556.5,-1561.5 928.5,-1561.5 928.5,-1526.5 556.5,-1526.5"/>
<text text-anchor="start" x="563.1776" y="-1539.3" font-family="Arial Bold" font-size="18.00" fill="#000000">md_pen_componente_digital</text>
<text text-anchor="start" x="794.2544" y="-1539.3" font-family="Arial" font-size="14.00" fill="#000000">    </text>
<text text-anchor="start" x="828.4592" y="-1539.3" font-family="Arial" font-size="14.00" fill="#666666">[BASE TABLE]</text>
<polygon fill="none" stroke="#000000" points="556.5,-1496.5 556.5,-1526.5 928.5,-1526.5 928.5,-1496.5 556.5,-1496.5"/>
<text text-anchor="start" x="563.5" y="-1507.9" font-family="Arial" font-size="14.00" fill="#000000">numero_registro    </text>
<text text-anchor="start" x="699.6052" y="-1507.9" font-family="Arial" font-size="14.00" fill="#666666">[char(16)]</text>
<polygon fill="none" stroke="#000000" points="556.5,-1466.5 556.5,-1496.5 928.5,-1496.5 928.5,-1466.5 556.5,-1466.5"/>
<text text-anchor="start" x="563.5" y="-1477.9" font-family="Arial" font-size="14.00" fill="#000000">id_procedimento    </text>
<text text-anchor="start" x="701.1732" y="-1477.9" font-family="Arial" font-size="14.00" fill="#666666">[bigint(20)]</text>
<polygon fill="none" stroke="#000000" points="556.5,-1436.5 556.5,-1466.5 928.5,-1466.5 928.5,-1436.5 556.5,-1436.5"/>
<text text-anchor="start" x="563.5" y="-1447.9" font-family="Arial" font-size="14.00" fill="#000000">id_documento    </text>
<text text-anchor="start" x="685.6234" y="-1447.9" font-family="Arial" font-size="14.00" fill="#666666">[bigint(20)]</text>
<polygon fill="none" stroke="#000000" points="556.5,-1406.5 556.5,-1436.5 928.5,-1436.5 928.5,-1406.5 556.5,-1406.5"/>
<text text-anchor="start" x="563.5" y="-1417.9" font-family="Arial" font-size="14.00" fill="#000000">id_tramite    </text>
<text text-anchor="start" x="659.1508" y="-1417.9" font-family="Arial" font-size="14.00" fill="#666666">[bigint(20)]</text>
<polygon fill="none" stroke="#000000" points="556.5,-1376.5 556.5,-1406.5 928.5,-1406.5 928.5,-1376.5 556.5,-1376.5"/>
<text text-anchor="start" x="563.5" y="-1387.9" font-family="Arial" font-size="14.00" fill="#000000">id_anexo    </text>
<text text-anchor="start" x="654.507" y="-1387.9" font-family="Arial" font-size="14.00" fill="#666666">[int(11)]</text>
<polygon fill="none" stroke="#000000" points="556.5,-1346.5 556.5,-1376.5 928.5,-1376.5 928.5,-1346.5 556.5,-1346.5"/>
<text text-anchor="start" x="563.5" y="-1357.9" font-family="Arial" font-size="14.00" fill="#000000">protocolo    </text>
<text text-anchor="start" x="655.2756" y="-1357.9" font-family="Arial" font-size="14.00" fill="#666666">[varchar(50)]</text>
<polygon fill="none" stroke="#000000" points="556.5,-1316.5 556.5,-1346.5 928.5,-1346.5 928.5,-1316.5 556.5,-1316.5"/>
<text text-anchor="start" x="563.5" y="-1327.9" font-family="Arial" font-size="14.00" fill="#000000">nome    </text>
<text text-anchor="start" x="632.7132" y="-1327.9" font-family="Arial" font-size="14.00" fill="#666666">[varchar(255)]</text>
<polygon fill="none" stroke="#000000" points="556.5,-1286.5 556.5,-1316.5 928.5,-1316.5 928.5,-1286.5 556.5,-1286.5"/>
<text text-anchor="start" x="563.5" y="-1297.9" font-family="Arial" font-size="14.00" fill="#000000">hash_conteudo    </text>
<text text-anchor="start" x="693.4214" y="-1297.9" font-family="Arial" font-size="14.00" fill="#666666">[varchar(255)]</text>
<polygon fill="none" stroke="#000000" points="556.5,-1256.5 556.5,-1286.5 928.5,-1286.5 928.5,-1256.5 556.5,-1256.5"/>
<text text-anchor="start" x="563.5" y="-1267.9" font-family="Arial" font-size="14.00" fill="#000000">algoritmo_hash    </text>
<text text-anchor="start" x="693.3906" y="-1267.9" font-family="Arial" font-size="14.00" fill="#666666">[varchar(20)]</text>
<polygon fill="none" stroke="#000000" points="556.5,-1226.5 556.5,-1256.5 928.5,-1256.5 928.5,-1226.5 556.5,-1226.5"/>
<text text-anchor="start" x="563.5" y="-1237.9" font-family="Arial" font-size="14.00" fill="#000000">tipo_conteudo    </text>
<text text-anchor="start" x="685.636" y="-1237.9" font-family="Arial" font-size="14.00" fill="#666666">[char(3)]</text>
<polygon fill="none" stroke="#000000" points="556.5,-1196.5 556.5,-1226.5 928.5,-1226.5 928.5,-1196.5 556.5,-1196.5"/>
<text text-anchor="start" x="563.5" y="-1207.9" font-family="Arial" font-size="14.00" fill="#000000">mime_type    </text>
<text text-anchor="start" x="666.1536" y="-1207.9" font-family="Arial" font-size="14.00" fill="#666666">[varchar(100)]</text>
<polygon fill="none" stroke="#000000" points="556.5,-1166.5 556.5,-1196.5 928.5,-1196.5 928.5,-1166.5 556.5,-1166.5"/>
<text text-anchor="start" x="563.5" y="-1177.9" font-family="Arial" font-size="14.00" fill="#000000">dados_complementares    </text>
<text text-anchor="start" x="747.075" y="-1177.9" font-family="Arial" font-size="14.00" fill="#666666">[varchar(1000)]</text>
<polygon fill="none" stroke="#000000" points="556.5,-1136.5 556.5,-1166.5 928.5,-1166.5 928.5,-1136.5 556.5,-1136.5"/>
<text text-anchor="start" x="563.5" y="-1147.9" font-family="Arial" font-size="14.00" fill="#000000">tamanho    </text>
<text text-anchor="start" x="652.169" y="-1147.9" font-family="Arial" font-size="14.00" fill="#666666">[bigint(20)]</text>
<polygon fill="none" stroke="#000000" points="556.5,-1106.5 556.5,-1136.5 928.5,-1136.5 928.5,-1106.5 556.5,-1106.5"/>
<text text-anchor="start" x="563.5" y="-1117.9" font-family="Arial" font-size="14.00" fill="#000000">ordem    </text>
<text text-anchor="start" x="637.3738" y="-1117.9" font-family="Arial" font-size="14.00" fill="#666666">[int(11)]</text>
<polygon fill="none" stroke="#000000" points="556.5,-1076.5 556.5,-1106.5 928.5,-1106.5 928.5,-1076.5 556.5,-1076.5"/>
<text text-anchor="start" x="563.5" y="-1087.9" font-family="Arial" font-size="14.00" fill="#000000">sin_enviar    </text>
<text text-anchor="start" x="661.4916" y="-1087.9" font-family="Arial" font-size="14.00" fill="#666666">[char(1)]</text>
<polygon fill="none" stroke="#000000" points="556.5,-1046.5 556.5,-1076.5 928.5,-1076.5 928.5,-1046.5 556.5,-1046.5"/>
<text text-anchor="start" x="563.5" y="-1057.9" font-family="Arial" font-size="14.00" fill="#000000">codigo_especie    </text>
<text text-anchor="start" x="694.9614" y="-1057.9" font-family="Arial" font-size="14.00" fill="#666666">[int(11)]</text>
<polygon fill="none" stroke="#000000" points="556.5,-1016.5 556.5,-1046.5 928.5,-1046.5 928.5,-1016.5 556.5,-1016.5"/>
<text text-anchor="start" x="563.5" y="-1027.9" font-family="Arial" font-size="14.00" fill="#000000">nome_especie_produtor    </text>
<text text-anchor="start" x="748.6402" y="-1027.9" font-family="Arial" font-size="14.00" fill="#666666">[varchar(255)]</text>
<polygon fill="none" stroke="#000000" points="556.5,-986.5 556.5,-1016.5 928.5,-1016.5 928.5,-986.5 556.5,-986.5"/>
<text text-anchor="start" x="563.5" y="-997.9" font-family="Arial" font-size="14.00" fill="#000000">ordem_documento    </text>
<text text-anchor="start" x="714.4032" y="-997.9" font-family="Arial" font-size="14.00" fill="#666666">[int(11)]</text>
<polygon fill="none" stroke="#000000" points="556.5,-956.5 556.5,-986.5 928.5,-986.5 928.5,-956.5 556.5,-956.5"/>
<text text-anchor="start" x="563.5" y="-967.9" font-family="Arial" font-size="14.00" fill="#000000">id_procedimento_anexado    </text>
<text text-anchor="start" x="762.6514" y="-967.9" font-family="Arial" font-size="14.00" fill="#666666">[bigint(20)]</text>
<polygon fill="none" stroke="#000000" points="556.5,-926.5 556.5,-956.5 928.5,-956.5 928.5,-926.5 556.5,-926.5"/>
<text text-anchor="start" x="563.5" y="-937.9" font-family="Arial" font-size="14.00" fill="#000000">protocolo_procedimento_anexado    </text>
<text text-anchor="start" x="809.333" y="-937.9" font-family="Arial" font-size="14.00" fill="#666666">[varchar(50)]</text>
<polygon fill="none" stroke="#000000" points="556.5,-896.5 556.5,-926.5 928.5,-926.5 928.5,-896.5 556.5,-896.5"/>
<text text-anchor="start" x="563.5" y="-907.9" font-family="Arial" font-size="14.00" fill="#000000">ordem_documento_anexado    </text>
<text text-anchor="start" x="775.8814" y="-907.9" font-family="Arial" font-size="14.00" fill="#666666">[int(11)]</text>
<polygon fill="none" stroke="#000000" points="556.5,-866.5 556.5,-896.5 928.5,-896.5 928.5,-866.5 556.5,-866.5"/>
<text text-anchor="start" x="563.5" y="-877.9" font-family="Arial" font-size="14.00" fill="#000000">ordem_documento_referenciado    </text>
<text text-anchor="start" x="799.9824" y="-877.9" font-family="Arial" font-size="14.00" fill="#666666">[int(11)]</text>
<polygon fill="none" stroke="#000000" points="556.5,-836.5 556.5,-866.5 928.5,-866.5 928.5,-836.5 556.5,-836.5"/>
<text text-anchor="start" x="563.5" y="-847.9" font-family="Arial" font-size="14.00" fill="#000000">id_anexo_imutavel    </text>
<text text-anchor="start" x="714.4018" y="-847.9" font-family="Arial" font-size="14.00" fill="#666666">[bigint(20)]</text>
<polygon fill="none" stroke="#000000" points="556.5,-806.5 556.5,-836.5 928.5,-836.5 928.5,-806.5 556.5,-806.5"/>
<text text-anchor="start" x="563.5" y="-817.9" font-family="Arial" font-size="14.00" fill="#000000">tarja_legada    </text>
<text text-anchor="start" x="674.73" y="-817.9" font-family="Arial" font-size="14.00" fill="#666666">[char(1)]</text>
</g>
<!-- md_pen_componente_digital&#45;&gt;md_pen_tramite -->
<g id="edge3" class="edge">
<title>md_pen_componente_digital:numero_registro&#45;&gt;md_pen_tramite:numero_registro</title>
<path fill="none" stroke="#000000" d="M938.0642,-1508.2176C1007.4191,-1457.729 958.2434,-840.6766 980.5,-764 998.7381,-701.1676 985.0741,-634.5 1050.5,-634.5"/>
<polygon fill="#000000" stroke="#000000" points="937.9585,-1508.2538 927.0392,-1507.2437 933.2292,-1509.8769 928.5,-1511.5 928.5,-1511.5 928.5,-1511.5 933.2292,-1509.8769 929.9608,-1515.7563 937.9585,-1508.2538 937.9585,-1508.2538"/>
</g>
<!-- md_pen_recibo_tramite -->
<g id="node5" class="node">
<title>md_pen_recibo_tramite</title>
<polygon fill="#efefef" stroke="transparent" points="1032.5,-1241.5 1032.5,-1276.5 1362.5,-1276.5 1362.5,-1241.5 1032.5,-1241.5"/>
<polygon fill="none" stroke="#000000" points="1032.5,-1241.5 1032.5,-1276.5 1362.5,-1276.5 1362.5,-1241.5 1032.5,-1241.5"/>
<text text-anchor="start" x="1039.198" y="-1254.3" font-family="Arial Bold" font-size="18.00" fill="#000000">md_pen_recibo_tramite</text>
<text text-anchor="start" x="1228.234" y="-1254.3" font-family="Arial" font-size="14.00" fill="#000000">    </text>
<text text-anchor="start" x="1262.4388" y="-1254.3" font-family="Arial" font-size="14.00" fill="#666666">[BASE TABLE]</text>
<polygon fill="none" stroke="#000000" points="1032.5,-1211.5 1032.5,-1241.5 1362.5,-1241.5 1362.5,-1211.5 1032.5,-1211.5"/>
<text text-anchor="start" x="1039.5" y="-1222.9" font-family="Arial" font-size="14.00" fill="#000000">numero_registro    </text>
<text text-anchor="start" x="1175.6052" y="-1222.9" font-family="Arial" font-size="14.00" fill="#666666">[char(16)]</text>
<polygon fill="none" stroke="#000000" points="1032.5,-1181.5 1032.5,-1211.5 1362.5,-1211.5 1362.5,-1181.5 1032.5,-1181.5"/>
<text text-anchor="start" x="1039.5" y="-1192.9" font-family="Arial" font-size="14.00" fill="#000000">id_tramite    </text>
<text text-anchor="start" x="1135.1508" y="-1192.9" font-family="Arial" font-size="14.00" fill="#666666">[bigint(20)]</text>
<polygon fill="none" stroke="#000000" points="1032.5,-1151.5 1032.5,-1181.5 1362.5,-1181.5 1362.5,-1151.5 1032.5,-1151.5"/>
<text text-anchor="start" x="1039.5" y="-1162.9" font-family="Arial" font-size="14.00" fill="#000000">dth_recebimento    </text>
<text text-anchor="start" x="1177.9572" y="-1162.9" font-family="Arial" font-size="14.00" fill="#666666">[datetime]</text>
<polygon fill="none" stroke="#000000" points="1032.5,-1121.5 1032.5,-1151.5 1362.5,-1151.5 1362.5,-1121.5 1032.5,-1121.5"/>
<text text-anchor="start" x="1039.5" y="-1132.9" font-family="Arial" font-size="14.00" fill="#000000">hash_assinatura    </text>
<text text-anchor="start" x="1176.406" y="-1132.9" font-family="Arial" font-size="14.00" fill="#666666">[varchar(1000)]</text>
<polygon fill="none" stroke="#000000" points="1032.5,-1091.5 1032.5,-1121.5 1362.5,-1121.5 1362.5,-1091.5 1032.5,-1091.5"/>
<text text-anchor="start" x="1039.5" y="-1102.9" font-family="Arial" font-size="14.00" fill="#000000">cadeia_certificado    </text>
<text text-anchor="start" x="1186.5098" y="-1102.9" font-family="Arial" font-size="14.00" fill="#666666">[longtext]</text>
</g>
<!-- md_pen_recibo_tramite&#45;&gt;md_pen_tramite -->
<g id="edge4" class="edge">
<title>md_pen_recibo_tramite:numero_registro&#45;&gt;md_pen_tramite:numero_registro</title>
<path fill="none" stroke="#000000" d="M1022.2359,-1225.8259C958.1876,-1216.7831 1004.2761,-1118.6929 1032.5,-1049 1118.9503,-835.5297 1573.8111,-634.5 1343.5,-634.5"/>
<polygon fill="#000000" stroke="#000000" points="1022.5215,-1225.8446 1032.2051,-1230.9903 1027.5107,-1226.1723 1032.5,-1226.5 1032.5,-1226.5 1032.5,-1226.5 1027.5107,-1226.1723 1032.7949,-1222.0097 1022.5215,-1225.8446 1022.5215,-1225.8446"/>
</g>
<!-- md_pen_recibo_tramite_hash -->
<g id="node6" class="node">
<title>md_pen_recibo_tramite_hash</title>
<polygon fill="#efefef" stroke="transparent" points="1467.5,-1241.5 1467.5,-1276.5 1846.5,-1276.5 1846.5,-1241.5 1467.5,-1241.5"/>
<polygon fill="none" stroke="#000000" points="1467.5,-1241.5 1467.5,-1276.5 1846.5,-1276.5 1846.5,-1241.5 1467.5,-1241.5"/>
<text text-anchor="start" x="1474.1856" y="-1254.3" font-family="Arial Bold" font-size="18.00" fill="#000000">md_pen_recibo_tramite_hash</text>
<text text-anchor="start" x="1712.2464" y="-1254.3" font-family="Arial" font-size="14.00" fill="#000000">    </text>
<text text-anchor="start" x="1746.4512" y="-1254.3" font-family="Arial" font-size="14.00" fill="#666666">[BASE TABLE]</text>
<polygon fill="none" stroke="#000000" points="1467.5,-1211.5 1467.5,-1241.5 1846.5,-1241.5 1846.5,-1211.5 1467.5,-1211.5"/>
<text text-anchor="start" x="1474.5" y="-1222.9" font-family="Arial" font-size="14.00" fill="#000000">id_tramite_hash    </text>
<text text-anchor="start" x="1608.2812" y="-1222.9" font-family="Arial" font-size="14.00" fill="#666666">[bigint(20)]</text>
<polygon fill="none" stroke="#000000" points="1467.5,-1181.5 1467.5,-1211.5 1846.5,-1211.5 1846.5,-1181.5 1467.5,-1181.5"/>
<text text-anchor="start" x="1474.5" y="-1192.9" font-family="Arial" font-size="14.00" fill="#000000">numero_registro    </text>
<text text-anchor="start" x="1610.6052" y="-1192.9" font-family="Arial" font-size="14.00" fill="#666666">[char(16)]</text>
<polygon fill="none" stroke="#000000" points="1467.5,-1151.5 1467.5,-1181.5 1846.5,-1181.5 1846.5,-1151.5 1467.5,-1151.5"/>
<text text-anchor="start" x="1474.5" y="-1162.9" font-family="Arial" font-size="14.00" fill="#000000">id_tramite    </text>
<text text-anchor="start" x="1570.1508" y="-1162.9" font-family="Arial" font-size="14.00" fill="#666666">[bigint(20)]</text>
<polygon fill="none" stroke="#000000" points="1467.5,-1121.5 1467.5,-1151.5 1846.5,-1151.5 1846.5,-1121.5 1467.5,-1121.5"/>
<text text-anchor="start" x="1474.5" y="-1132.9" font-family="Arial" font-size="14.00" fill="#000000">tipo_recibo    </text>
<text text-anchor="start" x="1577.1648" y="-1132.9" font-family="Arial" font-size="14.00" fill="#666666">[char(1)]</text>
<polygon fill="none" stroke="#000000" points="1467.5,-1091.5 1467.5,-1121.5 1846.5,-1121.5 1846.5,-1091.5 1467.5,-1091.5"/>
<text text-anchor="start" x="1474.5" y="-1102.9" font-family="Arial" font-size="14.00" fill="#000000">hash_componente_digital    </text>
<text text-anchor="start" x="1668.2054" y="-1102.9" font-family="Arial" font-size="14.00" fill="#666666">[varchar(255)]</text>
</g>
<!-- md_pen_recibo_tramite_hash&#45;&gt;md_pen_tramite -->
<g id="edge5" class="edge">
<title>md_pen_recibo_tramite_hash:numero_registro&#45;&gt;md_pen_tramite:numero_registro</title>
<path fill="none" stroke="#000000" d="M1457.4099,-1195.124C1375.9849,-1171.5824 1443.0955,-852.7434 1414.5,-764 1394.3688,-701.525 1409.1384,-634.5 1343.5,-634.5"/>
<polygon fill="#000000" stroke="#000000" points="1457.5917,-1195.1487 1466.8919,-1200.9587 1462.5459,-1195.8244 1467.5,-1196.5 1467.5,-1196.5 1467.5,-1196.5 1462.5459,-1195.8244 1468.1081,-1192.0413 1457.5917,-1195.1487 1457.5917,-1195.1487"/>
</g>
<!-- md_pen_recibo_tramite_recebido -->
<g id="node7" class="node">
<title>md_pen_recibo_tramite_recebido</title>
<polygon fill="#efefef" stroke="transparent" points="1950.5,-1241.5 1950.5,-1276.5 2359.5,-1276.5 2359.5,-1241.5 1950.5,-1241.5"/>
<polygon fill="none" stroke="#000000" points="1950.5,-1241.5 1950.5,-1276.5 2359.5,-1276.5 2359.5,-1241.5 1950.5,-1241.5"/>
<text text-anchor="start" x="1957.1862" y="-1254.3" font-family="Arial Bold" font-size="18.00" fill="#000000">md_pen_recibo_tramite_recebido</text>
<text text-anchor="start" x="2225.2458" y="-1254.3" font-family="Arial" font-size="14.00" fill="#000000">    </text>
<text text-anchor="start" x="2259.4506" y="-1254.3" font-family="Arial" font-size="14.00" fill="#666666">[BASE TABLE]</text>
<polygon fill="none" stroke="#000000" points="1950.5,-1211.5 1950.5,-1241.5 2359.5,-1241.5 2359.5,-1211.5 1950.5,-1211.5"/>
<text text-anchor="start" x="1957.5" y="-1222.9" font-family="Arial" font-size="14.00" fill="#000000">numero_registro    </text>
<text text-anchor="start" x="2093.6052" y="-1222.9" font-family="Arial" font-size="14.00" fill="#666666">[char(16)]</text>
<polygon fill="none" stroke="#000000" points="1950.5,-1181.5 1950.5,-1211.5 2359.5,-1211.5 2359.5,-1181.5 1950.5,-1181.5"/>
<text text-anchor="start" x="1957.5" y="-1192.9" font-family="Arial" font-size="14.00" fill="#000000">id_tramite    </text>
<text text-anchor="start" x="2053.1508" y="-1192.9" font-family="Arial" font-size="14.00" fill="#666666">[bigint(20)]</text>
<polygon fill="none" stroke="#000000" points="1950.5,-1151.5 1950.5,-1181.5 2359.5,-1181.5 2359.5,-1151.5 1950.5,-1151.5"/>
<text text-anchor="start" x="1957.5" y="-1162.9" font-family="Arial" font-size="14.00" fill="#000000">dth_recebimento    </text>
<text text-anchor="start" x="2095.9572" y="-1162.9" font-family="Arial" font-size="14.00" fill="#666666">[datetime]</text>
<polygon fill="none" stroke="#000000" points="1950.5,-1121.5 1950.5,-1151.5 2359.5,-1151.5 2359.5,-1121.5 1950.5,-1121.5"/>
<text text-anchor="start" x="1957.5" y="-1132.9" font-family="Arial" font-size="14.00" fill="#000000">hash_assinatura    </text>
<text text-anchor="start" x="2094.406" y="-1132.9" font-family="Arial" font-size="14.00" fill="#666666">[varchar(1000)]</text>
<polygon fill="none" stroke="#000000" points="1950.5,-1091.5 1950.5,-1121.5 2359.5,-1121.5 2359.5,-1091.5 1950.5,-1091.5"/>
<text text-anchor="start" x="1957.5" y="-1102.9" font-family="Arial" font-size="14.00" fill="#000000">cadeia_certificado    </text>
<text text-anchor="start" x="2104.5098" y="-1102.9" font-family="Arial" font-size="14.00" fill="#666666">[longtext]</text>
</g>
<!-- md_pen_recibo_tramite_recebido&#45;&gt;md_pen_tramite -->
<g id="edge6" class="edge">
<title>md_pen_recibo_tramite_recebido:numero_registro&#45;&gt;md_pen_tramite:numero_registro</title>
<path fill="none" stroke="#000000" d="M1940.4029,-1225.1018C1855.289,-1199.7957 1964.8054,-838.5754 1898.5,-764 1814.3494,-669.3536 1470.1462,-634.5 1343.5,-634.5"/>
<polygon fill="#000000" stroke="#000000" points="1940.5945,-1225.1283 1949.8827,-1230.9575 1945.5473,-1225.8141 1950.5,-1226.5 1950.5,-1226.5 1950.5,-1226.5 1945.5473,-1225.8141 1951.1173,-1222.0425 1940.5945,-1225.1283 1940.5945,-1225.1283"/>
</g>
</g>
</svg>
