<?xml version="1.0" encoding="UTF-8" standalone="no"?>
<!DOCTYPE svg PUBLIC "-//W3C//DTD SVG 1.1//EN"
 "http://www.w3.org/Graphics/SVG/1.1/DTD/svg11.dtd">
<!-- Generated by graphviz version 2.40.1 (20161225.0304)
 -->
<!-- Title: md_pen_especie_documental Pages: 1 -->
<svg width="990pt" height="442pt"
 viewBox="0.00 0.00 990.00 442.00" xmlns="http://www.w3.org/2000/svg" xmlns:xlink="http://www.w3.org/1999/xlink">
<g id="graph0" class="graph" transform="scale(1 1) rotate(0) translate(4 438)">
<title>md_pen_especie_documental</title>
<polygon fill="#ffffff" stroke="transparent" points="-4,4 -4,-438 986,-438 986,4 -4,4"/>
<!-- md_pen_especie_documental -->
<g id="node1" class="node">
<title>md_pen_especie_documental</title>
<polygon fill="#efefef" stroke="transparent" points="299.5,-105.5 299.5,-140.5 680.5,-140.5 680.5,-105.5 299.5,-105.5"/>
<polygon fill="none" stroke="#000000" points="299.5,-105.5 299.5,-140.5 680.5,-140.5 680.5,-105.5 299.5,-105.5"/>
<text text-anchor="start" x="306.1758" y="-118.3" font-family="Arial Bold" font-size="18.00" fill="#000000">md_pen_especie_documental</text>
<text text-anchor="start" x="546.2562" y="-118.3" font-family="Arial" font-size="14.00" fill="#000000">    </text>
<text text-anchor="start" x="580.461" y="-118.3" font-family="Arial" font-size="14.00" fill="#666666">[BASE TABLE]</text>
<polygon fill="none" stroke="#000000" points="299.5,-75.5 299.5,-105.5 680.5,-105.5 680.5,-75.5 299.5,-75.5"/>
<text text-anchor="start" x="306.5" y="-86.9" font-family="Arial" font-size="14.00" fill="#000000">id_especie </text>
<text text-anchor="start" x="377.2994" y="-86.9" font-family="Arial" font-size="14.00" fill="#666666">[int(11)]</text>
<polygon fill="none" stroke="#000000" points="299.5,-45.5 299.5,-75.5 680.5,-75.5 680.5,-45.5 299.5,-45.5"/>
<text text-anchor="start" x="306.5" y="-56.9" font-family="Arial" font-size="14.00" fill="#000000">nome_especie </text>
<text text-anchor="start" x="401.4186" y="-56.9" font-family="Arial" font-size="14.00" fill="#666666">[varchar(255)]</text>
<polygon fill="none" stroke="#000000" stroke-width="3" points="297.5,-44.5 297.5,-142.5 681.5,-142.5 681.5,-44.5 297.5,-44.5"/>
</g>
<!-- md_pen_rel_doc_map_enviado -->
<g id="node2" class="node">
<title>md_pen_rel_doc_map_enviado</title>
<polygon fill="#efefef" stroke="transparent" points="43.5,-355.5 43.5,-390.5 436.5,-390.5 436.5,-355.5 43.5,-355.5"/>
<polygon fill="none" stroke="#000000" points="43.5,-355.5 43.5,-390.5 436.5,-390.5 436.5,-355.5 43.5,-355.5"/>
<text text-anchor="start" x="50.1746" y="-368.3" font-family="Arial Bold" font-size="18.00" fill="#000000">md_pen_rel_doc_map_enviado</text>
<text text-anchor="start" x="302.2574" y="-368.3" font-family="Arial" font-size="14.00" fill="#000000">    </text>
<text text-anchor="start" x="336.4622" y="-368.3" font-family="Arial" font-size="14.00" fill="#666666">[BASE TABLE]</text>
<polygon fill="none" stroke="#000000" points="43.5,-325.5 43.5,-355.5 436.5,-355.5 436.5,-325.5 43.5,-325.5"/>
<text text-anchor="start" x="50.5" y="-336.9" font-family="Arial" font-size="14.00" fill="#000000">id_mapeamento    </text>
<text text-anchor="start" x="185.0666" y="-336.9" font-family="Arial" font-size="14.00" fill="#666666">[bigint(20)]</text>
<polygon fill="none" stroke="#000000" points="43.5,-295.5 43.5,-325.5 436.5,-325.5 436.5,-295.5 43.5,-295.5"/>
<text text-anchor="start" x="50.5" y="-306.9" font-family="Arial" font-size="14.00" fill="#000000">codigo_especie    </text>
<text text-anchor="start" x="181.9614" y="-306.9" font-family="Arial" font-size="14.00" fill="#666666">[int(11)]</text>
<polygon fill="none" stroke="#000000" points="43.5,-265.5 43.5,-295.5 436.5,-295.5 436.5,-265.5 43.5,-265.5"/>
<text text-anchor="start" x="50.5" y="-276.9" font-family="Arial" font-size="14.00" fill="#000000">id_serie    </text>
<text text-anchor="start" x="133.709" y="-276.9" font-family="Arial" font-size="14.00" fill="#666666">[int(11)]</text>
</g>
<!-- md_pen_rel_doc_map_enviado&#45;&gt;md_pen_especie_documental -->
<g id="edge1" class="edge">
<title>md_pen_rel_doc_map_enviado:codigo_especie&#45;&gt;md_pen_especie_documental:id_especie</title>
<path fill="none" stroke="#000000" d="M446.3897,-308.9546C472.3497,-299.672 457.9294,-250.788 436.5,-223 398.0542,-173.1465 337.9458,-236.8535 299.5,-187 273.3087,-153.0372 256.6111,-90.5 299.5,-90.5"/>
<polygon fill="#000000" stroke="#000000" points="446.3801,-308.956 435.8052,-306.054 441.4401,-309.728 436.5,-310.5 436.5,-310.5 436.5,-310.5 441.4401,-309.728 437.1948,-314.946 446.3801,-308.956 446.3801,-308.956"/>
</g>
<!-- md_pen_rel_doc_map_recebido -->
<g id="node3" class="node">
<title>md_pen_rel_doc_map_recebido</title>
<polygon fill="#efefef" stroke="transparent" points="540.5,-355.5 540.5,-390.5 939.5,-390.5 939.5,-355.5 540.5,-355.5"/>
<polygon fill="none" stroke="#000000" points="540.5,-355.5 540.5,-390.5 939.5,-390.5 939.5,-355.5 540.5,-355.5"/>
<text text-anchor="start" x="547.1785" y="-368.3" font-family="Arial Bold" font-size="18.00" fill="#000000">md_pen_rel_doc_map_recebido</text>
<text text-anchor="start" x="805.2535" y="-368.3" font-family="Arial" font-size="14.00" fill="#000000">    </text>
<text text-anchor="start" x="839.4583" y="-368.3" font-family="Arial" font-size="14.00" fill="#666666">[BASE TABLE]</text>
<polygon fill="none" stroke="#000000" points="540.5,-325.5 540.5,-355.5 939.5,-355.5 939.5,-325.5 540.5,-325.5"/>
<text text-anchor="start" x="547.5" y="-336.9" font-family="Arial" font-size="14.00" fill="#000000">id_mapeamento    </text>
<text text-anchor="start" x="682.0666" y="-336.9" font-family="Arial" font-size="14.00" fill="#666666">[bigint(20)]</text>
<polygon fill="none" stroke="#000000" points="540.5,-295.5 540.5,-325.5 939.5,-325.5 939.5,-295.5 540.5,-295.5"/>
<text text-anchor="start" x="547.5" y="-306.9" font-family="Arial" font-size="14.00" fill="#000000">codigo_especie    </text>
<text text-anchor="start" x="678.9614" y="-306.9" font-family="Arial" font-size="14.00" fill="#666666">[int(11)]</text>
<polygon fill="none" stroke="#000000" points="540.5,-265.5 540.5,-295.5 939.5,-295.5 939.5,-265.5 540.5,-265.5"/>
<text text-anchor="start" x="547.5" y="-276.9" font-family="Arial" font-size="14.00" fill="#000000">id_serie    </text>
<text text-anchor="start" x="630.709" y="-276.9" font-family="Arial" font-size="14.00" fill="#666666">[int(11)]</text>
</g>
<!-- md_pen_rel_doc_map_recebido&#45;&gt;md_pen_especie_documental -->
<g id="edge2" class="edge">
<title>md_pen_rel_doc_map_recebido:codigo_especie&#45;&gt;md_pen_especie_documental:id_especie</title>
<path fill="none" stroke="#000000" d="M530.6082,-308.953C504.636,-299.6609 518.9974,-250.7313 540.5,-223 579.8679,-172.2282 641.1321,-237.7718 680.5,-187 706.7808,-153.1064 723.3889,-90.5 680.5,-90.5"/>
<polygon fill="#000000" stroke="#000000" points="530.6201,-308.9548 539.8046,-314.946 535.56,-309.7274 540.5,-310.5 540.5,-310.5 540.5,-310.5 535.56,-309.7274 541.1954,-306.054 530.6201,-308.9548 530.6201,-308.9548"/>
</g>
</g>
</svg>
