<?xml version="1.0" encoding="UTF-8"?>
<!DOCTYPE svg PUBLIC "-//W3C//DTD SVG 1.1//EN" "http://www.w3.org/Graphics/SVG/1.1/DTD/svg11.dtd">
<!-- Creator: CorelDRAW 2021 (64 Bit) -->
<svg xmlns="http://www.w3.org/2000/svg" xml:space="preserve" width="472px" height="472px" version="1.1" style="shape-rendering:geometricPrecision; text-rendering:geometricPrecision; image-rendering:optimizeQuality; fill-rule:evenodd; clip-rule:evenodd"
viewBox="0 0 472 472"
 xmlns:xlink="http://www.w3.org/1999/xlink"
 xmlns:xodm="http://www.corel.com/coreldraw/odm/2003">
 <defs>
  <style type="text/css">
   <![CDATA[
    .fil2 {fill:#4285F4}
    .fil1 {fill:#FFC936}
    .fil0 {fill:#FFD767}
    .fil3 {fill:#57B952;fill-rule:nonzero}
   ]]>
  </style>
 </defs>
 <g id="Camada_x0020_1">
  <metadata id="CorelCorpID_0Corel-Layer"/>
  <path class="fil0" d="M296.71 62.71l91.81 0c15.78,0 28.68,12.9 28.68,28.68l0 347.05c0,15.78 -12.9,28.68 -28.68,28.68l-258.15 0 0 -228.9c13.01,4.01 26.88,6.18 41.27,6.18 74.91,0 135.63,-58.63 135.63,-130.96 0,-17.99 -3.76,-35.13 -10.56,-50.73z"/>
  <path class="fil1" d="M130.37 467.12l0 -228.9c-18.67,-5.75 -35.58,-15.29 -49.76,-27.69l0 256.59 49.76 0z"/>
  <path class="fil2" d="M285.28 291.96c-6.46,1.6 -10.62,4.67 -15.88,6.26 -3.32,-1.94 -10.71,-8.66 -12.74,-9.44 -4.77,-1.82 -10.55,6.13 -12.9,8.49 -2.27,2.27 -9.93,7.95 -8.66,12.43 0.7,2.46 7.7,9.95 9.6,13.21 -1.52,5.15 -4.54,9.46 -6.24,15.9 -21.8,4.41 -19.09,-4.34 -19.09,27.08 0,7.99 7.5,5.6 19.08,7.85 2.39,8.7 5.05,11.91 6.25,15.88 -2.23,3.84 -8.2,9.66 -9.39,12.76 -1.37,3.56 1.06,5.57 2.66,7.12 5.28,5.13 13.54,15.76 18.25,14.45 2.35,-0.65 10.01,-7.76 13.18,-9.63 5.29,1.61 9.4,4.7 15.89,6.25 3.93,19.34 -2.83,19.08 17.46,19.08 20.87,0 13.71,-0.88 17.48,-19.08 6.41,-1.56 10.67,-4.68 15.88,-6.24 3.55,2.11 10.07,8.41 12.74,9.43 4.83,1.84 10.54,-6.14 12.9,-8.49 2.26,-2.26 9.93,-7.93 8.66,-12.44 -0.67,-2.39 -7.71,-9.98 -9.6,-13.21 1.56,-5.24 4.7,-9.44 6.25,-15.88 21.89,-4.25 19.08,4.14 19.08,-27.09 0,-4.98 -2.35,-5.7 -7.23,-6.29 -4.19,-0.5 -7.81,-0.72 -11.85,-1.56 -1.58,-6.39 -4.68,-10.68 -6.25,-15.89 1.95,-3.43 8.56,-10.53 9.42,-12.75 1.85,-4.75 -6.12,-10.54 -8.48,-12.89 -2.26,-2.26 -7.92,-9.92 -12.44,-8.67 -2.48,0.69 -9.99,7.7 -13.2,9.61 -5.17,-1.55 -9.49,-4.54 -15.89,-6.24 -4.42,-21.56 4.58,-19.08 -26.44,-19.09 -9.04,0 -5.88,6.44 -8.5,19.08zm-7.08 65.03c0,-13.77 11.16,-24.93 24.93,-24.93 13.77,0 24.94,11.16 24.94,24.93 0,13.77 -11.17,24.93 -24.94,24.93 -13.77,0 -24.93,-11.16 -24.93,-24.93z"/>
  <path class="fil3" d="M128.48 7.35l0 101.09 -74.17 0 111.79 110.77 111.8 -110.77 -74.18 0 0 -101.09 -75.24 0zm0 50.54m-37.09 50.55m18.81 55.39m111.8 0m18.81 -55.39m-37.09 -50.55m-37.62 -50.54"/>
 </g>
</svg>
