<?xml version="1.0" encoding="UTF-8"?>
<!DOCTYPE svg PUBLIC "-//W3C//DTD SVG 1.1//EN" "http://www.w3.org/Graphics/SVG/1.1/DTD/svg11.dtd">
<!-- Creator: CorelDRAW 2021 (64 Bit) -->
<svg xmlns="http://www.w3.org/2000/svg" xml:space="preserve" width="472px" height="472px" version="1.1" style="shape-rendering:geometricPrecision; text-rendering:geometricPrecision; image-rendering:optimizeQuality; fill-rule:evenodd; clip-rule:evenodd"
viewBox="0 0 472 472"
 xmlns:xlink="http://www.w3.org/1999/xlink"
 xmlns:xodm="http://www.corel.com/coreldraw/odm/2003">
 <defs>
  <style type="text/css">
   <![CDATA[
    .str0 {stroke:#282829;stroke-width:2.36;stroke-miterlimit:22.9256;stroke-opacity:0.000000}
    .fil1 {fill:#4285F4}
    .fil2 {fill:#57B952}
    .fil0 {fill:#FEFEFE;fill-opacity:0.000000}
   ]]>
  </style>
 </defs>
 <g id="Camada_x0020_1">
  <metadata id="CorelCorpID_0Corel-Layer"/>
  <polygon class="fil0 str0" points="5.54,-1.7 472.91,-1.7 472.91,466.96 5.54,466.96 "/>
  <g id="_1520557325520">
   <path class="fil1" d="M88.13 300.53l152.48 0c-1.17,5.86 -1.79,11.92 -1.79,18.13 0,8.62 1.2,16.97 3.42,24.9l-154.11 0c-6.49,0 -11.8,-5.31 -11.8,-11.8l0 -19.43c0,-6.49 5.31,-11.8 11.8,-11.8zm0 -237.18l269.62 0c6.49,0 11.8,5.31 11.8,11.8l0 19.43c0,6.49 -5.31,11.8 -11.8,11.8l-269.62 0c-6.49,0 -11.8,-5.31 -11.8,-11.8l0 -19.43c0,-6.49 5.31,-11.8 11.8,-11.8zm0 60.18l269.62 0c6.49,0 11.8,5.31 11.8,11.8l0 19.43c0,6.49 -5.31,11.8 -11.8,11.8l-269.62 0c-6.49,0 -11.8,-5.31 -11.8,-11.8l0 -19.43c0,-6.49 5.31,-11.8 11.8,-11.8zm0 59l269.62 0c6.49,0 11.8,5.31 11.8,11.8l0 19.43c0,6.49 -5.31,11.8 -11.8,11.8l-269.62 0c-6.49,0 -11.8,-5.31 -11.8,-11.8l0 -19.43c0,-6.49 5.31,-11.8 11.8,-11.8zm0 59l192.42 0c-15.75,10.36 -28.14,25.35 -35.19,43.03l-157.23 0c-6.49,0 -11.8,-5.31 -11.8,-11.8l0 -19.43c0,-6.49 5.31,-11.8 11.8,-11.8z"/>
   <polygon class="fil2" points="319.05,258.49 353.31,258.49 353.31,309.18 404,309.18 404,343.44 353.31,343.44 353.31,394.14 319.05,394.14 319.05,343.44 268.36,343.44 268.36,309.18 319.05,309.18 "/>
  </g>
 </g>
</svg>
