<?xml version="1.0" encoding="UTF-8"?>
<!DOCTYPE svg PUBLIC "-//W3C//DTD SVG 1.1//EN" "http://www.w3.org/Graphics/SVG/1.1/DTD/svg11.dtd">
<!-- Creator: CorelDRAW 2021 (64 Bit) -->
<svg xmlns="http://www.w3.org/2000/svg" xml:space="preserve" width="472px" height="472px" version="1.1" style="shape-rendering:geometricPrecision; text-rendering:geometricPrecision; image-rendering:optimizeQuality; fill-rule:evenodd; clip-rule:evenodd"
viewBox="0 0 472 472"
 xmlns:xlink="http://www.w3.org/1999/xlink"
 xmlns:xodm="http://www.corel.com/coreldraw/odm/2003">
 <defs>
  <style type="text/css">
   <![CDATA[
    .fil3 {fill:#14C854}
    .fil1 {fill:#6CA7E6}
    .fil4 {fill:#ED1C24;fill-rule:nonzero}
    .fil0 {fill:#FEFEFE;fill-opacity:0.000000}
    .fil2 {fill:#B2C7DE}
   ]]>
  </style>
 </defs>
 <g id="Camada_x0020_1">
  <metadata id="CorelCorpID_0Corel-Layer"/>
  <path class="fil0" d="M2.36 4.63l467.38 0 0 254.14c-30.28,-34.7 -74.83,-56.62 -124.5,-56.62 -73.92,0 -136.49,48.55 -157.59,115.5 -5.96,17.06 -9.21,35.4 -9.21,54.49 0,38.11 12.92,73.2 34.6,101.15l-210.68 0 0 -468.66z"/>
  <path class="fil1" d="M85.6 46.2l306.28 0 0 167.9c-13.52,-4.12 -27.79,-6.55 -42.55,-7.05l0 -29.16 -44.81 0 0 33.72c-34.59,8.4 -64.92,27.69 -87.16,54.03l-0.23 0 0 0.27c-24.14,28.72 -38.69,65.77 -38.69,106.23 0,24.41 5.3,47.58 14.81,68.44l-107.65 0 0 -394.38zm43.03 306.83l44.81 0 0 44.81 -44.81 0 0 -44.81zm0 -263.65l44.81 0 0 44.81 -44.81 0 0 -44.81zm88.5 0l44.82 0 0 44.81 -44.82 0 0 -44.81zm87.39 0l44.81 0 0 44.81 -44.81 0 0 -44.81zm-175.89 88.51l44.81 0 0 44.81 -44.81 0 0 -44.81zm88.5 0l44.82 0 0 44.81 -44.82 0 0 -44.81zm-88.5 87.75l44.81 0 0 44.82 -44.81 0 0 -44.82z"/>
  <path class="fil2" d="M310.74 388.01l0.28 0.29 77.77 -77.77c6.19,-6.19 16.31,-6.19 22.5,0 6.18,6.18 6.18,16.3 0,22.49l-77.75 77.74 0.19 0.18 40.97 0 -27.25 27.25 -64.54 0.62 0.09 -65.18 28.09 -28.14 -0.35 42.52z"/>
  <path class="fil3" d="M297.31 271.91l0.28 0.29 -77.77 77.77c-6.19,6.19 -6.19,16.31 0,22.49 6.19,6.19 16.31,6.19 22.49,0l77.74 -77.74 0.19 0.18 0 40.98 27.25 -27.25 0.61 -64.54 -65.18 0.09 -28.13 28.09 42.52 -0.36z"/>
  <polygon class="fil0" points="2.36,4.63 469.74,4.63 469.74,473.29 2.36,473.29 "/>
  <polygon class="fil4" points="287.37,142.41 338.36,91.43 287.37,40.44 318.76,9.05 369.75,60.04 420.74,9.05 452.12,40.44 401.14,91.43 452.12,142.41 420.73,173.8 369.75,122.81 318.76,173.8 "/>
 </g>
</svg>
