<?xml version="1.0" encoding="UTF-8"?>
<!DOCTYPE svg PUBLIC "-//W3C//DTD SVG 1.1//EN" "http://www.w3.org/Graphics/SVG/1.1/DTD/svg11.dtd">
<!-- Creator: CorelDRAW -->
<svg xmlns="http://www.w3.org/2000/svg" xml:space="preserve" width="40mm" height="40mm" version="1.1" style="shape-rendering:geometricPrecision; text-rendering:geometricPrecision; image-rendering:optimizeQuality; fill-rule:evenodd; clip-rule:evenodd"
viewBox="0 0 4000 4000"
 xmlns:xlink="http://www.w3.org/1999/xlink"
 xmlns:xodm="http://www.corel.com/coreldraw/odm/2003">
 <defs>
  <style type="text/css">
   <![CDATA[
    .fil0 {fill:#6CA7E6}
    .fil2 {fill:#00C4BA;fill-rule:nonzero}
    .fil1 {fill:#286DA8;fill-rule:nonzero}
   ]]>
  </style>
 </defs>
 <g id="Camada_x0020_1">
  <metadata id="CorelCorpID_0Corel-Layer"/>
  <path class="fil0" d="M695.29 326.91l2595.59 0 0 1422.89c-114.65,-34.96 -235.55,-55.55 -360.62,-59.79l0 -247.13 -379.77 0 0 285.82c-293.14,71.2 -550.15,234.66 -738.62,457.89l-1.93 0 0 2.28c-204.6,243.37 -327.88,557.38 -327.88,900.22 0,206.88 44.9,403.26 125.45,579.97l-912.22 0 0 -3342.15zm364.61 2600.23l379.76 0 0 379.76 -379.76 0 0 -379.76zm0 -2234.31l379.76 0 0 379.77 -379.76 0 0 -379.77zm750.04 0l379.77 0 0 379.77 -379.77 0 0 -379.77zm740.55 0l379.77 0 0 379.77 -379.77 0 0 -379.77zm-1490.59 750.05l379.76 0 0 379.76 -379.76 0 0 -379.76zm750.04 0l379.77 0 0 379.76 -379.77 0 0 -379.76zm-750.04 743.71l379.76 0 0 379.77 -379.76 0 0 -379.77z"/>
  <path class="fil1" d="M2719.54 2050.42l-1.14 249.58c124.06,6.1 240.3,45.36 340.52,103.63 111.96,65.1 205.58,155.01 268.38,249.17 79.84,119.7 117.22,252.96 119.75,398.86 2.36,136.53 -26.14,282.27 -78.7,436.9l-227.2 -215.02c5.41,5.13 28.72,-150.5 27.55,-217.51 -1.59,-92.5 -24.34,-175.56 -72.81,-248.23 -40.58,-60.85 -102.17,-119.6 -176.7,-162.92 -61.4,-35.7 -130.45,-60.28 -202.05,-65.84l-1.49 324.6c-146.57,-149.78 -293.26,-299.43 -439.76,-449.28 147.82,-144.91 295.83,-289.64 443.79,-434.4l-0.14 30.46z"/>
  <path class="fil2" d="M2707.49 4071.93l1.14 -249.58c-124.06,-6.1 -240.3,-45.36 -340.52,-103.63 -111.96,-65.1 -205.58,-155.01 -268.38,-249.17 -79.84,-119.7 -117.22,-252.96 -119.75,-398.86 -2.36,-136.53 26.14,-282.27 78.7,-436.9l227.2 215.02c-5.41,-5.13 -28.72,150.5 -27.55,217.51 1.59,92.5 24.33,175.56 72.81,248.23 40.58,60.85 102.17,119.6 176.69,162.92 61.41,35.7 130.46,60.28 202.06,65.84l1.48 -324.6c146.57,149.78 293.27,299.43 439.77,449.28 -147.83,144.91 -295.83,289.64 -443.79,434.4l0.14 -30.46z"/>
 </g>
</svg>
