<?xml version="1.0" encoding="UTF-8"?>
<!DOCTYPE svg PUBLIC "-//W3C//DTD SVG 1.1//EN" "http://www.w3.org/Graphics/SVG/1.1/DTD/svg11.dtd">
<!-- Creator: CorelDRAW 2021 (64 Bit) -->
<svg xmlns="http://www.w3.org/2000/svg" xml:space="preserve" width="472px" height="472px" version="1.1" style="shape-rendering:geometricPrecision; text-rendering:geometricPrecision; image-rendering:optimizeQuality; fill-rule:evenodd; clip-rule:evenodd"
viewBox="0 0 472 472"
 xmlns:xlink="http://www.w3.org/1999/xlink"
 xmlns:xodm="http://www.corel.com/coreldraw/odm/2003">
 <defs>
  <style type="text/css">
   <![CDATA[
    .fil3 {fill:#14C854}
    .fil1 {fill:#6CA7E6}
    .fil0 {fill:#FEFEFE;fill-opacity:0.000000}
    .fil2 {fill:#B2C7DE}
   ]]>
  </style>
 </defs>
 <g id="Camada_x0020_1">
  <metadata id="CorelCorpID_0Corel-Layer"/>
  <path class="fil0" d="M-1.93 2.95l467.38 0 0 254.13c-30.29,-34.69 -74.83,-56.62 -124.5,-56.62 -73.92,0 -136.5,48.56 -157.59,115.51 -5.96,17.06 -9.21,35.39 -9.21,54.49 0,38.11 12.91,73.2 34.59,101.15l-210.67 0 0 -468.66z"/>
  <path class="fil1" d="M81.31 44.52l306.28 0 0 167.9c-13.53,-4.12 -27.8,-6.55 -42.55,-7.05l0 -29.17 -44.82 0 0 33.73c-34.59,8.4 -64.91,27.69 -87.15,54.03l-0.23 0 0 0.27c-24.14,28.72 -38.69,65.77 -38.69,106.23 0,24.41 5.3,47.58 14.8,68.43l-107.64 0 0 -394.37zm43.02 306.83l44.82 0 0 44.81 -44.82 0 0 -44.81zm0 -263.65l44.82 0 0 44.81 -44.82 0 0 -44.81zm88.51 0l44.81 0 0 44.81 -44.81 0 0 -44.81zm87.38 0l44.82 0 0 44.81 -44.82 0 0 -44.81zm-175.89 88.5l44.82 0 0 44.82 -44.82 0 0 -44.82zm88.51 0l44.81 0 0 44.82 -44.81 0 0 -44.82zm-88.51 87.76l44.82 0 0 44.82 -44.82 0 0 -44.82z"/>
  <path class="fil2" d="M306.44 386.33l0.29 0.29 77.77 -77.78c6.19,-6.18 16.31,-6.18 22.49,0 6.19,6.19 6.19,16.31 0,22.5l-77.74 77.74 0.18 0.18 40.98 0 -27.25 27.25 -64.54 0.62 0.09 -65.18 28.09 -28.14 -0.36 42.52z"/>
  <path class="fil3" d="M293.01 270.23l0.29 0.29 -77.77 77.77c-6.19,6.18 -6.19,16.31 0,22.49 6.18,6.19 16.3,6.19 22.49,0l77.74 -77.74 0.18 0.18 0 40.98 27.25 -27.25 0.62 -64.54 -65.18 0.09 -28.14 28.09 42.52 -0.36z"/>
 </g>
</svg>
