<?xml version="1.0" encoding="UTF-8"?>
<!DOCTYPE svg PUBLIC "-//W3C//DTD SVG 1.1//EN" "http://www.w3.org/Graphics/SVG/1.1/DTD/svg11.dtd">
<!-- Creator: CorelDRAW 2021 (64 Bit) -->
<svg xmlns="http://www.w3.org/2000/svg" xml:space="preserve" width="472px" height="472px" version="1.1" style="shape-rendering:geometricPrecision; text-rendering:geometricPrecision; image-rendering:optimizeQuality; fill-rule:evenodd; clip-rule:evenodd"
viewBox="0 0 472 472"
 xmlns:xlink="http://www.w3.org/1999/xlink"
 xmlns:xodm="http://www.corel.com/coreldraw/odm/2003">
 <defs>
  <style type="text/css">
   <![CDATA[
    .fil2 {fill:#14C854}
    .fil0 {fill:#6CA7E6}
    .fil1 {fill:#B2C7DE}
   ]]>
  </style>
 </defs>
 <g id="Camada_x0020_1">
  <metadata id="CorelCorpID_0Corel-Layer"/>
  <path class="fil0" d="M30.7 97.09l47.66 0 0 -26.59c0,-20.68 16.92,-37.6 37.6,-37.6l47.46 0c20.68,0 37.6,16.92 37.6,37.6l0 26.59 42.99 0 0 -26.98c0,-20.68 16.92,-37.6 37.59,-37.6l47.47 0c20.67,0 37.59,16.92 37.59,37.6l0 26.98 48.38 0 0 155.47c-15.45,-7.22 -32.69,-11.26 -50.87,-11.26 -66.44,0 -120.3,53.86 -120.3,120.3 0,9.56 1.12,18.86 3.23,27.78l-216.4 0 0 -292.29z"/>
  <g id="_2846649293456">
   <path class="fil1" d="M351.07 398.23l0.25 0.24 65.55 -65.56c5.22,-5.21 13.75,-5.21 18.96,0 5.22,5.22 5.22,13.75 0,18.96l-65.53 65.54 0.15 0.15 34.54 0 -22.97 22.97 -54.4 0.52 0.07 -54.94 23.68 -23.72 -0.3 35.84z"/>
   <path class="fil2" d="M339.75 300.37l0.24 0.24 -65.55 65.55c-5.22,5.22 -5.22,13.75 0,18.96 5.21,5.22 13.74,5.22 18.96,0l65.53 -65.53 0.15 0.15 0 34.55 22.97 -22.98 0.52 -54.4 -54.94 0.07 -23.72 23.68 35.84 -0.29z"/>
  </g>
 </g>
</svg>
